%TF.GenerationSoftware,KiCad,Pcbnew,9.0.7*%
%TF.CreationDate,2026-02-03T13:11:03-05:00*%
%TF.ProjectId,INS-1 Matrix Display Motherboard,494e532d-3120-44d6-9174-726978204469,rev?*%
%TF.SameCoordinates,Original*%
%TF.FileFunction,Soldermask,Top*%
%TF.FilePolarity,Negative*%
%FSLAX46Y46*%
G04 Gerber Fmt 4.6, Leading zero omitted, Abs format (unit mm)*
G04 Created by KiCad (PCBNEW 9.0.7) date 2026-02-03 13:11:03*
%MOMM*%
%LPD*%
G01*
G04 APERTURE LIST*
G04 Aperture macros list*
%AMRoundRect*
0 Rectangle with rounded corners*
0 $1 Rounding radius*
0 $2 $3 $4 $5 $6 $7 $8 $9 X,Y pos of 4 corners*
0 Add a 4 corners polygon primitive as box body*
4,1,4,$2,$3,$4,$5,$6,$7,$8,$9,$2,$3,0*
0 Add four circle primitives for the rounded corners*
1,1,$1+$1,$2,$3*
1,1,$1+$1,$4,$5*
1,1,$1+$1,$6,$7*
1,1,$1+$1,$8,$9*
0 Add four rect primitives between the rounded corners*
20,1,$1+$1,$2,$3,$4,$5,0*
20,1,$1+$1,$4,$5,$6,$7,0*
20,1,$1+$1,$6,$7,$8,$9,0*
20,1,$1+$1,$8,$9,$2,$3,0*%
G04 Aperture macros list end*
%ADD10RoundRect,0.150000X-0.825000X-0.150000X0.825000X-0.150000X0.825000X0.150000X-0.825000X0.150000X0*%
%ADD11RoundRect,0.249999X-0.850001X-0.850001X0.850001X-0.850001X0.850001X0.850001X-0.850001X0.850001X0*%
%ADD12C,2.200000*%
%ADD13C,0.850000*%
G04 APERTURE END LIST*
D10*
%TO.C,U64*%
X168855000Y38795000D03*
X168855000Y37525000D03*
X168855000Y36255000D03*
X168855000Y34985000D03*
X168855000Y33715000D03*
X168855000Y32445000D03*
X168855000Y31175000D03*
X168855000Y29905000D03*
X173805000Y29905000D03*
X173805000Y31175000D03*
X173805000Y32445000D03*
X173805000Y33715000D03*
X173805000Y34985000D03*
X173805000Y36255000D03*
X173805000Y37525000D03*
X173805000Y38795000D03*
%TD*%
%TO.C,U63*%
X160405000Y38795000D03*
X160405000Y37525000D03*
X160405000Y36255000D03*
X160405000Y34985000D03*
X160405000Y33715000D03*
X160405000Y32445000D03*
X160405000Y31175000D03*
X160405000Y29905000D03*
X165355000Y29905000D03*
X165355000Y31175000D03*
X165355000Y32445000D03*
X165355000Y33715000D03*
X165355000Y34985000D03*
X165355000Y36255000D03*
X165355000Y37525000D03*
X165355000Y38795000D03*
%TD*%
%TO.C,U62*%
X151955000Y38795000D03*
X151955000Y37525000D03*
X151955000Y36255000D03*
X151955000Y34985000D03*
X151955000Y33715000D03*
X151955000Y32445000D03*
X151955000Y31175000D03*
X151955000Y29905000D03*
X156905000Y29905000D03*
X156905000Y31175000D03*
X156905000Y32445000D03*
X156905000Y33715000D03*
X156905000Y34985000D03*
X156905000Y36255000D03*
X156905000Y37525000D03*
X156905000Y38795000D03*
%TD*%
%TO.C,U61*%
X143505000Y38795000D03*
X143505000Y37525000D03*
X143505000Y36255000D03*
X143505000Y34985000D03*
X143505000Y33715000D03*
X143505000Y32445000D03*
X143505000Y31175000D03*
X143505000Y29905000D03*
X148455000Y29905000D03*
X148455000Y31175000D03*
X148455000Y32445000D03*
X148455000Y33715000D03*
X148455000Y34985000D03*
X148455000Y36255000D03*
X148455000Y37525000D03*
X148455000Y38795000D03*
%TD*%
%TO.C,U60*%
X135055000Y38795000D03*
X135055000Y37525000D03*
X135055000Y36255000D03*
X135055000Y34985000D03*
X135055000Y33715000D03*
X135055000Y32445000D03*
X135055000Y31175000D03*
X135055000Y29905000D03*
X140005000Y29905000D03*
X140005000Y31175000D03*
X140005000Y32445000D03*
X140005000Y33715000D03*
X140005000Y34985000D03*
X140005000Y36255000D03*
X140005000Y37525000D03*
X140005000Y38795000D03*
%TD*%
%TO.C,U59*%
X126605000Y38795000D03*
X126605000Y37525000D03*
X126605000Y36255000D03*
X126605000Y34985000D03*
X126605000Y33715000D03*
X126605000Y32445000D03*
X126605000Y31175000D03*
X126605000Y29905000D03*
X131555000Y29905000D03*
X131555000Y31175000D03*
X131555000Y32445000D03*
X131555000Y33715000D03*
X131555000Y34985000D03*
X131555000Y36255000D03*
X131555000Y37525000D03*
X131555000Y38795000D03*
%TD*%
%TO.C,U58*%
X118155000Y38795000D03*
X118155000Y37525000D03*
X118155000Y36255000D03*
X118155000Y34985000D03*
X118155000Y33715000D03*
X118155000Y32445000D03*
X118155000Y31175000D03*
X118155000Y29905000D03*
X123105000Y29905000D03*
X123105000Y31175000D03*
X123105000Y32445000D03*
X123105000Y33715000D03*
X123105000Y34985000D03*
X123105000Y36255000D03*
X123105000Y37525000D03*
X123105000Y38795000D03*
%TD*%
%TO.C,U57*%
X109705000Y38795000D03*
X109705000Y37525000D03*
X109705000Y36255000D03*
X109705000Y34985000D03*
X109705000Y33715000D03*
X109705000Y32445000D03*
X109705000Y31175000D03*
X109705000Y29905000D03*
X114655000Y29905000D03*
X114655000Y31175000D03*
X114655000Y32445000D03*
X114655000Y33715000D03*
X114655000Y34985000D03*
X114655000Y36255000D03*
X114655000Y37525000D03*
X114655000Y38795000D03*
%TD*%
%TO.C,U56*%
X101255000Y38795000D03*
X101255000Y37525000D03*
X101255000Y36255000D03*
X101255000Y34985000D03*
X101255000Y33715000D03*
X101255000Y32445000D03*
X101255000Y31175000D03*
X101255000Y29905000D03*
X106205000Y29905000D03*
X106205000Y31175000D03*
X106205000Y32445000D03*
X106205000Y33715000D03*
X106205000Y34985000D03*
X106205000Y36255000D03*
X106205000Y37525000D03*
X106205000Y38795000D03*
%TD*%
%TO.C,U55*%
X185755000Y50420000D03*
X185755000Y49150000D03*
X185755000Y47880000D03*
X185755000Y46610000D03*
X185755000Y45340000D03*
X185755000Y44070000D03*
X185755000Y42800000D03*
X185755000Y41530000D03*
X190705000Y41530000D03*
X190705000Y42800000D03*
X190705000Y44070000D03*
X190705000Y45340000D03*
X190705000Y46610000D03*
X190705000Y47880000D03*
X190705000Y49150000D03*
X190705000Y50420000D03*
%TD*%
%TO.C,U54*%
X177305000Y50420000D03*
X177305000Y49150000D03*
X177305000Y47880000D03*
X177305000Y46610000D03*
X177305000Y45340000D03*
X177305000Y44070000D03*
X177305000Y42800000D03*
X177305000Y41530000D03*
X182255000Y41530000D03*
X182255000Y42800000D03*
X182255000Y44070000D03*
X182255000Y45340000D03*
X182255000Y46610000D03*
X182255000Y47880000D03*
X182255000Y49150000D03*
X182255000Y50420000D03*
%TD*%
%TO.C,U53*%
X168855000Y50420000D03*
X168855000Y49150000D03*
X168855000Y47880000D03*
X168855000Y46610000D03*
X168855000Y45340000D03*
X168855000Y44070000D03*
X168855000Y42800000D03*
X168855000Y41530000D03*
X173805000Y41530000D03*
X173805000Y42800000D03*
X173805000Y44070000D03*
X173805000Y45340000D03*
X173805000Y46610000D03*
X173805000Y47880000D03*
X173805000Y49150000D03*
X173805000Y50420000D03*
%TD*%
%TO.C,U52*%
X160405000Y50420000D03*
X160405000Y49150000D03*
X160405000Y47880000D03*
X160405000Y46610000D03*
X160405000Y45340000D03*
X160405000Y44070000D03*
X160405000Y42800000D03*
X160405000Y41530000D03*
X165355000Y41530000D03*
X165355000Y42800000D03*
X165355000Y44070000D03*
X165355000Y45340000D03*
X165355000Y46610000D03*
X165355000Y47880000D03*
X165355000Y49150000D03*
X165355000Y50420000D03*
%TD*%
%TO.C,U51*%
X151955000Y50420000D03*
X151955000Y49150000D03*
X151955000Y47880000D03*
X151955000Y46610000D03*
X151955000Y45340000D03*
X151955000Y44070000D03*
X151955000Y42800000D03*
X151955000Y41530000D03*
X156905000Y41530000D03*
X156905000Y42800000D03*
X156905000Y44070000D03*
X156905000Y45340000D03*
X156905000Y46610000D03*
X156905000Y47880000D03*
X156905000Y49150000D03*
X156905000Y50420000D03*
%TD*%
%TO.C,U50*%
X143505000Y50420000D03*
X143505000Y49150000D03*
X143505000Y47880000D03*
X143505000Y46610000D03*
X143505000Y45340000D03*
X143505000Y44070000D03*
X143505000Y42800000D03*
X143505000Y41530000D03*
X148455000Y41530000D03*
X148455000Y42800000D03*
X148455000Y44070000D03*
X148455000Y45340000D03*
X148455000Y46610000D03*
X148455000Y47880000D03*
X148455000Y49150000D03*
X148455000Y50420000D03*
%TD*%
%TO.C,U49*%
X135055000Y50420000D03*
X135055000Y49150000D03*
X135055000Y47880000D03*
X135055000Y46610000D03*
X135055000Y45340000D03*
X135055000Y44070000D03*
X135055000Y42800000D03*
X135055000Y41530000D03*
X140005000Y41530000D03*
X140005000Y42800000D03*
X140005000Y44070000D03*
X140005000Y45340000D03*
X140005000Y46610000D03*
X140005000Y47880000D03*
X140005000Y49150000D03*
X140005000Y50420000D03*
%TD*%
%TO.C,U48*%
X126605000Y50420000D03*
X126605000Y49150000D03*
X126605000Y47880000D03*
X126605000Y46610000D03*
X126605000Y45340000D03*
X126605000Y44070000D03*
X126605000Y42800000D03*
X126605000Y41530000D03*
X131555000Y41530000D03*
X131555000Y42800000D03*
X131555000Y44070000D03*
X131555000Y45340000D03*
X131555000Y46610000D03*
X131555000Y47880000D03*
X131555000Y49150000D03*
X131555000Y50420000D03*
%TD*%
%TO.C,U47*%
X118155000Y50420000D03*
X118155000Y49150000D03*
X118155000Y47880000D03*
X118155000Y46610000D03*
X118155000Y45340000D03*
X118155000Y44070000D03*
X118155000Y42800000D03*
X118155000Y41530000D03*
X123105000Y41530000D03*
X123105000Y42800000D03*
X123105000Y44070000D03*
X123105000Y45340000D03*
X123105000Y46610000D03*
X123105000Y47880000D03*
X123105000Y49150000D03*
X123105000Y50420000D03*
%TD*%
%TO.C,U46*%
X109705000Y50420000D03*
X109705000Y49150000D03*
X109705000Y47880000D03*
X109705000Y46610000D03*
X109705000Y45340000D03*
X109705000Y44070000D03*
X109705000Y42800000D03*
X109705000Y41530000D03*
X114655000Y41530000D03*
X114655000Y42800000D03*
X114655000Y44070000D03*
X114655000Y45340000D03*
X114655000Y46610000D03*
X114655000Y47880000D03*
X114655000Y49150000D03*
X114655000Y50420000D03*
%TD*%
%TO.C,U45*%
X101255000Y50420000D03*
X101255000Y49150000D03*
X101255000Y47880000D03*
X101255000Y46610000D03*
X101255000Y45340000D03*
X101255000Y44070000D03*
X101255000Y42800000D03*
X101255000Y41530000D03*
X106205000Y41530000D03*
X106205000Y42800000D03*
X106205000Y44070000D03*
X106205000Y45340000D03*
X106205000Y46610000D03*
X106205000Y47880000D03*
X106205000Y49150000D03*
X106205000Y50420000D03*
%TD*%
%TO.C,U44*%
X185755000Y62045000D03*
X185755000Y60775000D03*
X185755000Y59505000D03*
X185755000Y58235000D03*
X185755000Y56965000D03*
X185755000Y55695000D03*
X185755000Y54425000D03*
X185755000Y53155000D03*
X190705000Y53155000D03*
X190705000Y54425000D03*
X190705000Y55695000D03*
X190705000Y56965000D03*
X190705000Y58235000D03*
X190705000Y59505000D03*
X190705000Y60775000D03*
X190705000Y62045000D03*
%TD*%
%TO.C,U43*%
X177305000Y62045000D03*
X177305000Y60775000D03*
X177305000Y59505000D03*
X177305000Y58235000D03*
X177305000Y56965000D03*
X177305000Y55695000D03*
X177305000Y54425000D03*
X177305000Y53155000D03*
X182255000Y53155000D03*
X182255000Y54425000D03*
X182255000Y55695000D03*
X182255000Y56965000D03*
X182255000Y58235000D03*
X182255000Y59505000D03*
X182255000Y60775000D03*
X182255000Y62045000D03*
%TD*%
%TO.C,U42*%
X168855000Y62045000D03*
X168855000Y60775000D03*
X168855000Y59505000D03*
X168855000Y58235000D03*
X168855000Y56965000D03*
X168855000Y55695000D03*
X168855000Y54425000D03*
X168855000Y53155000D03*
X173805000Y53155000D03*
X173805000Y54425000D03*
X173805000Y55695000D03*
X173805000Y56965000D03*
X173805000Y58235000D03*
X173805000Y59505000D03*
X173805000Y60775000D03*
X173805000Y62045000D03*
%TD*%
%TO.C,U41*%
X160405000Y62045000D03*
X160405000Y60775000D03*
X160405000Y59505000D03*
X160405000Y58235000D03*
X160405000Y56965000D03*
X160405000Y55695000D03*
X160405000Y54425000D03*
X160405000Y53155000D03*
X165355000Y53155000D03*
X165355000Y54425000D03*
X165355000Y55695000D03*
X165355000Y56965000D03*
X165355000Y58235000D03*
X165355000Y59505000D03*
X165355000Y60775000D03*
X165355000Y62045000D03*
%TD*%
%TO.C,U40*%
X151955000Y62045000D03*
X151955000Y60775000D03*
X151955000Y59505000D03*
X151955000Y58235000D03*
X151955000Y56965000D03*
X151955000Y55695000D03*
X151955000Y54425000D03*
X151955000Y53155000D03*
X156905000Y53155000D03*
X156905000Y54425000D03*
X156905000Y55695000D03*
X156905000Y56965000D03*
X156905000Y58235000D03*
X156905000Y59505000D03*
X156905000Y60775000D03*
X156905000Y62045000D03*
%TD*%
%TO.C,U39*%
X143505000Y62045000D03*
X143505000Y60775000D03*
X143505000Y59505000D03*
X143505000Y58235000D03*
X143505000Y56965000D03*
X143505000Y55695000D03*
X143505000Y54425000D03*
X143505000Y53155000D03*
X148455000Y53155000D03*
X148455000Y54425000D03*
X148455000Y55695000D03*
X148455000Y56965000D03*
X148455000Y58235000D03*
X148455000Y59505000D03*
X148455000Y60775000D03*
X148455000Y62045000D03*
%TD*%
%TO.C,U38*%
X135055000Y62045000D03*
X135055000Y60775000D03*
X135055000Y59505000D03*
X135055000Y58235000D03*
X135055000Y56965000D03*
X135055000Y55695000D03*
X135055000Y54425000D03*
X135055000Y53155000D03*
X140005000Y53155000D03*
X140005000Y54425000D03*
X140005000Y55695000D03*
X140005000Y56965000D03*
X140005000Y58235000D03*
X140005000Y59505000D03*
X140005000Y60775000D03*
X140005000Y62045000D03*
%TD*%
%TO.C,U37*%
X126605000Y62045000D03*
X126605000Y60775000D03*
X126605000Y59505000D03*
X126605000Y58235000D03*
X126605000Y56965000D03*
X126605000Y55695000D03*
X126605000Y54425000D03*
X126605000Y53155000D03*
X131555000Y53155000D03*
X131555000Y54425000D03*
X131555000Y55695000D03*
X131555000Y56965000D03*
X131555000Y58235000D03*
X131555000Y59505000D03*
X131555000Y60775000D03*
X131555000Y62045000D03*
%TD*%
%TO.C,U36*%
X118155000Y62045000D03*
X118155000Y60775000D03*
X118155000Y59505000D03*
X118155000Y58235000D03*
X118155000Y56965000D03*
X118155000Y55695000D03*
X118155000Y54425000D03*
X118155000Y53155000D03*
X123105000Y53155000D03*
X123105000Y54425000D03*
X123105000Y55695000D03*
X123105000Y56965000D03*
X123105000Y58235000D03*
X123105000Y59505000D03*
X123105000Y60775000D03*
X123105000Y62045000D03*
%TD*%
%TO.C,U35*%
X109705000Y62045000D03*
X109705000Y60775000D03*
X109705000Y59505000D03*
X109705000Y58235000D03*
X109705000Y56965000D03*
X109705000Y55695000D03*
X109705000Y54425000D03*
X109705000Y53155000D03*
X114655000Y53155000D03*
X114655000Y54425000D03*
X114655000Y55695000D03*
X114655000Y56965000D03*
X114655000Y58235000D03*
X114655000Y59505000D03*
X114655000Y60775000D03*
X114655000Y62045000D03*
%TD*%
%TO.C,U34*%
X101255000Y62045000D03*
X101255000Y60775000D03*
X101255000Y59505000D03*
X101255000Y58235000D03*
X101255000Y56965000D03*
X101255000Y55695000D03*
X101255000Y54425000D03*
X101255000Y53155000D03*
X106205000Y53155000D03*
X106205000Y54425000D03*
X106205000Y55695000D03*
X106205000Y56965000D03*
X106205000Y58235000D03*
X106205000Y59505000D03*
X106205000Y60775000D03*
X106205000Y62045000D03*
%TD*%
%TO.C,U33*%
X185755000Y73670000D03*
X185755000Y72400000D03*
X185755000Y71130000D03*
X185755000Y69860000D03*
X185755000Y68590000D03*
X185755000Y67320000D03*
X185755000Y66050000D03*
X185755000Y64780000D03*
X190705000Y64780000D03*
X190705000Y66050000D03*
X190705000Y67320000D03*
X190705000Y68590000D03*
X190705000Y69860000D03*
X190705000Y71130000D03*
X190705000Y72400000D03*
X190705000Y73670000D03*
%TD*%
%TO.C,U32*%
X177305000Y73670000D03*
X177305000Y72400000D03*
X177305000Y71130000D03*
X177305000Y69860000D03*
X177305000Y68590000D03*
X177305000Y67320000D03*
X177305000Y66050000D03*
X177305000Y64780000D03*
X182255000Y64780000D03*
X182255000Y66050000D03*
X182255000Y67320000D03*
X182255000Y68590000D03*
X182255000Y69860000D03*
X182255000Y71130000D03*
X182255000Y72400000D03*
X182255000Y73670000D03*
%TD*%
%TO.C,U31*%
X168855000Y73670000D03*
X168855000Y72400000D03*
X168855000Y71130000D03*
X168855000Y69860000D03*
X168855000Y68590000D03*
X168855000Y67320000D03*
X168855000Y66050000D03*
X168855000Y64780000D03*
X173805000Y64780000D03*
X173805000Y66050000D03*
X173805000Y67320000D03*
X173805000Y68590000D03*
X173805000Y69860000D03*
X173805000Y71130000D03*
X173805000Y72400000D03*
X173805000Y73670000D03*
%TD*%
%TO.C,U30*%
X160405000Y73670000D03*
X160405000Y72400000D03*
X160405000Y71130000D03*
X160405000Y69860000D03*
X160405000Y68590000D03*
X160405000Y67320000D03*
X160405000Y66050000D03*
X160405000Y64780000D03*
X165355000Y64780000D03*
X165355000Y66050000D03*
X165355000Y67320000D03*
X165355000Y68590000D03*
X165355000Y69860000D03*
X165355000Y71130000D03*
X165355000Y72400000D03*
X165355000Y73670000D03*
%TD*%
%TO.C,U29*%
X151955000Y73670000D03*
X151955000Y72400000D03*
X151955000Y71130000D03*
X151955000Y69860000D03*
X151955000Y68590000D03*
X151955000Y67320000D03*
X151955000Y66050000D03*
X151955000Y64780000D03*
X156905000Y64780000D03*
X156905000Y66050000D03*
X156905000Y67320000D03*
X156905000Y68590000D03*
X156905000Y69860000D03*
X156905000Y71130000D03*
X156905000Y72400000D03*
X156905000Y73670000D03*
%TD*%
%TO.C,U28*%
X143505000Y73670000D03*
X143505000Y72400000D03*
X143505000Y71130000D03*
X143505000Y69860000D03*
X143505000Y68590000D03*
X143505000Y67320000D03*
X143505000Y66050000D03*
X143505000Y64780000D03*
X148455000Y64780000D03*
X148455000Y66050000D03*
X148455000Y67320000D03*
X148455000Y68590000D03*
X148455000Y69860000D03*
X148455000Y71130000D03*
X148455000Y72400000D03*
X148455000Y73670000D03*
%TD*%
%TO.C,U27*%
X135055000Y73670000D03*
X135055000Y72400000D03*
X135055000Y71130000D03*
X135055000Y69860000D03*
X135055000Y68590000D03*
X135055000Y67320000D03*
X135055000Y66050000D03*
X135055000Y64780000D03*
X140005000Y64780000D03*
X140005000Y66050000D03*
X140005000Y67320000D03*
X140005000Y68590000D03*
X140005000Y69860000D03*
X140005000Y71130000D03*
X140005000Y72400000D03*
X140005000Y73670000D03*
%TD*%
%TO.C,U26*%
X126605000Y73670000D03*
X126605000Y72400000D03*
X126605000Y71130000D03*
X126605000Y69860000D03*
X126605000Y68590000D03*
X126605000Y67320000D03*
X126605000Y66050000D03*
X126605000Y64780000D03*
X131555000Y64780000D03*
X131555000Y66050000D03*
X131555000Y67320000D03*
X131555000Y68590000D03*
X131555000Y69860000D03*
X131555000Y71130000D03*
X131555000Y72400000D03*
X131555000Y73670000D03*
%TD*%
%TO.C,U25*%
X118155000Y73670000D03*
X118155000Y72400000D03*
X118155000Y71130000D03*
X118155000Y69860000D03*
X118155000Y68590000D03*
X118155000Y67320000D03*
X118155000Y66050000D03*
X118155000Y64780000D03*
X123105000Y64780000D03*
X123105000Y66050000D03*
X123105000Y67320000D03*
X123105000Y68590000D03*
X123105000Y69860000D03*
X123105000Y71130000D03*
X123105000Y72400000D03*
X123105000Y73670000D03*
%TD*%
%TO.C,U24*%
X109705000Y73670000D03*
X109705000Y72400000D03*
X109705000Y71130000D03*
X109705000Y69860000D03*
X109705000Y68590000D03*
X109705000Y67320000D03*
X109705000Y66050000D03*
X109705000Y64780000D03*
X114655000Y64780000D03*
X114655000Y66050000D03*
X114655000Y67320000D03*
X114655000Y68590000D03*
X114655000Y69860000D03*
X114655000Y71130000D03*
X114655000Y72400000D03*
X114655000Y73670000D03*
%TD*%
%TO.C,U23*%
X101255000Y73670000D03*
X101255000Y72400000D03*
X101255000Y71130000D03*
X101255000Y69860000D03*
X101255000Y68590000D03*
X101255000Y67320000D03*
X101255000Y66050000D03*
X101255000Y64780000D03*
X106205000Y64780000D03*
X106205000Y66050000D03*
X106205000Y67320000D03*
X106205000Y68590000D03*
X106205000Y69860000D03*
X106205000Y71130000D03*
X106205000Y72400000D03*
X106205000Y73670000D03*
%TD*%
%TO.C,U22*%
X185755000Y85295000D03*
X185755000Y84025000D03*
X185755000Y82755000D03*
X185755000Y81485000D03*
X185755000Y80215000D03*
X185755000Y78945000D03*
X185755000Y77675000D03*
X185755000Y76405000D03*
X190705000Y76405000D03*
X190705000Y77675000D03*
X190705000Y78945000D03*
X190705000Y80215000D03*
X190705000Y81485000D03*
X190705000Y82755000D03*
X190705000Y84025000D03*
X190705000Y85295000D03*
%TD*%
%TO.C,U21*%
X177305000Y85295000D03*
X177305000Y84025000D03*
X177305000Y82755000D03*
X177305000Y81485000D03*
X177305000Y80215000D03*
X177305000Y78945000D03*
X177305000Y77675000D03*
X177305000Y76405000D03*
X182255000Y76405000D03*
X182255000Y77675000D03*
X182255000Y78945000D03*
X182255000Y80215000D03*
X182255000Y81485000D03*
X182255000Y82755000D03*
X182255000Y84025000D03*
X182255000Y85295000D03*
%TD*%
%TO.C,U20*%
X168855000Y85295000D03*
X168855000Y84025000D03*
X168855000Y82755000D03*
X168855000Y81485000D03*
X168855000Y80215000D03*
X168855000Y78945000D03*
X168855000Y77675000D03*
X168855000Y76405000D03*
X173805000Y76405000D03*
X173805000Y77675000D03*
X173805000Y78945000D03*
X173805000Y80215000D03*
X173805000Y81485000D03*
X173805000Y82755000D03*
X173805000Y84025000D03*
X173805000Y85295000D03*
%TD*%
%TO.C,U19*%
X160405000Y85295000D03*
X160405000Y84025000D03*
X160405000Y82755000D03*
X160405000Y81485000D03*
X160405000Y80215000D03*
X160405000Y78945000D03*
X160405000Y77675000D03*
X160405000Y76405000D03*
X165355000Y76405000D03*
X165355000Y77675000D03*
X165355000Y78945000D03*
X165355000Y80215000D03*
X165355000Y81485000D03*
X165355000Y82755000D03*
X165355000Y84025000D03*
X165355000Y85295000D03*
%TD*%
%TO.C,U18*%
X151955000Y85295000D03*
X151955000Y84025000D03*
X151955000Y82755000D03*
X151955000Y81485000D03*
X151955000Y80215000D03*
X151955000Y78945000D03*
X151955000Y77675000D03*
X151955000Y76405000D03*
X156905000Y76405000D03*
X156905000Y77675000D03*
X156905000Y78945000D03*
X156905000Y80215000D03*
X156905000Y81485000D03*
X156905000Y82755000D03*
X156905000Y84025000D03*
X156905000Y85295000D03*
%TD*%
%TO.C,U17*%
X143505000Y85295000D03*
X143505000Y84025000D03*
X143505000Y82755000D03*
X143505000Y81485000D03*
X143505000Y80215000D03*
X143505000Y78945000D03*
X143505000Y77675000D03*
X143505000Y76405000D03*
X148455000Y76405000D03*
X148455000Y77675000D03*
X148455000Y78945000D03*
X148455000Y80215000D03*
X148455000Y81485000D03*
X148455000Y82755000D03*
X148455000Y84025000D03*
X148455000Y85295000D03*
%TD*%
%TO.C,U16*%
X135055000Y85295000D03*
X135055000Y84025000D03*
X135055000Y82755000D03*
X135055000Y81485000D03*
X135055000Y80215000D03*
X135055000Y78945000D03*
X135055000Y77675000D03*
X135055000Y76405000D03*
X140005000Y76405000D03*
X140005000Y77675000D03*
X140005000Y78945000D03*
X140005000Y80215000D03*
X140005000Y81485000D03*
X140005000Y82755000D03*
X140005000Y84025000D03*
X140005000Y85295000D03*
%TD*%
%TO.C,U15*%
X126605000Y85295000D03*
X126605000Y84025000D03*
X126605000Y82755000D03*
X126605000Y81485000D03*
X126605000Y80215000D03*
X126605000Y78945000D03*
X126605000Y77675000D03*
X126605000Y76405000D03*
X131555000Y76405000D03*
X131555000Y77675000D03*
X131555000Y78945000D03*
X131555000Y80215000D03*
X131555000Y81485000D03*
X131555000Y82755000D03*
X131555000Y84025000D03*
X131555000Y85295000D03*
%TD*%
%TO.C,U14*%
X118155000Y85295000D03*
X118155000Y84025000D03*
X118155000Y82755000D03*
X118155000Y81485000D03*
X118155000Y80215000D03*
X118155000Y78945000D03*
X118155000Y77675000D03*
X118155000Y76405000D03*
X123105000Y76405000D03*
X123105000Y77675000D03*
X123105000Y78945000D03*
X123105000Y80215000D03*
X123105000Y81485000D03*
X123105000Y82755000D03*
X123105000Y84025000D03*
X123105000Y85295000D03*
%TD*%
%TO.C,U13*%
X109705000Y85295000D03*
X109705000Y84025000D03*
X109705000Y82755000D03*
X109705000Y81485000D03*
X109705000Y80215000D03*
X109705000Y78945000D03*
X109705000Y77675000D03*
X109705000Y76405000D03*
X114655000Y76405000D03*
X114655000Y77675000D03*
X114655000Y78945000D03*
X114655000Y80215000D03*
X114655000Y81485000D03*
X114655000Y82755000D03*
X114655000Y84025000D03*
X114655000Y85295000D03*
%TD*%
%TO.C,U12*%
X101255000Y85295000D03*
X101255000Y84025000D03*
X101255000Y82755000D03*
X101255000Y81485000D03*
X101255000Y80215000D03*
X101255000Y78945000D03*
X101255000Y77675000D03*
X101255000Y76405000D03*
X106205000Y76405000D03*
X106205000Y77675000D03*
X106205000Y78945000D03*
X106205000Y80215000D03*
X106205000Y81485000D03*
X106205000Y82755000D03*
X106205000Y84025000D03*
X106205000Y85295000D03*
%TD*%
%TO.C,U11*%
X185755000Y96920000D03*
X185755000Y95650000D03*
X185755000Y94380000D03*
X185755000Y93110000D03*
X185755000Y91840000D03*
X185755000Y90570000D03*
X185755000Y89300000D03*
X185755000Y88030000D03*
X190705000Y88030000D03*
X190705000Y89300000D03*
X190705000Y90570000D03*
X190705000Y91840000D03*
X190705000Y93110000D03*
X190705000Y94380000D03*
X190705000Y95650000D03*
X190705000Y96920000D03*
%TD*%
%TO.C,U10*%
X177305000Y96920000D03*
X177305000Y95650000D03*
X177305000Y94380000D03*
X177305000Y93110000D03*
X177305000Y91840000D03*
X177305000Y90570000D03*
X177305000Y89300000D03*
X177305000Y88030000D03*
X182255000Y88030000D03*
X182255000Y89300000D03*
X182255000Y90570000D03*
X182255000Y91840000D03*
X182255000Y93110000D03*
X182255000Y94380000D03*
X182255000Y95650000D03*
X182255000Y96920000D03*
%TD*%
%TO.C,U9*%
X168855000Y96920000D03*
X168855000Y95650000D03*
X168855000Y94380000D03*
X168855000Y93110000D03*
X168855000Y91840000D03*
X168855000Y90570000D03*
X168855000Y89300000D03*
X168855000Y88030000D03*
X173805000Y88030000D03*
X173805000Y89300000D03*
X173805000Y90570000D03*
X173805000Y91840000D03*
X173805000Y93110000D03*
X173805000Y94380000D03*
X173805000Y95650000D03*
X173805000Y96920000D03*
%TD*%
%TO.C,U8*%
X160405000Y96920000D03*
X160405000Y95650000D03*
X160405000Y94380000D03*
X160405000Y93110000D03*
X160405000Y91840000D03*
X160405000Y90570000D03*
X160405000Y89300000D03*
X160405000Y88030000D03*
X165355000Y88030000D03*
X165355000Y89300000D03*
X165355000Y90570000D03*
X165355000Y91840000D03*
X165355000Y93110000D03*
X165355000Y94380000D03*
X165355000Y95650000D03*
X165355000Y96920000D03*
%TD*%
%TO.C,U7*%
X151955000Y96920000D03*
X151955000Y95650000D03*
X151955000Y94380000D03*
X151955000Y93110000D03*
X151955000Y91840000D03*
X151955000Y90570000D03*
X151955000Y89300000D03*
X151955000Y88030000D03*
X156905000Y88030000D03*
X156905000Y89300000D03*
X156905000Y90570000D03*
X156905000Y91840000D03*
X156905000Y93110000D03*
X156905000Y94380000D03*
X156905000Y95650000D03*
X156905000Y96920000D03*
%TD*%
%TO.C,U6*%
X143505000Y96920000D03*
X143505000Y95650000D03*
X143505000Y94380000D03*
X143505000Y93110000D03*
X143505000Y91840000D03*
X143505000Y90570000D03*
X143505000Y89300000D03*
X143505000Y88030000D03*
X148455000Y88030000D03*
X148455000Y89300000D03*
X148455000Y90570000D03*
X148455000Y91840000D03*
X148455000Y93110000D03*
X148455000Y94380000D03*
X148455000Y95650000D03*
X148455000Y96920000D03*
%TD*%
%TO.C,U5*%
X135055000Y96920000D03*
X135055000Y95650000D03*
X135055000Y94380000D03*
X135055000Y93110000D03*
X135055000Y91840000D03*
X135055000Y90570000D03*
X135055000Y89300000D03*
X135055000Y88030000D03*
X140005000Y88030000D03*
X140005000Y89300000D03*
X140005000Y90570000D03*
X140005000Y91840000D03*
X140005000Y93110000D03*
X140005000Y94380000D03*
X140005000Y95650000D03*
X140005000Y96920000D03*
%TD*%
%TO.C,U4*%
X126605000Y96920000D03*
X126605000Y95650000D03*
X126605000Y94380000D03*
X126605000Y93110000D03*
X126605000Y91840000D03*
X126605000Y90570000D03*
X126605000Y89300000D03*
X126605000Y88030000D03*
X131555000Y88030000D03*
X131555000Y89300000D03*
X131555000Y90570000D03*
X131555000Y91840000D03*
X131555000Y93110000D03*
X131555000Y94380000D03*
X131555000Y95650000D03*
X131555000Y96920000D03*
%TD*%
%TO.C,U3*%
X118155000Y96920000D03*
X118155000Y95650000D03*
X118155000Y94380000D03*
X118155000Y93110000D03*
X118155000Y91840000D03*
X118155000Y90570000D03*
X118155000Y89300000D03*
X118155000Y88030000D03*
X123105000Y88030000D03*
X123105000Y89300000D03*
X123105000Y90570000D03*
X123105000Y91840000D03*
X123105000Y93110000D03*
X123105000Y94380000D03*
X123105000Y95650000D03*
X123105000Y96920000D03*
%TD*%
%TO.C,U2*%
X109705000Y96920000D03*
X109705000Y95650000D03*
X109705000Y94380000D03*
X109705000Y93110000D03*
X109705000Y91840000D03*
X109705000Y90570000D03*
X109705000Y89300000D03*
X109705000Y88030000D03*
X114655000Y88030000D03*
X114655000Y89300000D03*
X114655000Y90570000D03*
X114655000Y91840000D03*
X114655000Y93110000D03*
X114655000Y94380000D03*
X114655000Y95650000D03*
X114655000Y96920000D03*
%TD*%
%TO.C,U1*%
X101255000Y96920000D03*
X101255000Y95650000D03*
X101255000Y94380000D03*
X101255000Y93110000D03*
X101255000Y91840000D03*
X101255000Y90570000D03*
X101255000Y89300000D03*
X101255000Y88030000D03*
X106205000Y88030000D03*
X106205000Y89300000D03*
X106205000Y90570000D03*
X106205000Y91840000D03*
X106205000Y93110000D03*
X106205000Y94380000D03*
X106205000Y95650000D03*
X106205000Y96920000D03*
%TD*%
D11*
%TO.C,D512*%
X268300000Y134500000D03*
D12*
X278460000Y134500000D03*
%TD*%
D11*
%TO.C,D511*%
X268300000Y138750000D03*
D12*
X278460000Y138750000D03*
%TD*%
D11*
%TO.C,D510*%
X268300000Y143000000D03*
D12*
X278460000Y143000000D03*
%TD*%
D11*
%TO.C,D509*%
X268300000Y147250000D03*
D12*
X278460000Y147250000D03*
%TD*%
D11*
%TO.C,D508*%
X268300000Y151500000D03*
D12*
X278460000Y151500000D03*
%TD*%
D11*
%TO.C,D507*%
X268300000Y155750000D03*
D12*
X278460000Y155750000D03*
%TD*%
D11*
%TO.C,D506*%
X268300000Y160000000D03*
D12*
X278460000Y160000000D03*
%TD*%
D11*
%TO.C,D505*%
X268300000Y164250000D03*
D12*
X278460000Y164250000D03*
%TD*%
D11*
%TO.C,D504*%
X268300000Y168500000D03*
D12*
X278460000Y168500000D03*
%TD*%
D11*
%TO.C,D503*%
X268300000Y172750000D03*
D12*
X278460000Y172750000D03*
%TD*%
D11*
%TO.C,D502*%
X268300000Y177000000D03*
D12*
X278460000Y177000000D03*
%TD*%
D11*
%TO.C,D501*%
X268300000Y181250000D03*
D12*
X278460000Y181250000D03*
%TD*%
D11*
%TO.C,D500*%
X268300000Y185500000D03*
D12*
X278460000Y185500000D03*
%TD*%
D11*
%TO.C,D499*%
X268300000Y189750000D03*
D12*
X278460000Y189750000D03*
%TD*%
D11*
%TO.C,D498*%
X268300000Y194000000D03*
D12*
X278460000Y194000000D03*
%TD*%
D11*
%TO.C,D497*%
X268300000Y198250000D03*
D12*
X278460000Y198250000D03*
%TD*%
D11*
%TO.C,D496*%
X268300000Y202500000D03*
D12*
X278460000Y202500000D03*
%TD*%
D11*
%TO.C,D495*%
X268300000Y206750000D03*
D12*
X278460000Y206750000D03*
%TD*%
D11*
%TO.C,D494*%
X268300000Y211000000D03*
D12*
X278460000Y211000000D03*
%TD*%
D11*
%TO.C,D493*%
X268300000Y215250000D03*
D12*
X278460000Y215250000D03*
%TD*%
D11*
%TO.C,D492*%
X268300000Y219500000D03*
D12*
X278460000Y219500000D03*
%TD*%
D11*
%TO.C,D491*%
X268300000Y223750000D03*
D12*
X278460000Y223750000D03*
%TD*%
D11*
%TO.C,D490*%
X268300000Y228000000D03*
D12*
X278460000Y228000000D03*
%TD*%
D11*
%TO.C,D489*%
X268300000Y232250000D03*
D12*
X278460000Y232250000D03*
%TD*%
D11*
%TO.C,D488*%
X268300000Y236500000D03*
D12*
X278460000Y236500000D03*
%TD*%
D11*
%TO.C,D487*%
X268300000Y240750000D03*
D12*
X278460000Y240750000D03*
%TD*%
D11*
%TO.C,D486*%
X268300000Y245000000D03*
D12*
X278460000Y245000000D03*
%TD*%
D11*
%TO.C,D485*%
X268300000Y249250000D03*
D12*
X278460000Y249250000D03*
%TD*%
D11*
%TO.C,D484*%
X268300000Y253500000D03*
D12*
X278460000Y253500000D03*
%TD*%
D11*
%TO.C,D483*%
X268300000Y257750000D03*
D12*
X278460000Y257750000D03*
%TD*%
D11*
%TO.C,D482*%
X268300000Y262000000D03*
D12*
X278460000Y262000000D03*
%TD*%
D11*
%TO.C,D481*%
X268300000Y266250000D03*
D12*
X278460000Y266250000D03*
%TD*%
D11*
%TO.C,D480*%
X254390000Y100500000D03*
D12*
X264550000Y100500000D03*
%TD*%
D11*
%TO.C,D479*%
X254390000Y104750000D03*
D12*
X264550000Y104750000D03*
%TD*%
D11*
%TO.C,D478*%
X254390000Y109000000D03*
D12*
X264550000Y109000000D03*
%TD*%
D11*
%TO.C,D477*%
X254390000Y113250000D03*
D12*
X264550000Y113250000D03*
%TD*%
D11*
%TO.C,D476*%
X254390000Y117500000D03*
D12*
X264550000Y117500000D03*
%TD*%
D11*
%TO.C,D475*%
X254390000Y121750000D03*
D12*
X264550000Y121750000D03*
%TD*%
D11*
%TO.C,D474*%
X254390000Y126000000D03*
D12*
X264550000Y126000000D03*
%TD*%
D11*
%TO.C,D473*%
X254390000Y130250000D03*
D12*
X264550000Y130250000D03*
%TD*%
D11*
%TO.C,D472*%
X254390000Y134500000D03*
D12*
X264550000Y134500000D03*
%TD*%
D11*
%TO.C,D471*%
X254390000Y138750000D03*
D12*
X264550000Y138750000D03*
%TD*%
D11*
%TO.C,D470*%
X254390000Y143000000D03*
D12*
X264550000Y143000000D03*
%TD*%
D11*
%TO.C,D469*%
X254390000Y147250000D03*
D12*
X264550000Y147250000D03*
%TD*%
D11*
%TO.C,D468*%
X254390000Y151500000D03*
D12*
X264550000Y151500000D03*
%TD*%
D11*
%TO.C,D467*%
X254390000Y155750000D03*
D12*
X264550000Y155750000D03*
%TD*%
D11*
%TO.C,D466*%
X254390000Y160000000D03*
D12*
X264550000Y160000000D03*
%TD*%
D11*
%TO.C,D465*%
X254390000Y164250000D03*
D12*
X264550000Y164250000D03*
%TD*%
D11*
%TO.C,D464*%
X254390000Y168500000D03*
D12*
X264550000Y168500000D03*
%TD*%
D11*
%TO.C,D463*%
X254390000Y172750000D03*
D12*
X264550000Y172750000D03*
%TD*%
D11*
%TO.C,D462*%
X254390000Y177000000D03*
D12*
X264550000Y177000000D03*
%TD*%
D11*
%TO.C,D461*%
X254390000Y181250000D03*
D12*
X264550000Y181250000D03*
%TD*%
D11*
%TO.C,D460*%
X254390000Y185500000D03*
D12*
X264550000Y185500000D03*
%TD*%
D11*
%TO.C,D459*%
X254390000Y189750000D03*
D12*
X264550000Y189750000D03*
%TD*%
D11*
%TO.C,D458*%
X254390000Y194000000D03*
D12*
X264550000Y194000000D03*
%TD*%
D11*
%TO.C,D457*%
X254390000Y198250000D03*
D12*
X264550000Y198250000D03*
%TD*%
D11*
%TO.C,D456*%
X254390000Y202500000D03*
D12*
X264550000Y202500000D03*
%TD*%
D11*
%TO.C,D455*%
X254390000Y206750000D03*
D12*
X264550000Y206750000D03*
%TD*%
D11*
%TO.C,D454*%
X254390000Y211000000D03*
D12*
X264550000Y211000000D03*
%TD*%
D11*
%TO.C,D453*%
X254390000Y215250000D03*
D12*
X264550000Y215250000D03*
%TD*%
D11*
%TO.C,D452*%
X254390000Y219500000D03*
D12*
X264550000Y219500000D03*
%TD*%
D11*
%TO.C,D451*%
X254390000Y223750000D03*
D12*
X264550000Y223750000D03*
%TD*%
D11*
%TO.C,D450*%
X254390000Y228000000D03*
D12*
X264550000Y228000000D03*
%TD*%
D11*
%TO.C,D449*%
X254390000Y232250000D03*
D12*
X264550000Y232250000D03*
%TD*%
D11*
%TO.C,D448*%
X254390000Y236500000D03*
D12*
X264550000Y236500000D03*
%TD*%
D11*
%TO.C,D447*%
X254390000Y240750000D03*
D12*
X264550000Y240750000D03*
%TD*%
D11*
%TO.C,D446*%
X254390000Y245000000D03*
D12*
X264550000Y245000000D03*
%TD*%
D11*
%TO.C,D445*%
X254390000Y249250000D03*
D12*
X264550000Y249250000D03*
%TD*%
D11*
%TO.C,D444*%
X254390000Y253500000D03*
D12*
X264550000Y253500000D03*
%TD*%
D11*
%TO.C,D443*%
X254390000Y257750000D03*
D12*
X264550000Y257750000D03*
%TD*%
D11*
%TO.C,D442*%
X254390000Y262000000D03*
D12*
X264550000Y262000000D03*
%TD*%
D11*
%TO.C,D441*%
X254390000Y266250000D03*
D12*
X264550000Y266250000D03*
%TD*%
D11*
%TO.C,D440*%
X240480000Y100500000D03*
D12*
X250640000Y100500000D03*
%TD*%
D11*
%TO.C,D439*%
X240480000Y104750000D03*
D12*
X250640000Y104750000D03*
%TD*%
D11*
%TO.C,D438*%
X240480000Y109000000D03*
D12*
X250640000Y109000000D03*
%TD*%
D11*
%TO.C,D437*%
X240480000Y113250000D03*
D12*
X250640000Y113250000D03*
%TD*%
D11*
%TO.C,D436*%
X240480000Y117500000D03*
D12*
X250640000Y117500000D03*
%TD*%
D11*
%TO.C,D435*%
X240480000Y121750000D03*
D12*
X250640000Y121750000D03*
%TD*%
D11*
%TO.C,D434*%
X240480000Y126000000D03*
D12*
X250640000Y126000000D03*
%TD*%
D11*
%TO.C,D433*%
X240480000Y130250000D03*
D12*
X250640000Y130250000D03*
%TD*%
D11*
%TO.C,D432*%
X240480000Y134500000D03*
D12*
X250640000Y134500000D03*
%TD*%
D11*
%TO.C,D431*%
X240480000Y138750000D03*
D12*
X250640000Y138750000D03*
%TD*%
D11*
%TO.C,D430*%
X240480000Y143000000D03*
D12*
X250640000Y143000000D03*
%TD*%
D11*
%TO.C,D429*%
X240480000Y147250000D03*
D12*
X250640000Y147250000D03*
%TD*%
D11*
%TO.C,D428*%
X240480000Y151500000D03*
D12*
X250640000Y151500000D03*
%TD*%
D11*
%TO.C,D427*%
X240480000Y155750000D03*
D12*
X250640000Y155750000D03*
%TD*%
D11*
%TO.C,D426*%
X240480000Y160000000D03*
D12*
X250640000Y160000000D03*
%TD*%
D11*
%TO.C,D425*%
X240480000Y164250000D03*
D12*
X250640000Y164250000D03*
%TD*%
D11*
%TO.C,D424*%
X240480000Y168500000D03*
D12*
X250640000Y168500000D03*
%TD*%
D11*
%TO.C,D423*%
X240480000Y172750000D03*
D12*
X250640000Y172750000D03*
%TD*%
D11*
%TO.C,D422*%
X240480000Y177000000D03*
D12*
X250640000Y177000000D03*
%TD*%
D11*
%TO.C,D421*%
X240480000Y181250000D03*
D12*
X250640000Y181250000D03*
%TD*%
D11*
%TO.C,D420*%
X240480000Y185500000D03*
D12*
X250640000Y185500000D03*
%TD*%
D11*
%TO.C,D419*%
X240480000Y189750000D03*
D12*
X250640000Y189750000D03*
%TD*%
D11*
%TO.C,D418*%
X240480000Y194000000D03*
D12*
X250640000Y194000000D03*
%TD*%
D11*
%TO.C,D417*%
X240480000Y198250000D03*
D12*
X250640000Y198250000D03*
%TD*%
D11*
%TO.C,D416*%
X240480000Y202500000D03*
D12*
X250640000Y202500000D03*
%TD*%
D11*
%TO.C,D415*%
X240480000Y206750000D03*
D12*
X250640000Y206750000D03*
%TD*%
D11*
%TO.C,D414*%
X240480000Y211000000D03*
D12*
X250640000Y211000000D03*
%TD*%
D11*
%TO.C,D413*%
X240480000Y215250000D03*
D12*
X250640000Y215250000D03*
%TD*%
D11*
%TO.C,D412*%
X240480000Y219500000D03*
D12*
X250640000Y219500000D03*
%TD*%
D11*
%TO.C,D411*%
X240480000Y223750000D03*
D12*
X250640000Y223750000D03*
%TD*%
D11*
%TO.C,D410*%
X240480000Y228000000D03*
D12*
X250640000Y228000000D03*
%TD*%
D11*
%TO.C,D409*%
X240480000Y232250000D03*
D12*
X250640000Y232250000D03*
%TD*%
D11*
%TO.C,D408*%
X240480000Y236500000D03*
D12*
X250640000Y236500000D03*
%TD*%
D11*
%TO.C,D407*%
X240480000Y240750000D03*
D12*
X250640000Y240750000D03*
%TD*%
D11*
%TO.C,D406*%
X240480000Y245000000D03*
D12*
X250640000Y245000000D03*
%TD*%
D11*
%TO.C,D405*%
X240480000Y249250000D03*
D12*
X250640000Y249250000D03*
%TD*%
D11*
%TO.C,D404*%
X240480000Y253500000D03*
D12*
X250640000Y253500000D03*
%TD*%
D11*
%TO.C,D403*%
X240480000Y257750000D03*
D12*
X250640000Y257750000D03*
%TD*%
D11*
%TO.C,D402*%
X240480000Y262000000D03*
D12*
X250640000Y262000000D03*
%TD*%
D11*
%TO.C,D401*%
X240480000Y266250000D03*
D12*
X250640000Y266250000D03*
%TD*%
D11*
%TO.C,D400*%
X226570000Y100500000D03*
D12*
X236730000Y100500000D03*
%TD*%
D11*
%TO.C,D399*%
X226570000Y104750000D03*
D12*
X236730000Y104750000D03*
%TD*%
D11*
%TO.C,D398*%
X226570000Y109000000D03*
D12*
X236730000Y109000000D03*
%TD*%
D11*
%TO.C,D397*%
X226570000Y113250000D03*
D12*
X236730000Y113250000D03*
%TD*%
D11*
%TO.C,D396*%
X226570000Y117500000D03*
D12*
X236730000Y117500000D03*
%TD*%
D11*
%TO.C,D395*%
X226570000Y121750000D03*
D12*
X236730000Y121750000D03*
%TD*%
D11*
%TO.C,D394*%
X226570000Y126000000D03*
D12*
X236730000Y126000000D03*
%TD*%
D11*
%TO.C,D393*%
X226570000Y130250000D03*
D12*
X236730000Y130250000D03*
%TD*%
D11*
%TO.C,D392*%
X226570000Y134500000D03*
D12*
X236730000Y134500000D03*
%TD*%
D11*
%TO.C,D391*%
X226570000Y138750000D03*
D12*
X236730000Y138750000D03*
%TD*%
D11*
%TO.C,D390*%
X226570000Y143000000D03*
D12*
X236730000Y143000000D03*
%TD*%
D11*
%TO.C,D389*%
X226570000Y147250000D03*
D12*
X236730000Y147250000D03*
%TD*%
D11*
%TO.C,D388*%
X226570000Y151500000D03*
D12*
X236730000Y151500000D03*
%TD*%
D11*
%TO.C,D387*%
X226570000Y155750000D03*
D12*
X236730000Y155750000D03*
%TD*%
D11*
%TO.C,D386*%
X226570000Y160000000D03*
D12*
X236730000Y160000000D03*
%TD*%
D11*
%TO.C,D385*%
X226570000Y164250000D03*
D12*
X236730000Y164250000D03*
%TD*%
D11*
%TO.C,D384*%
X226570000Y168500000D03*
D12*
X236730000Y168500000D03*
%TD*%
D11*
%TO.C,D383*%
X226570000Y172750000D03*
D12*
X236730000Y172750000D03*
%TD*%
D11*
%TO.C,D382*%
X226570000Y177000000D03*
D12*
X236730000Y177000000D03*
%TD*%
D11*
%TO.C,D381*%
X226570000Y181250000D03*
D12*
X236730000Y181250000D03*
%TD*%
D11*
%TO.C,D380*%
X226570000Y185500000D03*
D12*
X236730000Y185500000D03*
%TD*%
D11*
%TO.C,D379*%
X226570000Y189750000D03*
D12*
X236730000Y189750000D03*
%TD*%
D11*
%TO.C,D378*%
X226570000Y194000000D03*
D12*
X236730000Y194000000D03*
%TD*%
D11*
%TO.C,D377*%
X226570000Y198250000D03*
D12*
X236730000Y198250000D03*
%TD*%
D11*
%TO.C,D376*%
X226570000Y202500000D03*
D12*
X236730000Y202500000D03*
%TD*%
D11*
%TO.C,D375*%
X226570000Y206750000D03*
D12*
X236730000Y206750000D03*
%TD*%
D11*
%TO.C,D374*%
X226570000Y211000000D03*
D12*
X236730000Y211000000D03*
%TD*%
D11*
%TO.C,D373*%
X226570000Y215250000D03*
D12*
X236730000Y215250000D03*
%TD*%
D11*
%TO.C,D372*%
X226570000Y219500000D03*
D12*
X236730000Y219500000D03*
%TD*%
D11*
%TO.C,D371*%
X226570000Y223750000D03*
D12*
X236730000Y223750000D03*
%TD*%
D11*
%TO.C,D370*%
X226570000Y228000000D03*
D12*
X236730000Y228000000D03*
%TD*%
D11*
%TO.C,D369*%
X226570000Y232250000D03*
D12*
X236730000Y232250000D03*
%TD*%
D11*
%TO.C,D368*%
X226570000Y236500000D03*
D12*
X236730000Y236500000D03*
%TD*%
D11*
%TO.C,D367*%
X226570000Y240750000D03*
D12*
X236730000Y240750000D03*
%TD*%
D11*
%TO.C,D366*%
X226570000Y245000000D03*
D12*
X236730000Y245000000D03*
%TD*%
D11*
%TO.C,D365*%
X226570000Y249250000D03*
D12*
X236730000Y249250000D03*
%TD*%
D11*
%TO.C,D364*%
X226570000Y253500000D03*
D12*
X236730000Y253500000D03*
%TD*%
D11*
%TO.C,D363*%
X226570000Y257750000D03*
D12*
X236730000Y257750000D03*
%TD*%
D11*
%TO.C,D362*%
X226570000Y262000000D03*
D12*
X236730000Y262000000D03*
%TD*%
D11*
%TO.C,D361*%
X226570000Y266250000D03*
D12*
X236730000Y266250000D03*
%TD*%
D11*
%TO.C,D360*%
X212660000Y100500000D03*
D12*
X222820000Y100500000D03*
%TD*%
D11*
%TO.C,D359*%
X212660000Y104750000D03*
D12*
X222820000Y104750000D03*
%TD*%
D11*
%TO.C,D358*%
X212660000Y109000000D03*
D12*
X222820000Y109000000D03*
%TD*%
D11*
%TO.C,D357*%
X212660000Y113250000D03*
D12*
X222820000Y113250000D03*
%TD*%
D11*
%TO.C,D356*%
X212660000Y117500000D03*
D12*
X222820000Y117500000D03*
%TD*%
D11*
%TO.C,D355*%
X212660000Y121750000D03*
D12*
X222820000Y121750000D03*
%TD*%
D11*
%TO.C,D354*%
X212660000Y126000000D03*
D12*
X222820000Y126000000D03*
%TD*%
D11*
%TO.C,D353*%
X212660000Y130250000D03*
D12*
X222820000Y130250000D03*
%TD*%
D11*
%TO.C,D352*%
X212660000Y134500000D03*
D12*
X222820000Y134500000D03*
%TD*%
D11*
%TO.C,D351*%
X212660000Y138750000D03*
D12*
X222820000Y138750000D03*
%TD*%
D11*
%TO.C,D350*%
X212660000Y143000000D03*
D12*
X222820000Y143000000D03*
%TD*%
D11*
%TO.C,D349*%
X212660000Y147250000D03*
D12*
X222820000Y147250000D03*
%TD*%
D11*
%TO.C,D348*%
X212660000Y151500000D03*
D12*
X222820000Y151500000D03*
%TD*%
D11*
%TO.C,D347*%
X212660000Y155750000D03*
D12*
X222820000Y155750000D03*
%TD*%
D11*
%TO.C,D346*%
X212660000Y160000000D03*
D12*
X222820000Y160000000D03*
%TD*%
D11*
%TO.C,D345*%
X212660000Y164250000D03*
D12*
X222820000Y164250000D03*
%TD*%
D11*
%TO.C,D344*%
X212660000Y168500000D03*
D12*
X222820000Y168500000D03*
%TD*%
D11*
%TO.C,D343*%
X212660000Y172750000D03*
D12*
X222820000Y172750000D03*
%TD*%
D11*
%TO.C,D342*%
X212660000Y177000000D03*
D12*
X222820000Y177000000D03*
%TD*%
D11*
%TO.C,D341*%
X212660000Y181250000D03*
D12*
X222820000Y181250000D03*
%TD*%
D11*
%TO.C,D340*%
X212660000Y185500000D03*
D12*
X222820000Y185500000D03*
%TD*%
D11*
%TO.C,D339*%
X212660000Y189750000D03*
D12*
X222820000Y189750000D03*
%TD*%
D11*
%TO.C,D338*%
X212660000Y194000000D03*
D12*
X222820000Y194000000D03*
%TD*%
D11*
%TO.C,D337*%
X212660000Y198250000D03*
D12*
X222820000Y198250000D03*
%TD*%
D11*
%TO.C,D336*%
X212660000Y202500000D03*
D12*
X222820000Y202500000D03*
%TD*%
D11*
%TO.C,D335*%
X212660000Y206750000D03*
D12*
X222820000Y206750000D03*
%TD*%
D11*
%TO.C,D334*%
X212660000Y211000000D03*
D12*
X222820000Y211000000D03*
%TD*%
D11*
%TO.C,D333*%
X212660000Y215250000D03*
D12*
X222820000Y215250000D03*
%TD*%
D11*
%TO.C,D332*%
X212660000Y219500000D03*
D12*
X222820000Y219500000D03*
%TD*%
D11*
%TO.C,D331*%
X212660000Y223750000D03*
D12*
X222820000Y223750000D03*
%TD*%
D11*
%TO.C,D330*%
X212660000Y228000000D03*
D12*
X222820000Y228000000D03*
%TD*%
D11*
%TO.C,D329*%
X212660000Y232250000D03*
D12*
X222820000Y232250000D03*
%TD*%
D11*
%TO.C,D328*%
X212660000Y236500000D03*
D12*
X222820000Y236500000D03*
%TD*%
D11*
%TO.C,D327*%
X212660000Y240750000D03*
D12*
X222820000Y240750000D03*
%TD*%
D11*
%TO.C,D326*%
X212660000Y245000000D03*
D12*
X222820000Y245000000D03*
%TD*%
D11*
%TO.C,D325*%
X212660000Y249250000D03*
D12*
X222820000Y249250000D03*
%TD*%
D11*
%TO.C,D324*%
X212660000Y253500000D03*
D12*
X222820000Y253500000D03*
%TD*%
D11*
%TO.C,D323*%
X212660000Y257750000D03*
D12*
X222820000Y257750000D03*
%TD*%
D11*
%TO.C,D322*%
X212660000Y262000000D03*
D12*
X222820000Y262000000D03*
%TD*%
D11*
%TO.C,D321*%
X212660000Y266250000D03*
D12*
X222820000Y266250000D03*
%TD*%
D11*
%TO.C,D320*%
X198750000Y100500000D03*
D12*
X208910000Y100500000D03*
%TD*%
D11*
%TO.C,D319*%
X198750000Y104750000D03*
D12*
X208910000Y104750000D03*
%TD*%
D11*
%TO.C,D318*%
X198750000Y109000000D03*
D12*
X208910000Y109000000D03*
%TD*%
D11*
%TO.C,D317*%
X198750000Y113250000D03*
D12*
X208910000Y113250000D03*
%TD*%
D11*
%TO.C,D316*%
X198750000Y117500000D03*
D12*
X208910000Y117500000D03*
%TD*%
D11*
%TO.C,D315*%
X198750000Y121750000D03*
D12*
X208910000Y121750000D03*
%TD*%
D11*
%TO.C,D314*%
X198750000Y126000000D03*
D12*
X208910000Y126000000D03*
%TD*%
D11*
%TO.C,D313*%
X198750000Y130250000D03*
D12*
X208910000Y130250000D03*
%TD*%
D11*
%TO.C,D312*%
X198750000Y134500000D03*
D12*
X208910000Y134500000D03*
%TD*%
D11*
%TO.C,D311*%
X198750000Y138750000D03*
D12*
X208910000Y138750000D03*
%TD*%
D11*
%TO.C,D310*%
X198750000Y143000000D03*
D12*
X208910000Y143000000D03*
%TD*%
D11*
%TO.C,D309*%
X198750000Y147250000D03*
D12*
X208910000Y147250000D03*
%TD*%
D11*
%TO.C,D308*%
X198750000Y151500000D03*
D12*
X208910000Y151500000D03*
%TD*%
D11*
%TO.C,D307*%
X198750000Y155750000D03*
D12*
X208910000Y155750000D03*
%TD*%
D11*
%TO.C,D306*%
X198750000Y160000000D03*
D12*
X208910000Y160000000D03*
%TD*%
D11*
%TO.C,D305*%
X198750000Y164250000D03*
D12*
X208910000Y164250000D03*
%TD*%
D11*
%TO.C,D304*%
X198750000Y168500000D03*
D12*
X208910000Y168500000D03*
%TD*%
D11*
%TO.C,D303*%
X198750000Y172750000D03*
D12*
X208910000Y172750000D03*
%TD*%
D11*
%TO.C,D302*%
X198750000Y177000000D03*
D12*
X208910000Y177000000D03*
%TD*%
D11*
%TO.C,D301*%
X198750000Y181250000D03*
D12*
X208910000Y181250000D03*
%TD*%
D11*
%TO.C,D300*%
X198750000Y185500000D03*
D12*
X208910000Y185500000D03*
%TD*%
D11*
%TO.C,D299*%
X198750000Y189750000D03*
D12*
X208910000Y189750000D03*
%TD*%
D11*
%TO.C,D298*%
X198750000Y194000000D03*
D12*
X208910000Y194000000D03*
%TD*%
D11*
%TO.C,D297*%
X198750000Y198250000D03*
D12*
X208910000Y198250000D03*
%TD*%
D11*
%TO.C,D296*%
X198750000Y202500000D03*
D12*
X208910000Y202500000D03*
%TD*%
D11*
%TO.C,D295*%
X198750000Y206750000D03*
D12*
X208910000Y206750000D03*
%TD*%
D11*
%TO.C,D294*%
X198750000Y211000000D03*
D12*
X208910000Y211000000D03*
%TD*%
D11*
%TO.C,D293*%
X198750000Y215250000D03*
D12*
X208910000Y215250000D03*
%TD*%
D11*
%TO.C,D292*%
X198750000Y219500000D03*
D12*
X208910000Y219500000D03*
%TD*%
D11*
%TO.C,D291*%
X198750000Y223750000D03*
D12*
X208910000Y223750000D03*
%TD*%
D11*
%TO.C,D290*%
X198750000Y228000000D03*
D12*
X208910000Y228000000D03*
%TD*%
D11*
%TO.C,D289*%
X198750000Y232250000D03*
D12*
X208910000Y232250000D03*
%TD*%
D11*
%TO.C,D288*%
X198750000Y236500000D03*
D12*
X208910000Y236500000D03*
%TD*%
D11*
%TO.C,D287*%
X198750000Y240750000D03*
D12*
X208910000Y240750000D03*
%TD*%
D11*
%TO.C,D286*%
X198750000Y245000000D03*
D12*
X208910000Y245000000D03*
%TD*%
D11*
%TO.C,D285*%
X198750000Y249250000D03*
D12*
X208910000Y249250000D03*
%TD*%
D11*
%TO.C,D284*%
X198750000Y253500000D03*
D12*
X208910000Y253500000D03*
%TD*%
D11*
%TO.C,D283*%
X198750000Y257750000D03*
D12*
X208910000Y257750000D03*
%TD*%
D11*
%TO.C,D282*%
X198750000Y262000000D03*
D12*
X208910000Y262000000D03*
%TD*%
D11*
%TO.C,D281*%
X198750000Y266250000D03*
D12*
X208910000Y266250000D03*
%TD*%
D11*
%TO.C,D280*%
X184840000Y100500000D03*
D12*
X195000000Y100500000D03*
%TD*%
D11*
%TO.C,D279*%
X184840000Y104750000D03*
D12*
X195000000Y104750000D03*
%TD*%
D11*
%TO.C,D278*%
X184840000Y109000000D03*
D12*
X195000000Y109000000D03*
%TD*%
D11*
%TO.C,D277*%
X184840000Y113250000D03*
D12*
X195000000Y113250000D03*
%TD*%
D11*
%TO.C,D276*%
X184840000Y117500000D03*
D12*
X195000000Y117500000D03*
%TD*%
D11*
%TO.C,D275*%
X184840000Y121750000D03*
D12*
X195000000Y121750000D03*
%TD*%
D11*
%TO.C,D274*%
X184840000Y126000000D03*
D12*
X195000000Y126000000D03*
%TD*%
D11*
%TO.C,D273*%
X184840000Y130250000D03*
D12*
X195000000Y130250000D03*
%TD*%
D11*
%TO.C,D272*%
X184840000Y134500000D03*
D12*
X195000000Y134500000D03*
%TD*%
D11*
%TO.C,D271*%
X184840000Y138750000D03*
D12*
X195000000Y138750000D03*
%TD*%
D11*
%TO.C,D270*%
X184840000Y143000000D03*
D12*
X195000000Y143000000D03*
%TD*%
D11*
%TO.C,D269*%
X184840000Y147250000D03*
D12*
X195000000Y147250000D03*
%TD*%
D11*
%TO.C,D268*%
X184840000Y151500000D03*
D12*
X195000000Y151500000D03*
%TD*%
D11*
%TO.C,D267*%
X184840000Y155750000D03*
D12*
X195000000Y155750000D03*
%TD*%
D11*
%TO.C,D266*%
X184840000Y160000000D03*
D12*
X195000000Y160000000D03*
%TD*%
D11*
%TO.C,D265*%
X184840000Y164250000D03*
D12*
X195000000Y164250000D03*
%TD*%
D11*
%TO.C,D264*%
X184840000Y168500000D03*
D12*
X195000000Y168500000D03*
%TD*%
D11*
%TO.C,D263*%
X184840000Y172750000D03*
D12*
X195000000Y172750000D03*
%TD*%
D11*
%TO.C,D262*%
X184840000Y177000000D03*
D12*
X195000000Y177000000D03*
%TD*%
D11*
%TO.C,D261*%
X184840000Y181250000D03*
D12*
X195000000Y181250000D03*
%TD*%
D11*
%TO.C,D260*%
X184840000Y185500000D03*
D12*
X195000000Y185500000D03*
%TD*%
D11*
%TO.C,D259*%
X184840000Y189750000D03*
D12*
X195000000Y189750000D03*
%TD*%
D11*
%TO.C,D258*%
X184840000Y194000000D03*
D12*
X195000000Y194000000D03*
%TD*%
D11*
%TO.C,D257*%
X184840000Y198250000D03*
D12*
X195000000Y198250000D03*
%TD*%
D11*
%TO.C,D256*%
X184840000Y202500000D03*
D12*
X195000000Y202500000D03*
%TD*%
D11*
%TO.C,D255*%
X184840000Y206750000D03*
D12*
X195000000Y206750000D03*
%TD*%
D11*
%TO.C,D254*%
X184840000Y211000000D03*
D12*
X195000000Y211000000D03*
%TD*%
D11*
%TO.C,D253*%
X184840000Y215250000D03*
D12*
X195000000Y215250000D03*
%TD*%
D11*
%TO.C,D252*%
X184840000Y219500000D03*
D12*
X195000000Y219500000D03*
%TD*%
D11*
%TO.C,D251*%
X184840000Y223750000D03*
D12*
X195000000Y223750000D03*
%TD*%
D11*
%TO.C,D250*%
X184840000Y228000000D03*
D12*
X195000000Y228000000D03*
%TD*%
D11*
%TO.C,D249*%
X184840000Y232250000D03*
D12*
X195000000Y232250000D03*
%TD*%
D11*
%TO.C,D248*%
X184840000Y236500000D03*
D12*
X195000000Y236500000D03*
%TD*%
D11*
%TO.C,D247*%
X184840000Y240750000D03*
D12*
X195000000Y240750000D03*
%TD*%
D11*
%TO.C,D246*%
X184840000Y245000000D03*
D12*
X195000000Y245000000D03*
%TD*%
D11*
%TO.C,D245*%
X184840000Y249250000D03*
D12*
X195000000Y249250000D03*
%TD*%
D11*
%TO.C,D244*%
X184840000Y253500000D03*
D12*
X195000000Y253500000D03*
%TD*%
D11*
%TO.C,D243*%
X184840000Y257750000D03*
D12*
X195000000Y257750000D03*
%TD*%
D11*
%TO.C,D242*%
X184840000Y262000000D03*
D12*
X195000000Y262000000D03*
%TD*%
D11*
%TO.C,D241*%
X184840000Y266250000D03*
D12*
X195000000Y266250000D03*
%TD*%
D11*
%TO.C,D240*%
X170930000Y100500000D03*
D12*
X181090000Y100500000D03*
%TD*%
D11*
%TO.C,D239*%
X170930000Y104750000D03*
D12*
X181090000Y104750000D03*
%TD*%
D11*
%TO.C,D238*%
X170930000Y109000000D03*
D12*
X181090000Y109000000D03*
%TD*%
D11*
%TO.C,D237*%
X170930000Y113250000D03*
D12*
X181090000Y113250000D03*
%TD*%
D11*
%TO.C,D236*%
X170930000Y117500000D03*
D12*
X181090000Y117500000D03*
%TD*%
D11*
%TO.C,D235*%
X170930000Y121750000D03*
D12*
X181090000Y121750000D03*
%TD*%
D11*
%TO.C,D234*%
X170930000Y126000000D03*
D12*
X181090000Y126000000D03*
%TD*%
D11*
%TO.C,D233*%
X170930000Y130250000D03*
D12*
X181090000Y130250000D03*
%TD*%
D11*
%TO.C,D232*%
X170930000Y134500000D03*
D12*
X181090000Y134500000D03*
%TD*%
D11*
%TO.C,D231*%
X170930000Y138750000D03*
D12*
X181090000Y138750000D03*
%TD*%
D11*
%TO.C,D230*%
X170930000Y143000000D03*
D12*
X181090000Y143000000D03*
%TD*%
D11*
%TO.C,D229*%
X170930000Y147250000D03*
D12*
X181090000Y147250000D03*
%TD*%
D11*
%TO.C,D228*%
X170930000Y151500000D03*
D12*
X181090000Y151500000D03*
%TD*%
D11*
%TO.C,D227*%
X170930000Y155750000D03*
D12*
X181090000Y155750000D03*
%TD*%
D11*
%TO.C,D226*%
X170930000Y160000000D03*
D12*
X181090000Y160000000D03*
%TD*%
D11*
%TO.C,D225*%
X170930000Y164250000D03*
D12*
X181090000Y164250000D03*
%TD*%
D11*
%TO.C,D224*%
X170930000Y168500000D03*
D12*
X181090000Y168500000D03*
%TD*%
D11*
%TO.C,D223*%
X170930000Y172750000D03*
D12*
X181090000Y172750000D03*
%TD*%
D11*
%TO.C,D222*%
X170930000Y177000000D03*
D12*
X181090000Y177000000D03*
%TD*%
D11*
%TO.C,D221*%
X170930000Y181250000D03*
D12*
X181090000Y181250000D03*
%TD*%
D11*
%TO.C,D220*%
X170930000Y185500000D03*
D12*
X181090000Y185500000D03*
%TD*%
D11*
%TO.C,D219*%
X170930000Y189750000D03*
D12*
X181090000Y189750000D03*
%TD*%
D11*
%TO.C,D218*%
X170930000Y194000000D03*
D12*
X181090000Y194000000D03*
%TD*%
D11*
%TO.C,D217*%
X170930000Y198250000D03*
D12*
X181090000Y198250000D03*
%TD*%
D11*
%TO.C,D216*%
X170930000Y202500000D03*
D12*
X181090000Y202500000D03*
%TD*%
D11*
%TO.C,D215*%
X170930000Y206750000D03*
D12*
X181090000Y206750000D03*
%TD*%
D11*
%TO.C,D214*%
X170930000Y211000000D03*
D12*
X181090000Y211000000D03*
%TD*%
D11*
%TO.C,D213*%
X170930000Y215250000D03*
D12*
X181090000Y215250000D03*
%TD*%
D11*
%TO.C,D212*%
X170930000Y219500000D03*
D12*
X181090000Y219500000D03*
%TD*%
D11*
%TO.C,D211*%
X170930000Y223750000D03*
D12*
X181090000Y223750000D03*
%TD*%
D11*
%TO.C,D210*%
X170930000Y228000000D03*
D12*
X181090000Y228000000D03*
%TD*%
D11*
%TO.C,D209*%
X170930000Y232250000D03*
D12*
X181090000Y232250000D03*
%TD*%
D11*
%TO.C,D208*%
X170930000Y236500000D03*
D12*
X181090000Y236500000D03*
%TD*%
D11*
%TO.C,D207*%
X170930000Y240750000D03*
D12*
X181090000Y240750000D03*
%TD*%
D11*
%TO.C,D206*%
X170930000Y245000000D03*
D12*
X181090000Y245000000D03*
%TD*%
D11*
%TO.C,D205*%
X170930000Y249250000D03*
D12*
X181090000Y249250000D03*
%TD*%
D11*
%TO.C,D204*%
X170930000Y253500000D03*
D12*
X181090000Y253500000D03*
%TD*%
D11*
%TO.C,D203*%
X170930000Y257750000D03*
D12*
X181090000Y257750000D03*
%TD*%
D11*
%TO.C,D202*%
X170930000Y262000000D03*
D12*
X181090000Y262000000D03*
%TD*%
D11*
%TO.C,D201*%
X170930000Y266250000D03*
D12*
X181090000Y266250000D03*
%TD*%
D11*
%TO.C,D200*%
X157020000Y100500000D03*
D12*
X167180000Y100500000D03*
%TD*%
D11*
%TO.C,D199*%
X157020000Y104750000D03*
D12*
X167180000Y104750000D03*
%TD*%
D11*
%TO.C,D198*%
X157020000Y109000000D03*
D12*
X167180000Y109000000D03*
%TD*%
D11*
%TO.C,D197*%
X157020000Y113250000D03*
D12*
X167180000Y113250000D03*
%TD*%
D11*
%TO.C,D196*%
X157020000Y117500000D03*
D12*
X167180000Y117500000D03*
%TD*%
D11*
%TO.C,D195*%
X157020000Y121750000D03*
D12*
X167180000Y121750000D03*
%TD*%
D11*
%TO.C,D194*%
X157020000Y126000000D03*
D12*
X167180000Y126000000D03*
%TD*%
D11*
%TO.C,D193*%
X157020000Y130250000D03*
D12*
X167180000Y130250000D03*
%TD*%
D11*
%TO.C,D192*%
X157020000Y134500000D03*
D12*
X167180000Y134500000D03*
%TD*%
D11*
%TO.C,D191*%
X157020000Y138750000D03*
D12*
X167180000Y138750000D03*
%TD*%
D11*
%TO.C,D190*%
X157020000Y143000000D03*
D12*
X167180000Y143000000D03*
%TD*%
D11*
%TO.C,D189*%
X157020000Y147250000D03*
D12*
X167180000Y147250000D03*
%TD*%
D11*
%TO.C,D188*%
X157020000Y151500000D03*
D12*
X167180000Y151500000D03*
%TD*%
D11*
%TO.C,D187*%
X157020000Y155750000D03*
D12*
X167180000Y155750000D03*
%TD*%
D11*
%TO.C,D186*%
X157020000Y160000000D03*
D12*
X167180000Y160000000D03*
%TD*%
D11*
%TO.C,D185*%
X157020000Y164250000D03*
D12*
X167180000Y164250000D03*
%TD*%
D11*
%TO.C,D184*%
X157020000Y168500000D03*
D12*
X167180000Y168500000D03*
%TD*%
D11*
%TO.C,D183*%
X157020000Y172750000D03*
D12*
X167180000Y172750000D03*
%TD*%
D11*
%TO.C,D182*%
X157020000Y177000000D03*
D12*
X167180000Y177000000D03*
%TD*%
D11*
%TO.C,D181*%
X157020000Y181250000D03*
D12*
X167180000Y181250000D03*
%TD*%
D11*
%TO.C,D180*%
X157020000Y185500000D03*
D12*
X167180000Y185500000D03*
%TD*%
D11*
%TO.C,D179*%
X157020000Y189750000D03*
D12*
X167180000Y189750000D03*
%TD*%
D11*
%TO.C,D178*%
X157020000Y194000000D03*
D12*
X167180000Y194000000D03*
%TD*%
D11*
%TO.C,D177*%
X157020000Y198250000D03*
D12*
X167180000Y198250000D03*
%TD*%
D11*
%TO.C,D176*%
X157020000Y202500000D03*
D12*
X167180000Y202500000D03*
%TD*%
D11*
%TO.C,D175*%
X157020000Y206750000D03*
D12*
X167180000Y206750000D03*
%TD*%
D11*
%TO.C,D174*%
X157020000Y211000000D03*
D12*
X167180000Y211000000D03*
%TD*%
D11*
%TO.C,D173*%
X157020000Y215250000D03*
D12*
X167180000Y215250000D03*
%TD*%
D11*
%TO.C,D172*%
X157020000Y219500000D03*
D12*
X167180000Y219500000D03*
%TD*%
D11*
%TO.C,D171*%
X157020000Y223750000D03*
D12*
X167180000Y223750000D03*
%TD*%
D11*
%TO.C,D170*%
X157020000Y228000000D03*
D12*
X167180000Y228000000D03*
%TD*%
D11*
%TO.C,D169*%
X157020000Y232250000D03*
D12*
X167180000Y232250000D03*
%TD*%
D11*
%TO.C,D168*%
X157020000Y236500000D03*
D12*
X167180000Y236500000D03*
%TD*%
D11*
%TO.C,D167*%
X157020000Y240750000D03*
D12*
X167180000Y240750000D03*
%TD*%
D11*
%TO.C,D166*%
X157020000Y245000000D03*
D12*
X167180000Y245000000D03*
%TD*%
D11*
%TO.C,D165*%
X157020000Y249250000D03*
D12*
X167180000Y249250000D03*
%TD*%
D11*
%TO.C,D164*%
X157020000Y253500000D03*
D12*
X167180000Y253500000D03*
%TD*%
D11*
%TO.C,D163*%
X157020000Y257750000D03*
D12*
X167180000Y257750000D03*
%TD*%
D11*
%TO.C,D162*%
X157020000Y262000000D03*
D12*
X167180000Y262000000D03*
%TD*%
D11*
%TO.C,D161*%
X157020000Y266250000D03*
D12*
X167180000Y266250000D03*
%TD*%
D11*
%TO.C,D160*%
X143110000Y100500000D03*
D12*
X153270000Y100500000D03*
%TD*%
D11*
%TO.C,D159*%
X143110000Y104750000D03*
D12*
X153270000Y104750000D03*
%TD*%
D11*
%TO.C,D158*%
X143110000Y109000000D03*
D12*
X153270000Y109000000D03*
%TD*%
D11*
%TO.C,D157*%
X143110000Y113250000D03*
D12*
X153270000Y113250000D03*
%TD*%
D11*
%TO.C,D156*%
X143110000Y117500000D03*
D12*
X153270000Y117500000D03*
%TD*%
D11*
%TO.C,D155*%
X143110000Y121750000D03*
D12*
X153270000Y121750000D03*
%TD*%
D11*
%TO.C,D154*%
X143110000Y126000000D03*
D12*
X153270000Y126000000D03*
%TD*%
D11*
%TO.C,D153*%
X143110000Y130250000D03*
D12*
X153270000Y130250000D03*
%TD*%
D11*
%TO.C,D152*%
X143110000Y134500000D03*
D12*
X153270000Y134500000D03*
%TD*%
D11*
%TO.C,D151*%
X143110000Y138750000D03*
D12*
X153270000Y138750000D03*
%TD*%
D11*
%TO.C,D150*%
X143110000Y143000000D03*
D12*
X153270000Y143000000D03*
%TD*%
D11*
%TO.C,D149*%
X143110000Y147250000D03*
D12*
X153270000Y147250000D03*
%TD*%
D11*
%TO.C,D148*%
X143110000Y151500000D03*
D12*
X153270000Y151500000D03*
%TD*%
D11*
%TO.C,D147*%
X143110000Y155750000D03*
D12*
X153270000Y155750000D03*
%TD*%
D11*
%TO.C,D146*%
X143110000Y160000000D03*
D12*
X153270000Y160000000D03*
%TD*%
D11*
%TO.C,D145*%
X143110000Y164250000D03*
D12*
X153270000Y164250000D03*
%TD*%
D11*
%TO.C,D144*%
X143110000Y168500000D03*
D12*
X153270000Y168500000D03*
%TD*%
D11*
%TO.C,D143*%
X143110000Y172750000D03*
D12*
X153270000Y172750000D03*
%TD*%
D11*
%TO.C,D142*%
X143110000Y177000000D03*
D12*
X153270000Y177000000D03*
%TD*%
D11*
%TO.C,D141*%
X143110000Y181250000D03*
D12*
X153270000Y181250000D03*
%TD*%
D11*
%TO.C,D140*%
X143110000Y185500000D03*
D12*
X153270000Y185500000D03*
%TD*%
D11*
%TO.C,D139*%
X143110000Y189750000D03*
D12*
X153270000Y189750000D03*
%TD*%
D11*
%TO.C,D138*%
X143110000Y194000000D03*
D12*
X153270000Y194000000D03*
%TD*%
D11*
%TO.C,D137*%
X143110000Y198250000D03*
D12*
X153270000Y198250000D03*
%TD*%
D11*
%TO.C,D136*%
X143110000Y202500000D03*
D12*
X153270000Y202500000D03*
%TD*%
D11*
%TO.C,D135*%
X143110000Y206750000D03*
D12*
X153270000Y206750000D03*
%TD*%
D11*
%TO.C,D134*%
X143110000Y211000000D03*
D12*
X153270000Y211000000D03*
%TD*%
D11*
%TO.C,D133*%
X143110000Y215250000D03*
D12*
X153270000Y215250000D03*
%TD*%
D11*
%TO.C,D132*%
X143110000Y219500000D03*
D12*
X153270000Y219500000D03*
%TD*%
D11*
%TO.C,D131*%
X143110000Y223750000D03*
D12*
X153270000Y223750000D03*
%TD*%
D11*
%TO.C,D130*%
X143110000Y228000000D03*
D12*
X153270000Y228000000D03*
%TD*%
D11*
%TO.C,D129*%
X143110000Y232250000D03*
D12*
X153270000Y232250000D03*
%TD*%
D11*
%TO.C,D128*%
X143110000Y236500000D03*
D12*
X153270000Y236500000D03*
%TD*%
D11*
%TO.C,D127*%
X143110000Y240750000D03*
D12*
X153270000Y240750000D03*
%TD*%
D11*
%TO.C,D126*%
X143110000Y245000000D03*
D12*
X153270000Y245000000D03*
%TD*%
D11*
%TO.C,D125*%
X143110000Y249250000D03*
D12*
X153270000Y249250000D03*
%TD*%
D11*
%TO.C,D124*%
X143110000Y253500000D03*
D12*
X153270000Y253500000D03*
%TD*%
D11*
%TO.C,D123*%
X143110000Y257750000D03*
D12*
X153270000Y257750000D03*
%TD*%
D11*
%TO.C,D122*%
X143110000Y262000000D03*
D12*
X153270000Y262000000D03*
%TD*%
D11*
%TO.C,D121*%
X143110000Y266250000D03*
D12*
X153270000Y266250000D03*
%TD*%
D11*
%TO.C,D120*%
X129200000Y100500000D03*
D12*
X139360000Y100500000D03*
%TD*%
D11*
%TO.C,D119*%
X129200000Y104750000D03*
D12*
X139360000Y104750000D03*
%TD*%
D11*
%TO.C,D118*%
X129200000Y109000000D03*
D12*
X139360000Y109000000D03*
%TD*%
D11*
%TO.C,D117*%
X129200000Y113250000D03*
D12*
X139360000Y113250000D03*
%TD*%
D11*
%TO.C,D116*%
X129200000Y117500000D03*
D12*
X139360000Y117500000D03*
%TD*%
D11*
%TO.C,D115*%
X129200000Y121750000D03*
D12*
X139360000Y121750000D03*
%TD*%
D11*
%TO.C,D114*%
X129200000Y126000000D03*
D12*
X139360000Y126000000D03*
%TD*%
D11*
%TO.C,D113*%
X129200000Y130250000D03*
D12*
X139360000Y130250000D03*
%TD*%
D11*
%TO.C,D112*%
X129200000Y134500000D03*
D12*
X139360000Y134500000D03*
%TD*%
D11*
%TO.C,D111*%
X129200000Y138750000D03*
D12*
X139360000Y138750000D03*
%TD*%
D11*
%TO.C,D110*%
X129200000Y143000000D03*
D12*
X139360000Y143000000D03*
%TD*%
D11*
%TO.C,D109*%
X129200000Y147250000D03*
D12*
X139360000Y147250000D03*
%TD*%
D11*
%TO.C,D108*%
X129200000Y151500000D03*
D12*
X139360000Y151500000D03*
%TD*%
D11*
%TO.C,D107*%
X129200000Y155750000D03*
D12*
X139360000Y155750000D03*
%TD*%
D11*
%TO.C,D106*%
X129200000Y160000000D03*
D12*
X139360000Y160000000D03*
%TD*%
D11*
%TO.C,D105*%
X129200000Y164250000D03*
D12*
X139360000Y164250000D03*
%TD*%
D11*
%TO.C,D104*%
X129200000Y168500000D03*
D12*
X139360000Y168500000D03*
%TD*%
D11*
%TO.C,D103*%
X129200000Y172750000D03*
D12*
X139360000Y172750000D03*
%TD*%
D11*
%TO.C,D102*%
X129200000Y177000000D03*
D12*
X139360000Y177000000D03*
%TD*%
D11*
%TO.C,D101*%
X129200000Y181250000D03*
D12*
X139360000Y181250000D03*
%TD*%
D11*
%TO.C,D100*%
X129200000Y185500000D03*
D12*
X139360000Y185500000D03*
%TD*%
D11*
%TO.C,D99*%
X129200000Y189750000D03*
D12*
X139360000Y189750000D03*
%TD*%
D11*
%TO.C,D98*%
X129200000Y194000000D03*
D12*
X139360000Y194000000D03*
%TD*%
D11*
%TO.C,D97*%
X129200000Y198250000D03*
D12*
X139360000Y198250000D03*
%TD*%
D11*
%TO.C,D96*%
X129200000Y202500000D03*
D12*
X139360000Y202500000D03*
%TD*%
D11*
%TO.C,D95*%
X129200000Y206750000D03*
D12*
X139360000Y206750000D03*
%TD*%
D11*
%TO.C,D94*%
X129200000Y211000000D03*
D12*
X139360000Y211000000D03*
%TD*%
D11*
%TO.C,D93*%
X129200000Y215250000D03*
D12*
X139360000Y215250000D03*
%TD*%
D11*
%TO.C,D92*%
X129200000Y219500000D03*
D12*
X139360000Y219500000D03*
%TD*%
D11*
%TO.C,D91*%
X129200000Y223750000D03*
D12*
X139360000Y223750000D03*
%TD*%
D11*
%TO.C,D90*%
X129200000Y228000000D03*
D12*
X139360000Y228000000D03*
%TD*%
D11*
%TO.C,D89*%
X129200000Y232250000D03*
D12*
X139360000Y232250000D03*
%TD*%
D11*
%TO.C,D88*%
X129200000Y236500000D03*
D12*
X139360000Y236500000D03*
%TD*%
D11*
%TO.C,D87*%
X129200000Y240750000D03*
D12*
X139360000Y240750000D03*
%TD*%
D11*
%TO.C,D86*%
X129200000Y245000000D03*
D12*
X139360000Y245000000D03*
%TD*%
D11*
%TO.C,D85*%
X129200000Y249250000D03*
D12*
X139360000Y249250000D03*
%TD*%
D11*
%TO.C,D84*%
X129200000Y253500000D03*
D12*
X139360000Y253500000D03*
%TD*%
D11*
%TO.C,D83*%
X129200000Y257750000D03*
D12*
X139360000Y257750000D03*
%TD*%
D11*
%TO.C,D82*%
X129200000Y262000000D03*
D12*
X139360000Y262000000D03*
%TD*%
D11*
%TO.C,D81*%
X129200000Y266250000D03*
D12*
X139360000Y266250000D03*
%TD*%
D11*
%TO.C,D80*%
X115290000Y100500000D03*
D12*
X125450000Y100500000D03*
%TD*%
D11*
%TO.C,D79*%
X115290000Y104750000D03*
D12*
X125450000Y104750000D03*
%TD*%
D11*
%TO.C,D78*%
X115290000Y109000000D03*
D12*
X125450000Y109000000D03*
%TD*%
D11*
%TO.C,D77*%
X115290000Y113250000D03*
D12*
X125450000Y113250000D03*
%TD*%
D11*
%TO.C,D76*%
X115290000Y117500000D03*
D12*
X125450000Y117500000D03*
%TD*%
D11*
%TO.C,D75*%
X115290000Y121750000D03*
D12*
X125450000Y121750000D03*
%TD*%
D11*
%TO.C,D74*%
X115290000Y126000000D03*
D12*
X125450000Y126000000D03*
%TD*%
D11*
%TO.C,D73*%
X115290000Y130250000D03*
D12*
X125450000Y130250000D03*
%TD*%
D11*
%TO.C,D72*%
X115290000Y134500000D03*
D12*
X125450000Y134500000D03*
%TD*%
D11*
%TO.C,D71*%
X115290000Y138750000D03*
D12*
X125450000Y138750000D03*
%TD*%
D11*
%TO.C,D70*%
X115290000Y143000000D03*
D12*
X125450000Y143000000D03*
%TD*%
D11*
%TO.C,D69*%
X115290000Y147250000D03*
D12*
X125450000Y147250000D03*
%TD*%
D11*
%TO.C,D68*%
X115290000Y151500000D03*
D12*
X125450000Y151500000D03*
%TD*%
D11*
%TO.C,D67*%
X115290000Y155750000D03*
D12*
X125450000Y155750000D03*
%TD*%
D11*
%TO.C,D66*%
X115290000Y160000000D03*
D12*
X125450000Y160000000D03*
%TD*%
D11*
%TO.C,D65*%
X115290000Y164250000D03*
D12*
X125450000Y164250000D03*
%TD*%
D11*
%TO.C,D64*%
X115290000Y168500000D03*
D12*
X125450000Y168500000D03*
%TD*%
D11*
%TO.C,D63*%
X115290000Y172750000D03*
D12*
X125450000Y172750000D03*
%TD*%
D11*
%TO.C,D62*%
X115290000Y177000000D03*
D12*
X125450000Y177000000D03*
%TD*%
D11*
%TO.C,D61*%
X115290000Y181250000D03*
D12*
X125450000Y181250000D03*
%TD*%
D11*
%TO.C,D60*%
X115290000Y185500000D03*
D12*
X125450000Y185500000D03*
%TD*%
D11*
%TO.C,D59*%
X115290000Y189750000D03*
D12*
X125450000Y189750000D03*
%TD*%
D11*
%TO.C,D58*%
X115290000Y194000000D03*
D12*
X125450000Y194000000D03*
%TD*%
D11*
%TO.C,D57*%
X115290000Y198250000D03*
D12*
X125450000Y198250000D03*
%TD*%
D11*
%TO.C,D56*%
X115290000Y202500000D03*
D12*
X125450000Y202500000D03*
%TD*%
D11*
%TO.C,D55*%
X115290000Y206750000D03*
D12*
X125450000Y206750000D03*
%TD*%
D11*
%TO.C,D54*%
X115290000Y211000000D03*
D12*
X125450000Y211000000D03*
%TD*%
D11*
%TO.C,D53*%
X115290000Y215250000D03*
D12*
X125450000Y215250000D03*
%TD*%
D11*
%TO.C,D52*%
X115290000Y219500000D03*
D12*
X125450000Y219500000D03*
%TD*%
D11*
%TO.C,D51*%
X115290000Y223750000D03*
D12*
X125450000Y223750000D03*
%TD*%
D11*
%TO.C,D50*%
X115290000Y228000000D03*
D12*
X125450000Y228000000D03*
%TD*%
D11*
%TO.C,D49*%
X115290000Y232250000D03*
D12*
X125450000Y232250000D03*
%TD*%
D11*
%TO.C,D48*%
X115290000Y236500000D03*
D12*
X125450000Y236500000D03*
%TD*%
D11*
%TO.C,D47*%
X115290000Y240750000D03*
D12*
X125450000Y240750000D03*
%TD*%
D11*
%TO.C,D46*%
X115290000Y245000000D03*
D12*
X125450000Y245000000D03*
%TD*%
D11*
%TO.C,D45*%
X115290000Y249250000D03*
D12*
X125450000Y249250000D03*
%TD*%
D11*
%TO.C,D44*%
X115290000Y253500000D03*
D12*
X125450000Y253500000D03*
%TD*%
D11*
%TO.C,D43*%
X115290000Y257750000D03*
D12*
X125450000Y257750000D03*
%TD*%
D11*
%TO.C,D42*%
X115290000Y262000000D03*
D12*
X125450000Y262000000D03*
%TD*%
D11*
%TO.C,D41*%
X115290000Y266250000D03*
D12*
X125450000Y266250000D03*
%TD*%
D11*
%TO.C,D40*%
X101380000Y100500000D03*
D12*
X111540000Y100500000D03*
%TD*%
D11*
%TO.C,D39*%
X101380000Y104750000D03*
D12*
X111540000Y104750000D03*
%TD*%
D11*
%TO.C,D38*%
X101380000Y109000000D03*
D12*
X111540000Y109000000D03*
%TD*%
D11*
%TO.C,D37*%
X101380000Y113250000D03*
D12*
X111540000Y113250000D03*
%TD*%
D11*
%TO.C,D36*%
X101380000Y117500000D03*
D12*
X111540000Y117500000D03*
%TD*%
D11*
%TO.C,D35*%
X101380000Y121750000D03*
D12*
X111540000Y121750000D03*
%TD*%
D11*
%TO.C,D34*%
X101380000Y126000000D03*
D12*
X111540000Y126000000D03*
%TD*%
D11*
%TO.C,D33*%
X101380000Y130250000D03*
D12*
X111540000Y130250000D03*
%TD*%
D11*
%TO.C,D32*%
X101380000Y134500000D03*
D12*
X111540000Y134500000D03*
%TD*%
D11*
%TO.C,D31*%
X101380000Y138750000D03*
D12*
X111540000Y138750000D03*
%TD*%
D11*
%TO.C,D30*%
X101380000Y143000000D03*
D12*
X111540000Y143000000D03*
%TD*%
D11*
%TO.C,D29*%
X101380000Y147250000D03*
D12*
X111540000Y147250000D03*
%TD*%
D11*
%TO.C,D28*%
X101380000Y151500000D03*
D12*
X111540000Y151500000D03*
%TD*%
D11*
%TO.C,D27*%
X101380000Y155750000D03*
D12*
X111540000Y155750000D03*
%TD*%
D11*
%TO.C,D26*%
X101380000Y160000000D03*
D12*
X111540000Y160000000D03*
%TD*%
D11*
%TO.C,D25*%
X101380000Y164250000D03*
D12*
X111540000Y164250000D03*
%TD*%
D11*
%TO.C,D24*%
X101380000Y168500000D03*
D12*
X111540000Y168500000D03*
%TD*%
D11*
%TO.C,D23*%
X101380000Y172750000D03*
D12*
X111540000Y172750000D03*
%TD*%
D11*
%TO.C,D22*%
X101380000Y177000000D03*
D12*
X111540000Y177000000D03*
%TD*%
D11*
%TO.C,D21*%
X101380000Y181250000D03*
D12*
X111540000Y181250000D03*
%TD*%
D11*
%TO.C,D20*%
X101380000Y185500000D03*
D12*
X111540000Y185500000D03*
%TD*%
D11*
%TO.C,D19*%
X101380000Y189750000D03*
D12*
X111540000Y189750000D03*
%TD*%
D11*
%TO.C,D18*%
X101380000Y194000000D03*
D12*
X111540000Y194000000D03*
%TD*%
D11*
%TO.C,D17*%
X101380000Y198250000D03*
D12*
X111540000Y198250000D03*
%TD*%
D11*
%TO.C,D16*%
X101380000Y202500000D03*
D12*
X111540000Y202500000D03*
%TD*%
D11*
%TO.C,D15*%
X101380000Y206750000D03*
D12*
X111540000Y206750000D03*
%TD*%
D11*
%TO.C,D14*%
X101380000Y211000000D03*
D12*
X111540000Y211000000D03*
%TD*%
D11*
%TO.C,D13*%
X101380000Y215250000D03*
D12*
X111540000Y215250000D03*
%TD*%
D11*
%TO.C,D12*%
X101380000Y219500000D03*
D12*
X111540000Y219500000D03*
%TD*%
D11*
%TO.C,D11*%
X101380000Y223750000D03*
D12*
X111540000Y223750000D03*
%TD*%
D11*
%TO.C,D10*%
X101380000Y228000000D03*
D12*
X111540000Y228000000D03*
%TD*%
D11*
%TO.C,D9*%
X101380000Y232250000D03*
D12*
X111540000Y232250000D03*
%TD*%
D11*
%TO.C,D8*%
X101380000Y236500000D03*
D12*
X111540000Y236500000D03*
%TD*%
D11*
%TO.C,D7*%
X101380000Y240750000D03*
D12*
X111540000Y240750000D03*
%TD*%
D11*
%TO.C,D6*%
X101380000Y245000000D03*
D12*
X111540000Y245000000D03*
%TD*%
D11*
%TO.C,D5*%
X101380000Y249250000D03*
D12*
X111540000Y249250000D03*
%TD*%
D11*
%TO.C,D4*%
X101380000Y253500000D03*
D12*
X111540000Y253500000D03*
%TD*%
D11*
%TO.C,D3*%
X101380000Y257750000D03*
D12*
X111540000Y257750000D03*
%TD*%
D11*
%TO.C,D2*%
X101380000Y262000000D03*
D12*
X111540000Y262000000D03*
%TD*%
D11*
%TO.C,D1*%
X101380000Y266250000D03*
D12*
X111540000Y266250000D03*
%TD*%
D13*
%TO.C,RegisterLane*%
X176000000Y-44000000D03*
X177000000Y-44000000D03*
X178000000Y-44000000D03*
X179000000Y-44000000D03*
X180000000Y-44000000D03*
X181000000Y-44000000D03*
X182000000Y-44000000D03*
X183000000Y-44000000D03*
%TD*%
%TO.C,RegisterLane*%
X112000000Y-68000000D03*
X113000000Y-68000000D03*
X114000000Y-68000000D03*
X115000000Y-68000000D03*
X116000000Y-68000000D03*
X117000000Y-68000000D03*
X118000000Y-68000000D03*
X119000000Y-68000000D03*
%TD*%
%TO.C,RegisterLane*%
X240000000Y-124000000D03*
X241000000Y-124000000D03*
X242000000Y-124000000D03*
X243000000Y-124000000D03*
X244000000Y-124000000D03*
X245000000Y-124000000D03*
X246000000Y-124000000D03*
X247000000Y-124000000D03*
%TD*%
%TO.C,RegisterLane*%
X48000000Y-92000000D03*
X49000000Y-92000000D03*
X50000000Y-92000000D03*
X51000000Y-92000000D03*
X52000000Y-92000000D03*
X53000000Y-92000000D03*
X54000000Y-92000000D03*
X55000000Y-92000000D03*
%TD*%
D12*
%TO.C,REF\u002A\u002A*%
X275000000Y-28500000D03*
%TD*%
D13*
%TO.C,RegisterLane*%
X176000000Y-148000000D03*
X177000000Y-148000000D03*
X178000000Y-148000000D03*
X179000000Y-148000000D03*
X180000000Y-148000000D03*
X181000000Y-148000000D03*
X182000000Y-148000000D03*
X183000000Y-148000000D03*
%TD*%
%TO.C,RegisterLane*%
X48000000Y-108000000D03*
X49000000Y-108000000D03*
X50000000Y-108000000D03*
X51000000Y-108000000D03*
X52000000Y-108000000D03*
X53000000Y-108000000D03*
X54000000Y-108000000D03*
X55000000Y-108000000D03*
%TD*%
%TO.C,RegisterLane*%
X240000000Y-140000000D03*
X241000000Y-140000000D03*
X242000000Y-140000000D03*
X243000000Y-140000000D03*
X244000000Y-140000000D03*
X245000000Y-140000000D03*
X246000000Y-140000000D03*
X247000000Y-140000000D03*
%TD*%
%TO.C,RegisterLane*%
X48000000Y-84000000D03*
X49000000Y-84000000D03*
X50000000Y-84000000D03*
X51000000Y-84000000D03*
X52000000Y-84000000D03*
X53000000Y-84000000D03*
X54000000Y-84000000D03*
X55000000Y-84000000D03*
%TD*%
%TO.C,RegisterLane*%
X240000000Y-108000000D03*
X241000000Y-108000000D03*
X242000000Y-108000000D03*
X243000000Y-108000000D03*
X244000000Y-108000000D03*
X245000000Y-108000000D03*
X246000000Y-108000000D03*
X247000000Y-108000000D03*
%TD*%
%TO.C,RegisterLane*%
X240000000Y-156000000D03*
X241000000Y-156000000D03*
X242000000Y-156000000D03*
X243000000Y-156000000D03*
X244000000Y-156000000D03*
X245000000Y-156000000D03*
X246000000Y-156000000D03*
X247000000Y-156000000D03*
%TD*%
%TO.C,RegisterLane*%
X112000000Y-36000000D03*
X113000000Y-36000000D03*
X114000000Y-36000000D03*
X115000000Y-36000000D03*
X116000000Y-36000000D03*
X117000000Y-36000000D03*
X118000000Y-36000000D03*
X119000000Y-36000000D03*
%TD*%
%TO.C,RegisterLane*%
X48000000Y-124000000D03*
X49000000Y-124000000D03*
X50000000Y-124000000D03*
X51000000Y-124000000D03*
X52000000Y-124000000D03*
X53000000Y-124000000D03*
X54000000Y-124000000D03*
X55000000Y-124000000D03*
%TD*%
D12*
%TO.C,REF\u002A\u002A*%
X275000000Y-157000000D03*
%TD*%
D13*
%TO.C,RegisterLane*%
X48000000Y-100000000D03*
X49000000Y-100000000D03*
X50000000Y-100000000D03*
X51000000Y-100000000D03*
X52000000Y-100000000D03*
X53000000Y-100000000D03*
X54000000Y-100000000D03*
X55000000Y-100000000D03*
%TD*%
D12*
%TO.C,REF\u002A\u002A*%
X19500000Y-157000000D03*
%TD*%
D13*
%TO.C,RegisterLane*%
X112000000Y-92000000D03*
X113000000Y-92000000D03*
X114000000Y-92000000D03*
X115000000Y-92000000D03*
X116000000Y-92000000D03*
X117000000Y-92000000D03*
X118000000Y-92000000D03*
X119000000Y-92000000D03*
%TD*%
%TO.C,RegisterLane*%
X48000000Y-156000000D03*
X49000000Y-156000000D03*
X50000000Y-156000000D03*
X51000000Y-156000000D03*
X52000000Y-156000000D03*
X53000000Y-156000000D03*
X54000000Y-156000000D03*
X55000000Y-156000000D03*
%TD*%
%TO.C,RegisterLane*%
X240000000Y-36000000D03*
X241000000Y-36000000D03*
X242000000Y-36000000D03*
X243000000Y-36000000D03*
X244000000Y-36000000D03*
X245000000Y-36000000D03*
X246000000Y-36000000D03*
X247000000Y-36000000D03*
%TD*%
%TO.C,RegisterLane*%
X112000000Y-116000000D03*
X113000000Y-116000000D03*
X114000000Y-116000000D03*
X115000000Y-116000000D03*
X116000000Y-116000000D03*
X117000000Y-116000000D03*
X118000000Y-116000000D03*
X119000000Y-116000000D03*
%TD*%
%TO.C,RegisterLane*%
X112000000Y-52000000D03*
X113000000Y-52000000D03*
X114000000Y-52000000D03*
X115000000Y-52000000D03*
X116000000Y-52000000D03*
X117000000Y-52000000D03*
X118000000Y-52000000D03*
X119000000Y-52000000D03*
%TD*%
%TO.C,RegisterLane*%
X48000000Y-116000000D03*
X49000000Y-116000000D03*
X50000000Y-116000000D03*
X51000000Y-116000000D03*
X52000000Y-116000000D03*
X53000000Y-116000000D03*
X54000000Y-116000000D03*
X55000000Y-116000000D03*
%TD*%
%TO.C,RegisterLane*%
X176000000Y-132000000D03*
X177000000Y-132000000D03*
X178000000Y-132000000D03*
X179000000Y-132000000D03*
X180000000Y-132000000D03*
X181000000Y-132000000D03*
X182000000Y-132000000D03*
X183000000Y-132000000D03*
%TD*%
%TO.C,RegisterLane*%
X176000000Y-124000000D03*
X177000000Y-124000000D03*
X178000000Y-124000000D03*
X179000000Y-124000000D03*
X180000000Y-124000000D03*
X181000000Y-124000000D03*
X182000000Y-124000000D03*
X183000000Y-124000000D03*
%TD*%
%TO.C,RegisterLane*%
X176000000Y-116000000D03*
X177000000Y-116000000D03*
X178000000Y-116000000D03*
X179000000Y-116000000D03*
X180000000Y-116000000D03*
X181000000Y-116000000D03*
X182000000Y-116000000D03*
X183000000Y-116000000D03*
%TD*%
%TO.C,RegisterLane*%
X176000000Y-140000000D03*
X177000000Y-140000000D03*
X178000000Y-140000000D03*
X179000000Y-140000000D03*
X180000000Y-140000000D03*
X181000000Y-140000000D03*
X182000000Y-140000000D03*
X183000000Y-140000000D03*
%TD*%
%TO.C,RegisterLane*%
X240000000Y-132000000D03*
X241000000Y-132000000D03*
X242000000Y-132000000D03*
X243000000Y-132000000D03*
X244000000Y-132000000D03*
X245000000Y-132000000D03*
X246000000Y-132000000D03*
X247000000Y-132000000D03*
%TD*%
%TO.C,RegisterLane*%
X112000000Y-100000000D03*
X113000000Y-100000000D03*
X114000000Y-100000000D03*
X115000000Y-100000000D03*
X116000000Y-100000000D03*
X117000000Y-100000000D03*
X118000000Y-100000000D03*
X119000000Y-100000000D03*
%TD*%
%TO.C,RegisterLane*%
X240000000Y-116000000D03*
X241000000Y-116000000D03*
X242000000Y-116000000D03*
X243000000Y-116000000D03*
X244000000Y-116000000D03*
X245000000Y-116000000D03*
X246000000Y-116000000D03*
X247000000Y-116000000D03*
%TD*%
%TO.C,RegisterLane*%
X240000000Y-52000000D03*
X241000000Y-52000000D03*
X242000000Y-52000000D03*
X243000000Y-52000000D03*
X244000000Y-52000000D03*
X245000000Y-52000000D03*
X246000000Y-52000000D03*
X247000000Y-52000000D03*
%TD*%
%TO.C,RegisterLane*%
X176000000Y-156000000D03*
X177000000Y-156000000D03*
X178000000Y-156000000D03*
X179000000Y-156000000D03*
X180000000Y-156000000D03*
X181000000Y-156000000D03*
X182000000Y-156000000D03*
X183000000Y-156000000D03*
%TD*%
%TO.C,RegisterLane*%
X48000000Y-68000000D03*
X49000000Y-68000000D03*
X50000000Y-68000000D03*
X51000000Y-68000000D03*
X52000000Y-68000000D03*
X53000000Y-68000000D03*
X54000000Y-68000000D03*
X55000000Y-68000000D03*
%TD*%
%TO.C,RegisterLane*%
X176000000Y-76000000D03*
X177000000Y-76000000D03*
X178000000Y-76000000D03*
X179000000Y-76000000D03*
X180000000Y-76000000D03*
X181000000Y-76000000D03*
X182000000Y-76000000D03*
X183000000Y-76000000D03*
%TD*%
%TO.C,RegisterLane*%
X48000000Y-60000000D03*
X49000000Y-60000000D03*
X50000000Y-60000000D03*
X51000000Y-60000000D03*
X52000000Y-60000000D03*
X53000000Y-60000000D03*
X54000000Y-60000000D03*
X55000000Y-60000000D03*
%TD*%
%TO.C,RegisterLane*%
X176000000Y-68000000D03*
X177000000Y-68000000D03*
X178000000Y-68000000D03*
X179000000Y-68000000D03*
X180000000Y-68000000D03*
X181000000Y-68000000D03*
X182000000Y-68000000D03*
X183000000Y-68000000D03*
%TD*%
%TO.C,RegisterLane*%
X112000000Y-148000000D03*
X113000000Y-148000000D03*
X114000000Y-148000000D03*
X115000000Y-148000000D03*
X116000000Y-148000000D03*
X117000000Y-148000000D03*
X118000000Y-148000000D03*
X119000000Y-148000000D03*
%TD*%
%TO.C,RegisterLane*%
X48000000Y-76000000D03*
X49000000Y-76000000D03*
X50000000Y-76000000D03*
X51000000Y-76000000D03*
X52000000Y-76000000D03*
X53000000Y-76000000D03*
X54000000Y-76000000D03*
X55000000Y-76000000D03*
%TD*%
%TO.C,RegisterLane*%
X176000000Y-36000000D03*
X177000000Y-36000000D03*
X178000000Y-36000000D03*
X179000000Y-36000000D03*
X180000000Y-36000000D03*
X181000000Y-36000000D03*
X182000000Y-36000000D03*
X183000000Y-36000000D03*
%TD*%
%TO.C,RegisterLane*%
X112000000Y-108000000D03*
X113000000Y-108000000D03*
X114000000Y-108000000D03*
X115000000Y-108000000D03*
X116000000Y-108000000D03*
X117000000Y-108000000D03*
X118000000Y-108000000D03*
X119000000Y-108000000D03*
%TD*%
%TO.C,RegisterLane*%
X48000000Y-148000000D03*
X49000000Y-148000000D03*
X50000000Y-148000000D03*
X51000000Y-148000000D03*
X52000000Y-148000000D03*
X53000000Y-148000000D03*
X54000000Y-148000000D03*
X55000000Y-148000000D03*
%TD*%
%TO.C,RegisterLane*%
X112000000Y-140000000D03*
X113000000Y-140000000D03*
X114000000Y-140000000D03*
X115000000Y-140000000D03*
X116000000Y-140000000D03*
X117000000Y-140000000D03*
X118000000Y-140000000D03*
X119000000Y-140000000D03*
%TD*%
%TO.C,RegisterLane*%
X112000000Y-132000000D03*
X113000000Y-132000000D03*
X114000000Y-132000000D03*
X115000000Y-132000000D03*
X116000000Y-132000000D03*
X117000000Y-132000000D03*
X118000000Y-132000000D03*
X119000000Y-132000000D03*
%TD*%
%TO.C,RegisterLane*%
X112000000Y-156000000D03*
X113000000Y-156000000D03*
X114000000Y-156000000D03*
X115000000Y-156000000D03*
X116000000Y-156000000D03*
X117000000Y-156000000D03*
X118000000Y-156000000D03*
X119000000Y-156000000D03*
%TD*%
%TO.C,RegisterLane*%
X240000000Y-68000000D03*
X241000000Y-68000000D03*
X242000000Y-68000000D03*
X243000000Y-68000000D03*
X244000000Y-68000000D03*
X245000000Y-68000000D03*
X246000000Y-68000000D03*
X247000000Y-68000000D03*
%TD*%
%TO.C,RegisterLane*%
X240000000Y-76000000D03*
X241000000Y-76000000D03*
X242000000Y-76000000D03*
X243000000Y-76000000D03*
X244000000Y-76000000D03*
X245000000Y-76000000D03*
X246000000Y-76000000D03*
X247000000Y-76000000D03*
%TD*%
%TO.C,RegisterLane*%
X48000000Y-140000000D03*
X49000000Y-140000000D03*
X50000000Y-140000000D03*
X51000000Y-140000000D03*
X52000000Y-140000000D03*
X53000000Y-140000000D03*
X54000000Y-140000000D03*
X55000000Y-140000000D03*
%TD*%
%TO.C,RegisterLane*%
X112000000Y-44000000D03*
X113000000Y-44000000D03*
X114000000Y-44000000D03*
X115000000Y-44000000D03*
X116000000Y-44000000D03*
X117000000Y-44000000D03*
X118000000Y-44000000D03*
X119000000Y-44000000D03*
%TD*%
%TO.C,RegisterLane*%
X112000000Y-76000000D03*
X113000000Y-76000000D03*
X114000000Y-76000000D03*
X115000000Y-76000000D03*
X116000000Y-76000000D03*
X117000000Y-76000000D03*
X118000000Y-76000000D03*
X119000000Y-76000000D03*
%TD*%
%TO.C,RegisterLane*%
X240000000Y-148000000D03*
X241000000Y-148000000D03*
X242000000Y-148000000D03*
X243000000Y-148000000D03*
X244000000Y-148000000D03*
X245000000Y-148000000D03*
X246000000Y-148000000D03*
X247000000Y-148000000D03*
%TD*%
%TO.C,RegisterLane*%
X240000000Y-84000000D03*
X241000000Y-84000000D03*
X242000000Y-84000000D03*
X243000000Y-84000000D03*
X244000000Y-84000000D03*
X245000000Y-84000000D03*
X246000000Y-84000000D03*
X247000000Y-84000000D03*
%TD*%
%TO.C,RegisterLane*%
X176000000Y-52000000D03*
X177000000Y-52000000D03*
X178000000Y-52000000D03*
X179000000Y-52000000D03*
X180000000Y-52000000D03*
X181000000Y-52000000D03*
X182000000Y-52000000D03*
X183000000Y-52000000D03*
%TD*%
%TO.C,RegisterLane*%
X176000000Y-92000000D03*
X177000000Y-92000000D03*
X178000000Y-92000000D03*
X179000000Y-92000000D03*
X180000000Y-92000000D03*
X181000000Y-92000000D03*
X182000000Y-92000000D03*
X183000000Y-92000000D03*
%TD*%
%TO.C,RegisterLane*%
X240000000Y-100000000D03*
X241000000Y-100000000D03*
X242000000Y-100000000D03*
X243000000Y-100000000D03*
X244000000Y-100000000D03*
X245000000Y-100000000D03*
X246000000Y-100000000D03*
X247000000Y-100000000D03*
%TD*%
%TO.C,RegisterLane*%
X176000000Y-84000000D03*
X177000000Y-84000000D03*
X178000000Y-84000000D03*
X179000000Y-84000000D03*
X180000000Y-84000000D03*
X181000000Y-84000000D03*
X182000000Y-84000000D03*
X183000000Y-84000000D03*
%TD*%
%TO.C,RegisterLane*%
X176000000Y-100000000D03*
X177000000Y-100000000D03*
X178000000Y-100000000D03*
X179000000Y-100000000D03*
X180000000Y-100000000D03*
X181000000Y-100000000D03*
X182000000Y-100000000D03*
X183000000Y-100000000D03*
%TD*%
%TO.C,RegisterLane*%
X176000000Y-108000000D03*
X177000000Y-108000000D03*
X178000000Y-108000000D03*
X179000000Y-108000000D03*
X180000000Y-108000000D03*
X181000000Y-108000000D03*
X182000000Y-108000000D03*
X183000000Y-108000000D03*
%TD*%
%TO.C,RegisterLane*%
X112000000Y-124000000D03*
X113000000Y-124000000D03*
X114000000Y-124000000D03*
X115000000Y-124000000D03*
X116000000Y-124000000D03*
X117000000Y-124000000D03*
X118000000Y-124000000D03*
X119000000Y-124000000D03*
%TD*%
%TO.C,RegisterLane*%
X112000000Y-84000000D03*
X113000000Y-84000000D03*
X114000000Y-84000000D03*
X115000000Y-84000000D03*
X116000000Y-84000000D03*
X117000000Y-84000000D03*
X118000000Y-84000000D03*
X119000000Y-84000000D03*
%TD*%
%TO.C,RegisterLane*%
X48000000Y-44000000D03*
X49000000Y-44000000D03*
X50000000Y-44000000D03*
X51000000Y-44000000D03*
X52000000Y-44000000D03*
X53000000Y-44000000D03*
X54000000Y-44000000D03*
X55000000Y-44000000D03*
%TD*%
%TO.C,RegisterLane*%
X176000000Y-60000000D03*
X177000000Y-60000000D03*
X178000000Y-60000000D03*
X179000000Y-60000000D03*
X180000000Y-60000000D03*
X181000000Y-60000000D03*
X182000000Y-60000000D03*
X183000000Y-60000000D03*
%TD*%
%TO.C,RegisterLane*%
X240000000Y-60000000D03*
X241000000Y-60000000D03*
X242000000Y-60000000D03*
X243000000Y-60000000D03*
X244000000Y-60000000D03*
X245000000Y-60000000D03*
X246000000Y-60000000D03*
X247000000Y-60000000D03*
%TD*%
%TO.C,RegisterLane*%
X48000000Y-52000000D03*
X49000000Y-52000000D03*
X50000000Y-52000000D03*
X51000000Y-52000000D03*
X52000000Y-52000000D03*
X53000000Y-52000000D03*
X54000000Y-52000000D03*
X55000000Y-52000000D03*
%TD*%
%TO.C,RegisterLane*%
X112000000Y-60000000D03*
X113000000Y-60000000D03*
X114000000Y-60000000D03*
X115000000Y-60000000D03*
X116000000Y-60000000D03*
X117000000Y-60000000D03*
X118000000Y-60000000D03*
X119000000Y-60000000D03*
%TD*%
%TO.C,RegisterLane*%
X240000000Y-44000000D03*
X241000000Y-44000000D03*
X242000000Y-44000000D03*
X243000000Y-44000000D03*
X244000000Y-44000000D03*
X245000000Y-44000000D03*
X246000000Y-44000000D03*
X247000000Y-44000000D03*
%TD*%
%TO.C,RegisterLane*%
X48000000Y-36000000D03*
X49000000Y-36000000D03*
X50000000Y-36000000D03*
X51000000Y-36000000D03*
X52000000Y-36000000D03*
X53000000Y-36000000D03*
X54000000Y-36000000D03*
X55000000Y-36000000D03*
%TD*%
%TO.C,RegisterLane*%
X48000000Y-132000000D03*
X49000000Y-132000000D03*
X50000000Y-132000000D03*
X51000000Y-132000000D03*
X52000000Y-132000000D03*
X53000000Y-132000000D03*
X54000000Y-132000000D03*
X55000000Y-132000000D03*
%TD*%
%TO.C,RegisterLane*%
X240000000Y-92000000D03*
X241000000Y-92000000D03*
X242000000Y-92000000D03*
X243000000Y-92000000D03*
X244000000Y-92000000D03*
X245000000Y-92000000D03*
X246000000Y-92000000D03*
X247000000Y-92000000D03*
%TD*%
D12*
%TO.C,REF\u002A\u002A*%
X19500000Y-28500000D03*
%TD*%
M02*
