M48
; DRILL file {KiCad 9.0.7} date 2026-02-02T21:24:00-0500
; FORMAT={-:-/ absolute / metric / decimal}
; #@! TF.CreationDate,2026-02-02T21:24:00-05:00
; #@! TF.GenerationSoftware,Kicad,Pcbnew,9.0.7
; #@! TF.FileFunction,Plated,1,2,PTH
FMAT,2
METRIC
; #@! TA.AperFunction,Plated,PTH,ViaDrill
T1C0.300
; #@! TA.AperFunction,Plated,PTH,ComponentDrill
T2C0.500
%
G90
G05
T1
X16.5Y-37.5
X20.49Y-28.0
X20.49Y-36.0
X20.49Y-44.0
X20.49Y-52.0
X20.49Y-60.0
X20.49Y-68.0
X20.49Y-76.0
X20.49Y-84.0
X20.49Y-92.0
X20.49Y-100.0
X20.49Y-108.0
X20.49Y-116.0
X20.49Y-124.0
X20.49Y-132.0
X20.49Y-140.0
X20.49Y-148.0
X28.49Y-28.0
X28.49Y-36.0
X28.49Y-44.0
X28.49Y-52.0
X28.49Y-60.0
X28.49Y-68.0
X28.49Y-76.0
X28.49Y-84.0
X28.49Y-92.0
X28.49Y-100.0
X28.49Y-108.0
X28.49Y-116.0
X28.49Y-124.0
X28.49Y-132.0
X28.49Y-140.0
X28.49Y-148.0
X36.49Y-28.0
X36.49Y-36.0
X36.49Y-44.0
X36.49Y-52.0
X36.49Y-60.0
X36.49Y-68.0
X36.49Y-76.0
X36.49Y-84.0
X36.49Y-92.0
X36.49Y-100.0
X36.49Y-108.0
X36.49Y-116.0
X36.49Y-124.0
X36.49Y-132.0
X36.49Y-140.0
X36.49Y-148.0
X44.48Y-28.0
X44.48Y-36.0
X44.48Y-44.0
X44.48Y-52.0
X44.48Y-60.0
X44.48Y-68.0
X44.48Y-76.0
X44.48Y-84.0
X44.48Y-92.0
X44.48Y-100.0
X44.48Y-108.0
X44.48Y-116.0
X44.48Y-124.0
X44.48Y-132.0
X44.48Y-140.0
X44.48Y-148.0
X52.48Y-28.0
X52.48Y-36.0
X52.48Y-44.0
X52.48Y-52.0
X52.48Y-60.0
X52.48Y-68.0
X52.48Y-76.0
X52.48Y-84.0
X52.48Y-92.0
X52.48Y-100.0
X52.48Y-108.0
X52.48Y-116.0
X52.48Y-124.0
X52.48Y-132.0
X52.48Y-140.0
X52.48Y-148.0
X60.48Y-28.0
X60.48Y-36.0
X60.48Y-44.0
X60.48Y-52.0
X60.48Y-60.0
X60.48Y-68.0
X60.48Y-76.0
X60.48Y-84.0
X60.48Y-92.0
X60.48Y-100.0
X60.48Y-108.0
X60.48Y-116.0
X60.48Y-124.0
X60.48Y-132.0
X60.48Y-140.0
X60.48Y-148.0
X68.48Y-28.0
X68.48Y-36.0
X68.48Y-44.0
X68.48Y-52.0
X68.48Y-60.0
X68.48Y-68.0
X68.48Y-76.0
X68.48Y-84.0
X68.48Y-92.0
X68.48Y-100.0
X68.48Y-108.0
X68.48Y-116.0
X68.48Y-124.0
X68.48Y-132.0
X68.48Y-140.0
X68.48Y-148.0
X76.48Y-28.0
X76.48Y-36.0
X76.48Y-44.0
X76.48Y-52.0
X76.48Y-60.0
X76.48Y-68.0
X76.48Y-76.0
X76.48Y-84.0
X76.48Y-92.0
X76.48Y-100.0
X76.48Y-108.0
X76.48Y-116.0
X76.48Y-124.0
X76.48Y-132.0
X76.48Y-140.0
X76.48Y-148.0
X84.49Y-28.0
X84.49Y-36.0
X84.49Y-44.0
X84.49Y-52.0
X84.49Y-60.0
X84.49Y-68.0
X84.49Y-76.0
X84.49Y-84.0
X84.49Y-92.0
X84.49Y-100.0
X84.49Y-108.0
X84.49Y-116.0
X84.49Y-124.0
X84.49Y-132.0
X84.49Y-140.0
X84.49Y-148.0
X92.49Y-28.0
X92.49Y-36.0
X92.49Y-44.0
X92.49Y-52.0
X92.49Y-60.0
X92.49Y-68.0
X92.49Y-76.0
X92.49Y-84.0
X92.49Y-92.0
X92.49Y-100.0
X92.49Y-108.0
X92.49Y-116.0
X92.49Y-124.0
X92.49Y-132.0
X92.49Y-140.0
X92.49Y-148.0
X100.49Y-28.0
X100.49Y-36.0
X100.49Y-44.0
X100.49Y-52.0
X100.49Y-60.0
X100.49Y-68.0
X100.49Y-76.0
X100.49Y-84.0
X100.49Y-92.0
X100.49Y-100.0
X100.49Y-108.0
X100.49Y-116.0
X100.49Y-124.0
X100.49Y-132.0
X100.49Y-140.0
X100.49Y-148.0
X108.48Y-28.0
X108.48Y-36.0
X108.48Y-44.0
X108.48Y-52.0
X108.48Y-60.0
X108.48Y-68.0
X108.48Y-76.0
X108.48Y-84.0
X108.48Y-92.0
X108.48Y-100.0
X108.48Y-108.0
X108.48Y-116.0
X108.48Y-124.0
X108.48Y-132.0
X108.48Y-140.0
X108.48Y-148.0
X116.48Y-28.0
X116.48Y-36.0
X116.48Y-44.0
X116.48Y-52.0
X116.48Y-60.0
X116.48Y-68.0
X116.48Y-76.0
X116.48Y-84.0
X116.48Y-92.0
X116.48Y-100.0
X116.48Y-108.0
X116.48Y-116.0
X116.48Y-124.0
X116.48Y-132.0
X116.48Y-140.0
X116.48Y-148.0
X124.48Y-28.0
X124.48Y-36.0
X124.48Y-44.0
X124.48Y-52.0
X124.48Y-60.0
X124.48Y-68.0
X124.48Y-76.0
X124.48Y-84.0
X124.48Y-92.0
X124.48Y-100.0
X124.48Y-108.0
X124.48Y-116.0
X124.48Y-124.0
X124.48Y-132.0
X124.48Y-140.0
X124.48Y-148.0
X132.48Y-28.0
X132.48Y-36.0
X132.48Y-44.0
X132.48Y-52.0
X132.48Y-60.0
X132.48Y-68.0
X132.48Y-76.0
X132.48Y-84.0
X132.48Y-92.0
X132.48Y-100.0
X132.48Y-108.0
X132.48Y-116.0
X132.48Y-124.0
X132.48Y-132.0
X132.48Y-140.0
X132.48Y-148.0
X140.48Y-28.0
X140.48Y-36.0
X140.48Y-44.0
X140.48Y-52.0
X140.48Y-60.0
X140.48Y-68.0
X140.48Y-76.0
X140.48Y-84.0
X140.48Y-92.0
X140.48Y-100.0
X140.48Y-108.0
X140.48Y-116.0
X140.48Y-124.0
X140.48Y-132.0
X140.48Y-140.0
X140.48Y-148.0
X148.49Y-28.0
X148.49Y-36.0
X148.49Y-44.0
X148.49Y-52.0
X148.49Y-60.0
X148.49Y-68.0
X148.49Y-76.0
X148.49Y-84.0
X148.49Y-92.0
X148.49Y-100.0
X148.49Y-108.0
X148.49Y-116.0
X148.49Y-124.0
X148.49Y-132.0
X148.49Y-140.0
X148.49Y-148.0
X156.49Y-28.0
X156.49Y-36.0
X156.49Y-44.0
X156.49Y-52.0
X156.49Y-60.0
X156.49Y-68.0
X156.49Y-76.0
X156.49Y-84.0
X156.49Y-92.0
X156.49Y-100.0
X156.49Y-108.0
X156.49Y-116.0
X156.49Y-124.0
X156.49Y-132.0
X156.49Y-140.0
X156.49Y-148.0
X164.49Y-28.0
X164.49Y-36.0
X164.49Y-44.0
X164.49Y-52.0
X164.49Y-60.0
X164.49Y-68.0
X164.49Y-76.0
X164.49Y-84.0
X164.49Y-92.0
X164.49Y-100.0
X164.49Y-108.0
X164.49Y-116.0
X164.49Y-124.0
X164.49Y-132.0
X164.49Y-140.0
X164.49Y-148.0
X172.48Y-28.0
X172.48Y-36.0
X172.48Y-44.0
X172.48Y-52.0
X172.48Y-60.0
X172.48Y-68.0
X172.48Y-76.0
X172.48Y-84.0
X172.48Y-92.0
X172.48Y-100.0
X172.48Y-108.0
X172.48Y-116.0
X172.48Y-124.0
X172.48Y-132.0
X172.48Y-140.0
X172.48Y-148.0
X180.48Y-28.0
X180.48Y-36.0
X180.48Y-44.0
X180.48Y-52.0
X180.48Y-60.0
X180.48Y-68.0
X180.48Y-76.0
X180.48Y-84.0
X180.48Y-92.0
X180.48Y-100.0
X180.48Y-108.0
X180.48Y-116.0
X180.48Y-124.0
X180.48Y-132.0
X180.48Y-140.0
X180.48Y-148.0
X188.48Y-28.0
X188.48Y-36.0
X188.48Y-44.0
X188.48Y-52.0
X188.48Y-60.0
X188.48Y-68.0
X188.48Y-76.0
X188.48Y-84.0
X188.48Y-92.0
X188.48Y-100.0
X188.48Y-108.0
X188.48Y-116.0
X188.48Y-124.0
X188.48Y-132.0
X188.48Y-140.0
X188.48Y-148.0
X196.48Y-28.0
X196.48Y-36.0
X196.48Y-44.0
X196.48Y-52.0
X196.48Y-60.0
X196.48Y-68.0
X196.48Y-76.0
X196.48Y-84.0
X196.48Y-92.0
X196.48Y-100.0
X196.48Y-108.0
X196.48Y-116.0
X196.48Y-124.0
X196.48Y-132.0
X196.48Y-140.0
X196.48Y-148.0
X204.48Y-28.0
X204.48Y-36.0
X204.48Y-44.0
X204.48Y-52.0
X204.48Y-60.0
X204.48Y-68.0
X204.48Y-76.0
X204.48Y-84.0
X204.48Y-92.0
X204.48Y-100.0
X204.48Y-108.0
X204.48Y-116.0
X204.48Y-124.0
X204.48Y-132.0
X204.48Y-140.0
X204.48Y-148.0
X212.49Y-28.0
X212.49Y-36.0
X212.49Y-44.0
X212.49Y-52.0
X212.49Y-60.0
X212.49Y-68.0
X212.49Y-76.0
X212.49Y-84.0
X212.49Y-92.0
X212.49Y-100.0
X212.49Y-108.0
X212.49Y-116.0
X212.49Y-124.0
X212.49Y-132.0
X212.49Y-140.0
X212.49Y-148.0
X220.49Y-28.0
X220.49Y-36.0
X220.49Y-44.0
X220.49Y-52.0
X220.49Y-60.0
X220.49Y-68.0
X220.49Y-76.0
X220.49Y-84.0
X220.49Y-92.0
X220.49Y-100.0
X220.49Y-108.0
X220.49Y-116.0
X220.49Y-124.0
X220.49Y-132.0
X220.49Y-140.0
X220.49Y-148.0
X228.49Y-28.0
X228.49Y-36.0
X228.49Y-44.0
X228.49Y-52.0
X228.49Y-60.0
X228.49Y-68.0
X228.49Y-76.0
X228.49Y-84.0
X228.49Y-92.0
X228.49Y-100.0
X228.49Y-108.0
X228.49Y-116.0
X228.49Y-124.0
X228.49Y-132.0
X228.49Y-140.0
X228.49Y-148.0
X236.48Y-28.0
X236.48Y-36.0
X236.48Y-44.0
X236.48Y-52.0
X236.48Y-60.0
X236.48Y-68.0
X236.48Y-76.0
X236.48Y-84.0
X236.48Y-92.0
X236.48Y-100.0
X236.48Y-108.0
X236.48Y-116.0
X236.48Y-124.0
X236.48Y-132.0
X236.48Y-140.0
X236.48Y-148.0
X244.48Y-28.0
X244.48Y-36.0
X244.48Y-44.0
X244.48Y-52.0
X244.48Y-60.0
X244.48Y-68.0
X244.48Y-76.0
X244.48Y-84.0
X244.48Y-92.0
X244.48Y-100.0
X244.48Y-108.0
X244.48Y-116.0
X244.48Y-124.0
X244.48Y-132.0
X244.48Y-140.0
X244.48Y-148.0
X252.48Y-28.0
X252.48Y-36.0
X252.48Y-44.0
X252.48Y-52.0
X252.48Y-60.0
X252.48Y-68.0
X252.48Y-76.0
X252.48Y-84.0
X252.48Y-92.0
X252.48Y-100.0
X252.48Y-108.0
X252.48Y-116.0
X252.48Y-124.0
X252.48Y-132.0
X252.48Y-140.0
X252.48Y-148.0
X260.48Y-28.0
X260.48Y-36.0
X260.48Y-44.0
X260.48Y-52.0
X260.48Y-60.0
X260.48Y-68.0
X260.48Y-76.0
X260.48Y-84.0
X260.48Y-92.0
X260.48Y-100.0
X260.48Y-108.0
X260.48Y-116.0
X260.48Y-124.0
X260.48Y-132.0
X260.48Y-140.0
X260.48Y-148.0
X268.48Y-28.0
X268.48Y-36.0
X268.48Y-44.0
X268.48Y-52.0
X268.48Y-60.0
X268.48Y-68.0
X268.48Y-76.0
X268.48Y-84.0
X268.48Y-92.0
X268.48Y-100.0
X268.48Y-108.0
X268.48Y-116.0
X268.48Y-124.0
X268.48Y-132.0
X268.48Y-140.0
X268.48Y-148.0
X272.5Y-153.0
T2
X17.0Y-35.0
X17.0Y-36.0
X18.0Y-30.5
X18.0Y-38.5
X18.0Y-46.5
X18.0Y-54.5
X18.0Y-62.5
X18.0Y-70.5
X18.0Y-78.5
X18.0Y-86.5
X18.0Y-94.5
X18.0Y-102.5
X18.0Y-110.5
X18.0Y-118.5
X18.0Y-126.5
X18.0Y-134.5
X18.0Y-142.5
X18.0Y-150.5
X23.4Y-30.5
X23.4Y-38.5
X23.4Y-46.5
X23.4Y-54.5
X23.4Y-62.5
X23.4Y-70.5
X23.4Y-78.5
X23.4Y-86.5
X23.4Y-94.5
X23.4Y-102.5
X23.4Y-110.5
X23.4Y-118.5
X23.4Y-126.5
X23.4Y-134.5
X23.4Y-142.5
X23.4Y-150.5
X26.0Y-30.5
X26.0Y-38.5
X26.0Y-46.5
X26.0Y-54.5
X26.0Y-62.5
X26.0Y-70.5
X26.0Y-78.5
X26.0Y-86.5
X26.0Y-94.5
X26.0Y-102.5
X26.0Y-110.5
X26.0Y-118.5
X26.0Y-126.5
X26.0Y-134.5
X26.0Y-142.5
X26.0Y-150.5
X31.4Y-30.5
X31.4Y-38.5
X31.4Y-46.5
X31.4Y-54.5
X31.4Y-62.5
X31.4Y-70.5
X31.4Y-78.5
X31.4Y-86.5
X31.4Y-94.5
X31.4Y-102.5
X31.4Y-110.5
X31.4Y-118.5
X31.4Y-126.5
X31.4Y-134.5
X31.4Y-142.5
X31.4Y-150.5
X34.0Y-30.5
X34.0Y-38.5
X34.0Y-46.5
X34.0Y-54.5
X34.0Y-62.5
X34.0Y-70.5
X34.0Y-78.5
X34.0Y-86.5
X34.0Y-94.5
X34.0Y-102.5
X34.0Y-110.5
X34.0Y-118.5
X34.0Y-126.5
X34.0Y-134.5
X34.0Y-142.5
X34.0Y-150.5
X39.4Y-30.5
X39.4Y-38.5
X39.4Y-46.5
X39.4Y-54.5
X39.4Y-62.5
X39.4Y-70.5
X39.4Y-78.5
X39.4Y-86.5
X39.4Y-94.5
X39.4Y-102.5
X39.4Y-110.5
X39.4Y-118.5
X39.4Y-126.5
X39.4Y-134.5
X39.4Y-142.5
X39.4Y-150.5
X41.99Y-30.5
X41.99Y-38.5
X41.99Y-46.5
X41.99Y-54.5
X41.99Y-62.5
X41.99Y-70.5
X41.99Y-78.5
X41.99Y-86.5
X41.99Y-94.5
X41.99Y-102.5
X41.99Y-110.5
X41.99Y-118.5
X41.99Y-126.5
X41.99Y-134.5
X41.99Y-142.5
X41.99Y-150.5
X45.5Y-34.0
X45.5Y-42.0
X45.5Y-50.0
X45.5Y-58.0
X45.5Y-66.0
X45.5Y-74.0
X45.5Y-82.0
X45.5Y-90.0
X45.5Y-98.0
X45.5Y-106.0
X45.5Y-114.0
X45.5Y-122.0
X45.5Y-130.0
X45.5Y-138.0
X45.5Y-146.0
X45.5Y-154.0
X46.5Y-34.0
X46.5Y-42.0
X46.5Y-50.0
X46.5Y-58.0
X46.5Y-66.0
X46.5Y-74.0
X46.5Y-82.0
X46.5Y-90.0
X46.5Y-98.0
X46.5Y-106.0
X46.5Y-114.0
X46.5Y-122.0
X46.5Y-130.0
X46.5Y-138.0
X46.5Y-146.0
X46.5Y-154.0
X47.39Y-30.5
X47.39Y-38.5
X47.39Y-46.5
X47.39Y-54.5
X47.39Y-62.5
X47.39Y-70.5
X47.39Y-78.5
X47.39Y-86.5
X47.39Y-94.5
X47.39Y-102.5
X47.39Y-110.5
X47.39Y-118.5
X47.39Y-126.5
X47.39Y-134.5
X47.39Y-142.5
X47.39Y-150.5
X47.5Y-34.0
X47.5Y-42.0
X47.5Y-50.0
X47.5Y-58.0
X47.5Y-66.0
X47.5Y-74.0
X47.5Y-82.0
X47.5Y-90.0
X47.5Y-98.0
X47.5Y-106.0
X47.5Y-114.0
X47.5Y-122.0
X47.5Y-130.0
X47.5Y-138.0
X47.5Y-146.0
X47.5Y-154.0
X48.5Y-34.0
X48.5Y-42.0
X48.5Y-50.0
X48.5Y-58.0
X48.5Y-66.0
X48.5Y-74.0
X48.5Y-82.0
X48.5Y-90.0
X48.5Y-98.0
X48.5Y-106.0
X48.5Y-114.0
X48.5Y-122.0
X48.5Y-130.0
X48.5Y-138.0
X48.5Y-146.0
X48.5Y-154.0
X49.5Y-34.0
X49.5Y-42.0
X49.5Y-50.0
X49.5Y-58.0
X49.5Y-66.0
X49.5Y-74.0
X49.5Y-82.0
X49.5Y-90.0
X49.5Y-98.0
X49.5Y-106.0
X49.5Y-114.0
X49.5Y-122.0
X49.5Y-130.0
X49.5Y-138.0
X49.5Y-146.0
X49.5Y-154.0
X49.99Y-30.5
X49.99Y-38.5
X49.99Y-46.5
X49.99Y-54.5
X49.99Y-62.5
X49.99Y-70.5
X49.99Y-78.5
X49.99Y-86.5
X49.99Y-94.5
X49.99Y-102.5
X49.99Y-110.5
X49.99Y-118.5
X49.99Y-126.5
X49.99Y-134.5
X49.99Y-142.5
X49.99Y-150.5
X50.5Y-34.0
X50.5Y-42.0
X50.5Y-50.0
X50.5Y-58.0
X50.5Y-66.0
X50.5Y-74.0
X50.5Y-82.0
X50.5Y-90.0
X50.5Y-98.0
X50.5Y-106.0
X50.5Y-114.0
X50.5Y-122.0
X50.5Y-130.0
X50.5Y-138.0
X50.5Y-146.0
X50.5Y-154.0
X51.5Y-34.0
X51.5Y-42.0
X51.5Y-50.0
X51.5Y-58.0
X51.5Y-66.0
X51.5Y-74.0
X51.5Y-82.0
X51.5Y-90.0
X51.5Y-98.0
X51.5Y-106.0
X51.5Y-114.0
X51.5Y-122.0
X51.5Y-130.0
X51.5Y-138.0
X51.5Y-146.0
X51.5Y-154.0
X52.5Y-34.0
X52.5Y-42.0
X52.5Y-50.0
X52.5Y-58.0
X52.5Y-66.0
X52.5Y-74.0
X52.5Y-82.0
X52.5Y-90.0
X52.5Y-98.0
X52.5Y-106.0
X52.5Y-114.0
X52.5Y-122.0
X52.5Y-130.0
X52.5Y-138.0
X52.5Y-146.0
X52.5Y-154.0
X55.39Y-30.5
X55.39Y-38.5
X55.39Y-46.5
X55.39Y-54.5
X55.39Y-62.5
X55.39Y-70.5
X55.39Y-78.5
X55.39Y-86.5
X55.39Y-94.5
X55.39Y-102.5
X55.39Y-110.5
X55.39Y-118.5
X55.39Y-126.5
X55.39Y-134.5
X55.39Y-142.5
X55.39Y-150.5
X57.99Y-30.5
X57.99Y-38.5
X57.99Y-46.5
X57.99Y-54.5
X57.99Y-62.5
X57.99Y-70.5
X57.99Y-78.5
X57.99Y-86.5
X57.99Y-94.5
X57.99Y-102.5
X57.99Y-110.5
X57.99Y-118.5
X57.99Y-126.5
X57.99Y-134.5
X57.99Y-142.5
X57.99Y-150.5
X63.39Y-30.5
X63.39Y-38.5
X63.39Y-46.5
X63.39Y-54.5
X63.39Y-62.5
X63.39Y-70.5
X63.39Y-78.5
X63.39Y-86.5
X63.39Y-94.5
X63.39Y-102.5
X63.39Y-110.5
X63.39Y-118.5
X63.39Y-126.5
X63.39Y-134.5
X63.39Y-142.5
X63.39Y-150.5
X65.99Y-30.5
X65.99Y-38.5
X65.99Y-46.5
X65.99Y-54.5
X65.99Y-62.5
X65.99Y-70.5
X65.99Y-78.5
X65.99Y-86.5
X65.99Y-94.5
X65.99Y-102.5
X65.99Y-110.5
X65.99Y-118.5
X65.99Y-126.5
X65.99Y-134.5
X65.99Y-142.5
X65.99Y-150.5
X71.39Y-30.5
X71.39Y-38.5
X71.39Y-46.5
X71.39Y-54.5
X71.39Y-62.5
X71.39Y-70.5
X71.39Y-78.5
X71.39Y-86.5
X71.39Y-94.5
X71.39Y-102.5
X71.39Y-110.5
X71.39Y-118.5
X71.39Y-126.5
X71.39Y-134.5
X71.39Y-142.5
X71.39Y-150.5
X73.99Y-30.5
X73.99Y-38.5
X73.99Y-46.5
X73.99Y-54.5
X73.99Y-62.5
X73.99Y-70.5
X73.99Y-78.5
X73.99Y-86.5
X73.99Y-94.5
X73.99Y-102.5
X73.99Y-110.5
X73.99Y-118.5
X73.99Y-126.5
X73.99Y-134.5
X73.99Y-142.5
X73.99Y-150.5
X79.39Y-30.5
X79.39Y-38.5
X79.39Y-46.5
X79.39Y-54.5
X79.39Y-62.5
X79.39Y-70.5
X79.39Y-78.5
X79.39Y-86.5
X79.39Y-94.5
X79.39Y-102.5
X79.39Y-110.5
X79.39Y-118.5
X79.39Y-126.5
X79.39Y-134.5
X79.39Y-142.5
X79.39Y-150.5
X82.0Y-30.5
X82.0Y-38.5
X82.0Y-46.5
X82.0Y-54.5
X82.0Y-62.5
X82.0Y-70.5
X82.0Y-78.5
X82.0Y-86.5
X82.0Y-94.5
X82.0Y-102.5
X82.0Y-110.5
X82.0Y-118.5
X82.0Y-126.5
X82.0Y-134.5
X82.0Y-142.5
X82.0Y-150.5
X87.4Y-30.5
X87.4Y-38.5
X87.4Y-46.5
X87.4Y-54.5
X87.4Y-62.5
X87.4Y-70.5
X87.4Y-78.5
X87.4Y-86.5
X87.4Y-94.5
X87.4Y-102.5
X87.4Y-110.5
X87.4Y-118.5
X87.4Y-126.5
X87.4Y-134.5
X87.4Y-142.5
X87.4Y-150.5
X90.0Y-30.5
X90.0Y-38.5
X90.0Y-46.5
X90.0Y-54.5
X90.0Y-62.5
X90.0Y-70.5
X90.0Y-78.5
X90.0Y-86.5
X90.0Y-94.5
X90.0Y-102.5
X90.0Y-110.5
X90.0Y-118.5
X90.0Y-126.5
X90.0Y-134.5
X90.0Y-142.5
X90.0Y-150.5
X95.4Y-30.5
X95.4Y-38.5
X95.4Y-46.5
X95.4Y-54.5
X95.4Y-62.5
X95.4Y-70.5
X95.4Y-78.5
X95.4Y-86.5
X95.4Y-94.5
X95.4Y-102.5
X95.4Y-110.5
X95.4Y-118.5
X95.4Y-126.5
X95.4Y-134.5
X95.4Y-142.5
X95.4Y-150.5
X98.0Y-30.5
X98.0Y-38.5
X98.0Y-46.5
X98.0Y-54.5
X98.0Y-62.5
X98.0Y-70.5
X98.0Y-78.5
X98.0Y-86.5
X98.0Y-94.5
X98.0Y-102.5
X98.0Y-110.5
X98.0Y-118.5
X98.0Y-126.5
X98.0Y-134.5
X98.0Y-142.5
X98.0Y-150.5
X103.4Y-30.5
X103.4Y-38.5
X103.4Y-46.5
X103.4Y-54.5
X103.4Y-62.5
X103.4Y-70.5
X103.4Y-78.5
X103.4Y-86.5
X103.4Y-94.5
X103.4Y-102.5
X103.4Y-110.5
X103.4Y-118.5
X103.4Y-126.5
X103.4Y-134.5
X103.4Y-142.5
X103.4Y-150.5
X105.99Y-30.5
X105.99Y-38.5
X105.99Y-46.5
X105.99Y-54.5
X105.99Y-62.5
X105.99Y-70.5
X105.99Y-78.5
X105.99Y-86.5
X105.99Y-94.5
X105.99Y-102.5
X105.99Y-110.5
X105.99Y-118.5
X105.99Y-126.5
X105.99Y-134.5
X105.99Y-142.5
X105.99Y-150.5
X109.5Y-34.0
X109.5Y-42.0
X109.5Y-50.0
X109.5Y-58.0
X109.5Y-66.0
X109.5Y-74.0
X109.5Y-82.0
X109.5Y-90.0
X109.5Y-98.0
X109.5Y-106.0
X109.5Y-114.0
X109.5Y-122.0
X109.5Y-130.0
X109.5Y-138.0
X109.5Y-146.0
X109.5Y-154.0
X110.5Y-34.0
X110.5Y-42.0
X110.5Y-50.0
X110.5Y-58.0
X110.5Y-66.0
X110.5Y-74.0
X110.5Y-82.0
X110.5Y-90.0
X110.5Y-98.0
X110.5Y-106.0
X110.5Y-114.0
X110.5Y-122.0
X110.5Y-130.0
X110.5Y-138.0
X110.5Y-146.0
X110.5Y-154.0
X111.39Y-30.5
X111.39Y-38.5
X111.39Y-46.5
X111.39Y-54.5
X111.39Y-62.5
X111.39Y-70.5
X111.39Y-78.5
X111.39Y-86.5
X111.39Y-94.5
X111.39Y-102.5
X111.39Y-110.5
X111.39Y-118.5
X111.39Y-126.5
X111.39Y-134.5
X111.39Y-142.5
X111.39Y-150.5
X111.5Y-34.0
X111.5Y-42.0
X111.5Y-50.0
X111.5Y-58.0
X111.5Y-66.0
X111.5Y-74.0
X111.5Y-82.0
X111.5Y-90.0
X111.5Y-98.0
X111.5Y-106.0
X111.5Y-114.0
X111.5Y-122.0
X111.5Y-130.0
X111.5Y-138.0
X111.5Y-146.0
X111.5Y-154.0
X112.5Y-34.0
X112.5Y-42.0
X112.5Y-50.0
X112.5Y-58.0
X112.5Y-66.0
X112.5Y-74.0
X112.5Y-82.0
X112.5Y-90.0
X112.5Y-98.0
X112.5Y-106.0
X112.5Y-114.0
X112.5Y-122.0
X112.5Y-130.0
X112.5Y-138.0
X112.5Y-146.0
X112.5Y-154.0
X113.5Y-34.0
X113.5Y-42.0
X113.5Y-50.0
X113.5Y-58.0
X113.5Y-66.0
X113.5Y-74.0
X113.5Y-82.0
X113.5Y-90.0
X113.5Y-98.0
X113.5Y-106.0
X113.5Y-114.0
X113.5Y-122.0
X113.5Y-130.0
X113.5Y-138.0
X113.5Y-146.0
X113.5Y-154.0
X113.99Y-30.5
X113.99Y-38.5
X113.99Y-46.5
X113.99Y-54.5
X113.99Y-62.5
X113.99Y-70.5
X113.99Y-78.5
X113.99Y-86.5
X113.99Y-94.5
X113.99Y-102.5
X113.99Y-110.5
X113.99Y-118.5
X113.99Y-126.5
X113.99Y-134.5
X113.99Y-142.5
X113.99Y-150.5
X114.5Y-34.0
X114.5Y-42.0
X114.5Y-50.0
X114.5Y-58.0
X114.5Y-66.0
X114.5Y-74.0
X114.5Y-82.0
X114.5Y-90.0
X114.5Y-98.0
X114.5Y-106.0
X114.5Y-114.0
X114.5Y-122.0
X114.5Y-130.0
X114.5Y-138.0
X114.5Y-146.0
X114.5Y-154.0
X115.5Y-34.0
X115.5Y-42.0
X115.5Y-50.0
X115.5Y-58.0
X115.5Y-66.0
X115.5Y-74.0
X115.5Y-82.0
X115.5Y-90.0
X115.5Y-98.0
X115.5Y-106.0
X115.5Y-114.0
X115.5Y-122.0
X115.5Y-130.0
X115.5Y-138.0
X115.5Y-146.0
X115.5Y-154.0
X116.5Y-34.0
X116.5Y-42.0
X116.5Y-50.0
X116.5Y-58.0
X116.5Y-66.0
X116.5Y-74.0
X116.5Y-82.0
X116.5Y-90.0
X116.5Y-98.0
X116.5Y-106.0
X116.5Y-114.0
X116.5Y-122.0
X116.5Y-130.0
X116.5Y-138.0
X116.5Y-146.0
X116.5Y-154.0
X119.39Y-30.5
X119.39Y-38.5
X119.39Y-46.5
X119.39Y-54.5
X119.39Y-62.5
X119.39Y-70.5
X119.39Y-78.5
X119.39Y-86.5
X119.39Y-94.5
X119.39Y-102.5
X119.39Y-110.5
X119.39Y-118.5
X119.39Y-126.5
X119.39Y-134.5
X119.39Y-142.5
X119.39Y-150.5
X121.99Y-30.5
X121.99Y-38.5
X121.99Y-46.5
X121.99Y-54.5
X121.99Y-62.5
X121.99Y-70.5
X121.99Y-78.5
X121.99Y-86.5
X121.99Y-94.5
X121.99Y-102.5
X121.99Y-110.5
X121.99Y-118.5
X121.99Y-126.5
X121.99Y-134.5
X121.99Y-142.5
X121.99Y-150.5
X127.39Y-30.5
X127.39Y-38.5
X127.39Y-46.5
X127.39Y-54.5
X127.39Y-62.5
X127.39Y-70.5
X127.39Y-78.5
X127.39Y-86.5
X127.39Y-94.5
X127.39Y-102.5
X127.39Y-110.5
X127.39Y-118.5
X127.39Y-126.5
X127.39Y-134.5
X127.39Y-142.5
X127.39Y-150.5
X129.99Y-30.5
X129.99Y-38.5
X129.99Y-46.5
X129.99Y-54.5
X129.99Y-62.5
X129.99Y-70.5
X129.99Y-78.5
X129.99Y-86.5
X129.99Y-94.5
X129.99Y-102.5
X129.99Y-110.5
X129.99Y-118.5
X129.99Y-126.5
X129.99Y-134.5
X129.99Y-142.5
X129.99Y-150.5
X135.39Y-30.5
X135.39Y-38.5
X135.39Y-46.5
X135.39Y-54.5
X135.39Y-62.5
X135.39Y-70.5
X135.39Y-78.5
X135.39Y-86.5
X135.39Y-94.5
X135.39Y-102.5
X135.39Y-110.5
X135.39Y-118.5
X135.39Y-126.5
X135.39Y-134.5
X135.39Y-142.5
X135.39Y-150.5
X137.99Y-30.5
X137.99Y-38.5
X137.99Y-46.5
X137.99Y-54.5
X137.99Y-62.5
X137.99Y-70.5
X137.99Y-78.5
X137.99Y-86.5
X137.99Y-94.5
X137.99Y-102.5
X137.99Y-110.5
X137.99Y-118.5
X137.99Y-126.5
X137.99Y-134.5
X137.99Y-142.5
X137.99Y-150.5
X143.39Y-30.5
X143.39Y-38.5
X143.39Y-46.5
X143.39Y-54.5
X143.39Y-62.5
X143.39Y-70.5
X143.39Y-78.5
X143.39Y-86.5
X143.39Y-94.5
X143.39Y-102.5
X143.39Y-110.5
X143.39Y-118.5
X143.39Y-126.5
X143.39Y-134.5
X143.39Y-142.5
X143.39Y-150.5
X146.0Y-30.5
X146.0Y-38.5
X146.0Y-46.5
X146.0Y-54.5
X146.0Y-62.5
X146.0Y-70.5
X146.0Y-78.5
X146.0Y-86.5
X146.0Y-94.5
X146.0Y-102.5
X146.0Y-110.5
X146.0Y-118.5
X146.0Y-126.5
X146.0Y-134.5
X146.0Y-142.5
X146.0Y-150.5
X151.4Y-30.5
X151.4Y-38.5
X151.4Y-46.5
X151.4Y-54.5
X151.4Y-62.5
X151.4Y-70.5
X151.4Y-78.5
X151.4Y-86.5
X151.4Y-94.5
X151.4Y-102.5
X151.4Y-110.5
X151.4Y-118.5
X151.4Y-126.5
X151.4Y-134.5
X151.4Y-142.5
X151.4Y-150.5
X154.0Y-30.5
X154.0Y-38.5
X154.0Y-46.5
X154.0Y-54.5
X154.0Y-62.5
X154.0Y-70.5
X154.0Y-78.5
X154.0Y-86.5
X154.0Y-94.5
X154.0Y-102.5
X154.0Y-110.5
X154.0Y-118.5
X154.0Y-126.5
X154.0Y-134.5
X154.0Y-142.5
X154.0Y-150.5
X159.4Y-30.5
X159.4Y-38.5
X159.4Y-46.5
X159.4Y-54.5
X159.4Y-62.5
X159.4Y-70.5
X159.4Y-78.5
X159.4Y-86.5
X159.4Y-94.5
X159.4Y-102.5
X159.4Y-110.5
X159.4Y-118.5
X159.4Y-126.5
X159.4Y-134.5
X159.4Y-142.5
X159.4Y-150.5
X162.0Y-30.5
X162.0Y-38.5
X162.0Y-46.5
X162.0Y-54.5
X162.0Y-62.5
X162.0Y-70.5
X162.0Y-78.5
X162.0Y-86.5
X162.0Y-94.5
X162.0Y-102.5
X162.0Y-110.5
X162.0Y-118.5
X162.0Y-126.5
X162.0Y-134.5
X162.0Y-142.5
X162.0Y-150.5
X167.4Y-30.5
X167.4Y-38.5
X167.4Y-46.5
X167.4Y-54.5
X167.4Y-62.5
X167.4Y-70.5
X167.4Y-78.5
X167.4Y-86.5
X167.4Y-94.5
X167.4Y-102.5
X167.4Y-110.5
X167.4Y-118.5
X167.4Y-126.5
X167.4Y-134.5
X167.4Y-142.5
X167.4Y-150.5
X169.99Y-30.5
X169.99Y-38.5
X169.99Y-46.5
X169.99Y-54.5
X169.99Y-62.5
X169.99Y-70.5
X169.99Y-78.5
X169.99Y-86.5
X169.99Y-94.5
X169.99Y-102.5
X169.99Y-110.5
X169.99Y-118.5
X169.99Y-126.5
X169.99Y-134.5
X169.99Y-142.5
X169.99Y-150.5
X173.5Y-34.0
X173.5Y-42.0
X173.5Y-50.0
X173.5Y-58.0
X173.5Y-66.0
X173.5Y-74.0
X173.5Y-82.0
X173.5Y-90.0
X173.5Y-98.0
X173.5Y-106.0
X173.5Y-114.0
X173.5Y-122.0
X173.5Y-130.0
X173.5Y-138.0
X173.5Y-146.0
X173.5Y-154.0
X174.5Y-34.0
X174.5Y-42.0
X174.5Y-50.0
X174.5Y-58.0
X174.5Y-66.0
X174.5Y-74.0
X174.5Y-82.0
X174.5Y-90.0
X174.5Y-98.0
X174.5Y-106.0
X174.5Y-114.0
X174.5Y-122.0
X174.5Y-130.0
X174.5Y-138.0
X174.5Y-146.0
X174.5Y-154.0
X175.39Y-30.5
X175.39Y-38.5
X175.39Y-46.5
X175.39Y-54.5
X175.39Y-62.5
X175.39Y-70.5
X175.39Y-78.5
X175.39Y-86.5
X175.39Y-94.5
X175.39Y-102.5
X175.39Y-110.5
X175.39Y-118.5
X175.39Y-126.5
X175.39Y-134.5
X175.39Y-142.5
X175.39Y-150.5
X175.5Y-34.0
X175.5Y-42.0
X175.5Y-50.0
X175.5Y-58.0
X175.5Y-66.0
X175.5Y-74.0
X175.5Y-82.0
X175.5Y-90.0
X175.5Y-98.0
X175.5Y-106.0
X175.5Y-114.0
X175.5Y-122.0
X175.5Y-130.0
X175.5Y-138.0
X175.5Y-146.0
X175.5Y-154.0
X176.5Y-34.0
X176.5Y-42.0
X176.5Y-50.0
X176.5Y-58.0
X176.5Y-66.0
X176.5Y-74.0
X176.5Y-82.0
X176.5Y-90.0
X176.5Y-98.0
X176.5Y-106.0
X176.5Y-114.0
X176.5Y-122.0
X176.5Y-130.0
X176.5Y-138.0
X176.5Y-146.0
X176.5Y-154.0
X177.5Y-34.0
X177.5Y-42.0
X177.5Y-50.0
X177.5Y-58.0
X177.5Y-66.0
X177.5Y-74.0
X177.5Y-82.0
X177.5Y-90.0
X177.5Y-98.0
X177.5Y-106.0
X177.5Y-114.0
X177.5Y-122.0
X177.5Y-130.0
X177.5Y-138.0
X177.5Y-146.0
X177.5Y-154.0
X177.99Y-30.5
X177.99Y-38.5
X177.99Y-46.5
X177.99Y-54.5
X177.99Y-62.5
X177.99Y-70.5
X177.99Y-78.5
X177.99Y-86.5
X177.99Y-94.5
X177.99Y-102.5
X177.99Y-110.5
X177.99Y-118.5
X177.99Y-126.5
X177.99Y-134.5
X177.99Y-142.5
X177.99Y-150.5
X178.5Y-34.0
X178.5Y-42.0
X178.5Y-50.0
X178.5Y-58.0
X178.5Y-66.0
X178.5Y-74.0
X178.5Y-82.0
X178.5Y-90.0
X178.5Y-98.0
X178.5Y-106.0
X178.5Y-114.0
X178.5Y-122.0
X178.5Y-130.0
X178.5Y-138.0
X178.5Y-146.0
X178.5Y-154.0
X179.5Y-34.0
X179.5Y-42.0
X179.5Y-50.0
X179.5Y-58.0
X179.5Y-66.0
X179.5Y-74.0
X179.5Y-82.0
X179.5Y-90.0
X179.5Y-98.0
X179.5Y-106.0
X179.5Y-114.0
X179.5Y-122.0
X179.5Y-130.0
X179.5Y-138.0
X179.5Y-146.0
X179.5Y-154.0
X180.5Y-34.0
X180.5Y-42.0
X180.5Y-50.0
X180.5Y-58.0
X180.5Y-66.0
X180.5Y-74.0
X180.5Y-82.0
X180.5Y-90.0
X180.5Y-98.0
X180.5Y-106.0
X180.5Y-114.0
X180.5Y-122.0
X180.5Y-130.0
X180.5Y-138.0
X180.5Y-146.0
X180.5Y-154.0
X183.39Y-30.5
X183.39Y-38.5
X183.39Y-46.5
X183.39Y-54.5
X183.39Y-62.5
X183.39Y-70.5
X183.39Y-78.5
X183.39Y-86.5
X183.39Y-94.5
X183.39Y-102.5
X183.39Y-110.5
X183.39Y-118.5
X183.39Y-126.5
X183.39Y-134.5
X183.39Y-142.5
X183.39Y-150.5
X185.99Y-30.5
X185.99Y-38.5
X185.99Y-46.5
X185.99Y-54.5
X185.99Y-62.5
X185.99Y-70.5
X185.99Y-78.5
X185.99Y-86.5
X185.99Y-94.5
X185.99Y-102.5
X185.99Y-110.5
X185.99Y-118.5
X185.99Y-126.5
X185.99Y-134.5
X185.99Y-142.5
X185.99Y-150.5
X191.39Y-30.5
X191.39Y-38.5
X191.39Y-46.5
X191.39Y-54.5
X191.39Y-62.5
X191.39Y-70.5
X191.39Y-78.5
X191.39Y-86.5
X191.39Y-94.5
X191.39Y-102.5
X191.39Y-110.5
X191.39Y-118.5
X191.39Y-126.5
X191.39Y-134.5
X191.39Y-142.5
X191.39Y-150.5
X193.99Y-30.5
X193.99Y-38.5
X193.99Y-46.5
X193.99Y-54.5
X193.99Y-62.5
X193.99Y-70.5
X193.99Y-78.5
X193.99Y-86.5
X193.99Y-94.5
X193.99Y-102.5
X193.99Y-110.5
X193.99Y-118.5
X193.99Y-126.5
X193.99Y-134.5
X193.99Y-142.5
X193.99Y-150.5
X199.39Y-30.5
X199.39Y-38.5
X199.39Y-46.5
X199.39Y-54.5
X199.39Y-62.5
X199.39Y-70.5
X199.39Y-78.5
X199.39Y-86.5
X199.39Y-94.5
X199.39Y-102.5
X199.39Y-110.5
X199.39Y-118.5
X199.39Y-126.5
X199.39Y-134.5
X199.39Y-142.5
X199.39Y-150.5
X201.99Y-30.5
X201.99Y-38.5
X201.99Y-46.5
X201.99Y-54.5
X201.99Y-62.5
X201.99Y-70.5
X201.99Y-78.5
X201.99Y-86.5
X201.99Y-94.5
X201.99Y-102.5
X201.99Y-110.5
X201.99Y-118.5
X201.99Y-126.5
X201.99Y-134.5
X201.99Y-142.5
X201.99Y-150.5
X207.39Y-30.5
X207.39Y-38.5
X207.39Y-46.5
X207.39Y-54.5
X207.39Y-62.5
X207.39Y-70.5
X207.39Y-78.5
X207.39Y-86.5
X207.39Y-94.5
X207.39Y-102.5
X207.39Y-110.5
X207.39Y-118.5
X207.39Y-126.5
X207.39Y-134.5
X207.39Y-142.5
X207.39Y-150.5
X210.0Y-30.5
X210.0Y-38.5
X210.0Y-46.5
X210.0Y-54.5
X210.0Y-62.5
X210.0Y-70.5
X210.0Y-78.5
X210.0Y-86.5
X210.0Y-94.5
X210.0Y-102.5
X210.0Y-110.5
X210.0Y-118.5
X210.0Y-126.5
X210.0Y-134.5
X210.0Y-142.5
X210.0Y-150.5
X215.4Y-30.5
X215.4Y-38.5
X215.4Y-46.5
X215.4Y-54.5
X215.4Y-62.5
X215.4Y-70.5
X215.4Y-78.5
X215.4Y-86.5
X215.4Y-94.5
X215.4Y-102.5
X215.4Y-110.5
X215.4Y-118.5
X215.4Y-126.5
X215.4Y-134.5
X215.4Y-142.5
X215.4Y-150.5
X218.0Y-30.5
X218.0Y-38.5
X218.0Y-46.5
X218.0Y-54.5
X218.0Y-62.5
X218.0Y-70.5
X218.0Y-78.5
X218.0Y-86.5
X218.0Y-94.5
X218.0Y-102.5
X218.0Y-110.5
X218.0Y-118.5
X218.0Y-126.5
X218.0Y-134.5
X218.0Y-142.5
X218.0Y-150.5
X223.4Y-30.5
X223.4Y-38.5
X223.4Y-46.5
X223.4Y-54.5
X223.4Y-62.5
X223.4Y-70.5
X223.4Y-78.5
X223.4Y-86.5
X223.4Y-94.5
X223.4Y-102.5
X223.4Y-110.5
X223.4Y-118.5
X223.4Y-126.5
X223.4Y-134.5
X223.4Y-142.5
X223.4Y-150.5
X226.0Y-30.5
X226.0Y-38.5
X226.0Y-46.5
X226.0Y-54.5
X226.0Y-62.5
X226.0Y-70.5
X226.0Y-78.5
X226.0Y-86.5
X226.0Y-94.5
X226.0Y-102.5
X226.0Y-110.5
X226.0Y-118.5
X226.0Y-126.5
X226.0Y-134.5
X226.0Y-142.5
X226.0Y-150.5
X231.4Y-30.5
X231.4Y-38.5
X231.4Y-46.5
X231.4Y-54.5
X231.4Y-62.5
X231.4Y-70.5
X231.4Y-78.5
X231.4Y-86.5
X231.4Y-94.5
X231.4Y-102.5
X231.4Y-110.5
X231.4Y-118.5
X231.4Y-126.5
X231.4Y-134.5
X231.4Y-142.5
X231.4Y-150.5
X233.99Y-30.5
X233.99Y-38.5
X233.99Y-46.5
X233.99Y-54.5
X233.99Y-62.5
X233.99Y-70.5
X233.99Y-78.5
X233.99Y-86.5
X233.99Y-94.5
X233.99Y-102.5
X233.99Y-110.5
X233.99Y-118.5
X233.99Y-126.5
X233.99Y-134.5
X233.99Y-142.5
X233.99Y-150.5
X237.5Y-34.0
X237.5Y-42.0
X237.5Y-50.0
X237.5Y-58.0
X237.5Y-66.0
X237.5Y-74.0
X237.5Y-82.0
X237.5Y-90.0
X237.5Y-98.0
X237.5Y-106.0
X237.5Y-114.0
X237.5Y-122.0
X237.5Y-130.0
X237.5Y-138.0
X237.5Y-146.0
X237.5Y-154.0
X238.5Y-34.0
X238.5Y-42.0
X238.5Y-50.0
X238.5Y-58.0
X238.5Y-66.0
X238.5Y-74.0
X238.5Y-82.0
X238.5Y-90.0
X238.5Y-98.0
X238.5Y-106.0
X238.5Y-114.0
X238.5Y-122.0
X238.5Y-130.0
X238.5Y-138.0
X238.5Y-146.0
X238.5Y-154.0
X239.39Y-30.5
X239.39Y-38.5
X239.39Y-46.5
X239.39Y-54.5
X239.39Y-62.5
X239.39Y-70.5
X239.39Y-78.5
X239.39Y-86.5
X239.39Y-94.5
X239.39Y-102.5
X239.39Y-110.5
X239.39Y-118.5
X239.39Y-126.5
X239.39Y-134.5
X239.39Y-142.5
X239.39Y-150.5
X239.5Y-34.0
X239.5Y-42.0
X239.5Y-50.0
X239.5Y-58.0
X239.5Y-66.0
X239.5Y-74.0
X239.5Y-82.0
X239.5Y-90.0
X239.5Y-98.0
X239.5Y-106.0
X239.5Y-114.0
X239.5Y-122.0
X239.5Y-130.0
X239.5Y-138.0
X239.5Y-146.0
X239.5Y-154.0
X240.5Y-34.0
X240.5Y-42.0
X240.5Y-50.0
X240.5Y-58.0
X240.5Y-66.0
X240.5Y-74.0
X240.5Y-82.0
X240.5Y-90.0
X240.5Y-98.0
X240.5Y-106.0
X240.5Y-114.0
X240.5Y-122.0
X240.5Y-130.0
X240.5Y-138.0
X240.5Y-146.0
X240.5Y-154.0
X241.5Y-34.0
X241.5Y-42.0
X241.5Y-50.0
X241.5Y-58.0
X241.5Y-66.0
X241.5Y-74.0
X241.5Y-82.0
X241.5Y-90.0
X241.5Y-98.0
X241.5Y-106.0
X241.5Y-114.0
X241.5Y-122.0
X241.5Y-130.0
X241.5Y-138.0
X241.5Y-146.0
X241.5Y-154.0
X241.99Y-30.5
X241.99Y-38.5
X241.99Y-46.5
X241.99Y-54.5
X241.99Y-62.5
X241.99Y-70.5
X241.99Y-78.5
X241.99Y-86.5
X241.99Y-94.5
X241.99Y-102.5
X241.99Y-110.5
X241.99Y-118.5
X241.99Y-126.5
X241.99Y-134.5
X241.99Y-142.5
X241.99Y-150.5
X242.5Y-34.0
X242.5Y-42.0
X242.5Y-50.0
X242.5Y-58.0
X242.5Y-66.0
X242.5Y-74.0
X242.5Y-82.0
X242.5Y-90.0
X242.5Y-98.0
X242.5Y-106.0
X242.5Y-114.0
X242.5Y-122.0
X242.5Y-130.0
X242.5Y-138.0
X242.5Y-146.0
X242.5Y-154.0
X243.5Y-34.0
X243.5Y-42.0
X243.5Y-50.0
X243.5Y-58.0
X243.5Y-66.0
X243.5Y-74.0
X243.5Y-82.0
X243.5Y-90.0
X243.5Y-98.0
X243.5Y-106.0
X243.5Y-114.0
X243.5Y-122.0
X243.5Y-130.0
X243.5Y-138.0
X243.5Y-146.0
X243.5Y-154.0
X244.5Y-34.0
X244.5Y-42.0
X244.5Y-50.0
X244.5Y-58.0
X244.5Y-66.0
X244.5Y-74.0
X244.5Y-82.0
X244.5Y-90.0
X244.5Y-98.0
X244.5Y-106.0
X244.5Y-114.0
X244.5Y-122.0
X244.5Y-130.0
X244.5Y-138.0
X244.5Y-146.0
X244.5Y-154.0
X247.39Y-30.5
X247.39Y-38.5
X247.39Y-46.5
X247.39Y-54.5
X247.39Y-62.5
X247.39Y-70.5
X247.39Y-78.5
X247.39Y-86.5
X247.39Y-94.5
X247.39Y-102.5
X247.39Y-110.5
X247.39Y-118.5
X247.39Y-126.5
X247.39Y-134.5
X247.39Y-142.5
X247.39Y-150.5
X249.99Y-30.5
X249.99Y-38.5
X249.99Y-46.5
X249.99Y-54.5
X249.99Y-62.5
X249.99Y-70.5
X249.99Y-78.5
X249.99Y-86.5
X249.99Y-94.5
X249.99Y-102.5
X249.99Y-110.5
X249.99Y-118.5
X249.99Y-126.5
X249.99Y-134.5
X249.99Y-142.5
X249.99Y-150.5
X255.39Y-30.5
X255.39Y-38.5
X255.39Y-46.5
X255.39Y-54.5
X255.39Y-62.5
X255.39Y-70.5
X255.39Y-78.5
X255.39Y-86.5
X255.39Y-94.5
X255.39Y-102.5
X255.39Y-110.5
X255.39Y-118.5
X255.39Y-126.5
X255.39Y-134.5
X255.39Y-142.5
X255.39Y-150.5
X257.99Y-30.5
X257.99Y-38.5
X257.99Y-46.5
X257.99Y-54.5
X257.99Y-62.5
X257.99Y-70.5
X257.99Y-78.5
X257.99Y-86.5
X257.99Y-94.5
X257.99Y-102.5
X257.99Y-110.5
X257.99Y-118.5
X257.99Y-126.5
X257.99Y-134.5
X257.99Y-142.5
X257.99Y-150.5
X263.39Y-30.5
X263.39Y-38.5
X263.39Y-46.5
X263.39Y-54.5
X263.39Y-62.5
X263.39Y-70.5
X263.39Y-78.5
X263.39Y-86.5
X263.39Y-94.5
X263.39Y-102.5
X263.39Y-110.5
X263.39Y-118.5
X263.39Y-126.5
X263.39Y-134.5
X263.39Y-142.5
X263.39Y-150.5
X265.99Y-30.5
X265.99Y-38.5
X265.99Y-46.5
X265.99Y-54.5
X265.99Y-62.5
X265.99Y-70.5
X265.99Y-78.5
X265.99Y-86.5
X265.99Y-94.5
X265.99Y-102.5
X265.99Y-110.5
X265.99Y-118.5
X265.99Y-126.5
X265.99Y-134.5
X265.99Y-142.5
X265.99Y-150.5
X271.39Y-30.5
X271.39Y-38.5
X271.39Y-46.5
X271.39Y-54.5
X271.39Y-62.5
X271.39Y-70.5
X271.39Y-78.5
X271.39Y-86.5
X271.39Y-94.5
X271.39Y-102.5
X271.39Y-110.5
X271.39Y-118.5
X271.39Y-126.5
X271.39Y-134.5
X271.39Y-142.5
X271.39Y-150.5
M30
