%TF.GenerationSoftware,KiCad,Pcbnew,9.0.7*%
%TF.CreationDate,2026-02-02T17:43:32-05:00*%
%TF.ProjectId,INS-1 Matrix Display,494e532d-3120-44d6-9174-726978204469,1.0*%
%TF.SameCoordinates,Original*%
%TF.FileFunction,Soldermask,Top*%
%TF.FilePolarity,Negative*%
%FSLAX46Y46*%
G04 Gerber Fmt 4.6, Leading zero omitted, Abs format (unit mm)*
G04 Created by KiCad (PCBNEW 9.0.7) date 2026-02-02 17:43:32*
%MOMM*%
%LPD*%
G01*
G04 APERTURE LIST*
G04 Aperture macros list*
%AMRoundRect*
0 Rectangle with rounded corners*
0 $1 Rounding radius*
0 $2 $3 $4 $5 $6 $7 $8 $9 X,Y pos of 4 corners*
0 Add a 4 corners polygon primitive as box body*
4,1,4,$2,$3,$4,$5,$6,$7,$8,$9,$2,$3,0*
0 Add four circle primitives for the rounded corners*
1,1,$1+$1,$2,$3*
1,1,$1+$1,$4,$5*
1,1,$1+$1,$6,$7*
1,1,$1+$1,$8,$9*
0 Add four rect primitives between the rounded corners*
20,1,$1+$1,$2,$3,$4,$5,0*
20,1,$1+$1,$4,$5,$6,$7,0*
20,1,$1+$1,$6,$7,$8,$9,0*
20,1,$1+$1,$8,$9,$2,$3,0*%
G04 Aperture macros list end*
%ADD10RoundRect,0.135000X-0.135000X-0.185000X0.135000X-0.185000X0.135000X0.185000X-0.135000X0.185000X0*%
%ADD11C,1.000000*%
%ADD12R,1.000000X1.000000*%
%ADD13RoundRect,0.150000X-0.150000X0.587500X-0.150000X-0.587500X0.150000X-0.587500X0.150000X0.587500X0*%
%ADD14RoundRect,0.135000X0.135000X0.185000X-0.135000X0.185000X-0.135000X-0.185000X0.135000X-0.185000X0*%
%ADD15C,0.850000*%
%ADD16C,2.200000*%
%ADD17R,0.850000X0.850000*%
G04 APERTURE END LIST*
D10*
%TO.C,1K*%
X92490000Y-140000000D03*
X93510000Y-140000000D03*
%TD*%
%TO.C,1K*%
X100490000Y-84000000D03*
X101510000Y-84000000D03*
%TD*%
D11*
%TO.C,REF\u002A\u002A*%
X154000000Y-134500000D03*
D12*
X159400000Y-134500000D03*
%TD*%
D11*
%TO.C,REF\u002A\u002A*%
X193990000Y-62500000D03*
D12*
X199390000Y-62500000D03*
%TD*%
D11*
%TO.C,REF\u002A\u002A*%
X249990000Y-110500000D03*
D12*
X255390000Y-110500000D03*
%TD*%
D11*
%TO.C,REF\u002A\u002A*%
X241990000Y-134500000D03*
D12*
X247390000Y-134500000D03*
%TD*%
D13*
%TO.C,MMBTA42*%
X109640000Y-101562500D03*
X107740000Y-101562500D03*
X108690000Y-103437500D03*
%TD*%
%TO.C,MMBTA42*%
X149650000Y-141562500D03*
X147750000Y-141562500D03*
X148700000Y-143437500D03*
%TD*%
D11*
%TO.C,REF\u002A\u002A*%
X82000000Y-94500000D03*
D12*
X87400000Y-94500000D03*
%TD*%
D14*
%TO.C,50K*%
X23010000Y-56000000D03*
X21990000Y-56000000D03*
%TD*%
D10*
%TO.C,1K*%
X44480000Y-44000000D03*
X45500000Y-44000000D03*
%TD*%
%TO.C,1K*%
X188480000Y-68000000D03*
X189500000Y-68000000D03*
%TD*%
D13*
%TO.C,MMBTA42*%
X69640000Y-77562500D03*
X67740000Y-77562500D03*
X68690000Y-79437500D03*
%TD*%
D10*
%TO.C,1K*%
X220490000Y-140000000D03*
X221510000Y-140000000D03*
%TD*%
D13*
%TO.C,MMBTA42*%
X21650000Y-109562500D03*
X19750000Y-109562500D03*
X20700000Y-111437500D03*
%TD*%
%TO.C,MMBTA42*%
X69640000Y-149562500D03*
X67740000Y-149562500D03*
X68690000Y-151437500D03*
%TD*%
D14*
%TO.C,50K*%
X167010000Y-80000000D03*
X165990000Y-80000000D03*
%TD*%
%TO.C,50K*%
X167010000Y-32000000D03*
X165990000Y-32000000D03*
%TD*%
D10*
%TO.C,1K*%
X132480000Y-84000000D03*
X133500000Y-84000000D03*
%TD*%
D11*
%TO.C,REF\u002A\u002A*%
X49990000Y-126500000D03*
D12*
X55390000Y-126500000D03*
%TD*%
D13*
%TO.C,MMBTA42*%
X181640000Y-101562500D03*
X179740000Y-101562500D03*
X180690000Y-103437500D03*
%TD*%
%TO.C,MMBTA42*%
X213650000Y-45562500D03*
X211750000Y-45562500D03*
X212700000Y-47437500D03*
%TD*%
%TO.C,MMBTA42*%
X93650000Y-93562500D03*
X91750000Y-93562500D03*
X92700000Y-95437500D03*
%TD*%
D14*
%TO.C,50K*%
X151010000Y-88000000D03*
X149990000Y-88000000D03*
%TD*%
D15*
%TO.C,RegisterLane*%
X173500000Y-42000000D03*
X174500000Y-42000000D03*
X175500000Y-42000000D03*
X176500000Y-42000000D03*
X177500000Y-42000000D03*
X178500000Y-42000000D03*
X179500000Y-42000000D03*
X180500000Y-42000000D03*
%TD*%
D13*
%TO.C,MMBTA42*%
X141640000Y-141562500D03*
X139740000Y-141562500D03*
X140690000Y-143437500D03*
%TD*%
D14*
%TO.C,50K*%
X87010000Y-152000000D03*
X85990000Y-152000000D03*
%TD*%
D13*
%TO.C,MMBTA42*%
X149650000Y-29562500D03*
X147750000Y-29562500D03*
X148700000Y-31437500D03*
%TD*%
D11*
%TO.C,REF\u002A\u002A*%
X265990000Y-54500000D03*
D12*
X271390000Y-54500000D03*
%TD*%
D13*
%TO.C,MMBTA42*%
X173640000Y-69562500D03*
X171740000Y-69562500D03*
X172690000Y-71437500D03*
%TD*%
D11*
%TO.C,REF\u002A\u002A*%
X26000000Y-150500000D03*
D12*
X31400000Y-150500000D03*
%TD*%
D11*
%TO.C,REF\u002A\u002A*%
X137990000Y-54500000D03*
D12*
X143390000Y-54500000D03*
%TD*%
D14*
%TO.C,50K*%
X95010000Y-80000000D03*
X93990000Y-80000000D03*
%TD*%
D11*
%TO.C,REF\u002A\u002A*%
X18000000Y-142500000D03*
D12*
X23400000Y-142500000D03*
%TD*%
D11*
%TO.C,REF\u002A\u002A*%
X105990000Y-38500000D03*
D12*
X111390000Y-38500000D03*
%TD*%
D14*
%TO.C,50K*%
X79000000Y-32000000D03*
X77980000Y-32000000D03*
%TD*%
D11*
%TO.C,REF\u002A\u002A*%
X265990000Y-62500000D03*
D12*
X271390000Y-62500000D03*
%TD*%
D10*
%TO.C,1K*%
X36490000Y-36000000D03*
X37510000Y-36000000D03*
%TD*%
D14*
%TO.C,50K*%
X55000000Y-144000000D03*
X53980000Y-144000000D03*
%TD*%
%TO.C,50K*%
X255000000Y-56000000D03*
X253980000Y-56000000D03*
%TD*%
D13*
%TO.C,MMBTA42*%
X229650000Y-37562500D03*
X227750000Y-37562500D03*
X228700000Y-39437500D03*
%TD*%
D11*
%TO.C,REF\u002A\u002A*%
X146000000Y-62500000D03*
D12*
X151400000Y-62500000D03*
%TD*%
D10*
%TO.C,1K*%
X220490000Y-108000000D03*
X221510000Y-108000000D03*
%TD*%
D11*
%TO.C,REF\u002A\u002A*%
X90000000Y-94500000D03*
D12*
X95400000Y-94500000D03*
%TD*%
D13*
%TO.C,MMBTA42*%
X221650000Y-53562500D03*
X219750000Y-53562500D03*
X220700000Y-55437500D03*
%TD*%
D10*
%TO.C,1K*%
X164490000Y-132000000D03*
X165510000Y-132000000D03*
%TD*%
%TO.C,1K*%
X140480000Y-68000000D03*
X141500000Y-68000000D03*
%TD*%
D14*
%TO.C,50K*%
X215010000Y-32000000D03*
X213990000Y-32000000D03*
%TD*%
%TO.C,50K*%
X199000000Y-64000000D03*
X197980000Y-64000000D03*
%TD*%
%TO.C,50K*%
X271000000Y-96000000D03*
X269980000Y-96000000D03*
%TD*%
%TO.C,50K*%
X55000000Y-40000000D03*
X53980000Y-40000000D03*
%TD*%
%TO.C,50K*%
X247000000Y-144000000D03*
X245980000Y-144000000D03*
%TD*%
%TO.C,50K*%
X135000000Y-144000000D03*
X133980000Y-144000000D03*
%TD*%
D11*
%TO.C,REF\u002A\u002A*%
X73990000Y-150500000D03*
D12*
X79390000Y-150500000D03*
%TD*%
D14*
%TO.C,50K*%
X71000000Y-32000000D03*
X69980000Y-32000000D03*
%TD*%
%TO.C,50K*%
X63000000Y-120000000D03*
X61980000Y-120000000D03*
%TD*%
%TO.C,50K*%
X119000000Y-64000000D03*
X117980000Y-64000000D03*
%TD*%
%TO.C,50K*%
X71000000Y-136000000D03*
X69980000Y-136000000D03*
%TD*%
D15*
%TO.C,RegisterLane*%
X109500000Y-66000000D03*
X110500000Y-66000000D03*
X111500000Y-66000000D03*
X112500000Y-66000000D03*
X113500000Y-66000000D03*
X114500000Y-66000000D03*
X115500000Y-66000000D03*
X116500000Y-66000000D03*
%TD*%
D13*
%TO.C,MMBTA42*%
X221650000Y-77562500D03*
X219750000Y-77562500D03*
X220700000Y-79437500D03*
%TD*%
%TO.C,MMBTA42*%
X69640000Y-69562500D03*
X67740000Y-69562500D03*
X68690000Y-71437500D03*
%TD*%
D11*
%TO.C,REF\u002A\u002A*%
X201990000Y-62500000D03*
D12*
X207390000Y-62500000D03*
%TD*%
D13*
%TO.C,MMBTA42*%
X229650000Y-125562500D03*
X227750000Y-125562500D03*
X228700000Y-127437500D03*
%TD*%
D10*
%TO.C,1K*%
X148490000Y-100000000D03*
X149510000Y-100000000D03*
%TD*%
%TO.C,1K*%
X236480000Y-108000000D03*
X237500000Y-108000000D03*
%TD*%
D14*
%TO.C,50K*%
X135000000Y-136000000D03*
X133980000Y-136000000D03*
%TD*%
%TO.C,50K*%
X55000000Y-128000000D03*
X53980000Y-128000000D03*
%TD*%
D11*
%TO.C,REF\u002A\u002A*%
X241990000Y-54500000D03*
D12*
X247390000Y-54500000D03*
%TD*%
D14*
%TO.C,50K*%
X55000000Y-120000000D03*
X53980000Y-120000000D03*
%TD*%
D13*
%TO.C,MMBTA42*%
X125640000Y-117562500D03*
X123740000Y-117562500D03*
X124690000Y-119437500D03*
%TD*%
%TO.C,MMBTA42*%
X93650000Y-109562500D03*
X91750000Y-109562500D03*
X92700000Y-111437500D03*
%TD*%
%TO.C,MMBTA42*%
X197640000Y-29562500D03*
X195740000Y-29562500D03*
X196690000Y-31437500D03*
%TD*%
D14*
%TO.C,50K*%
X191000000Y-40000000D03*
X189980000Y-40000000D03*
%TD*%
%TO.C,50K*%
X63000000Y-64000000D03*
X61980000Y-64000000D03*
%TD*%
D10*
%TO.C,1K*%
X36490000Y-100000000D03*
X37510000Y-100000000D03*
%TD*%
D14*
%TO.C,50K*%
X239000000Y-120000000D03*
X237980000Y-120000000D03*
%TD*%
D10*
%TO.C,1K*%
X76480000Y-100000000D03*
X77500000Y-100000000D03*
%TD*%
D14*
%TO.C,50K*%
X175000000Y-144000000D03*
X173980000Y-144000000D03*
%TD*%
%TO.C,50K*%
X175000000Y-104000000D03*
X173980000Y-104000000D03*
%TD*%
D13*
%TO.C,MMBTA42*%
X53640000Y-37562500D03*
X51740000Y-37562500D03*
X52690000Y-39437500D03*
%TD*%
D14*
%TO.C,50K*%
X255000000Y-152000000D03*
X253980000Y-152000000D03*
%TD*%
D13*
%TO.C,MMBTA42*%
X245640000Y-69562500D03*
X243740000Y-69562500D03*
X244690000Y-71437500D03*
%TD*%
D15*
%TO.C,RegisterLane*%
X237500000Y-122000000D03*
X238500000Y-122000000D03*
X239500000Y-122000000D03*
X240500000Y-122000000D03*
X241500000Y-122000000D03*
X242500000Y-122000000D03*
X243500000Y-122000000D03*
X244500000Y-122000000D03*
%TD*%
D13*
%TO.C,MMBTA42*%
X221650000Y-109562500D03*
X219750000Y-109562500D03*
X220700000Y-111437500D03*
%TD*%
D11*
%TO.C,REF\u002A\u002A*%
X233990000Y-102500000D03*
D12*
X239390000Y-102500000D03*
%TD*%
D11*
%TO.C,REF\u002A\u002A*%
X18000000Y-102500000D03*
D12*
X23400000Y-102500000D03*
%TD*%
D11*
%TO.C,REF\u002A\u002A*%
X218000000Y-102500000D03*
D12*
X223400000Y-102500000D03*
%TD*%
D10*
%TO.C,1K*%
X36490000Y-148000000D03*
X37510000Y-148000000D03*
%TD*%
%TO.C,1K*%
X164490000Y-52000000D03*
X165510000Y-52000000D03*
%TD*%
D14*
%TO.C,50K*%
X103010000Y-56000000D03*
X101990000Y-56000000D03*
%TD*%
D10*
%TO.C,1K*%
X28490000Y-108000000D03*
X29510000Y-108000000D03*
%TD*%
D14*
%TO.C,50K*%
X63000000Y-104000000D03*
X61980000Y-104000000D03*
%TD*%
D10*
%TO.C,1K*%
X108480000Y-84000000D03*
X109500000Y-84000000D03*
%TD*%
D14*
%TO.C,50K*%
X207000000Y-152000000D03*
X205980000Y-152000000D03*
%TD*%
D11*
%TO.C,REF\u002A\u002A*%
X113990000Y-54500000D03*
D12*
X119390000Y-54500000D03*
%TD*%
D14*
%TO.C,50K*%
X175000000Y-56000000D03*
X173980000Y-56000000D03*
%TD*%
D13*
%TO.C,MMBTA42*%
X205640000Y-125562500D03*
X203740000Y-125562500D03*
X204690000Y-127437500D03*
%TD*%
D11*
%TO.C,REF\u002A\u002A*%
X162000000Y-70500000D03*
D12*
X167400000Y-70500000D03*
%TD*%
D14*
%TO.C,50K*%
X199000000Y-152000000D03*
X197980000Y-152000000D03*
%TD*%
D11*
%TO.C,REF\u002A\u002A*%
X201990000Y-38500000D03*
D12*
X207390000Y-38500000D03*
%TD*%
D13*
%TO.C,MMBTA42*%
X173640000Y-77562500D03*
X171740000Y-77562500D03*
X172690000Y-79437500D03*
%TD*%
D11*
%TO.C,REF\u002A\u002A*%
X57990000Y-134500000D03*
D12*
X63390000Y-134500000D03*
%TD*%
D14*
%TO.C,50K*%
X87010000Y-112000000D03*
X85990000Y-112000000D03*
%TD*%
D11*
%TO.C,REF\u002A\u002A*%
X105990000Y-110500000D03*
D12*
X111390000Y-110500000D03*
%TD*%
D11*
%TO.C,REF\u002A\u002A*%
X162000000Y-30500000D03*
D12*
X167400000Y-30500000D03*
%TD*%
D15*
%TO.C,RegisterLane*%
X45500000Y-90000000D03*
X46500000Y-90000000D03*
X47500000Y-90000000D03*
X48500000Y-90000000D03*
X49500000Y-90000000D03*
X50500000Y-90000000D03*
X51500000Y-90000000D03*
X52500000Y-90000000D03*
%TD*%
D10*
%TO.C,1K*%
X228490000Y-92000000D03*
X229510000Y-92000000D03*
%TD*%
D11*
%TO.C,REF\u002A\u002A*%
X90000000Y-118500000D03*
D12*
X95400000Y-118500000D03*
%TD*%
D13*
%TO.C,MMBTA42*%
X37650000Y-141562500D03*
X35750000Y-141562500D03*
X36700000Y-143437500D03*
%TD*%
D16*
%TO.C,REF\u002A\u002A*%
X272500000Y-26500000D03*
%TD*%
D11*
%TO.C,REF\u002A\u002A*%
X177990000Y-62500000D03*
D12*
X183390000Y-62500000D03*
%TD*%
D10*
%TO.C,1K*%
X180480000Y-36000000D03*
X181500000Y-36000000D03*
%TD*%
D11*
%TO.C,REF\u002A\u002A*%
X226000000Y-38500000D03*
D12*
X231400000Y-38500000D03*
%TD*%
D11*
%TO.C,REF\u002A\u002A*%
X249990000Y-86500000D03*
D12*
X255390000Y-86500000D03*
%TD*%
D11*
%TO.C,REF\u002A\u002A*%
X193990000Y-118500000D03*
D12*
X199390000Y-118500000D03*
%TD*%
D13*
%TO.C,MMBTA42*%
X93650000Y-69562500D03*
X91750000Y-69562500D03*
X92700000Y-71437500D03*
%TD*%
D14*
%TO.C,50K*%
X135000000Y-48000000D03*
X133980000Y-48000000D03*
%TD*%
D10*
%TO.C,1K*%
X212490000Y-52000000D03*
X213510000Y-52000000D03*
%TD*%
D14*
%TO.C,50K*%
X119000000Y-144000000D03*
X117980000Y-144000000D03*
%TD*%
D11*
%TO.C,REF\u002A\u002A*%
X257990000Y-78500000D03*
D12*
X263390000Y-78500000D03*
%TD*%
D11*
%TO.C,REF\u002A\u002A*%
X129990000Y-118500000D03*
D12*
X135390000Y-118500000D03*
%TD*%
D13*
%TO.C,MMBTA42*%
X61640000Y-109562500D03*
X59740000Y-109562500D03*
X60690000Y-111437500D03*
%TD*%
D10*
%TO.C,1K*%
X100490000Y-60000000D03*
X101510000Y-60000000D03*
%TD*%
%TO.C,1K*%
X204480000Y-84000000D03*
X205500000Y-84000000D03*
%TD*%
D13*
%TO.C,MMBTA42*%
X197640000Y-117562500D03*
X195740000Y-117562500D03*
X196690000Y-119437500D03*
%TD*%
D10*
%TO.C,1K*%
X212490000Y-76000000D03*
X213510000Y-76000000D03*
%TD*%
D11*
%TO.C,REF\u002A\u002A*%
X201990000Y-134500000D03*
D12*
X207390000Y-134500000D03*
%TD*%
D13*
%TO.C,MMBTA42*%
X149650000Y-85562500D03*
X147750000Y-85562500D03*
X148700000Y-87437500D03*
%TD*%
%TO.C,MMBTA42*%
X253640000Y-53562500D03*
X251740000Y-53562500D03*
X252690000Y-55437500D03*
%TD*%
D11*
%TO.C,REF\u002A\u002A*%
X226000000Y-62500000D03*
D12*
X231400000Y-62500000D03*
%TD*%
D14*
%TO.C,50K*%
X151010000Y-80000000D03*
X149990000Y-80000000D03*
%TD*%
D11*
%TO.C,REF\u002A\u002A*%
X18000000Y-30500000D03*
D12*
X23400000Y-30500000D03*
%TD*%
D11*
%TO.C,REF\u002A\u002A*%
X98000000Y-62500000D03*
D12*
X103400000Y-62500000D03*
%TD*%
D11*
%TO.C,REF\u002A\u002A*%
X201990000Y-30500000D03*
D12*
X207390000Y-30500000D03*
%TD*%
D13*
%TO.C,MMBTA42*%
X189640000Y-133562500D03*
X187740000Y-133562500D03*
X188690000Y-135437500D03*
%TD*%
%TO.C,MMBTA42*%
X61640000Y-69562500D03*
X59740000Y-69562500D03*
X60690000Y-71437500D03*
%TD*%
D14*
%TO.C,50K*%
X159010000Y-136000000D03*
X157990000Y-136000000D03*
%TD*%
D11*
%TO.C,REF\u002A\u002A*%
X49990000Y-86500000D03*
D12*
X55390000Y-86500000D03*
%TD*%
D13*
%TO.C,MMBTA42*%
X101650000Y-109562500D03*
X99750000Y-109562500D03*
X100700000Y-111437500D03*
%TD*%
D14*
%TO.C,50K*%
X127000000Y-88000000D03*
X125980000Y-88000000D03*
%TD*%
D11*
%TO.C,REF\u002A\u002A*%
X146000000Y-70500000D03*
D12*
X151400000Y-70500000D03*
%TD*%
D13*
%TO.C,MMBTA42*%
X205640000Y-53562500D03*
X203740000Y-53562500D03*
X204690000Y-55437500D03*
%TD*%
%TO.C,MMBTA42*%
X237640000Y-109562500D03*
X235740000Y-109562500D03*
X236690000Y-111437500D03*
%TD*%
D10*
%TO.C,1K*%
X188480000Y-52000000D03*
X189500000Y-52000000D03*
%TD*%
%TO.C,1K*%
X92490000Y-84000000D03*
X93510000Y-84000000D03*
%TD*%
D11*
%TO.C,REF\u002A\u002A*%
X113990000Y-46500000D03*
D12*
X119390000Y-46500000D03*
%TD*%
D13*
%TO.C,MMBTA42*%
X101650000Y-149562500D03*
X99750000Y-149562500D03*
X100700000Y-151437500D03*
%TD*%
%TO.C,MMBTA42*%
X29650000Y-93562500D03*
X27750000Y-93562500D03*
X28700000Y-95437500D03*
%TD*%
%TO.C,MMBTA42*%
X149650000Y-61562500D03*
X147750000Y-61562500D03*
X148700000Y-63437500D03*
%TD*%
D14*
%TO.C,50K*%
X223010000Y-96000000D03*
X221990000Y-96000000D03*
%TD*%
D13*
%TO.C,MMBTA42*%
X133640000Y-133562500D03*
X131740000Y-133562500D03*
X132690000Y-135437500D03*
%TD*%
D11*
%TO.C,REF\u002A\u002A*%
X121990000Y-142500000D03*
D12*
X127390000Y-142500000D03*
%TD*%
D10*
%TO.C,1K*%
X236480000Y-52000000D03*
X237500000Y-52000000D03*
%TD*%
D14*
%TO.C,50K*%
X47000000Y-144000000D03*
X45980000Y-144000000D03*
%TD*%
%TO.C,50K*%
X87010000Y-64000000D03*
X85990000Y-64000000D03*
%TD*%
D11*
%TO.C,REF\u002A\u002A*%
X146000000Y-150500000D03*
D12*
X151400000Y-150500000D03*
%TD*%
D10*
%TO.C,1K*%
X268480000Y-116000000D03*
X269500000Y-116000000D03*
%TD*%
D11*
%TO.C,REF\u002A\u002A*%
X26000000Y-86500000D03*
D12*
X31400000Y-86500000D03*
%TD*%
D11*
%TO.C,REF\u002A\u002A*%
X73990000Y-78500000D03*
D12*
X79390000Y-78500000D03*
%TD*%
D11*
%TO.C,REF\u002A\u002A*%
X218000000Y-46500000D03*
D12*
X223400000Y-46500000D03*
%TD*%
D14*
%TO.C,50K*%
X111000000Y-136000000D03*
X109980000Y-136000000D03*
%TD*%
D13*
%TO.C,MMBTA42*%
X245640000Y-109562500D03*
X243740000Y-109562500D03*
X244690000Y-111437500D03*
%TD*%
D10*
%TO.C,1K*%
X52480000Y-76000000D03*
X53500000Y-76000000D03*
%TD*%
D11*
%TO.C,REF\u002A\u002A*%
X49990000Y-94500000D03*
D12*
X55390000Y-94500000D03*
%TD*%
D10*
%TO.C,1K*%
X140480000Y-92000000D03*
X141500000Y-92000000D03*
%TD*%
D14*
%TO.C,50K*%
X55000000Y-96000000D03*
X53980000Y-96000000D03*
%TD*%
D11*
%TO.C,REF\u002A\u002A*%
X98000000Y-150500000D03*
D12*
X103400000Y-150500000D03*
%TD*%
D10*
%TO.C,1K*%
X172480000Y-140000000D03*
X173500000Y-140000000D03*
%TD*%
D14*
%TO.C,50K*%
X127000000Y-64000000D03*
X125980000Y-64000000D03*
%TD*%
%TO.C,50K*%
X95010000Y-112000000D03*
X93990000Y-112000000D03*
%TD*%
D11*
%TO.C,REF\u002A\u002A*%
X18000000Y-118500000D03*
D12*
X23400000Y-118500000D03*
%TD*%
D13*
%TO.C,MMBTA42*%
X197640000Y-53562500D03*
X195740000Y-53562500D03*
X196690000Y-55437500D03*
%TD*%
%TO.C,MMBTA42*%
X117640000Y-61562500D03*
X115740000Y-61562500D03*
X116690000Y-63437500D03*
%TD*%
D15*
%TO.C,RegisterLane*%
X173500000Y-146000000D03*
X174500000Y-146000000D03*
X175500000Y-146000000D03*
X176500000Y-146000000D03*
X177500000Y-146000000D03*
X178500000Y-146000000D03*
X179500000Y-146000000D03*
X180500000Y-146000000D03*
%TD*%
D14*
%TO.C,50K*%
X223010000Y-120000000D03*
X221990000Y-120000000D03*
%TD*%
D11*
%TO.C,REF\u002A\u002A*%
X73990000Y-110500000D03*
D12*
X79390000Y-110500000D03*
%TD*%
D15*
%TO.C,RegisterLane*%
X45500000Y-106000000D03*
X46500000Y-106000000D03*
X47500000Y-106000000D03*
X48500000Y-106000000D03*
X49500000Y-106000000D03*
X50500000Y-106000000D03*
X51500000Y-106000000D03*
X52500000Y-106000000D03*
%TD*%
D10*
%TO.C,1K*%
X188480000Y-140000000D03*
X189500000Y-140000000D03*
%TD*%
D11*
%TO.C,REF\u002A\u002A*%
X129990000Y-94500000D03*
D12*
X135390000Y-94500000D03*
%TD*%
D13*
%TO.C,MMBTA42*%
X189640000Y-29562500D03*
X187740000Y-29562500D03*
X188690000Y-31437500D03*
%TD*%
%TO.C,MMBTA42*%
X77640000Y-133562500D03*
X75740000Y-133562500D03*
X76690000Y-135437500D03*
%TD*%
D10*
%TO.C,1K*%
X204480000Y-52000000D03*
X205500000Y-52000000D03*
%TD*%
%TO.C,1K*%
X268480000Y-132000000D03*
X269500000Y-132000000D03*
%TD*%
%TO.C,1K*%
X260480000Y-52000000D03*
X261500000Y-52000000D03*
%TD*%
%TO.C,1K*%
X212490000Y-116000000D03*
X213510000Y-116000000D03*
%TD*%
D13*
%TO.C,MMBTA42*%
X29650000Y-133562500D03*
X27750000Y-133562500D03*
X28700000Y-135437500D03*
%TD*%
%TO.C,MMBTA42*%
X173640000Y-37562500D03*
X171740000Y-37562500D03*
X172690000Y-39437500D03*
%TD*%
D10*
%TO.C,1K*%
X92490000Y-132000000D03*
X93510000Y-132000000D03*
%TD*%
D13*
%TO.C,MMBTA42*%
X197640000Y-85562500D03*
X195740000Y-85562500D03*
X196690000Y-87437500D03*
%TD*%
D14*
%TO.C,50K*%
X111000000Y-32000000D03*
X109980000Y-32000000D03*
%TD*%
D15*
%TO.C,RegisterLane*%
X237500000Y-138000000D03*
X238500000Y-138000000D03*
X239500000Y-138000000D03*
X240500000Y-138000000D03*
X241500000Y-138000000D03*
X242500000Y-138000000D03*
X243500000Y-138000000D03*
X244500000Y-138000000D03*
%TD*%
D13*
%TO.C,MMBTA42*%
X101650000Y-69562500D03*
X99750000Y-69562500D03*
X100700000Y-71437500D03*
%TD*%
D14*
%TO.C,50K*%
X223010000Y-56000000D03*
X221990000Y-56000000D03*
%TD*%
D10*
%TO.C,1K*%
X236480000Y-76000000D03*
X237500000Y-76000000D03*
%TD*%
%TO.C,1K*%
X204480000Y-124000000D03*
X205500000Y-124000000D03*
%TD*%
D14*
%TO.C,50K*%
X159010000Y-48000000D03*
X157990000Y-48000000D03*
%TD*%
D11*
%TO.C,REF\u002A\u002A*%
X177990000Y-30500000D03*
D12*
X183390000Y-30500000D03*
%TD*%
D14*
%TO.C,50K*%
X127000000Y-32000000D03*
X125980000Y-32000000D03*
%TD*%
%TO.C,50K*%
X151010000Y-136000000D03*
X149990000Y-136000000D03*
%TD*%
D10*
%TO.C,1K*%
X260480000Y-84000000D03*
X261500000Y-84000000D03*
%TD*%
D13*
%TO.C,MMBTA42*%
X165650000Y-53562500D03*
X163750000Y-53562500D03*
X164700000Y-55437500D03*
%TD*%
D14*
%TO.C,50K*%
X183000000Y-128000000D03*
X181980000Y-128000000D03*
%TD*%
D10*
%TO.C,1K*%
X164490000Y-28000000D03*
X165510000Y-28000000D03*
%TD*%
D11*
%TO.C,REF\u002A\u002A*%
X105990000Y-78500000D03*
D12*
X111390000Y-78500000D03*
%TD*%
D14*
%TO.C,50K*%
X159010000Y-96000000D03*
X157990000Y-96000000D03*
%TD*%
D11*
%TO.C,REF\u002A\u002A*%
X177990000Y-46500000D03*
D12*
X183390000Y-46500000D03*
%TD*%
D14*
%TO.C,50K*%
X39010000Y-88000000D03*
X37990000Y-88000000D03*
%TD*%
%TO.C,50K*%
X167010000Y-40000000D03*
X165990000Y-40000000D03*
%TD*%
D13*
%TO.C,MMBTA42*%
X237640000Y-125562500D03*
X235740000Y-125562500D03*
X236690000Y-127437500D03*
%TD*%
D14*
%TO.C,50K*%
X175000000Y-72000000D03*
X173980000Y-72000000D03*
%TD*%
D11*
%TO.C,REF\u002A\u002A*%
X26000000Y-30500000D03*
D12*
X31400000Y-30500000D03*
%TD*%
D10*
%TO.C,1K*%
X100490000Y-140000000D03*
X101510000Y-140000000D03*
%TD*%
D13*
%TO.C,MMBTA42*%
X125640000Y-29562500D03*
X123740000Y-29562500D03*
X124690000Y-31437500D03*
%TD*%
D10*
%TO.C,1K*%
X268480000Y-92000000D03*
X269500000Y-92000000D03*
%TD*%
%TO.C,1K*%
X252480000Y-44000000D03*
X253500000Y-44000000D03*
%TD*%
%TO.C,1K*%
X156490000Y-124000000D03*
X157510000Y-124000000D03*
%TD*%
D14*
%TO.C,50K*%
X199000000Y-72000000D03*
X197980000Y-72000000D03*
%TD*%
D13*
%TO.C,MMBTA42*%
X269640000Y-77562500D03*
X267740000Y-77562500D03*
X268690000Y-79437500D03*
%TD*%
D10*
%TO.C,1K*%
X252480000Y-28000000D03*
X253500000Y-28000000D03*
%TD*%
D14*
%TO.C,50K*%
X47000000Y-32000000D03*
X45980000Y-32000000D03*
%TD*%
D13*
%TO.C,MMBTA42*%
X117640000Y-101562500D03*
X115740000Y-101562500D03*
X116690000Y-103437500D03*
%TD*%
D14*
%TO.C,50K*%
X191000000Y-136000000D03*
X189980000Y-136000000D03*
%TD*%
D10*
%TO.C,1K*%
X156490000Y-76000000D03*
X157510000Y-76000000D03*
%TD*%
D14*
%TO.C,50K*%
X71000000Y-152000000D03*
X69980000Y-152000000D03*
%TD*%
D11*
%TO.C,REF\u002A\u002A*%
X218000000Y-126500000D03*
D12*
X223400000Y-126500000D03*
%TD*%
D13*
%TO.C,MMBTA42*%
X261640000Y-149562500D03*
X259740000Y-149562500D03*
X260690000Y-151437500D03*
%TD*%
D10*
%TO.C,1K*%
X156490000Y-84000000D03*
X157510000Y-84000000D03*
%TD*%
%TO.C,1K*%
X20490000Y-92000000D03*
X21510000Y-92000000D03*
%TD*%
D13*
%TO.C,MMBTA42*%
X157650000Y-85562500D03*
X155750000Y-85562500D03*
X156700000Y-87437500D03*
%TD*%
D14*
%TO.C,50K*%
X239000000Y-48000000D03*
X237980000Y-48000000D03*
%TD*%
D11*
%TO.C,REF\u002A\u002A*%
X241990000Y-150500000D03*
D12*
X247390000Y-150500000D03*
%TD*%
D11*
%TO.C,REF\u002A\u002A*%
X193990000Y-78500000D03*
D12*
X199390000Y-78500000D03*
%TD*%
D11*
%TO.C,REF\u002A\u002A*%
X121990000Y-62500000D03*
D12*
X127390000Y-62500000D03*
%TD*%
D13*
%TO.C,MMBTA42*%
X213650000Y-69562500D03*
X211750000Y-69562500D03*
X212700000Y-71437500D03*
%TD*%
D10*
%TO.C,1K*%
X172480000Y-36000000D03*
X173500000Y-36000000D03*
%TD*%
D14*
%TO.C,50K*%
X199000000Y-48000000D03*
X197980000Y-48000000D03*
%TD*%
D10*
%TO.C,1K*%
X132480000Y-148000000D03*
X133500000Y-148000000D03*
%TD*%
D14*
%TO.C,50K*%
X167010000Y-112000000D03*
X165990000Y-112000000D03*
%TD*%
D11*
%TO.C,REF\u002A\u002A*%
X18000000Y-70500000D03*
D12*
X23400000Y-70500000D03*
%TD*%
D11*
%TO.C,REF\u002A\u002A*%
X257990000Y-126500000D03*
D12*
X263390000Y-126500000D03*
%TD*%
D11*
%TO.C,REF\u002A\u002A*%
X18000000Y-46500000D03*
D12*
X23400000Y-46500000D03*
%TD*%
D10*
%TO.C,1K*%
X92490000Y-44000000D03*
X93510000Y-44000000D03*
%TD*%
D15*
%TO.C,RegisterLane*%
X45500000Y-82000000D03*
X46500000Y-82000000D03*
X47500000Y-82000000D03*
X48500000Y-82000000D03*
X49500000Y-82000000D03*
X50500000Y-82000000D03*
X51500000Y-82000000D03*
X52500000Y-82000000D03*
%TD*%
D13*
%TO.C,MMBTA42*%
X101650000Y-133562500D03*
X99750000Y-133562500D03*
X100700000Y-135437500D03*
%TD*%
D10*
%TO.C,1K*%
X116480000Y-148000000D03*
X117500000Y-148000000D03*
%TD*%
D13*
%TO.C,MMBTA42*%
X181640000Y-29562500D03*
X179740000Y-29562500D03*
X180690000Y-31437500D03*
%TD*%
D10*
%TO.C,1K*%
X156490000Y-132000000D03*
X157510000Y-132000000D03*
%TD*%
D13*
%TO.C,MMBTA42*%
X197640000Y-77562500D03*
X195740000Y-77562500D03*
X196690000Y-79437500D03*
%TD*%
D14*
%TO.C,50K*%
X95010000Y-96000000D03*
X93990000Y-96000000D03*
%TD*%
D11*
%TO.C,REF\u002A\u002A*%
X73990000Y-70500000D03*
D12*
X79390000Y-70500000D03*
%TD*%
D14*
%TO.C,50K*%
X87010000Y-32000000D03*
X85990000Y-32000000D03*
%TD*%
D13*
%TO.C,MMBTA42*%
X269640000Y-53562500D03*
X267740000Y-53562500D03*
X268690000Y-55437500D03*
%TD*%
D14*
%TO.C,50K*%
X95010000Y-104000000D03*
X93990000Y-104000000D03*
%TD*%
D11*
%TO.C,REF\u002A\u002A*%
X162000000Y-54500000D03*
D12*
X167400000Y-54500000D03*
%TD*%
D10*
%TO.C,1K*%
X188480000Y-108000000D03*
X189500000Y-108000000D03*
%TD*%
D14*
%TO.C,50K*%
X71000000Y-80000000D03*
X69980000Y-80000000D03*
%TD*%
D11*
%TO.C,REF\u002A\u002A*%
X201990000Y-126500000D03*
D12*
X207390000Y-126500000D03*
%TD*%
D14*
%TO.C,50K*%
X271000000Y-64000000D03*
X269980000Y-64000000D03*
%TD*%
D11*
%TO.C,REF\u002A\u002A*%
X169990000Y-94500000D03*
D12*
X175390000Y-94500000D03*
%TD*%
D14*
%TO.C,50K*%
X159010000Y-80000000D03*
X157990000Y-80000000D03*
%TD*%
%TO.C,50K*%
X87010000Y-72000000D03*
X85990000Y-72000000D03*
%TD*%
%TO.C,50K*%
X255000000Y-88000000D03*
X253980000Y-88000000D03*
%TD*%
D13*
%TO.C,MMBTA42*%
X205640000Y-61562500D03*
X203740000Y-61562500D03*
X204690000Y-63437500D03*
%TD*%
%TO.C,MMBTA42*%
X29650000Y-29562500D03*
X27750000Y-29562500D03*
X28700000Y-31437500D03*
%TD*%
%TO.C,MMBTA42*%
X53640000Y-149562500D03*
X51740000Y-149562500D03*
X52690000Y-151437500D03*
%TD*%
D11*
%TO.C,REF\u002A\u002A*%
X185990000Y-118500000D03*
D12*
X191390000Y-118500000D03*
%TD*%
D14*
%TO.C,50K*%
X23010000Y-152000000D03*
X21990000Y-152000000D03*
%TD*%
D13*
%TO.C,MMBTA42*%
X205640000Y-69562500D03*
X203740000Y-69562500D03*
X204690000Y-71437500D03*
%TD*%
D14*
%TO.C,50K*%
X183000000Y-152000000D03*
X181980000Y-152000000D03*
%TD*%
D10*
%TO.C,1K*%
X236480000Y-68000000D03*
X237500000Y-68000000D03*
%TD*%
%TO.C,1K*%
X252480000Y-52000000D03*
X253500000Y-52000000D03*
%TD*%
D13*
%TO.C,MMBTA42*%
X189640000Y-101562500D03*
X187740000Y-101562500D03*
X188690000Y-103437500D03*
%TD*%
D14*
%TO.C,50K*%
X255000000Y-48000000D03*
X253980000Y-48000000D03*
%TD*%
D13*
%TO.C,MMBTA42*%
X237640000Y-93562500D03*
X235740000Y-93562500D03*
X236690000Y-95437500D03*
%TD*%
D14*
%TO.C,50K*%
X79000000Y-152000000D03*
X77980000Y-152000000D03*
%TD*%
D11*
%TO.C,REF\u002A\u002A*%
X90000000Y-150500000D03*
D12*
X95400000Y-150500000D03*
%TD*%
D10*
%TO.C,1K*%
X220490000Y-132000000D03*
X221510000Y-132000000D03*
%TD*%
D11*
%TO.C,REF\u002A\u002A*%
X65990000Y-102500000D03*
D12*
X71390000Y-102500000D03*
%TD*%
D10*
%TO.C,1K*%
X220490000Y-100000000D03*
X221510000Y-100000000D03*
%TD*%
D13*
%TO.C,MMBTA42*%
X117640000Y-149562500D03*
X115740000Y-149562500D03*
X116690000Y-151437500D03*
%TD*%
D14*
%TO.C,50K*%
X143000000Y-88000000D03*
X141980000Y-88000000D03*
%TD*%
D13*
%TO.C,MMBTA42*%
X165650000Y-61562500D03*
X163750000Y-61562500D03*
X164700000Y-63437500D03*
%TD*%
D10*
%TO.C,1K*%
X236480000Y-60000000D03*
X237500000Y-60000000D03*
%TD*%
%TO.C,1K*%
X60480000Y-116000000D03*
X61500000Y-116000000D03*
%TD*%
D13*
%TO.C,MMBTA42*%
X149650000Y-53562500D03*
X147750000Y-53562500D03*
X148700000Y-55437500D03*
%TD*%
D11*
%TO.C,REF\u002A\u002A*%
X129990000Y-70500000D03*
D12*
X135390000Y-70500000D03*
%TD*%
D14*
%TO.C,50K*%
X263000000Y-104000000D03*
X261980000Y-104000000D03*
%TD*%
D13*
%TO.C,MMBTA42*%
X253640000Y-85562500D03*
X251740000Y-85562500D03*
X252690000Y-87437500D03*
%TD*%
D10*
%TO.C,1K*%
X212490000Y-28000000D03*
X213510000Y-28000000D03*
%TD*%
D14*
%TO.C,50K*%
X127000000Y-72000000D03*
X125980000Y-72000000D03*
%TD*%
D13*
%TO.C,MMBTA42*%
X261640000Y-37562500D03*
X259740000Y-37562500D03*
X260690000Y-39437500D03*
%TD*%
D14*
%TO.C,50K*%
X103010000Y-128000000D03*
X101990000Y-128000000D03*
%TD*%
%TO.C,50K*%
X183000000Y-104000000D03*
X181980000Y-104000000D03*
%TD*%
D10*
%TO.C,1K*%
X60480000Y-28000000D03*
X61500000Y-28000000D03*
%TD*%
D14*
%TO.C,50K*%
X231010000Y-64000000D03*
X229990000Y-64000000D03*
%TD*%
D13*
%TO.C,MMBTA42*%
X109640000Y-85562500D03*
X107740000Y-85562500D03*
X108690000Y-87437500D03*
%TD*%
%TO.C,MMBTA42*%
X77640000Y-117562500D03*
X75740000Y-117562500D03*
X76690000Y-119437500D03*
%TD*%
D11*
%TO.C,REF\u002A\u002A*%
X121990000Y-54500000D03*
D12*
X127390000Y-54500000D03*
%TD*%
D11*
%TO.C,REF\u002A\u002A*%
X193990000Y-150500000D03*
D12*
X199390000Y-150500000D03*
%TD*%
D11*
%TO.C,REF\u002A\u002A*%
X265990000Y-46500000D03*
D12*
X271390000Y-46500000D03*
%TD*%
D13*
%TO.C,MMBTA42*%
X269640000Y-125562500D03*
X267740000Y-125562500D03*
X268690000Y-127437500D03*
%TD*%
D10*
%TO.C,1K*%
X132480000Y-68000000D03*
X133500000Y-68000000D03*
%TD*%
D13*
%TO.C,MMBTA42*%
X85650000Y-117562500D03*
X83750000Y-117562500D03*
X84700000Y-119437500D03*
%TD*%
D14*
%TO.C,50K*%
X271000000Y-40000000D03*
X269980000Y-40000000D03*
%TD*%
D10*
%TO.C,1K*%
X164490000Y-124000000D03*
X165510000Y-124000000D03*
%TD*%
D14*
%TO.C,50K*%
X95010000Y-56000000D03*
X93990000Y-56000000D03*
%TD*%
D15*
%TO.C,RegisterLane*%
X237500000Y-106000000D03*
X238500000Y-106000000D03*
X239500000Y-106000000D03*
X240500000Y-106000000D03*
X241500000Y-106000000D03*
X242500000Y-106000000D03*
X243500000Y-106000000D03*
X244500000Y-106000000D03*
%TD*%
D10*
%TO.C,1K*%
X44480000Y-28000000D03*
X45500000Y-28000000D03*
%TD*%
D11*
%TO.C,REF\u002A\u002A*%
X121990000Y-30500000D03*
D12*
X127390000Y-30500000D03*
%TD*%
D14*
%TO.C,50K*%
X47000000Y-40000000D03*
X45980000Y-40000000D03*
%TD*%
%TO.C,50K*%
X207000000Y-48000000D03*
X205980000Y-48000000D03*
%TD*%
%TO.C,50K*%
X167010000Y-72000000D03*
X165990000Y-72000000D03*
%TD*%
D13*
%TO.C,MMBTA42*%
X93650000Y-45562500D03*
X91750000Y-45562500D03*
X92700000Y-47437500D03*
%TD*%
D14*
%TO.C,50K*%
X111000000Y-56000000D03*
X109980000Y-56000000D03*
%TD*%
%TO.C,50K*%
X103010000Y-40000000D03*
X101990000Y-40000000D03*
%TD*%
%TO.C,50K*%
X191000000Y-48000000D03*
X189980000Y-48000000D03*
%TD*%
D11*
%TO.C,REF\u002A\u002A*%
X18000000Y-150500000D03*
D12*
X23400000Y-150500000D03*
%TD*%
D13*
%TO.C,MMBTA42*%
X149650000Y-37562500D03*
X147750000Y-37562500D03*
X148700000Y-39437500D03*
%TD*%
D10*
%TO.C,1K*%
X20490000Y-132000000D03*
X21510000Y-132000000D03*
%TD*%
%TO.C,1K*%
X236480000Y-140000000D03*
X237500000Y-140000000D03*
%TD*%
D11*
%TO.C,REF\u002A\u002A*%
X34000000Y-126500000D03*
D12*
X39400000Y-126500000D03*
%TD*%
D11*
%TO.C,REF\u002A\u002A*%
X65990000Y-134500000D03*
D12*
X71390000Y-134500000D03*
%TD*%
D13*
%TO.C,MMBTA42*%
X133640000Y-85562500D03*
X131740000Y-85562500D03*
X132690000Y-87437500D03*
%TD*%
D14*
%TO.C,50K*%
X71000000Y-56000000D03*
X69980000Y-56000000D03*
%TD*%
D11*
%TO.C,REF\u002A\u002A*%
X73990000Y-54500000D03*
D12*
X79390000Y-54500000D03*
%TD*%
D13*
%TO.C,MMBTA42*%
X21650000Y-29562500D03*
X19750000Y-29562500D03*
X20700000Y-31437500D03*
%TD*%
D11*
%TO.C,REF\u002A\u002A*%
X137990000Y-30500000D03*
D12*
X143390000Y-30500000D03*
%TD*%
D13*
%TO.C,MMBTA42*%
X205640000Y-101562500D03*
X203740000Y-101562500D03*
X204690000Y-103437500D03*
%TD*%
D10*
%TO.C,1K*%
X212490000Y-60000000D03*
X213510000Y-60000000D03*
%TD*%
D14*
%TO.C,50K*%
X207000000Y-40000000D03*
X205980000Y-40000000D03*
%TD*%
%TO.C,50K*%
X255000000Y-120000000D03*
X253980000Y-120000000D03*
%TD*%
D11*
%TO.C,REF\u002A\u002A*%
X137990000Y-70500000D03*
D12*
X143390000Y-70500000D03*
%TD*%
D13*
%TO.C,MMBTA42*%
X269640000Y-29562500D03*
X267740000Y-29562500D03*
X268690000Y-31437500D03*
%TD*%
D11*
%TO.C,REF\u002A\u002A*%
X193990000Y-46500000D03*
D12*
X199390000Y-46500000D03*
%TD*%
D13*
%TO.C,MMBTA42*%
X141640000Y-125562500D03*
X139740000Y-125562500D03*
X140690000Y-127437500D03*
%TD*%
D10*
%TO.C,1K*%
X52480000Y-60000000D03*
X53500000Y-60000000D03*
%TD*%
D13*
%TO.C,MMBTA42*%
X237640000Y-117562500D03*
X235740000Y-117562500D03*
X236690000Y-119437500D03*
%TD*%
D14*
%TO.C,50K*%
X263000000Y-80000000D03*
X261980000Y-80000000D03*
%TD*%
D13*
%TO.C,MMBTA42*%
X77640000Y-85562500D03*
X75740000Y-85562500D03*
X76690000Y-87437500D03*
%TD*%
D14*
%TO.C,50K*%
X55000000Y-32000000D03*
X53980000Y-32000000D03*
%TD*%
%TO.C,50K*%
X215010000Y-120000000D03*
X213990000Y-120000000D03*
%TD*%
D11*
%TO.C,REF\u002A\u002A*%
X193990000Y-86500000D03*
D12*
X199390000Y-86500000D03*
%TD*%
D13*
%TO.C,MMBTA42*%
X221650000Y-85562500D03*
X219750000Y-85562500D03*
X220700000Y-87437500D03*
%TD*%
D14*
%TO.C,50K*%
X79000000Y-96000000D03*
X77980000Y-96000000D03*
%TD*%
%TO.C,50K*%
X111000000Y-64000000D03*
X109980000Y-64000000D03*
%TD*%
%TO.C,50K*%
X263000000Y-136000000D03*
X261980000Y-136000000D03*
%TD*%
%TO.C,50K*%
X231010000Y-136000000D03*
X229990000Y-136000000D03*
%TD*%
D11*
%TO.C,REF\u002A\u002A*%
X193990000Y-70500000D03*
D12*
X199390000Y-70500000D03*
%TD*%
D14*
%TO.C,50K*%
X23010000Y-40000000D03*
X21990000Y-40000000D03*
%TD*%
D11*
%TO.C,REF\u002A\u002A*%
X241990000Y-62500000D03*
D12*
X247390000Y-62500000D03*
%TD*%
D13*
%TO.C,MMBTA42*%
X157650000Y-109562500D03*
X155750000Y-109562500D03*
X156700000Y-111437500D03*
%TD*%
D11*
%TO.C,REF\u002A\u002A*%
X98000000Y-118500000D03*
D12*
X103400000Y-118500000D03*
%TD*%
D10*
%TO.C,1K*%
X164490000Y-100000000D03*
X165510000Y-100000000D03*
%TD*%
D14*
%TO.C,50K*%
X55000000Y-136000000D03*
X53980000Y-136000000D03*
%TD*%
D11*
%TO.C,REF\u002A\u002A*%
X49990000Y-30500000D03*
D12*
X55390000Y-30500000D03*
%TD*%
D10*
%TO.C,1K*%
X244480000Y-108000000D03*
X245500000Y-108000000D03*
%TD*%
%TO.C,1K*%
X76480000Y-44000000D03*
X77500000Y-44000000D03*
%TD*%
D14*
%TO.C,50K*%
X271000000Y-144000000D03*
X269980000Y-144000000D03*
%TD*%
D11*
%TO.C,REF\u002A\u002A*%
X146000000Y-46500000D03*
D12*
X151400000Y-46500000D03*
%TD*%
D14*
%TO.C,50K*%
X119000000Y-88000000D03*
X117980000Y-88000000D03*
%TD*%
D11*
%TO.C,REF\u002A\u002A*%
X169990000Y-142500000D03*
D12*
X175390000Y-142500000D03*
%TD*%
D11*
%TO.C,REF\u002A\u002A*%
X26000000Y-126500000D03*
D12*
X31400000Y-126500000D03*
%TD*%
D11*
%TO.C,REF\u002A\u002A*%
X90000000Y-78500000D03*
D12*
X95400000Y-78500000D03*
%TD*%
D14*
%TO.C,50K*%
X23010000Y-104000000D03*
X21990000Y-104000000D03*
%TD*%
D10*
%TO.C,1K*%
X132480000Y-108000000D03*
X133500000Y-108000000D03*
%TD*%
%TO.C,1K*%
X180480000Y-140000000D03*
X181500000Y-140000000D03*
%TD*%
D11*
%TO.C,REF\u002A\u002A*%
X98000000Y-102500000D03*
D12*
X103400000Y-102500000D03*
%TD*%
D14*
%TO.C,50K*%
X151010000Y-72000000D03*
X149990000Y-72000000D03*
%TD*%
D11*
%TO.C,REF\u002A\u002A*%
X146000000Y-94500000D03*
D12*
X151400000Y-94500000D03*
%TD*%
D10*
%TO.C,1K*%
X44480000Y-76000000D03*
X45500000Y-76000000D03*
%TD*%
%TO.C,1K*%
X140480000Y-100000000D03*
X141500000Y-100000000D03*
%TD*%
D14*
%TO.C,50K*%
X103010000Y-144000000D03*
X101990000Y-144000000D03*
%TD*%
%TO.C,50K*%
X79000000Y-128000000D03*
X77980000Y-128000000D03*
%TD*%
D13*
%TO.C,MMBTA42*%
X141640000Y-109562500D03*
X139740000Y-109562500D03*
X140690000Y-111437500D03*
%TD*%
D14*
%TO.C,50K*%
X247000000Y-64000000D03*
X245980000Y-64000000D03*
%TD*%
%TO.C,50K*%
X111000000Y-120000000D03*
X109980000Y-120000000D03*
%TD*%
D11*
%TO.C,REF\u002A\u002A*%
X82000000Y-134500000D03*
D12*
X87400000Y-134500000D03*
%TD*%
D13*
%TO.C,MMBTA42*%
X101650000Y-93562500D03*
X99750000Y-93562500D03*
X100700000Y-95437500D03*
%TD*%
D10*
%TO.C,1K*%
X76480000Y-92000000D03*
X77500000Y-92000000D03*
%TD*%
D13*
%TO.C,MMBTA42*%
X221650000Y-37562500D03*
X219750000Y-37562500D03*
X220700000Y-39437500D03*
%TD*%
D11*
%TO.C,REF\u002A\u002A*%
X98000000Y-94500000D03*
D12*
X103400000Y-94500000D03*
%TD*%
D13*
%TO.C,MMBTA42*%
X77640000Y-37562500D03*
X75740000Y-37562500D03*
X76690000Y-39437500D03*
%TD*%
%TO.C,MMBTA42*%
X109640000Y-77562500D03*
X107740000Y-77562500D03*
X108690000Y-79437500D03*
%TD*%
D11*
%TO.C,REF\u002A\u002A*%
X49990000Y-78500000D03*
D12*
X55390000Y-78500000D03*
%TD*%
D14*
%TO.C,50K*%
X47000000Y-96000000D03*
X45980000Y-96000000D03*
%TD*%
D10*
%TO.C,1K*%
X20490000Y-36000000D03*
X21510000Y-36000000D03*
%TD*%
D13*
%TO.C,MMBTA42*%
X165650000Y-45562500D03*
X163750000Y-45562500D03*
X164700000Y-47437500D03*
%TD*%
D11*
%TO.C,REF\u002A\u002A*%
X41990000Y-86500000D03*
D12*
X47390000Y-86500000D03*
%TD*%
D10*
%TO.C,1K*%
X36490000Y-44000000D03*
X37510000Y-44000000D03*
%TD*%
D11*
%TO.C,REF\u002A\u002A*%
X249990000Y-126500000D03*
D12*
X255390000Y-126500000D03*
%TD*%
D11*
%TO.C,REF\u002A\u002A*%
X210000000Y-86500000D03*
D12*
X215400000Y-86500000D03*
%TD*%
D11*
%TO.C,REF\u002A\u002A*%
X26000000Y-46500000D03*
D12*
X31400000Y-46500000D03*
%TD*%
D10*
%TO.C,1K*%
X228490000Y-148000000D03*
X229510000Y-148000000D03*
%TD*%
D11*
%TO.C,REF\u002A\u002A*%
X193990000Y-134500000D03*
D12*
X199390000Y-134500000D03*
%TD*%
D13*
%TO.C,MMBTA42*%
X213650000Y-101562500D03*
X211750000Y-101562500D03*
X212700000Y-103437500D03*
%TD*%
D10*
%TO.C,1K*%
X148490000Y-60000000D03*
X149510000Y-60000000D03*
%TD*%
%TO.C,1K*%
X84490000Y-124000000D03*
X85510000Y-124000000D03*
%TD*%
D14*
%TO.C,50K*%
X159010000Y-40000000D03*
X157990000Y-40000000D03*
%TD*%
D13*
%TO.C,MMBTA42*%
X141640000Y-61562500D03*
X139740000Y-61562500D03*
X140690000Y-63437500D03*
%TD*%
D10*
%TO.C,1K*%
X164490000Y-148000000D03*
X165510000Y-148000000D03*
%TD*%
D11*
%TO.C,REF\u002A\u002A*%
X177990000Y-102500000D03*
D12*
X183390000Y-102500000D03*
%TD*%
D11*
%TO.C,REF\u002A\u002A*%
X98000000Y-134500000D03*
D12*
X103400000Y-134500000D03*
%TD*%
D10*
%TO.C,1K*%
X28490000Y-68000000D03*
X29510000Y-68000000D03*
%TD*%
%TO.C,1K*%
X28490000Y-76000000D03*
X29510000Y-76000000D03*
%TD*%
D13*
%TO.C,MMBTA42*%
X125640000Y-141562500D03*
X123740000Y-141562500D03*
X124690000Y-143437500D03*
%TD*%
%TO.C,MMBTA42*%
X205640000Y-93562500D03*
X203740000Y-93562500D03*
X204690000Y-95437500D03*
%TD*%
D10*
%TO.C,1K*%
X268480000Y-100000000D03*
X269500000Y-100000000D03*
%TD*%
D11*
%TO.C,REF\u002A\u002A*%
X193990000Y-54500000D03*
D12*
X199390000Y-54500000D03*
%TD*%
D10*
%TO.C,1K*%
X124480000Y-84000000D03*
X125500000Y-84000000D03*
%TD*%
D13*
%TO.C,MMBTA42*%
X189640000Y-93562500D03*
X187740000Y-93562500D03*
X188690000Y-95437500D03*
%TD*%
D15*
%TO.C,RegisterLane*%
X237500000Y-154000000D03*
X238500000Y-154000000D03*
X239500000Y-154000000D03*
X240500000Y-154000000D03*
X241500000Y-154000000D03*
X242500000Y-154000000D03*
X243500000Y-154000000D03*
X244500000Y-154000000D03*
%TD*%
D14*
%TO.C,50K*%
X63000000Y-80000000D03*
X61980000Y-80000000D03*
%TD*%
D13*
%TO.C,MMBTA42*%
X229650000Y-109562500D03*
X227750000Y-109562500D03*
X228700000Y-111437500D03*
%TD*%
D11*
%TO.C,REF\u002A\u002A*%
X193990000Y-30500000D03*
D12*
X199390000Y-30500000D03*
%TD*%
D13*
%TO.C,MMBTA42*%
X21650000Y-101562500D03*
X19750000Y-101562500D03*
X20700000Y-103437500D03*
%TD*%
D14*
%TO.C,50K*%
X143000000Y-128000000D03*
X141980000Y-128000000D03*
%TD*%
D13*
%TO.C,MMBTA42*%
X45640000Y-77562500D03*
X43740000Y-77562500D03*
X44690000Y-79437500D03*
%TD*%
D14*
%TO.C,50K*%
X263000000Y-144000000D03*
X261980000Y-144000000D03*
%TD*%
D10*
%TO.C,1K*%
X204480000Y-100000000D03*
X205500000Y-100000000D03*
%TD*%
D13*
%TO.C,MMBTA42*%
X157650000Y-125562500D03*
X155750000Y-125562500D03*
X156700000Y-127437500D03*
%TD*%
D11*
%TO.C,REF\u002A\u002A*%
X162000000Y-78500000D03*
D12*
X167400000Y-78500000D03*
%TD*%
D13*
%TO.C,MMBTA42*%
X197640000Y-93562500D03*
X195740000Y-93562500D03*
X196690000Y-95437500D03*
%TD*%
D11*
%TO.C,REF\u002A\u002A*%
X193990000Y-142500000D03*
D12*
X199390000Y-142500000D03*
%TD*%
D11*
%TO.C,REF\u002A\u002A*%
X226000000Y-126500000D03*
D12*
X231400000Y-126500000D03*
%TD*%
D13*
%TO.C,MMBTA42*%
X189640000Y-45562500D03*
X187740000Y-45562500D03*
X188690000Y-47437500D03*
%TD*%
%TO.C,MMBTA42*%
X21650000Y-117562500D03*
X19750000Y-117562500D03*
X20700000Y-119437500D03*
%TD*%
D11*
%TO.C,REF\u002A\u002A*%
X233990000Y-134500000D03*
D12*
X239390000Y-134500000D03*
%TD*%
D10*
%TO.C,1K*%
X132480000Y-60000000D03*
X133500000Y-60000000D03*
%TD*%
D14*
%TO.C,50K*%
X23010000Y-72000000D03*
X21990000Y-72000000D03*
%TD*%
D11*
%TO.C,REF\u002A\u002A*%
X129990000Y-86500000D03*
D12*
X135390000Y-86500000D03*
%TD*%
D11*
%TO.C,REF\u002A\u002A*%
X241990000Y-110500000D03*
D12*
X247390000Y-110500000D03*
%TD*%
D14*
%TO.C,50K*%
X31010000Y-128000000D03*
X29990000Y-128000000D03*
%TD*%
D10*
%TO.C,1K*%
X76480000Y-60000000D03*
X77500000Y-60000000D03*
%TD*%
%TO.C,1K*%
X20490000Y-44000000D03*
X21510000Y-44000000D03*
%TD*%
D14*
%TO.C,50K*%
X223010000Y-112000000D03*
X221990000Y-112000000D03*
%TD*%
D10*
%TO.C,1K*%
X108480000Y-68000000D03*
X109500000Y-68000000D03*
%TD*%
D14*
%TO.C,50K*%
X39010000Y-144000000D03*
X37990000Y-144000000D03*
%TD*%
%TO.C,50K*%
X223010000Y-152000000D03*
X221990000Y-152000000D03*
%TD*%
%TO.C,50K*%
X271000000Y-56000000D03*
X269980000Y-56000000D03*
%TD*%
D11*
%TO.C,REF\u002A\u002A*%
X113990000Y-150500000D03*
D12*
X119390000Y-150500000D03*
%TD*%
D10*
%TO.C,1K*%
X92490000Y-124000000D03*
X93510000Y-124000000D03*
%TD*%
D13*
%TO.C,MMBTA42*%
X165650000Y-85562500D03*
X163750000Y-85562500D03*
X164700000Y-87437500D03*
%TD*%
D10*
%TO.C,1K*%
X116480000Y-108000000D03*
X117500000Y-108000000D03*
%TD*%
%TO.C,1K*%
X76480000Y-116000000D03*
X77500000Y-116000000D03*
%TD*%
D15*
%TO.C,RegisterLane*%
X109500000Y-34000000D03*
X110500000Y-34000000D03*
X111500000Y-34000000D03*
X112500000Y-34000000D03*
X113500000Y-34000000D03*
X114500000Y-34000000D03*
X115500000Y-34000000D03*
X116500000Y-34000000D03*
%TD*%
D11*
%TO.C,REF\u002A\u002A*%
X265990000Y-38500000D03*
D12*
X271390000Y-38500000D03*
%TD*%
D14*
%TO.C,50K*%
X143000000Y-96000000D03*
X141980000Y-96000000D03*
%TD*%
D10*
%TO.C,1K*%
X36490000Y-140000000D03*
X37510000Y-140000000D03*
%TD*%
D14*
%TO.C,50K*%
X151010000Y-104000000D03*
X149990000Y-104000000D03*
%TD*%
D10*
%TO.C,1K*%
X260480000Y-148000000D03*
X261500000Y-148000000D03*
%TD*%
D13*
%TO.C,MMBTA42*%
X197640000Y-133562500D03*
X195740000Y-133562500D03*
X196690000Y-135437500D03*
%TD*%
D10*
%TO.C,1K*%
X84490000Y-52000000D03*
X85510000Y-52000000D03*
%TD*%
D11*
%TO.C,REF\u002A\u002A*%
X233990000Y-70500000D03*
D12*
X239390000Y-70500000D03*
%TD*%
D11*
%TO.C,REF\u002A\u002A*%
X185990000Y-70500000D03*
D12*
X191390000Y-70500000D03*
%TD*%
D14*
%TO.C,50K*%
X31010000Y-112000000D03*
X29990000Y-112000000D03*
%TD*%
%TO.C,50K*%
X39010000Y-80000000D03*
X37990000Y-80000000D03*
%TD*%
D10*
%TO.C,1K*%
X20490000Y-148000000D03*
X21510000Y-148000000D03*
%TD*%
D11*
%TO.C,REF\u002A\u002A*%
X162000000Y-134500000D03*
D12*
X167400000Y-134500000D03*
%TD*%
D10*
%TO.C,1K*%
X108480000Y-44000000D03*
X109500000Y-44000000D03*
%TD*%
D13*
%TO.C,MMBTA42*%
X45640000Y-37562500D03*
X43740000Y-37562500D03*
X44690000Y-39437500D03*
%TD*%
D14*
%TO.C,50K*%
X55000000Y-64000000D03*
X53980000Y-64000000D03*
%TD*%
%TO.C,50K*%
X31010000Y-136000000D03*
X29990000Y-136000000D03*
%TD*%
D10*
%TO.C,1K*%
X220490000Y-68000000D03*
X221510000Y-68000000D03*
%TD*%
%TO.C,1K*%
X100490000Y-148000000D03*
X101510000Y-148000000D03*
%TD*%
D14*
%TO.C,50K*%
X135000000Y-128000000D03*
X133980000Y-128000000D03*
%TD*%
%TO.C,50K*%
X271000000Y-120000000D03*
X269980000Y-120000000D03*
%TD*%
D11*
%TO.C,REF\u002A\u002A*%
X90000000Y-46500000D03*
D12*
X95400000Y-46500000D03*
%TD*%
D14*
%TO.C,50K*%
X167010000Y-48000000D03*
X165990000Y-48000000D03*
%TD*%
D15*
%TO.C,RegisterLane*%
X45500000Y-122000000D03*
X46500000Y-122000000D03*
X47500000Y-122000000D03*
X48500000Y-122000000D03*
X49500000Y-122000000D03*
X50500000Y-122000000D03*
X51500000Y-122000000D03*
X52500000Y-122000000D03*
%TD*%
D14*
%TO.C,50K*%
X87010000Y-144000000D03*
X85990000Y-144000000D03*
%TD*%
D13*
%TO.C,MMBTA42*%
X85650000Y-133562500D03*
X83750000Y-133562500D03*
X84700000Y-135437500D03*
%TD*%
D10*
%TO.C,1K*%
X52480000Y-140000000D03*
X53500000Y-140000000D03*
%TD*%
%TO.C,1K*%
X132480000Y-36000000D03*
X133500000Y-36000000D03*
%TD*%
D13*
%TO.C,MMBTA42*%
X173640000Y-61562500D03*
X171740000Y-61562500D03*
X172690000Y-63437500D03*
%TD*%
%TO.C,MMBTA42*%
X61640000Y-93562500D03*
X59740000Y-93562500D03*
X60690000Y-95437500D03*
%TD*%
D11*
%TO.C,REF\u002A\u002A*%
X226000000Y-86500000D03*
D12*
X231400000Y-86500000D03*
%TD*%
D10*
%TO.C,1K*%
X108480000Y-100000000D03*
X109500000Y-100000000D03*
%TD*%
D13*
%TO.C,MMBTA42*%
X173640000Y-85562500D03*
X171740000Y-85562500D03*
X172690000Y-87437500D03*
%TD*%
%TO.C,MMBTA42*%
X61640000Y-53562500D03*
X59740000Y-53562500D03*
X60690000Y-55437500D03*
%TD*%
D11*
%TO.C,REF\u002A\u002A*%
X185990000Y-78500000D03*
D12*
X191390000Y-78500000D03*
%TD*%
D11*
%TO.C,REF\u002A\u002A*%
X105990000Y-102500000D03*
D12*
X111390000Y-102500000D03*
%TD*%
D14*
%TO.C,50K*%
X127000000Y-128000000D03*
X125980000Y-128000000D03*
%TD*%
D13*
%TO.C,MMBTA42*%
X213650000Y-77562500D03*
X211750000Y-77562500D03*
X212700000Y-79437500D03*
%TD*%
D10*
%TO.C,1K*%
X212490000Y-44000000D03*
X213510000Y-44000000D03*
%TD*%
%TO.C,1K*%
X212490000Y-100000000D03*
X213510000Y-100000000D03*
%TD*%
%TO.C,1K*%
X204480000Y-44000000D03*
X205500000Y-44000000D03*
%TD*%
D14*
%TO.C,50K*%
X263000000Y-40000000D03*
X261980000Y-40000000D03*
%TD*%
D11*
%TO.C,REF\u002A\u002A*%
X162000000Y-86500000D03*
D12*
X167400000Y-86500000D03*
%TD*%
D13*
%TO.C,MMBTA42*%
X69640000Y-109562500D03*
X67740000Y-109562500D03*
X68690000Y-111437500D03*
%TD*%
D14*
%TO.C,50K*%
X87010000Y-48000000D03*
X85990000Y-48000000D03*
%TD*%
%TO.C,50K*%
X111000000Y-96000000D03*
X109980000Y-96000000D03*
%TD*%
D10*
%TO.C,1K*%
X44480000Y-68000000D03*
X45500000Y-68000000D03*
%TD*%
D14*
%TO.C,50K*%
X215010000Y-48000000D03*
X213990000Y-48000000D03*
%TD*%
D11*
%TO.C,REF\u002A\u002A*%
X41990000Y-150500000D03*
D12*
X47390000Y-150500000D03*
%TD*%
D11*
%TO.C,REF\u002A\u002A*%
X162000000Y-126500000D03*
D12*
X167400000Y-126500000D03*
%TD*%
D14*
%TO.C,50K*%
X183000000Y-48000000D03*
X181980000Y-48000000D03*
%TD*%
D13*
%TO.C,MMBTA42*%
X205640000Y-109562500D03*
X203740000Y-109562500D03*
X204690000Y-111437500D03*
%TD*%
%TO.C,MMBTA42*%
X253640000Y-125562500D03*
X251740000Y-125562500D03*
X252690000Y-127437500D03*
%TD*%
%TO.C,MMBTA42*%
X109640000Y-53562500D03*
X107740000Y-53562500D03*
X108690000Y-55437500D03*
%TD*%
D16*
%TO.C,REF\u002A\u002A*%
X272500000Y-155000000D03*
%TD*%
D14*
%TO.C,50K*%
X95010000Y-128000000D03*
X93990000Y-128000000D03*
%TD*%
D13*
%TO.C,MMBTA42*%
X213650000Y-133562500D03*
X211750000Y-133562500D03*
X212700000Y-135437500D03*
%TD*%
D10*
%TO.C,1K*%
X252480000Y-36000000D03*
X253500000Y-36000000D03*
%TD*%
D11*
%TO.C,REF\u002A\u002A*%
X257990000Y-102500000D03*
D12*
X263390000Y-102500000D03*
%TD*%
D15*
%TO.C,RegisterLane*%
X45500000Y-98000000D03*
X46500000Y-98000000D03*
X47500000Y-98000000D03*
X48500000Y-98000000D03*
X49500000Y-98000000D03*
X50500000Y-98000000D03*
X51500000Y-98000000D03*
X52500000Y-98000000D03*
%TD*%
D11*
%TO.C,REF\u002A\u002A*%
X233990000Y-150500000D03*
D12*
X239390000Y-150500000D03*
%TD*%
D14*
%TO.C,50K*%
X239000000Y-144000000D03*
X237980000Y-144000000D03*
%TD*%
D10*
%TO.C,1K*%
X148490000Y-76000000D03*
X149510000Y-76000000D03*
%TD*%
%TO.C,1K*%
X196480000Y-148000000D03*
X197500000Y-148000000D03*
%TD*%
D14*
%TO.C,50K*%
X271000000Y-72000000D03*
X269980000Y-72000000D03*
%TD*%
D11*
%TO.C,REF\u002A\u002A*%
X146000000Y-54500000D03*
D12*
X151400000Y-54500000D03*
%TD*%
D11*
%TO.C,REF\u002A\u002A*%
X57990000Y-86500000D03*
D12*
X63390000Y-86500000D03*
%TD*%
D11*
%TO.C,REF\u002A\u002A*%
X73990000Y-134500000D03*
D12*
X79390000Y-134500000D03*
%TD*%
D10*
%TO.C,1K*%
X244480000Y-44000000D03*
X245500000Y-44000000D03*
%TD*%
D14*
%TO.C,50K*%
X167010000Y-64000000D03*
X165990000Y-64000000D03*
%TD*%
D11*
%TO.C,REF\u002A\u002A*%
X82000000Y-150500000D03*
D12*
X87400000Y-150500000D03*
%TD*%
D13*
%TO.C,MMBTA42*%
X229650000Y-29562500D03*
X227750000Y-29562500D03*
X228700000Y-31437500D03*
%TD*%
%TO.C,MMBTA42*%
X69640000Y-133562500D03*
X67740000Y-133562500D03*
X68690000Y-135437500D03*
%TD*%
D11*
%TO.C,REF\u002A\u002A*%
X233990000Y-78500000D03*
D12*
X239390000Y-78500000D03*
%TD*%
D11*
%TO.C,REF\u002A\u002A*%
X137990000Y-86500000D03*
D12*
X143390000Y-86500000D03*
%TD*%
D14*
%TO.C,50K*%
X263000000Y-88000000D03*
X261980000Y-88000000D03*
%TD*%
D11*
%TO.C,REF\u002A\u002A*%
X65990000Y-78500000D03*
D12*
X71390000Y-78500000D03*
%TD*%
D13*
%TO.C,MMBTA42*%
X141640000Y-101562500D03*
X139740000Y-101562500D03*
X140690000Y-103437500D03*
%TD*%
D11*
%TO.C,REF\u002A\u002A*%
X34000000Y-142500000D03*
D12*
X39400000Y-142500000D03*
%TD*%
D14*
%TO.C,50K*%
X223010000Y-104000000D03*
X221990000Y-104000000D03*
%TD*%
%TO.C,50K*%
X87010000Y-136000000D03*
X85990000Y-136000000D03*
%TD*%
D10*
%TO.C,1K*%
X68480000Y-28000000D03*
X69500000Y-28000000D03*
%TD*%
D14*
%TO.C,50K*%
X263000000Y-152000000D03*
X261980000Y-152000000D03*
%TD*%
D10*
%TO.C,1K*%
X188480000Y-60000000D03*
X189500000Y-60000000D03*
%TD*%
%TO.C,1K*%
X124480000Y-140000000D03*
X125500000Y-140000000D03*
%TD*%
%TO.C,1K*%
X52480000Y-44000000D03*
X53500000Y-44000000D03*
%TD*%
D14*
%TO.C,50K*%
X103010000Y-80000000D03*
X101990000Y-80000000D03*
%TD*%
%TO.C,50K*%
X103010000Y-112000000D03*
X101990000Y-112000000D03*
%TD*%
D10*
%TO.C,1K*%
X244480000Y-100000000D03*
X245500000Y-100000000D03*
%TD*%
D13*
%TO.C,MMBTA42*%
X85650000Y-29562500D03*
X83750000Y-29562500D03*
X84700000Y-31437500D03*
%TD*%
D10*
%TO.C,1K*%
X60480000Y-52000000D03*
X61500000Y-52000000D03*
%TD*%
D11*
%TO.C,REF\u002A\u002A*%
X257990000Y-54500000D03*
D12*
X263390000Y-54500000D03*
%TD*%
D11*
%TO.C,REF\u002A\u002A*%
X113990000Y-118500000D03*
D12*
X119390000Y-118500000D03*
%TD*%
D11*
%TO.C,REF\u002A\u002A*%
X249990000Y-54500000D03*
D12*
X255390000Y-54500000D03*
%TD*%
D10*
%TO.C,1K*%
X180480000Y-92000000D03*
X181500000Y-92000000D03*
%TD*%
D11*
%TO.C,REF\u002A\u002A*%
X73990000Y-102500000D03*
D12*
X79390000Y-102500000D03*
%TD*%
D11*
%TO.C,REF\u002A\u002A*%
X121990000Y-46500000D03*
D12*
X127390000Y-46500000D03*
%TD*%
D13*
%TO.C,MMBTA42*%
X181640000Y-45562500D03*
X179740000Y-45562500D03*
X180690000Y-47437500D03*
%TD*%
D11*
%TO.C,REF\u002A\u002A*%
X210000000Y-150500000D03*
D12*
X215400000Y-150500000D03*
%TD*%
D13*
%TO.C,MMBTA42*%
X229650000Y-77562500D03*
X227750000Y-77562500D03*
X228700000Y-79437500D03*
%TD*%
D10*
%TO.C,1K*%
X132480000Y-52000000D03*
X133500000Y-52000000D03*
%TD*%
D11*
%TO.C,REF\u002A\u002A*%
X82000000Y-118500000D03*
D12*
X87400000Y-118500000D03*
%TD*%
D11*
%TO.C,REF\u002A\u002A*%
X241990000Y-86500000D03*
D12*
X247390000Y-86500000D03*
%TD*%
D10*
%TO.C,1K*%
X180480000Y-44000000D03*
X181500000Y-44000000D03*
%TD*%
D13*
%TO.C,MMBTA42*%
X253640000Y-37562500D03*
X251740000Y-37562500D03*
X252690000Y-39437500D03*
%TD*%
D11*
%TO.C,REF\u002A\u002A*%
X49990000Y-102500000D03*
D12*
X55390000Y-102500000D03*
%TD*%
D13*
%TO.C,MMBTA42*%
X29650000Y-149562500D03*
X27750000Y-149562500D03*
X28700000Y-151437500D03*
%TD*%
D10*
%TO.C,1K*%
X100490000Y-124000000D03*
X101510000Y-124000000D03*
%TD*%
D13*
%TO.C,MMBTA42*%
X269640000Y-109562500D03*
X267740000Y-109562500D03*
X268690000Y-111437500D03*
%TD*%
D14*
%TO.C,50K*%
X239000000Y-56000000D03*
X237980000Y-56000000D03*
%TD*%
D13*
%TO.C,MMBTA42*%
X237640000Y-37562500D03*
X235740000Y-37562500D03*
X236690000Y-39437500D03*
%TD*%
%TO.C,MMBTA42*%
X149650000Y-117562500D03*
X147750000Y-117562500D03*
X148700000Y-119437500D03*
%TD*%
%TO.C,MMBTA42*%
X61640000Y-85562500D03*
X59740000Y-85562500D03*
X60690000Y-87437500D03*
%TD*%
D14*
%TO.C,50K*%
X191000000Y-112000000D03*
X189980000Y-112000000D03*
%TD*%
D10*
%TO.C,1K*%
X140480000Y-132000000D03*
X141500000Y-132000000D03*
%TD*%
D11*
%TO.C,REF\u002A\u002A*%
X169990000Y-54500000D03*
D12*
X175390000Y-54500000D03*
%TD*%
D13*
%TO.C,MMBTA42*%
X117640000Y-117562500D03*
X115740000Y-117562500D03*
X116690000Y-119437500D03*
%TD*%
%TO.C,MMBTA42*%
X197640000Y-37562500D03*
X195740000Y-37562500D03*
X196690000Y-39437500D03*
%TD*%
D11*
%TO.C,REF\u002A\u002A*%
X154000000Y-110500000D03*
D12*
X159400000Y-110500000D03*
%TD*%
D10*
%TO.C,1K*%
X76480000Y-124000000D03*
X77500000Y-124000000D03*
%TD*%
D13*
%TO.C,MMBTA42*%
X245640000Y-141562500D03*
X243740000Y-141562500D03*
X244690000Y-143437500D03*
%TD*%
D10*
%TO.C,1K*%
X44480000Y-116000000D03*
X45500000Y-116000000D03*
%TD*%
%TO.C,1K*%
X84490000Y-44000000D03*
X85510000Y-44000000D03*
%TD*%
D14*
%TO.C,50K*%
X255000000Y-112000000D03*
X253980000Y-112000000D03*
%TD*%
D10*
%TO.C,1K*%
X36490000Y-76000000D03*
X37510000Y-76000000D03*
%TD*%
D17*
%TO.C,VIN*%
X17000000Y-35000000D03*
D15*
X17000000Y-36000000D03*
%TD*%
D14*
%TO.C,50K*%
X127000000Y-80000000D03*
X125980000Y-80000000D03*
%TD*%
D10*
%TO.C,1K*%
X228490000Y-100000000D03*
X229510000Y-100000000D03*
%TD*%
%TO.C,1K*%
X156490000Y-100000000D03*
X157510000Y-100000000D03*
%TD*%
D14*
%TO.C,50K*%
X127000000Y-112000000D03*
X125980000Y-112000000D03*
%TD*%
%TO.C,50K*%
X159010000Y-32000000D03*
X157990000Y-32000000D03*
%TD*%
%TO.C,50K*%
X39010000Y-48000000D03*
X37990000Y-48000000D03*
%TD*%
D11*
%TO.C,REF\u002A\u002A*%
X169990000Y-134500000D03*
D12*
X175390000Y-134500000D03*
%TD*%
D10*
%TO.C,1K*%
X132480000Y-92000000D03*
X133500000Y-92000000D03*
%TD*%
%TO.C,1K*%
X116480000Y-68000000D03*
X117500000Y-68000000D03*
%TD*%
D14*
%TO.C,50K*%
X111000000Y-152000000D03*
X109980000Y-152000000D03*
%TD*%
D11*
%TO.C,REF\u002A\u002A*%
X241990000Y-38500000D03*
D12*
X247390000Y-38500000D03*
%TD*%
D10*
%TO.C,1K*%
X148490000Y-108000000D03*
X149510000Y-108000000D03*
%TD*%
%TO.C,1K*%
X92490000Y-36000000D03*
X93510000Y-36000000D03*
%TD*%
D13*
%TO.C,MMBTA42*%
X245640000Y-37562500D03*
X243740000Y-37562500D03*
X244690000Y-39437500D03*
%TD*%
D14*
%TO.C,50K*%
X151010000Y-112000000D03*
X149990000Y-112000000D03*
%TD*%
D11*
%TO.C,REF\u002A\u002A*%
X90000000Y-70500000D03*
D12*
X95400000Y-70500000D03*
%TD*%
D16*
%TO.C,REF\u002A\u002A*%
X17000000Y-155000000D03*
%TD*%
D10*
%TO.C,1K*%
X156490000Y-108000000D03*
X157510000Y-108000000D03*
%TD*%
D13*
%TO.C,MMBTA42*%
X69640000Y-53562500D03*
X67740000Y-53562500D03*
X68690000Y-55437500D03*
%TD*%
D14*
%TO.C,50K*%
X31010000Y-80000000D03*
X29990000Y-80000000D03*
%TD*%
D11*
%TO.C,REF\u002A\u002A*%
X249990000Y-78500000D03*
D12*
X255390000Y-78500000D03*
%TD*%
D11*
%TO.C,REF\u002A\u002A*%
X113990000Y-86500000D03*
D12*
X119390000Y-86500000D03*
%TD*%
D13*
%TO.C,MMBTA42*%
X157650000Y-133562500D03*
X155750000Y-133562500D03*
X156700000Y-135437500D03*
%TD*%
D11*
%TO.C,REF\u002A\u002A*%
X113990000Y-78500000D03*
D12*
X119390000Y-78500000D03*
%TD*%
D13*
%TO.C,MMBTA42*%
X117640000Y-141562500D03*
X115740000Y-141562500D03*
X116690000Y-143437500D03*
%TD*%
D14*
%TO.C,50K*%
X151010000Y-144000000D03*
X149990000Y-144000000D03*
%TD*%
D10*
%TO.C,1K*%
X108480000Y-60000000D03*
X109500000Y-60000000D03*
%TD*%
D13*
%TO.C,MMBTA42*%
X173640000Y-141562500D03*
X171740000Y-141562500D03*
X172690000Y-143437500D03*
%TD*%
D14*
%TO.C,50K*%
X39010000Y-56000000D03*
X37990000Y-56000000D03*
%TD*%
D10*
%TO.C,1K*%
X244480000Y-60000000D03*
X245500000Y-60000000D03*
%TD*%
D11*
%TO.C,REF\u002A\u002A*%
X169990000Y-62500000D03*
D12*
X175390000Y-62500000D03*
%TD*%
D10*
%TO.C,1K*%
X252480000Y-140000000D03*
X253500000Y-140000000D03*
%TD*%
D15*
%TO.C,RegisterLane*%
X109500000Y-90000000D03*
X110500000Y-90000000D03*
X111500000Y-90000000D03*
X112500000Y-90000000D03*
X113500000Y-90000000D03*
X114500000Y-90000000D03*
X115500000Y-90000000D03*
X116500000Y-90000000D03*
%TD*%
D10*
%TO.C,1K*%
X204480000Y-148000000D03*
X205500000Y-148000000D03*
%TD*%
D13*
%TO.C,MMBTA42*%
X21650000Y-133562500D03*
X19750000Y-133562500D03*
X20700000Y-135437500D03*
%TD*%
%TO.C,MMBTA42*%
X61640000Y-45562500D03*
X59740000Y-45562500D03*
X60690000Y-47437500D03*
%TD*%
D14*
%TO.C,50K*%
X199000000Y-128000000D03*
X197980000Y-128000000D03*
%TD*%
%TO.C,50K*%
X263000000Y-56000000D03*
X261980000Y-56000000D03*
%TD*%
D11*
%TO.C,REF\u002A\u002A*%
X90000000Y-110500000D03*
D12*
X95400000Y-110500000D03*
%TD*%
D11*
%TO.C,REF\u002A\u002A*%
X137990000Y-78500000D03*
D12*
X143390000Y-78500000D03*
%TD*%
D13*
%TO.C,MMBTA42*%
X125640000Y-37562500D03*
X123740000Y-37562500D03*
X124690000Y-39437500D03*
%TD*%
D11*
%TO.C,REF\u002A\u002A*%
X41990000Y-54500000D03*
D12*
X47390000Y-54500000D03*
%TD*%
D14*
%TO.C,50K*%
X63000000Y-128000000D03*
X61980000Y-128000000D03*
%TD*%
D10*
%TO.C,1K*%
X36490000Y-84000000D03*
X37510000Y-84000000D03*
%TD*%
D11*
%TO.C,REF\u002A\u002A*%
X82000000Y-110500000D03*
D12*
X87400000Y-110500000D03*
%TD*%
D10*
%TO.C,1K*%
X252480000Y-92000000D03*
X253500000Y-92000000D03*
%TD*%
D11*
%TO.C,REF\u002A\u002A*%
X113990000Y-30500000D03*
D12*
X119390000Y-30500000D03*
%TD*%
D11*
%TO.C,REF\u002A\u002A*%
X249990000Y-46500000D03*
D12*
X255390000Y-46500000D03*
%TD*%
D13*
%TO.C,MMBTA42*%
X197640000Y-109562500D03*
X195740000Y-109562500D03*
X196690000Y-111437500D03*
%TD*%
%TO.C,MMBTA42*%
X245640000Y-29562500D03*
X243740000Y-29562500D03*
X244690000Y-31437500D03*
%TD*%
D14*
%TO.C,50K*%
X239000000Y-136000000D03*
X237980000Y-136000000D03*
%TD*%
D11*
%TO.C,REF\u002A\u002A*%
X257990000Y-150500000D03*
D12*
X263390000Y-150500000D03*
%TD*%
D14*
%TO.C,50K*%
X135000000Y-32000000D03*
X133980000Y-32000000D03*
%TD*%
%TO.C,50K*%
X103010000Y-48000000D03*
X101990000Y-48000000D03*
%TD*%
%TO.C,50K*%
X223010000Y-72000000D03*
X221990000Y-72000000D03*
%TD*%
D10*
%TO.C,1K*%
X132480000Y-140000000D03*
X133500000Y-140000000D03*
%TD*%
D14*
%TO.C,50K*%
X151010000Y-40000000D03*
X149990000Y-40000000D03*
%TD*%
%TO.C,50K*%
X231010000Y-32000000D03*
X229990000Y-32000000D03*
%TD*%
%TO.C,50K*%
X111000000Y-80000000D03*
X109980000Y-80000000D03*
%TD*%
D11*
%TO.C,REF\u002A\u002A*%
X226000000Y-94500000D03*
D12*
X231400000Y-94500000D03*
%TD*%
D10*
%TO.C,1K*%
X60480000Y-108000000D03*
X61500000Y-108000000D03*
%TD*%
%TO.C,1K*%
X140480000Y-60000000D03*
X141500000Y-60000000D03*
%TD*%
D11*
%TO.C,REF\u002A\u002A*%
X154000000Y-62500000D03*
D12*
X159400000Y-62500000D03*
%TD*%
D13*
%TO.C,MMBTA42*%
X125640000Y-101562500D03*
X123740000Y-101562500D03*
X124690000Y-103437500D03*
%TD*%
%TO.C,MMBTA42*%
X101650000Y-85562500D03*
X99750000Y-85562500D03*
X100700000Y-87437500D03*
%TD*%
D11*
%TO.C,REF\u002A\u002A*%
X185990000Y-38500000D03*
D12*
X191390000Y-38500000D03*
%TD*%
D14*
%TO.C,50K*%
X159010000Y-152000000D03*
X157990000Y-152000000D03*
%TD*%
D10*
%TO.C,1K*%
X268480000Y-52000000D03*
X269500000Y-52000000D03*
%TD*%
D14*
%TO.C,50K*%
X207000000Y-88000000D03*
X205980000Y-88000000D03*
%TD*%
D11*
%TO.C,REF\u002A\u002A*%
X265990000Y-150500000D03*
D12*
X271390000Y-150500000D03*
%TD*%
D11*
%TO.C,REF\u002A\u002A*%
X90000000Y-134500000D03*
D12*
X95400000Y-134500000D03*
%TD*%
D10*
%TO.C,1K*%
X244480000Y-140000000D03*
X245500000Y-140000000D03*
%TD*%
%TO.C,1K*%
X188480000Y-132000000D03*
X189500000Y-132000000D03*
%TD*%
D11*
%TO.C,REF\u002A\u002A*%
X90000000Y-102500000D03*
D12*
X95400000Y-102500000D03*
%TD*%
D11*
%TO.C,REF\u002A\u002A*%
X65990000Y-86500000D03*
D12*
X71390000Y-86500000D03*
%TD*%
D10*
%TO.C,1K*%
X44480000Y-84000000D03*
X45500000Y-84000000D03*
%TD*%
%TO.C,1K*%
X172480000Y-116000000D03*
X173500000Y-116000000D03*
%TD*%
D11*
%TO.C,REF\u002A\u002A*%
X218000000Y-38500000D03*
D12*
X223400000Y-38500000D03*
%TD*%
D13*
%TO.C,MMBTA42*%
X253640000Y-117562500D03*
X251740000Y-117562500D03*
X252690000Y-119437500D03*
%TD*%
D10*
%TO.C,1K*%
X252480000Y-132000000D03*
X253500000Y-132000000D03*
%TD*%
%TO.C,1K*%
X204480000Y-76000000D03*
X205500000Y-76000000D03*
%TD*%
D13*
%TO.C,MMBTA42*%
X165650000Y-149562500D03*
X163750000Y-149562500D03*
X164700000Y-151437500D03*
%TD*%
%TO.C,MMBTA42*%
X45640000Y-141562500D03*
X43740000Y-141562500D03*
X44690000Y-143437500D03*
%TD*%
D10*
%TO.C,1K*%
X172480000Y-68000000D03*
X173500000Y-68000000D03*
%TD*%
D13*
%TO.C,MMBTA42*%
X237640000Y-61562500D03*
X235740000Y-61562500D03*
X236690000Y-63437500D03*
%TD*%
D10*
%TO.C,1K*%
X196480000Y-44000000D03*
X197500000Y-44000000D03*
%TD*%
%TO.C,1K*%
X60480000Y-148000000D03*
X61500000Y-148000000D03*
%TD*%
%TO.C,1K*%
X228490000Y-84000000D03*
X229510000Y-84000000D03*
%TD*%
D11*
%TO.C,REF\u002A\u002A*%
X34000000Y-62500000D03*
D12*
X39400000Y-62500000D03*
%TD*%
D13*
%TO.C,MMBTA42*%
X253640000Y-149562500D03*
X251740000Y-149562500D03*
X252690000Y-151437500D03*
%TD*%
%TO.C,MMBTA42*%
X125640000Y-149562500D03*
X123740000Y-149562500D03*
X124690000Y-151437500D03*
%TD*%
D10*
%TO.C,1K*%
X124480000Y-60000000D03*
X125500000Y-60000000D03*
%TD*%
D13*
%TO.C,MMBTA42*%
X141640000Y-37562500D03*
X139740000Y-37562500D03*
X140690000Y-39437500D03*
%TD*%
%TO.C,MMBTA42*%
X237640000Y-45562500D03*
X235740000Y-45562500D03*
X236690000Y-47437500D03*
%TD*%
%TO.C,MMBTA42*%
X125640000Y-85562500D03*
X123740000Y-85562500D03*
X124690000Y-87437500D03*
%TD*%
D14*
%TO.C,50K*%
X103010000Y-120000000D03*
X101990000Y-120000000D03*
%TD*%
D13*
%TO.C,MMBTA42*%
X109640000Y-61562500D03*
X107740000Y-61562500D03*
X108690000Y-63437500D03*
%TD*%
D10*
%TO.C,1K*%
X148490000Y-92000000D03*
X149510000Y-92000000D03*
%TD*%
D14*
%TO.C,50K*%
X263000000Y-128000000D03*
X261980000Y-128000000D03*
%TD*%
D13*
%TO.C,MMBTA42*%
X45640000Y-109562500D03*
X43740000Y-109562500D03*
X44690000Y-111437500D03*
%TD*%
D14*
%TO.C,50K*%
X95010000Y-32000000D03*
X93990000Y-32000000D03*
%TD*%
%TO.C,50K*%
X31010000Y-88000000D03*
X29990000Y-88000000D03*
%TD*%
D11*
%TO.C,REF\u002A\u002A*%
X201990000Y-78500000D03*
D12*
X207390000Y-78500000D03*
%TD*%
D13*
%TO.C,MMBTA42*%
X229650000Y-133562500D03*
X227750000Y-133562500D03*
X228700000Y-135437500D03*
%TD*%
D11*
%TO.C,REF\u002A\u002A*%
X82000000Y-54500000D03*
D12*
X87400000Y-54500000D03*
%TD*%
D14*
%TO.C,50K*%
X223010000Y-128000000D03*
X221990000Y-128000000D03*
%TD*%
D13*
%TO.C,MMBTA42*%
X205640000Y-149562500D03*
X203740000Y-149562500D03*
X204690000Y-151437500D03*
%TD*%
%TO.C,MMBTA42*%
X213650000Y-93562500D03*
X211750000Y-93562500D03*
X212700000Y-95437500D03*
%TD*%
D14*
%TO.C,50K*%
X271000000Y-104000000D03*
X269980000Y-104000000D03*
%TD*%
D15*
%TO.C,RegisterLane*%
X45500000Y-154000000D03*
X46500000Y-154000000D03*
X47500000Y-154000000D03*
X48500000Y-154000000D03*
X49500000Y-154000000D03*
X50500000Y-154000000D03*
X51500000Y-154000000D03*
X52500000Y-154000000D03*
%TD*%
D14*
%TO.C,50K*%
X119000000Y-48000000D03*
X117980000Y-48000000D03*
%TD*%
%TO.C,50K*%
X87010000Y-40000000D03*
X85990000Y-40000000D03*
%TD*%
D11*
%TO.C,REF\u002A\u002A*%
X41990000Y-118500000D03*
D12*
X47390000Y-118500000D03*
%TD*%
D11*
%TO.C,REF\u002A\u002A*%
X121990000Y-102500000D03*
D12*
X127390000Y-102500000D03*
%TD*%
D10*
%TO.C,1K*%
X228490000Y-116000000D03*
X229510000Y-116000000D03*
%TD*%
%TO.C,1K*%
X20490000Y-108000000D03*
X21510000Y-108000000D03*
%TD*%
D14*
%TO.C,50K*%
X79000000Y-40000000D03*
X77980000Y-40000000D03*
%TD*%
D10*
%TO.C,1K*%
X212490000Y-124000000D03*
X213510000Y-124000000D03*
%TD*%
%TO.C,1K*%
X36490000Y-124000000D03*
X37510000Y-124000000D03*
%TD*%
D14*
%TO.C,50K*%
X111000000Y-72000000D03*
X109980000Y-72000000D03*
%TD*%
D10*
%TO.C,1K*%
X260480000Y-108000000D03*
X261500000Y-108000000D03*
%TD*%
D11*
%TO.C,REF\u002A\u002A*%
X26000000Y-102500000D03*
D12*
X31400000Y-102500000D03*
%TD*%
D14*
%TO.C,50K*%
X143000000Y-64000000D03*
X141980000Y-64000000D03*
%TD*%
D11*
%TO.C,REF\u002A\u002A*%
X233990000Y-30500000D03*
D12*
X239390000Y-30500000D03*
%TD*%
D10*
%TO.C,1K*%
X108480000Y-140000000D03*
X109500000Y-140000000D03*
%TD*%
D13*
%TO.C,MMBTA42*%
X101650000Y-29562500D03*
X99750000Y-29562500D03*
X100700000Y-31437500D03*
%TD*%
D11*
%TO.C,REF\u002A\u002A*%
X57990000Y-62500000D03*
D12*
X63390000Y-62500000D03*
%TD*%
D14*
%TO.C,50K*%
X239000000Y-72000000D03*
X237980000Y-72000000D03*
%TD*%
D10*
%TO.C,1K*%
X156490000Y-148000000D03*
X157510000Y-148000000D03*
%TD*%
D14*
%TO.C,50K*%
X271000000Y-80000000D03*
X269980000Y-80000000D03*
%TD*%
D11*
%TO.C,REF\u002A\u002A*%
X154000000Y-118500000D03*
D12*
X159400000Y-118500000D03*
%TD*%
D14*
%TO.C,50K*%
X23010000Y-80000000D03*
X21990000Y-80000000D03*
%TD*%
D10*
%TO.C,1K*%
X92490000Y-68000000D03*
X93510000Y-68000000D03*
%TD*%
D14*
%TO.C,50K*%
X39010000Y-40000000D03*
X37990000Y-40000000D03*
%TD*%
D13*
%TO.C,MMBTA42*%
X269640000Y-37562500D03*
X267740000Y-37562500D03*
X268690000Y-39437500D03*
%TD*%
D10*
%TO.C,1K*%
X60480000Y-132000000D03*
X61500000Y-132000000D03*
%TD*%
%TO.C,1K*%
X260480000Y-124000000D03*
X261500000Y-124000000D03*
%TD*%
D14*
%TO.C,50K*%
X255000000Y-80000000D03*
X253980000Y-80000000D03*
%TD*%
D13*
%TO.C,MMBTA42*%
X245640000Y-77562500D03*
X243740000Y-77562500D03*
X244690000Y-79437500D03*
%TD*%
D14*
%TO.C,50K*%
X183000000Y-32000000D03*
X181980000Y-32000000D03*
%TD*%
%TO.C,50K*%
X87010000Y-96000000D03*
X85990000Y-96000000D03*
%TD*%
D13*
%TO.C,MMBTA42*%
X109640000Y-141562500D03*
X107740000Y-141562500D03*
X108690000Y-143437500D03*
%TD*%
%TO.C,MMBTA42*%
X133640000Y-125562500D03*
X131740000Y-125562500D03*
X132690000Y-127437500D03*
%TD*%
%TO.C,MMBTA42*%
X77640000Y-109562500D03*
X75740000Y-109562500D03*
X76690000Y-111437500D03*
%TD*%
D10*
%TO.C,1K*%
X204480000Y-132000000D03*
X205500000Y-132000000D03*
%TD*%
D14*
%TO.C,50K*%
X215010000Y-56000000D03*
X213990000Y-56000000D03*
%TD*%
%TO.C,50K*%
X207000000Y-80000000D03*
X205980000Y-80000000D03*
%TD*%
D13*
%TO.C,MMBTA42*%
X61640000Y-29562500D03*
X59740000Y-29562500D03*
X60690000Y-31437500D03*
%TD*%
D15*
%TO.C,RegisterLane*%
X237500000Y-34000000D03*
X238500000Y-34000000D03*
X239500000Y-34000000D03*
X240500000Y-34000000D03*
X241500000Y-34000000D03*
X242500000Y-34000000D03*
X243500000Y-34000000D03*
X244500000Y-34000000D03*
%TD*%
D10*
%TO.C,1K*%
X172480000Y-100000000D03*
X173500000Y-100000000D03*
%TD*%
%TO.C,1K*%
X68480000Y-84000000D03*
X69500000Y-84000000D03*
%TD*%
D11*
%TO.C,REF\u002A\u002A*%
X105990000Y-94500000D03*
D12*
X111390000Y-94500000D03*
%TD*%
D13*
%TO.C,MMBTA42*%
X53640000Y-69562500D03*
X51740000Y-69562500D03*
X52690000Y-71437500D03*
%TD*%
D11*
%TO.C,REF\u002A\u002A*%
X26000000Y-134500000D03*
D12*
X31400000Y-134500000D03*
%TD*%
D14*
%TO.C,50K*%
X119000000Y-136000000D03*
X117980000Y-136000000D03*
%TD*%
%TO.C,50K*%
X223010000Y-64000000D03*
X221990000Y-64000000D03*
%TD*%
%TO.C,50K*%
X23010000Y-120000000D03*
X21990000Y-120000000D03*
%TD*%
D11*
%TO.C,REF\u002A\u002A*%
X226000000Y-54500000D03*
D12*
X231400000Y-54500000D03*
%TD*%
D13*
%TO.C,MMBTA42*%
X77640000Y-93562500D03*
X75740000Y-93562500D03*
X76690000Y-95437500D03*
%TD*%
D14*
%TO.C,50K*%
X175000000Y-120000000D03*
X173980000Y-120000000D03*
%TD*%
D10*
%TO.C,1K*%
X84490000Y-92000000D03*
X85510000Y-92000000D03*
%TD*%
D13*
%TO.C,MMBTA42*%
X165650000Y-117562500D03*
X163750000Y-117562500D03*
X164700000Y-119437500D03*
%TD*%
D11*
%TO.C,REF\u002A\u002A*%
X146000000Y-86500000D03*
D12*
X151400000Y-86500000D03*
%TD*%
D11*
%TO.C,REF\u002A\u002A*%
X65990000Y-126500000D03*
D12*
X71390000Y-126500000D03*
%TD*%
D13*
%TO.C,MMBTA42*%
X245640000Y-101562500D03*
X243740000Y-101562500D03*
X244690000Y-103437500D03*
%TD*%
D11*
%TO.C,REF\u002A\u002A*%
X249990000Y-102500000D03*
D12*
X255390000Y-102500000D03*
%TD*%
D13*
%TO.C,MMBTA42*%
X205640000Y-117562500D03*
X203740000Y-117562500D03*
X204690000Y-119437500D03*
%TD*%
D10*
%TO.C,1K*%
X252480000Y-124000000D03*
X253500000Y-124000000D03*
%TD*%
%TO.C,1K*%
X36490000Y-92000000D03*
X37510000Y-92000000D03*
%TD*%
D13*
%TO.C,MMBTA42*%
X21650000Y-149562500D03*
X19750000Y-149562500D03*
X20700000Y-151437500D03*
%TD*%
D11*
%TO.C,REF\u002A\u002A*%
X201990000Y-70500000D03*
D12*
X207390000Y-70500000D03*
%TD*%
D13*
%TO.C,MMBTA42*%
X77640000Y-125562500D03*
X75740000Y-125562500D03*
X76690000Y-127437500D03*
%TD*%
D15*
%TO.C,RegisterLane*%
X109500000Y-114000000D03*
X110500000Y-114000000D03*
X111500000Y-114000000D03*
X112500000Y-114000000D03*
X113500000Y-114000000D03*
X114500000Y-114000000D03*
X115500000Y-114000000D03*
X116500000Y-114000000D03*
%TD*%
%TO.C,RegisterLane*%
X109500000Y-50000000D03*
X110500000Y-50000000D03*
X111500000Y-50000000D03*
X112500000Y-50000000D03*
X113500000Y-50000000D03*
X114500000Y-50000000D03*
X115500000Y-50000000D03*
X116500000Y-50000000D03*
%TD*%
D10*
%TO.C,1K*%
X204480000Y-140000000D03*
X205500000Y-140000000D03*
%TD*%
D14*
%TO.C,50K*%
X135000000Y-120000000D03*
X133980000Y-120000000D03*
%TD*%
D10*
%TO.C,1K*%
X28490000Y-28000000D03*
X29510000Y-28000000D03*
%TD*%
D14*
%TO.C,50K*%
X199000000Y-40000000D03*
X197980000Y-40000000D03*
%TD*%
%TO.C,50K*%
X255000000Y-96000000D03*
X253980000Y-96000000D03*
%TD*%
D13*
%TO.C,MMBTA42*%
X29650000Y-37562500D03*
X27750000Y-37562500D03*
X28700000Y-39437500D03*
%TD*%
D10*
%TO.C,1K*%
X44480000Y-92000000D03*
X45500000Y-92000000D03*
%TD*%
D14*
%TO.C,50K*%
X127000000Y-136000000D03*
X125980000Y-136000000D03*
%TD*%
D11*
%TO.C,REF\u002A\u002A*%
X257990000Y-62500000D03*
D12*
X263390000Y-62500000D03*
%TD*%
D10*
%TO.C,1K*%
X220490000Y-36000000D03*
X221510000Y-36000000D03*
%TD*%
%TO.C,1K*%
X84490000Y-76000000D03*
X85510000Y-76000000D03*
%TD*%
D14*
%TO.C,50K*%
X159010000Y-128000000D03*
X157990000Y-128000000D03*
%TD*%
D10*
%TO.C,1K*%
X52480000Y-68000000D03*
X53500000Y-68000000D03*
%TD*%
D14*
%TO.C,50K*%
X183000000Y-136000000D03*
X181980000Y-136000000D03*
%TD*%
D10*
%TO.C,1K*%
X204480000Y-68000000D03*
X205500000Y-68000000D03*
%TD*%
D14*
%TO.C,50K*%
X271000000Y-88000000D03*
X269980000Y-88000000D03*
%TD*%
D15*
%TO.C,RegisterLane*%
X45500000Y-114000000D03*
X46500000Y-114000000D03*
X47500000Y-114000000D03*
X48500000Y-114000000D03*
X49500000Y-114000000D03*
X50500000Y-114000000D03*
X51500000Y-114000000D03*
X52500000Y-114000000D03*
%TD*%
D10*
%TO.C,1K*%
X268480000Y-124000000D03*
X269500000Y-124000000D03*
%TD*%
D14*
%TO.C,50K*%
X111000000Y-128000000D03*
X109980000Y-128000000D03*
%TD*%
D11*
%TO.C,REF\u002A\u002A*%
X241990000Y-126500000D03*
D12*
X247390000Y-126500000D03*
%TD*%
D13*
%TO.C,MMBTA42*%
X181640000Y-93562500D03*
X179740000Y-93562500D03*
X180690000Y-95437500D03*
%TD*%
D14*
%TO.C,50K*%
X223010000Y-80000000D03*
X221990000Y-80000000D03*
%TD*%
D13*
%TO.C,MMBTA42*%
X237640000Y-133562500D03*
X235740000Y-133562500D03*
X236690000Y-135437500D03*
%TD*%
D15*
%TO.C,RegisterLane*%
X173500000Y-130000000D03*
X174500000Y-130000000D03*
X175500000Y-130000000D03*
X176500000Y-130000000D03*
X177500000Y-130000000D03*
X178500000Y-130000000D03*
X179500000Y-130000000D03*
X180500000Y-130000000D03*
%TD*%
D13*
%TO.C,MMBTA42*%
X109640000Y-117562500D03*
X107740000Y-117562500D03*
X108690000Y-119437500D03*
%TD*%
D11*
%TO.C,REF\u002A\u002A*%
X154000000Y-86500000D03*
D12*
X159400000Y-86500000D03*
%TD*%
D14*
%TO.C,50K*%
X199000000Y-112000000D03*
X197980000Y-112000000D03*
%TD*%
D11*
%TO.C,REF\u002A\u002A*%
X82000000Y-86500000D03*
D12*
X87400000Y-86500000D03*
%TD*%
D15*
%TO.C,RegisterLane*%
X173500000Y-122000000D03*
X174500000Y-122000000D03*
X175500000Y-122000000D03*
X176500000Y-122000000D03*
X177500000Y-122000000D03*
X178500000Y-122000000D03*
X179500000Y-122000000D03*
X180500000Y-122000000D03*
%TD*%
D13*
%TO.C,MMBTA42*%
X93650000Y-117562500D03*
X91750000Y-117562500D03*
X92700000Y-119437500D03*
%TD*%
D11*
%TO.C,REF\u002A\u002A*%
X218000000Y-142500000D03*
D12*
X223400000Y-142500000D03*
%TD*%
D14*
%TO.C,50K*%
X223010000Y-144000000D03*
X221990000Y-144000000D03*
%TD*%
D13*
%TO.C,MMBTA42*%
X77640000Y-101562500D03*
X75740000Y-101562500D03*
X76690000Y-103437500D03*
%TD*%
D10*
%TO.C,1K*%
X180480000Y-132000000D03*
X181500000Y-132000000D03*
%TD*%
D13*
%TO.C,MMBTA42*%
X141640000Y-85562500D03*
X139740000Y-85562500D03*
X140690000Y-87437500D03*
%TD*%
%TO.C,MMBTA42*%
X109640000Y-37562500D03*
X107740000Y-37562500D03*
X108690000Y-39437500D03*
%TD*%
D14*
%TO.C,50K*%
X247000000Y-48000000D03*
X245980000Y-48000000D03*
%TD*%
D13*
%TO.C,MMBTA42*%
X37650000Y-45562500D03*
X35750000Y-45562500D03*
X36700000Y-47437500D03*
%TD*%
D15*
%TO.C,RegisterLane*%
X173500000Y-114000000D03*
X174500000Y-114000000D03*
X175500000Y-114000000D03*
X176500000Y-114000000D03*
X177500000Y-114000000D03*
X178500000Y-114000000D03*
X179500000Y-114000000D03*
X180500000Y-114000000D03*
%TD*%
D14*
%TO.C,50K*%
X247000000Y-80000000D03*
X245980000Y-80000000D03*
%TD*%
D10*
%TO.C,1K*%
X228490000Y-124000000D03*
X229510000Y-124000000D03*
%TD*%
D13*
%TO.C,MMBTA42*%
X93650000Y-149562500D03*
X91750000Y-149562500D03*
X92700000Y-151437500D03*
%TD*%
D11*
%TO.C,REF\u002A\u002A*%
X226000000Y-78500000D03*
D12*
X231400000Y-78500000D03*
%TD*%
D10*
%TO.C,1K*%
X84490000Y-68000000D03*
X85510000Y-68000000D03*
%TD*%
D11*
%TO.C,REF\u002A\u002A*%
X265990000Y-78500000D03*
D12*
X271390000Y-78500000D03*
%TD*%
D14*
%TO.C,50K*%
X23010000Y-48000000D03*
X21990000Y-48000000D03*
%TD*%
D10*
%TO.C,1K*%
X116480000Y-92000000D03*
X117500000Y-92000000D03*
%TD*%
D11*
%TO.C,REF\u002A\u002A*%
X177990000Y-94500000D03*
D12*
X183390000Y-94500000D03*
%TD*%
D13*
%TO.C,MMBTA42*%
X189640000Y-77562500D03*
X187740000Y-77562500D03*
X188690000Y-79437500D03*
%TD*%
%TO.C,MMBTA42*%
X237640000Y-29562500D03*
X235740000Y-29562500D03*
X236690000Y-31437500D03*
%TD*%
%TO.C,MMBTA42*%
X21650000Y-53562500D03*
X19750000Y-53562500D03*
X20700000Y-55437500D03*
%TD*%
%TO.C,MMBTA42*%
X149650000Y-149562500D03*
X147750000Y-149562500D03*
X148700000Y-151437500D03*
%TD*%
D14*
%TO.C,50K*%
X167010000Y-96000000D03*
X165990000Y-96000000D03*
%TD*%
D15*
%TO.C,RegisterLane*%
X173500000Y-138000000D03*
X174500000Y-138000000D03*
X175500000Y-138000000D03*
X176500000Y-138000000D03*
X177500000Y-138000000D03*
X178500000Y-138000000D03*
X179500000Y-138000000D03*
X180500000Y-138000000D03*
%TD*%
D14*
%TO.C,50K*%
X39010000Y-72000000D03*
X37990000Y-72000000D03*
%TD*%
D11*
%TO.C,REF\u002A\u002A*%
X137990000Y-142500000D03*
D12*
X143390000Y-142500000D03*
%TD*%
D14*
%TO.C,50K*%
X255000000Y-40000000D03*
X253980000Y-40000000D03*
%TD*%
%TO.C,50K*%
X231010000Y-128000000D03*
X229990000Y-128000000D03*
%TD*%
D10*
%TO.C,1K*%
X236480000Y-44000000D03*
X237500000Y-44000000D03*
%TD*%
D11*
%TO.C,REF\u002A\u002A*%
X73990000Y-30500000D03*
D12*
X79390000Y-30500000D03*
%TD*%
D13*
%TO.C,MMBTA42*%
X37650000Y-53562500D03*
X35750000Y-53562500D03*
X36700000Y-55437500D03*
%TD*%
%TO.C,MMBTA42*%
X149650000Y-101562500D03*
X147750000Y-101562500D03*
X148700000Y-103437500D03*
%TD*%
%TO.C,MMBTA42*%
X173640000Y-133562500D03*
X171740000Y-133562500D03*
X172690000Y-135437500D03*
%TD*%
D11*
%TO.C,REF\u002A\u002A*%
X34000000Y-94500000D03*
D12*
X39400000Y-94500000D03*
%TD*%
D11*
%TO.C,REF\u002A\u002A*%
X121990000Y-110500000D03*
D12*
X127390000Y-110500000D03*
%TD*%
D13*
%TO.C,MMBTA42*%
X237640000Y-77562500D03*
X235740000Y-77562500D03*
X236690000Y-79437500D03*
%TD*%
D14*
%TO.C,50K*%
X95010000Y-136000000D03*
X93990000Y-136000000D03*
%TD*%
D13*
%TO.C,MMBTA42*%
X261640000Y-45562500D03*
X259740000Y-45562500D03*
X260690000Y-47437500D03*
%TD*%
D10*
%TO.C,1K*%
X52480000Y-148000000D03*
X53500000Y-148000000D03*
%TD*%
%TO.C,1K*%
X132480000Y-76000000D03*
X133500000Y-76000000D03*
%TD*%
%TO.C,1K*%
X76480000Y-108000000D03*
X77500000Y-108000000D03*
%TD*%
D11*
%TO.C,REF\u002A\u002A*%
X218000000Y-94500000D03*
D12*
X223400000Y-94500000D03*
%TD*%
D13*
%TO.C,MMBTA42*%
X45640000Y-149562500D03*
X43740000Y-149562500D03*
X44690000Y-151437500D03*
%TD*%
D14*
%TO.C,50K*%
X199000000Y-32000000D03*
X197980000Y-32000000D03*
%TD*%
D10*
%TO.C,1K*%
X196480000Y-108000000D03*
X197500000Y-108000000D03*
%TD*%
%TO.C,1K*%
X28490000Y-52000000D03*
X29510000Y-52000000D03*
%TD*%
D15*
%TO.C,RegisterLane*%
X237500000Y-130000000D03*
X238500000Y-130000000D03*
X239500000Y-130000000D03*
X240500000Y-130000000D03*
X241500000Y-130000000D03*
X242500000Y-130000000D03*
X243500000Y-130000000D03*
X244500000Y-130000000D03*
%TD*%
D10*
%TO.C,1K*%
X76480000Y-68000000D03*
X77500000Y-68000000D03*
%TD*%
%TO.C,1K*%
X100490000Y-52000000D03*
X101510000Y-52000000D03*
%TD*%
D13*
%TO.C,MMBTA42*%
X101650000Y-125562500D03*
X99750000Y-125562500D03*
X100700000Y-127437500D03*
%TD*%
%TO.C,MMBTA42*%
X109640000Y-29562500D03*
X107740000Y-29562500D03*
X108690000Y-31437500D03*
%TD*%
D14*
%TO.C,50K*%
X127000000Y-48000000D03*
X125980000Y-48000000D03*
%TD*%
%TO.C,50K*%
X239000000Y-104000000D03*
X237980000Y-104000000D03*
%TD*%
D13*
%TO.C,MMBTA42*%
X165650000Y-69562500D03*
X163750000Y-69562500D03*
X164700000Y-71437500D03*
%TD*%
%TO.C,MMBTA42*%
X45640000Y-53562500D03*
X43740000Y-53562500D03*
X44690000Y-55437500D03*
%TD*%
%TO.C,MMBTA42*%
X173640000Y-117562500D03*
X171740000Y-117562500D03*
X172690000Y-119437500D03*
%TD*%
D14*
%TO.C,50K*%
X191000000Y-96000000D03*
X189980000Y-96000000D03*
%TD*%
D11*
%TO.C,REF\u002A\u002A*%
X34000000Y-78500000D03*
D12*
X39400000Y-78500000D03*
%TD*%
D10*
%TO.C,1K*%
X156490000Y-52000000D03*
X157510000Y-52000000D03*
%TD*%
%TO.C,1K*%
X68480000Y-60000000D03*
X69500000Y-60000000D03*
%TD*%
D13*
%TO.C,MMBTA42*%
X261640000Y-53562500D03*
X259740000Y-53562500D03*
X260690000Y-55437500D03*
%TD*%
D11*
%TO.C,REF\u002A\u002A*%
X233990000Y-86500000D03*
D12*
X239390000Y-86500000D03*
%TD*%
D10*
%TO.C,1K*%
X244480000Y-68000000D03*
X245500000Y-68000000D03*
%TD*%
D14*
%TO.C,50K*%
X223010000Y-88000000D03*
X221990000Y-88000000D03*
%TD*%
D15*
%TO.C,RegisterLane*%
X109500000Y-98000000D03*
X110500000Y-98000000D03*
X111500000Y-98000000D03*
X112500000Y-98000000D03*
X113500000Y-98000000D03*
X114500000Y-98000000D03*
X115500000Y-98000000D03*
X116500000Y-98000000D03*
%TD*%
D13*
%TO.C,MMBTA42*%
X77640000Y-29562500D03*
X75740000Y-29562500D03*
X76690000Y-31437500D03*
%TD*%
D14*
%TO.C,50K*%
X111000000Y-112000000D03*
X109980000Y-112000000D03*
%TD*%
D10*
%TO.C,1K*%
X60480000Y-36000000D03*
X61500000Y-36000000D03*
%TD*%
D14*
%TO.C,50K*%
X175000000Y-152000000D03*
X173980000Y-152000000D03*
%TD*%
D13*
%TO.C,MMBTA42*%
X269640000Y-61562500D03*
X267740000Y-61562500D03*
X268690000Y-63437500D03*
%TD*%
D11*
%TO.C,REF\u002A\u002A*%
X146000000Y-110500000D03*
D12*
X151400000Y-110500000D03*
%TD*%
D13*
%TO.C,MMBTA42*%
X37650000Y-101562500D03*
X35750000Y-101562500D03*
X36700000Y-103437500D03*
%TD*%
D10*
%TO.C,1K*%
X188480000Y-116000000D03*
X189500000Y-116000000D03*
%TD*%
D11*
%TO.C,REF\u002A\u002A*%
X98000000Y-30500000D03*
D12*
X103400000Y-30500000D03*
%TD*%
D13*
%TO.C,MMBTA42*%
X221650000Y-125562500D03*
X219750000Y-125562500D03*
X220700000Y-127437500D03*
%TD*%
D10*
%TO.C,1K*%
X28490000Y-116000000D03*
X29510000Y-116000000D03*
%TD*%
D14*
%TO.C,50K*%
X87010000Y-128000000D03*
X85990000Y-128000000D03*
%TD*%
D13*
%TO.C,MMBTA42*%
X221650000Y-117562500D03*
X219750000Y-117562500D03*
X220700000Y-119437500D03*
%TD*%
%TO.C,MMBTA42*%
X261640000Y-93562500D03*
X259740000Y-93562500D03*
X260690000Y-95437500D03*
%TD*%
%TO.C,MMBTA42*%
X61640000Y-77562500D03*
X59740000Y-77562500D03*
X60690000Y-79437500D03*
%TD*%
D10*
%TO.C,1K*%
X260480000Y-92000000D03*
X261500000Y-92000000D03*
%TD*%
D13*
%TO.C,MMBTA42*%
X165650000Y-101562500D03*
X163750000Y-101562500D03*
X164700000Y-103437500D03*
%TD*%
D14*
%TO.C,50K*%
X143000000Y-48000000D03*
X141980000Y-48000000D03*
%TD*%
D15*
%TO.C,RegisterLane*%
X237500000Y-114000000D03*
X238500000Y-114000000D03*
X239500000Y-114000000D03*
X240500000Y-114000000D03*
X241500000Y-114000000D03*
X242500000Y-114000000D03*
X243500000Y-114000000D03*
X244500000Y-114000000D03*
%TD*%
D11*
%TO.C,REF\u002A\u002A*%
X162000000Y-38500000D03*
D12*
X167400000Y-38500000D03*
%TD*%
D13*
%TO.C,MMBTA42*%
X117640000Y-77562500D03*
X115740000Y-77562500D03*
X116690000Y-79437500D03*
%TD*%
D14*
%TO.C,50K*%
X87010000Y-80000000D03*
X85990000Y-80000000D03*
%TD*%
D10*
%TO.C,1K*%
X20490000Y-84000000D03*
X21510000Y-84000000D03*
%TD*%
D11*
%TO.C,REF\u002A\u002A*%
X154000000Y-30500000D03*
D12*
X159400000Y-30500000D03*
%TD*%
D13*
%TO.C,MMBTA42*%
X173640000Y-101562500D03*
X171740000Y-101562500D03*
X172690000Y-103437500D03*
%TD*%
D10*
%TO.C,1K*%
X260480000Y-28000000D03*
X261500000Y-28000000D03*
%TD*%
D14*
%TO.C,50K*%
X31010000Y-56000000D03*
X29990000Y-56000000D03*
%TD*%
D11*
%TO.C,REF\u002A\u002A*%
X249990000Y-150500000D03*
D12*
X255390000Y-150500000D03*
%TD*%
D10*
%TO.C,1K*%
X148490000Y-52000000D03*
X149510000Y-52000000D03*
%TD*%
D13*
%TO.C,MMBTA42*%
X117640000Y-109562500D03*
X115740000Y-109562500D03*
X116690000Y-111437500D03*
%TD*%
D10*
%TO.C,1K*%
X220490000Y-124000000D03*
X221510000Y-124000000D03*
%TD*%
%TO.C,1K*%
X220490000Y-84000000D03*
X221510000Y-84000000D03*
%TD*%
D14*
%TO.C,50K*%
X103010000Y-104000000D03*
X101990000Y-104000000D03*
%TD*%
D11*
%TO.C,REF\u002A\u002A*%
X226000000Y-110500000D03*
D12*
X231400000Y-110500000D03*
%TD*%
D13*
%TO.C,MMBTA42*%
X141640000Y-53562500D03*
X139740000Y-53562500D03*
X140690000Y-55437500D03*
%TD*%
%TO.C,MMBTA42*%
X197640000Y-125562500D03*
X195740000Y-125562500D03*
X196690000Y-127437500D03*
%TD*%
D10*
%TO.C,1K*%
X188480000Y-124000000D03*
X189500000Y-124000000D03*
%TD*%
D13*
%TO.C,MMBTA42*%
X69640000Y-141562500D03*
X67740000Y-141562500D03*
X68690000Y-143437500D03*
%TD*%
D14*
%TO.C,50K*%
X183000000Y-96000000D03*
X181980000Y-96000000D03*
%TD*%
%TO.C,50K*%
X175000000Y-40000000D03*
X173980000Y-40000000D03*
%TD*%
D11*
%TO.C,REF\u002A\u002A*%
X226000000Y-102500000D03*
D12*
X231400000Y-102500000D03*
%TD*%
D14*
%TO.C,50K*%
X39010000Y-32000000D03*
X37990000Y-32000000D03*
%TD*%
D10*
%TO.C,1K*%
X236480000Y-84000000D03*
X237500000Y-84000000D03*
%TD*%
D13*
%TO.C,MMBTA42*%
X229650000Y-93562500D03*
X227750000Y-93562500D03*
X228700000Y-95437500D03*
%TD*%
%TO.C,MMBTA42*%
X213650000Y-125562500D03*
X211750000Y-125562500D03*
X212700000Y-127437500D03*
%TD*%
D14*
%TO.C,50K*%
X135000000Y-112000000D03*
X133980000Y-112000000D03*
%TD*%
%TO.C,50K*%
X167010000Y-144000000D03*
X165990000Y-144000000D03*
%TD*%
D13*
%TO.C,MMBTA42*%
X221650000Y-101562500D03*
X219750000Y-101562500D03*
X220700000Y-103437500D03*
%TD*%
D10*
%TO.C,1K*%
X260480000Y-44000000D03*
X261500000Y-44000000D03*
%TD*%
D14*
%TO.C,50K*%
X175000000Y-80000000D03*
X173980000Y-80000000D03*
%TD*%
D13*
%TO.C,MMBTA42*%
X269640000Y-101562500D03*
X267740000Y-101562500D03*
X268690000Y-103437500D03*
%TD*%
D14*
%TO.C,50K*%
X143000000Y-104000000D03*
X141980000Y-104000000D03*
%TD*%
D11*
%TO.C,REF\u002A\u002A*%
X162000000Y-150500000D03*
D12*
X167400000Y-150500000D03*
%TD*%
D11*
%TO.C,REF\u002A\u002A*%
X210000000Y-110500000D03*
D12*
X215400000Y-110500000D03*
%TD*%
D13*
%TO.C,MMBTA42*%
X221650000Y-29562500D03*
X219750000Y-29562500D03*
X220700000Y-31437500D03*
%TD*%
D14*
%TO.C,50K*%
X87010000Y-120000000D03*
X85990000Y-120000000D03*
%TD*%
%TO.C,50K*%
X47000000Y-112000000D03*
X45980000Y-112000000D03*
%TD*%
D13*
%TO.C,MMBTA42*%
X53640000Y-117562500D03*
X51740000Y-117562500D03*
X52690000Y-119437500D03*
%TD*%
%TO.C,MMBTA42*%
X21650000Y-69562500D03*
X19750000Y-69562500D03*
X20700000Y-71437500D03*
%TD*%
D10*
%TO.C,1K*%
X156490000Y-44000000D03*
X157510000Y-44000000D03*
%TD*%
D14*
%TO.C,50K*%
X199000000Y-104000000D03*
X197980000Y-104000000D03*
%TD*%
%TO.C,50K*%
X207000000Y-56000000D03*
X205980000Y-56000000D03*
%TD*%
%TO.C,50K*%
X55000000Y-152000000D03*
X53980000Y-152000000D03*
%TD*%
D13*
%TO.C,MMBTA42*%
X221650000Y-93562500D03*
X219750000Y-93562500D03*
X220700000Y-95437500D03*
%TD*%
D14*
%TO.C,50K*%
X263000000Y-32000000D03*
X261980000Y-32000000D03*
%TD*%
%TO.C,50K*%
X119000000Y-112000000D03*
X117980000Y-112000000D03*
%TD*%
D13*
%TO.C,MMBTA42*%
X165650000Y-141562500D03*
X163750000Y-141562500D03*
X164700000Y-143437500D03*
%TD*%
D14*
%TO.C,50K*%
X103010000Y-96000000D03*
X101990000Y-96000000D03*
%TD*%
D11*
%TO.C,REF\u002A\u002A*%
X65990000Y-150500000D03*
D12*
X71390000Y-150500000D03*
%TD*%
D10*
%TO.C,1K*%
X124480000Y-124000000D03*
X125500000Y-124000000D03*
%TD*%
D11*
%TO.C,REF\u002A\u002A*%
X257990000Y-110500000D03*
D12*
X263390000Y-110500000D03*
%TD*%
D11*
%TO.C,REF\u002A\u002A*%
X201990000Y-110500000D03*
D12*
X207390000Y-110500000D03*
%TD*%
D10*
%TO.C,1K*%
X196480000Y-60000000D03*
X197500000Y-60000000D03*
%TD*%
%TO.C,1K*%
X84490000Y-132000000D03*
X85510000Y-132000000D03*
%TD*%
D11*
%TO.C,REF\u002A\u002A*%
X185990000Y-54500000D03*
D12*
X191390000Y-54500000D03*
%TD*%
D11*
%TO.C,REF\u002A\u002A*%
X233990000Y-38500000D03*
D12*
X239390000Y-38500000D03*
%TD*%
D13*
%TO.C,MMBTA42*%
X181640000Y-69562500D03*
X179740000Y-69562500D03*
X180690000Y-71437500D03*
%TD*%
%TO.C,MMBTA42*%
X213650000Y-117562500D03*
X211750000Y-117562500D03*
X212700000Y-119437500D03*
%TD*%
D11*
%TO.C,REF\u002A\u002A*%
X121990000Y-78500000D03*
D12*
X127390000Y-78500000D03*
%TD*%
D11*
%TO.C,REF\u002A\u002A*%
X249990000Y-70500000D03*
D12*
X255390000Y-70500000D03*
%TD*%
D14*
%TO.C,50K*%
X127000000Y-40000000D03*
X125980000Y-40000000D03*
%TD*%
D11*
%TO.C,REF\u002A\u002A*%
X90000000Y-62500000D03*
D12*
X95400000Y-62500000D03*
%TD*%
D13*
%TO.C,MMBTA42*%
X141640000Y-93562500D03*
X139740000Y-93562500D03*
X140690000Y-95437500D03*
%TD*%
D14*
%TO.C,50K*%
X215010000Y-80000000D03*
X213990000Y-80000000D03*
%TD*%
D10*
%TO.C,1K*%
X196480000Y-132000000D03*
X197500000Y-132000000D03*
%TD*%
D14*
%TO.C,50K*%
X71000000Y-96000000D03*
X69980000Y-96000000D03*
%TD*%
D11*
%TO.C,REF\u002A\u002A*%
X210000000Y-46500000D03*
D12*
X215400000Y-46500000D03*
%TD*%
D10*
%TO.C,1K*%
X132480000Y-132000000D03*
X133500000Y-132000000D03*
%TD*%
%TO.C,1K*%
X204480000Y-108000000D03*
X205500000Y-108000000D03*
%TD*%
D11*
%TO.C,REF\u002A\u002A*%
X65990000Y-46500000D03*
D12*
X71390000Y-46500000D03*
%TD*%
D10*
%TO.C,1K*%
X44480000Y-52000000D03*
X45500000Y-52000000D03*
%TD*%
D11*
%TO.C,REF\u002A\u002A*%
X90000000Y-30500000D03*
D12*
X95400000Y-30500000D03*
%TD*%
D10*
%TO.C,1K*%
X68480000Y-44000000D03*
X69500000Y-44000000D03*
%TD*%
D14*
%TO.C,50K*%
X199000000Y-144000000D03*
X197980000Y-144000000D03*
%TD*%
%TO.C,50K*%
X167010000Y-128000000D03*
X165990000Y-128000000D03*
%TD*%
%TO.C,50K*%
X247000000Y-136000000D03*
X245980000Y-136000000D03*
%TD*%
D11*
%TO.C,REF\u002A\u002A*%
X185990000Y-86500000D03*
D12*
X191390000Y-86500000D03*
%TD*%
D14*
%TO.C,50K*%
X183000000Y-64000000D03*
X181980000Y-64000000D03*
%TD*%
D15*
%TO.C,RegisterLane*%
X237500000Y-50000000D03*
X238500000Y-50000000D03*
X239500000Y-50000000D03*
X240500000Y-50000000D03*
X241500000Y-50000000D03*
X242500000Y-50000000D03*
X243500000Y-50000000D03*
X244500000Y-50000000D03*
%TD*%
D11*
%TO.C,REF\u002A\u002A*%
X146000000Y-118500000D03*
D12*
X151400000Y-118500000D03*
%TD*%
D13*
%TO.C,MMBTA42*%
X93650000Y-29562500D03*
X91750000Y-29562500D03*
X92700000Y-31437500D03*
%TD*%
D10*
%TO.C,1K*%
X116480000Y-100000000D03*
X117500000Y-100000000D03*
%TD*%
D13*
%TO.C,MMBTA42*%
X125640000Y-53562500D03*
X123740000Y-53562500D03*
X124690000Y-55437500D03*
%TD*%
%TO.C,MMBTA42*%
X221650000Y-69562500D03*
X219750000Y-69562500D03*
X220700000Y-71437500D03*
%TD*%
%TO.C,MMBTA42*%
X261640000Y-141562500D03*
X259740000Y-141562500D03*
X260690000Y-143437500D03*
%TD*%
%TO.C,MMBTA42*%
X149650000Y-45562500D03*
X147750000Y-45562500D03*
X148700000Y-47437500D03*
%TD*%
D11*
%TO.C,REF\u002A\u002A*%
X210000000Y-70500000D03*
D12*
X215400000Y-70500000D03*
%TD*%
D13*
%TO.C,MMBTA42*%
X29650000Y-85562500D03*
X27750000Y-85562500D03*
X28700000Y-87437500D03*
%TD*%
D14*
%TO.C,50K*%
X231010000Y-152000000D03*
X229990000Y-152000000D03*
%TD*%
D10*
%TO.C,1K*%
X140480000Y-52000000D03*
X141500000Y-52000000D03*
%TD*%
D11*
%TO.C,REF\u002A\u002A*%
X26000000Y-142500000D03*
D12*
X31400000Y-142500000D03*
%TD*%
D13*
%TO.C,MMBTA42*%
X157650000Y-37562500D03*
X155750000Y-37562500D03*
X156700000Y-39437500D03*
%TD*%
D11*
%TO.C,REF\u002A\u002A*%
X226000000Y-70500000D03*
D12*
X231400000Y-70500000D03*
%TD*%
D13*
%TO.C,MMBTA42*%
X181640000Y-117562500D03*
X179740000Y-117562500D03*
X180690000Y-119437500D03*
%TD*%
D11*
%TO.C,REF\u002A\u002A*%
X82000000Y-30500000D03*
D12*
X87400000Y-30500000D03*
%TD*%
D15*
%TO.C,RegisterLane*%
X173500000Y-154000000D03*
X174500000Y-154000000D03*
X175500000Y-154000000D03*
X176500000Y-154000000D03*
X177500000Y-154000000D03*
X178500000Y-154000000D03*
X179500000Y-154000000D03*
X180500000Y-154000000D03*
%TD*%
D13*
%TO.C,MMBTA42*%
X261640000Y-117562500D03*
X259740000Y-117562500D03*
X260690000Y-119437500D03*
%TD*%
D14*
%TO.C,50K*%
X71000000Y-48000000D03*
X69980000Y-48000000D03*
%TD*%
D11*
%TO.C,REF\u002A\u002A*%
X82000000Y-142500000D03*
D12*
X87400000Y-142500000D03*
%TD*%
D13*
%TO.C,MMBTA42*%
X61640000Y-141562500D03*
X59740000Y-141562500D03*
X60690000Y-143437500D03*
%TD*%
D14*
%TO.C,50K*%
X119000000Y-80000000D03*
X117980000Y-80000000D03*
%TD*%
D13*
%TO.C,MMBTA42*%
X157650000Y-45562500D03*
X155750000Y-45562500D03*
X156700000Y-47437500D03*
%TD*%
D14*
%TO.C,50K*%
X79000000Y-56000000D03*
X77980000Y-56000000D03*
%TD*%
D11*
%TO.C,REF\u002A\u002A*%
X233990000Y-54500000D03*
D12*
X239390000Y-54500000D03*
%TD*%
D11*
%TO.C,REF\u002A\u002A*%
X233990000Y-94500000D03*
D12*
X239390000Y-94500000D03*
%TD*%
D10*
%TO.C,1K*%
X172480000Y-148000000D03*
X173500000Y-148000000D03*
%TD*%
%TO.C,1K*%
X20490000Y-76000000D03*
X21510000Y-76000000D03*
%TD*%
%TO.C,1K*%
X100490000Y-100000000D03*
X101510000Y-100000000D03*
%TD*%
%TO.C,1K*%
X188480000Y-44000000D03*
X189500000Y-44000000D03*
%TD*%
%TO.C,1K*%
X124480000Y-148000000D03*
X125500000Y-148000000D03*
%TD*%
D14*
%TO.C,50K*%
X111000000Y-104000000D03*
X109980000Y-104000000D03*
%TD*%
D13*
%TO.C,MMBTA42*%
X269640000Y-69562500D03*
X267740000Y-69562500D03*
X268690000Y-71437500D03*
%TD*%
%TO.C,MMBTA42*%
X101650000Y-45562500D03*
X99750000Y-45562500D03*
X100700000Y-47437500D03*
%TD*%
D10*
%TO.C,1K*%
X268480000Y-108000000D03*
X269500000Y-108000000D03*
%TD*%
%TO.C,1K*%
X60480000Y-140000000D03*
X61500000Y-140000000D03*
%TD*%
%TO.C,1K*%
X28490000Y-60000000D03*
X29510000Y-60000000D03*
%TD*%
D14*
%TO.C,50K*%
X271000000Y-32000000D03*
X269980000Y-32000000D03*
%TD*%
D10*
%TO.C,1K*%
X124480000Y-76000000D03*
X125500000Y-76000000D03*
%TD*%
D13*
%TO.C,MMBTA42*%
X133640000Y-101562500D03*
X131740000Y-101562500D03*
X132690000Y-103437500D03*
%TD*%
D10*
%TO.C,1K*%
X156490000Y-28000000D03*
X157510000Y-28000000D03*
%TD*%
D13*
%TO.C,MMBTA42*%
X237640000Y-69562500D03*
X235740000Y-69562500D03*
X236690000Y-71437500D03*
%TD*%
D14*
%TO.C,50K*%
X79000000Y-88000000D03*
X77980000Y-88000000D03*
%TD*%
D11*
%TO.C,REF\u002A\u002A*%
X73990000Y-86500000D03*
D12*
X79390000Y-86500000D03*
%TD*%
D13*
%TO.C,MMBTA42*%
X245640000Y-45562500D03*
X243740000Y-45562500D03*
X244690000Y-47437500D03*
%TD*%
D15*
%TO.C,RegisterLane*%
X45500000Y-66000000D03*
X46500000Y-66000000D03*
X47500000Y-66000000D03*
X48500000Y-66000000D03*
X49500000Y-66000000D03*
X50500000Y-66000000D03*
X51500000Y-66000000D03*
X52500000Y-66000000D03*
%TD*%
D10*
%TO.C,1K*%
X204480000Y-92000000D03*
X205500000Y-92000000D03*
%TD*%
D14*
%TO.C,50K*%
X239000000Y-96000000D03*
X237980000Y-96000000D03*
%TD*%
D13*
%TO.C,MMBTA42*%
X85650000Y-61562500D03*
X83750000Y-61562500D03*
X84700000Y-63437500D03*
%TD*%
%TO.C,MMBTA42*%
X221650000Y-133562500D03*
X219750000Y-133562500D03*
X220700000Y-135437500D03*
%TD*%
%TO.C,MMBTA42*%
X181640000Y-37562500D03*
X179740000Y-37562500D03*
X180690000Y-39437500D03*
%TD*%
D11*
%TO.C,REF\u002A\u002A*%
X265990000Y-70500000D03*
D12*
X271390000Y-70500000D03*
%TD*%
D11*
%TO.C,REF\u002A\u002A*%
X105990000Y-118500000D03*
D12*
X111390000Y-118500000D03*
%TD*%
D11*
%TO.C,REF\u002A\u002A*%
X177990000Y-38500000D03*
D12*
X183390000Y-38500000D03*
%TD*%
D14*
%TO.C,50K*%
X271000000Y-136000000D03*
X269980000Y-136000000D03*
%TD*%
D11*
%TO.C,REF\u002A\u002A*%
X169990000Y-102500000D03*
D12*
X175390000Y-102500000D03*
%TD*%
D14*
%TO.C,50K*%
X199000000Y-120000000D03*
X197980000Y-120000000D03*
%TD*%
%TO.C,50K*%
X215010000Y-144000000D03*
X213990000Y-144000000D03*
%TD*%
D10*
%TO.C,1K*%
X140480000Y-116000000D03*
X141500000Y-116000000D03*
%TD*%
%TO.C,1K*%
X148490000Y-132000000D03*
X149510000Y-132000000D03*
%TD*%
%TO.C,1K*%
X196480000Y-36000000D03*
X197500000Y-36000000D03*
%TD*%
D13*
%TO.C,MMBTA42*%
X213650000Y-141562500D03*
X211750000Y-141562500D03*
X212700000Y-143437500D03*
%TD*%
D10*
%TO.C,1K*%
X140480000Y-44000000D03*
X141500000Y-44000000D03*
%TD*%
%TO.C,1K*%
X124480000Y-92000000D03*
X125500000Y-92000000D03*
%TD*%
D11*
%TO.C,REF\u002A\u002A*%
X73990000Y-62500000D03*
D12*
X79390000Y-62500000D03*
%TD*%
D13*
%TO.C,MMBTA42*%
X229650000Y-149562500D03*
X227750000Y-149562500D03*
X228700000Y-151437500D03*
%TD*%
%TO.C,MMBTA42*%
X133640000Y-117562500D03*
X131740000Y-117562500D03*
X132690000Y-119437500D03*
%TD*%
D10*
%TO.C,1K*%
X92490000Y-60000000D03*
X93510000Y-60000000D03*
%TD*%
D15*
%TO.C,RegisterLane*%
X173500000Y-74000000D03*
X174500000Y-74000000D03*
X175500000Y-74000000D03*
X176500000Y-74000000D03*
X177500000Y-74000000D03*
X178500000Y-74000000D03*
X179500000Y-74000000D03*
X180500000Y-74000000D03*
%TD*%
D13*
%TO.C,MMBTA42*%
X77640000Y-149562500D03*
X75740000Y-149562500D03*
X76690000Y-151437500D03*
%TD*%
D14*
%TO.C,50K*%
X207000000Y-104000000D03*
X205980000Y-104000000D03*
%TD*%
D10*
%TO.C,1K*%
X100490000Y-92000000D03*
X101510000Y-92000000D03*
%TD*%
%TO.C,1K*%
X228490000Y-132000000D03*
X229510000Y-132000000D03*
%TD*%
%TO.C,1K*%
X196480000Y-84000000D03*
X197500000Y-84000000D03*
%TD*%
D14*
%TO.C,50K*%
X239000000Y-32000000D03*
X237980000Y-32000000D03*
%TD*%
D10*
%TO.C,1K*%
X260480000Y-68000000D03*
X261500000Y-68000000D03*
%TD*%
D11*
%TO.C,REF\u002A\u002A*%
X210000000Y-62500000D03*
D12*
X215400000Y-62500000D03*
%TD*%
D11*
%TO.C,REF\u002A\u002A*%
X241990000Y-142500000D03*
D12*
X247390000Y-142500000D03*
%TD*%
D13*
%TO.C,MMBTA42*%
X157650000Y-93562500D03*
X155750000Y-93562500D03*
X156700000Y-95437500D03*
%TD*%
D14*
%TO.C,50K*%
X55000000Y-72000000D03*
X53980000Y-72000000D03*
%TD*%
D10*
%TO.C,1K*%
X20490000Y-60000000D03*
X21510000Y-60000000D03*
%TD*%
D15*
%TO.C,RegisterLane*%
X45500000Y-58000000D03*
X46500000Y-58000000D03*
X47500000Y-58000000D03*
X48500000Y-58000000D03*
X49500000Y-58000000D03*
X50500000Y-58000000D03*
X51500000Y-58000000D03*
X52500000Y-58000000D03*
%TD*%
D14*
%TO.C,50K*%
X79000000Y-144000000D03*
X77980000Y-144000000D03*
%TD*%
D11*
%TO.C,REF\u002A\u002A*%
X193990000Y-126500000D03*
D12*
X199390000Y-126500000D03*
%TD*%
D14*
%TO.C,50K*%
X111000000Y-40000000D03*
X109980000Y-40000000D03*
%TD*%
D13*
%TO.C,MMBTA42*%
X141640000Y-29562500D03*
X139740000Y-29562500D03*
X140690000Y-31437500D03*
%TD*%
D14*
%TO.C,50K*%
X215010000Y-128000000D03*
X213990000Y-128000000D03*
%TD*%
D10*
%TO.C,1K*%
X196480000Y-92000000D03*
X197500000Y-92000000D03*
%TD*%
D13*
%TO.C,MMBTA42*%
X21650000Y-93562500D03*
X19750000Y-93562500D03*
X20700000Y-95437500D03*
%TD*%
D10*
%TO.C,1K*%
X100490000Y-36000000D03*
X101510000Y-36000000D03*
%TD*%
D13*
%TO.C,MMBTA42*%
X237640000Y-85562500D03*
X235740000Y-85562500D03*
X236690000Y-87437500D03*
%TD*%
D10*
%TO.C,1K*%
X52480000Y-36000000D03*
X53500000Y-36000000D03*
%TD*%
%TO.C,1K*%
X212490000Y-148000000D03*
X213510000Y-148000000D03*
%TD*%
%TO.C,1K*%
X236480000Y-148000000D03*
X237500000Y-148000000D03*
%TD*%
%TO.C,1K*%
X180480000Y-60000000D03*
X181500000Y-60000000D03*
%TD*%
D14*
%TO.C,50K*%
X55000000Y-88000000D03*
X53980000Y-88000000D03*
%TD*%
%TO.C,50K*%
X87010000Y-104000000D03*
X85990000Y-104000000D03*
%TD*%
D11*
%TO.C,REF\u002A\u002A*%
X57990000Y-70500000D03*
D12*
X63390000Y-70500000D03*
%TD*%
D14*
%TO.C,50K*%
X191000000Y-152000000D03*
X189980000Y-152000000D03*
%TD*%
D13*
%TO.C,MMBTA42*%
X197640000Y-101562500D03*
X195740000Y-101562500D03*
X196690000Y-103437500D03*
%TD*%
D10*
%TO.C,1K*%
X180480000Y-52000000D03*
X181500000Y-52000000D03*
%TD*%
D11*
%TO.C,REF\u002A\u002A*%
X49990000Y-70500000D03*
D12*
X55390000Y-70500000D03*
%TD*%
D13*
%TO.C,MMBTA42*%
X189640000Y-37562500D03*
X187740000Y-37562500D03*
X188690000Y-39437500D03*
%TD*%
D11*
%TO.C,REF\u002A\u002A*%
X137990000Y-62500000D03*
D12*
X143390000Y-62500000D03*
%TD*%
D14*
%TO.C,50K*%
X167010000Y-120000000D03*
X165990000Y-120000000D03*
%TD*%
D11*
%TO.C,REF\u002A\u002A*%
X129990000Y-38500000D03*
D12*
X135390000Y-38500000D03*
%TD*%
D14*
%TO.C,50K*%
X191000000Y-72000000D03*
X189980000Y-72000000D03*
%TD*%
D13*
%TO.C,MMBTA42*%
X29650000Y-77562500D03*
X27750000Y-77562500D03*
X28700000Y-79437500D03*
%TD*%
D14*
%TO.C,50K*%
X255000000Y-144000000D03*
X253980000Y-144000000D03*
%TD*%
D11*
%TO.C,REF\u002A\u002A*%
X146000000Y-142500000D03*
D12*
X151400000Y-142500000D03*
%TD*%
D11*
%TO.C,REF\u002A\u002A*%
X162000000Y-110500000D03*
D12*
X167400000Y-110500000D03*
%TD*%
D11*
%TO.C,REF\u002A\u002A*%
X177990000Y-134500000D03*
D12*
X183390000Y-134500000D03*
%TD*%
D13*
%TO.C,MMBTA42*%
X117640000Y-45562500D03*
X115740000Y-45562500D03*
X116690000Y-47437500D03*
%TD*%
D10*
%TO.C,1K*%
X44480000Y-124000000D03*
X45500000Y-124000000D03*
%TD*%
D14*
%TO.C,50K*%
X31010000Y-144000000D03*
X29990000Y-144000000D03*
%TD*%
D13*
%TO.C,MMBTA42*%
X45640000Y-101562500D03*
X43740000Y-101562500D03*
X44690000Y-103437500D03*
%TD*%
D10*
%TO.C,1K*%
X124480000Y-52000000D03*
X125500000Y-52000000D03*
%TD*%
D14*
%TO.C,50K*%
X79000000Y-120000000D03*
X77980000Y-120000000D03*
%TD*%
%TO.C,50K*%
X119000000Y-32000000D03*
X117980000Y-32000000D03*
%TD*%
D10*
%TO.C,1K*%
X252480000Y-116000000D03*
X253500000Y-116000000D03*
%TD*%
D11*
%TO.C,REF\u002A\u002A*%
X218000000Y-134500000D03*
D12*
X223400000Y-134500000D03*
%TD*%
D13*
%TO.C,MMBTA42*%
X189640000Y-85562500D03*
X187740000Y-85562500D03*
X188690000Y-87437500D03*
%TD*%
D14*
%TO.C,50K*%
X39010000Y-136000000D03*
X37990000Y-136000000D03*
%TD*%
%TO.C,50K*%
X71000000Y-40000000D03*
X69980000Y-40000000D03*
%TD*%
D13*
%TO.C,MMBTA42*%
X261640000Y-29562500D03*
X259740000Y-29562500D03*
X260690000Y-31437500D03*
%TD*%
D10*
%TO.C,1K*%
X228490000Y-44000000D03*
X229510000Y-44000000D03*
%TD*%
%TO.C,1K*%
X188480000Y-100000000D03*
X189500000Y-100000000D03*
%TD*%
D11*
%TO.C,REF\u002A\u002A*%
X265990000Y-86500000D03*
D12*
X271390000Y-86500000D03*
%TD*%
D10*
%TO.C,1K*%
X164490000Y-68000000D03*
X165510000Y-68000000D03*
%TD*%
D11*
%TO.C,REF\u002A\u002A*%
X257990000Y-94500000D03*
D12*
X263390000Y-94500000D03*
%TD*%
D11*
%TO.C,REF\u002A\u002A*%
X113990000Y-70500000D03*
D12*
X119390000Y-70500000D03*
%TD*%
D11*
%TO.C,REF\u002A\u002A*%
X154000000Y-38500000D03*
D12*
X159400000Y-38500000D03*
%TD*%
D14*
%TO.C,50K*%
X175000000Y-48000000D03*
X173980000Y-48000000D03*
%TD*%
D10*
%TO.C,1K*%
X188480000Y-76000000D03*
X189500000Y-76000000D03*
%TD*%
%TO.C,1K*%
X148490000Y-68000000D03*
X149510000Y-68000000D03*
%TD*%
D13*
%TO.C,MMBTA42*%
X117640000Y-53562500D03*
X115740000Y-53562500D03*
X116690000Y-55437500D03*
%TD*%
D14*
%TO.C,50K*%
X119000000Y-56000000D03*
X117980000Y-56000000D03*
%TD*%
%TO.C,50K*%
X47000000Y-88000000D03*
X45980000Y-88000000D03*
%TD*%
D15*
%TO.C,RegisterLane*%
X173500000Y-66000000D03*
X174500000Y-66000000D03*
X175500000Y-66000000D03*
X176500000Y-66000000D03*
X177500000Y-66000000D03*
X178500000Y-66000000D03*
X179500000Y-66000000D03*
X180500000Y-66000000D03*
%TD*%
D13*
%TO.C,MMBTA42*%
X125640000Y-61562500D03*
X123740000Y-61562500D03*
X124690000Y-63437500D03*
%TD*%
D10*
%TO.C,1K*%
X68480000Y-124000000D03*
X69500000Y-124000000D03*
%TD*%
D11*
%TO.C,REF\u002A\u002A*%
X146000000Y-126500000D03*
D12*
X151400000Y-126500000D03*
%TD*%
D11*
%TO.C,REF\u002A\u002A*%
X105990000Y-30500000D03*
D12*
X111390000Y-30500000D03*
%TD*%
D13*
%TO.C,MMBTA42*%
X133640000Y-45562500D03*
X131740000Y-45562500D03*
X132690000Y-47437500D03*
%TD*%
%TO.C,MMBTA42*%
X117640000Y-37562500D03*
X115740000Y-37562500D03*
X116690000Y-39437500D03*
%TD*%
D14*
%TO.C,50K*%
X95010000Y-64000000D03*
X93990000Y-64000000D03*
%TD*%
D13*
%TO.C,MMBTA42*%
X261640000Y-109562500D03*
X259740000Y-109562500D03*
X260690000Y-111437500D03*
%TD*%
D10*
%TO.C,1K*%
X268480000Y-60000000D03*
X269500000Y-60000000D03*
%TD*%
D11*
%TO.C,REF\u002A\u002A*%
X137990000Y-46500000D03*
D12*
X143390000Y-46500000D03*
%TD*%
D14*
%TO.C,50K*%
X183000000Y-112000000D03*
X181980000Y-112000000D03*
%TD*%
D13*
%TO.C,MMBTA42*%
X125640000Y-69562500D03*
X123740000Y-69562500D03*
X124690000Y-71437500D03*
%TD*%
D14*
%TO.C,50K*%
X39010000Y-104000000D03*
X37990000Y-104000000D03*
%TD*%
%TO.C,50K*%
X95010000Y-72000000D03*
X93990000Y-72000000D03*
%TD*%
%TO.C,50K*%
X119000000Y-104000000D03*
X117980000Y-104000000D03*
%TD*%
D13*
%TO.C,MMBTA42*%
X141640000Y-133562500D03*
X139740000Y-133562500D03*
X140690000Y-135437500D03*
%TD*%
%TO.C,MMBTA42*%
X69640000Y-85562500D03*
X67740000Y-85562500D03*
X68690000Y-87437500D03*
%TD*%
%TO.C,MMBTA42*%
X261640000Y-77562500D03*
X259740000Y-77562500D03*
X260690000Y-79437500D03*
%TD*%
D11*
%TO.C,REF\u002A\u002A*%
X26000000Y-62500000D03*
D12*
X31400000Y-62500000D03*
%TD*%
D13*
%TO.C,MMBTA42*%
X165650000Y-109562500D03*
X163750000Y-109562500D03*
X164700000Y-111437500D03*
%TD*%
D11*
%TO.C,REF\u002A\u002A*%
X137990000Y-134500000D03*
D12*
X143390000Y-134500000D03*
%TD*%
D13*
%TO.C,MMBTA42*%
X85650000Y-125562500D03*
X83750000Y-125562500D03*
X84700000Y-127437500D03*
%TD*%
D10*
%TO.C,1K*%
X188480000Y-28000000D03*
X189500000Y-28000000D03*
%TD*%
%TO.C,1K*%
X252480000Y-84000000D03*
X253500000Y-84000000D03*
%TD*%
D11*
%TO.C,REF\u002A\u002A*%
X105990000Y-62500000D03*
D12*
X111390000Y-62500000D03*
%TD*%
D14*
%TO.C,50K*%
X135000000Y-72000000D03*
X133980000Y-72000000D03*
%TD*%
D11*
%TO.C,REF\u002A\u002A*%
X65990000Y-54500000D03*
D12*
X71390000Y-54500000D03*
%TD*%
D14*
%TO.C,50K*%
X215010000Y-112000000D03*
X213990000Y-112000000D03*
%TD*%
D13*
%TO.C,MMBTA42*%
X93650000Y-53562500D03*
X91750000Y-53562500D03*
X92700000Y-55437500D03*
%TD*%
D10*
%TO.C,1K*%
X68480000Y-76000000D03*
X69500000Y-76000000D03*
%TD*%
D13*
%TO.C,MMBTA42*%
X37650000Y-149562500D03*
X35750000Y-149562500D03*
X36700000Y-151437500D03*
%TD*%
%TO.C,MMBTA42*%
X181640000Y-85562500D03*
X179740000Y-85562500D03*
X180690000Y-87437500D03*
%TD*%
D10*
%TO.C,1K*%
X76480000Y-36000000D03*
X77500000Y-36000000D03*
%TD*%
D11*
%TO.C,REF\u002A\u002A*%
X201990000Y-86500000D03*
D12*
X207390000Y-86500000D03*
%TD*%
D10*
%TO.C,1K*%
X76480000Y-52000000D03*
X77500000Y-52000000D03*
%TD*%
%TO.C,1K*%
X100490000Y-132000000D03*
X101510000Y-132000000D03*
%TD*%
D13*
%TO.C,MMBTA42*%
X29650000Y-61562500D03*
X27750000Y-61562500D03*
X28700000Y-63437500D03*
%TD*%
%TO.C,MMBTA42*%
X109640000Y-149562500D03*
X107740000Y-149562500D03*
X108690000Y-151437500D03*
%TD*%
D15*
%TO.C,RegisterLane*%
X109500000Y-146000000D03*
X110500000Y-146000000D03*
X111500000Y-146000000D03*
X112500000Y-146000000D03*
X113500000Y-146000000D03*
X114500000Y-146000000D03*
X115500000Y-146000000D03*
X116500000Y-146000000D03*
%TD*%
D14*
%TO.C,50K*%
X183000000Y-88000000D03*
X181980000Y-88000000D03*
%TD*%
D10*
%TO.C,1K*%
X164490000Y-84000000D03*
X165510000Y-84000000D03*
%TD*%
D11*
%TO.C,REF\u002A\u002A*%
X249990000Y-94500000D03*
D12*
X255390000Y-94500000D03*
%TD*%
D14*
%TO.C,50K*%
X39010000Y-112000000D03*
X37990000Y-112000000D03*
%TD*%
%TO.C,50K*%
X191000000Y-80000000D03*
X189980000Y-80000000D03*
%TD*%
D10*
%TO.C,1K*%
X52480000Y-132000000D03*
X53500000Y-132000000D03*
%TD*%
D11*
%TO.C,REF\u002A\u002A*%
X129990000Y-30500000D03*
D12*
X135390000Y-30500000D03*
%TD*%
D15*
%TO.C,RegisterLane*%
X45500000Y-74000000D03*
X46500000Y-74000000D03*
X47500000Y-74000000D03*
X48500000Y-74000000D03*
X49500000Y-74000000D03*
X50500000Y-74000000D03*
X51500000Y-74000000D03*
X52500000Y-74000000D03*
%TD*%
%TO.C,RegisterLane*%
X173500000Y-34000000D03*
X174500000Y-34000000D03*
X175500000Y-34000000D03*
X176500000Y-34000000D03*
X177500000Y-34000000D03*
X178500000Y-34000000D03*
X179500000Y-34000000D03*
X180500000Y-34000000D03*
%TD*%
D11*
%TO.C,REF\u002A\u002A*%
X241990000Y-118500000D03*
D12*
X247390000Y-118500000D03*
%TD*%
D13*
%TO.C,MMBTA42*%
X93650000Y-141562500D03*
X91750000Y-141562500D03*
X92700000Y-143437500D03*
%TD*%
D14*
%TO.C,50K*%
X87010000Y-56000000D03*
X85990000Y-56000000D03*
%TD*%
%TO.C,50K*%
X127000000Y-56000000D03*
X125980000Y-56000000D03*
%TD*%
D11*
%TO.C,REF\u002A\u002A*%
X169990000Y-150500000D03*
D12*
X175390000Y-150500000D03*
%TD*%
D10*
%TO.C,1K*%
X156490000Y-36000000D03*
X157510000Y-36000000D03*
%TD*%
D13*
%TO.C,MMBTA42*%
X21650000Y-37562500D03*
X19750000Y-37562500D03*
X20700000Y-39437500D03*
%TD*%
D10*
%TO.C,1K*%
X84490000Y-28000000D03*
X85510000Y-28000000D03*
%TD*%
D13*
%TO.C,MMBTA42*%
X261640000Y-125562500D03*
X259740000Y-125562500D03*
X260690000Y-127437500D03*
%TD*%
%TO.C,MMBTA42*%
X37650000Y-85562500D03*
X35750000Y-85562500D03*
X36700000Y-87437500D03*
%TD*%
D14*
%TO.C,50K*%
X223010000Y-32000000D03*
X221990000Y-32000000D03*
%TD*%
D10*
%TO.C,1K*%
X188480000Y-92000000D03*
X189500000Y-92000000D03*
%TD*%
D14*
%TO.C,50K*%
X247000000Y-128000000D03*
X245980000Y-128000000D03*
%TD*%
D10*
%TO.C,1K*%
X148490000Y-116000000D03*
X149510000Y-116000000D03*
%TD*%
D14*
%TO.C,50K*%
X231010000Y-72000000D03*
X229990000Y-72000000D03*
%TD*%
D10*
%TO.C,1K*%
X164490000Y-108000000D03*
X165510000Y-108000000D03*
%TD*%
D13*
%TO.C,MMBTA42*%
X45640000Y-117562500D03*
X43740000Y-117562500D03*
X44690000Y-119437500D03*
%TD*%
D14*
%TO.C,50K*%
X207000000Y-112000000D03*
X205980000Y-112000000D03*
%TD*%
D13*
%TO.C,MMBTA42*%
X133640000Y-109562500D03*
X131740000Y-109562500D03*
X132690000Y-111437500D03*
%TD*%
D10*
%TO.C,1K*%
X84490000Y-108000000D03*
X85510000Y-108000000D03*
%TD*%
D13*
%TO.C,MMBTA42*%
X21650000Y-61562500D03*
X19750000Y-61562500D03*
X20700000Y-63437500D03*
%TD*%
D15*
%TO.C,RegisterLane*%
X109500000Y-106000000D03*
X110500000Y-106000000D03*
X111500000Y-106000000D03*
X112500000Y-106000000D03*
X113500000Y-106000000D03*
X114500000Y-106000000D03*
X115500000Y-106000000D03*
X116500000Y-106000000D03*
%TD*%
D13*
%TO.C,MMBTA42*%
X205640000Y-141562500D03*
X203740000Y-141562500D03*
X204690000Y-143437500D03*
%TD*%
%TO.C,MMBTA42*%
X269640000Y-45562500D03*
X267740000Y-45562500D03*
X268690000Y-47437500D03*
%TD*%
D14*
%TO.C,50K*%
X55000000Y-104000000D03*
X53980000Y-104000000D03*
%TD*%
%TO.C,50K*%
X63000000Y-88000000D03*
X61980000Y-88000000D03*
%TD*%
D11*
%TO.C,REF\u002A\u002A*%
X113990000Y-110500000D03*
D12*
X119390000Y-110500000D03*
%TD*%
D10*
%TO.C,1K*%
X36490000Y-52000000D03*
X37510000Y-52000000D03*
%TD*%
D11*
%TO.C,REF\u002A\u002A*%
X73990000Y-46500000D03*
D12*
X79390000Y-46500000D03*
%TD*%
D14*
%TO.C,50K*%
X143000000Y-120000000D03*
X141980000Y-120000000D03*
%TD*%
D11*
%TO.C,REF\u002A\u002A*%
X34000000Y-102500000D03*
D12*
X39400000Y-102500000D03*
%TD*%
D11*
%TO.C,REF\u002A\u002A*%
X169990000Y-110500000D03*
D12*
X175390000Y-110500000D03*
%TD*%
D11*
%TO.C,REF\u002A\u002A*%
X121990000Y-126500000D03*
D12*
X127390000Y-126500000D03*
%TD*%
D13*
%TO.C,MMBTA42*%
X261640000Y-85562500D03*
X259740000Y-85562500D03*
X260690000Y-87437500D03*
%TD*%
D14*
%TO.C,50K*%
X23010000Y-112000000D03*
X21990000Y-112000000D03*
%TD*%
D13*
%TO.C,MMBTA42*%
X29650000Y-141562500D03*
X27750000Y-141562500D03*
X28700000Y-143437500D03*
%TD*%
%TO.C,MMBTA42*%
X237640000Y-141562500D03*
X235740000Y-141562500D03*
X236690000Y-143437500D03*
%TD*%
D11*
%TO.C,REF\u002A\u002A*%
X26000000Y-78500000D03*
D12*
X31400000Y-78500000D03*
%TD*%
D10*
%TO.C,1K*%
X92490000Y-92000000D03*
X93510000Y-92000000D03*
%TD*%
D14*
%TO.C,50K*%
X239000000Y-80000000D03*
X237980000Y-80000000D03*
%TD*%
D11*
%TO.C,REF\u002A\u002A*%
X121990000Y-94500000D03*
D12*
X127390000Y-94500000D03*
%TD*%
D14*
%TO.C,50K*%
X231010000Y-144000000D03*
X229990000Y-144000000D03*
%TD*%
%TO.C,50K*%
X199000000Y-96000000D03*
X197980000Y-96000000D03*
%TD*%
D11*
%TO.C,REF\u002A\u002A*%
X57990000Y-150500000D03*
D12*
X63390000Y-150500000D03*
%TD*%
D10*
%TO.C,1K*%
X252480000Y-76000000D03*
X253500000Y-76000000D03*
%TD*%
D13*
%TO.C,MMBTA42*%
X245640000Y-93562500D03*
X243740000Y-93562500D03*
X244690000Y-95437500D03*
%TD*%
D10*
%TO.C,1K*%
X20490000Y-100000000D03*
X21510000Y-100000000D03*
%TD*%
D11*
%TO.C,REF\u002A\u002A*%
X210000000Y-102500000D03*
D12*
X215400000Y-102500000D03*
%TD*%
D14*
%TO.C,50K*%
X119000000Y-96000000D03*
X117980000Y-96000000D03*
%TD*%
D13*
%TO.C,MMBTA42*%
X101650000Y-53562500D03*
X99750000Y-53562500D03*
X100700000Y-55437500D03*
%TD*%
%TO.C,MMBTA42*%
X85650000Y-69562500D03*
X83750000Y-69562500D03*
X84700000Y-71437500D03*
%TD*%
D11*
%TO.C,REF\u002A\u002A*%
X210000000Y-38500000D03*
D12*
X215400000Y-38500000D03*
%TD*%
D10*
%TO.C,1K*%
X156490000Y-60000000D03*
X157510000Y-60000000D03*
%TD*%
%TO.C,1K*%
X188480000Y-148000000D03*
X189500000Y-148000000D03*
%TD*%
D14*
%TO.C,50K*%
X239000000Y-88000000D03*
X237980000Y-88000000D03*
%TD*%
D13*
%TO.C,MMBTA42*%
X213650000Y-109562500D03*
X211750000Y-109562500D03*
X212700000Y-111437500D03*
%TD*%
D10*
%TO.C,1K*%
X148490000Y-140000000D03*
X149510000Y-140000000D03*
%TD*%
%TO.C,1K*%
X92490000Y-76000000D03*
X93510000Y-76000000D03*
%TD*%
%TO.C,1K*%
X180480000Y-148000000D03*
X181500000Y-148000000D03*
%TD*%
D11*
%TO.C,REF\u002A\u002A*%
X241990000Y-70500000D03*
D12*
X247390000Y-70500000D03*
%TD*%
D14*
%TO.C,50K*%
X263000000Y-96000000D03*
X261980000Y-96000000D03*
%TD*%
D10*
%TO.C,1K*%
X164490000Y-92000000D03*
X165510000Y-92000000D03*
%TD*%
%TO.C,1K*%
X140480000Y-108000000D03*
X141500000Y-108000000D03*
%TD*%
D13*
%TO.C,MMBTA42*%
X37650000Y-93562500D03*
X35750000Y-93562500D03*
X36700000Y-95437500D03*
%TD*%
D11*
%TO.C,REF\u002A\u002A*%
X233990000Y-46500000D03*
D12*
X239390000Y-46500000D03*
%TD*%
D13*
%TO.C,MMBTA42*%
X189640000Y-141562500D03*
X187740000Y-141562500D03*
X188690000Y-143437500D03*
%TD*%
D10*
%TO.C,1K*%
X68480000Y-92000000D03*
X69500000Y-92000000D03*
%TD*%
%TO.C,1K*%
X164490000Y-140000000D03*
X165510000Y-140000000D03*
%TD*%
%TO.C,1K*%
X260480000Y-132000000D03*
X261500000Y-132000000D03*
%TD*%
D14*
%TO.C,50K*%
X159010000Y-72000000D03*
X157990000Y-72000000D03*
%TD*%
D10*
%TO.C,1K*%
X108480000Y-124000000D03*
X109500000Y-124000000D03*
%TD*%
D13*
%TO.C,MMBTA42*%
X117640000Y-133562500D03*
X115740000Y-133562500D03*
X116690000Y-135437500D03*
%TD*%
D15*
%TO.C,RegisterLane*%
X45500000Y-146000000D03*
X46500000Y-146000000D03*
X47500000Y-146000000D03*
X48500000Y-146000000D03*
X49500000Y-146000000D03*
X50500000Y-146000000D03*
X51500000Y-146000000D03*
X52500000Y-146000000D03*
%TD*%
D13*
%TO.C,MMBTA42*%
X133640000Y-141562500D03*
X131740000Y-141562500D03*
X132690000Y-143437500D03*
%TD*%
%TO.C,MMBTA42*%
X77640000Y-61562500D03*
X75740000Y-61562500D03*
X76690000Y-63437500D03*
%TD*%
D10*
%TO.C,1K*%
X68480000Y-140000000D03*
X69500000Y-140000000D03*
%TD*%
D13*
%TO.C,MMBTA42*%
X253640000Y-109562500D03*
X251740000Y-109562500D03*
X252690000Y-111437500D03*
%TD*%
D10*
%TO.C,1K*%
X20490000Y-28000000D03*
X21510000Y-28000000D03*
%TD*%
D11*
%TO.C,REF\u002A\u002A*%
X265990000Y-110500000D03*
D12*
X271390000Y-110500000D03*
%TD*%
D11*
%TO.C,REF\u002A\u002A*%
X73990000Y-118500000D03*
D12*
X79390000Y-118500000D03*
%TD*%
D13*
%TO.C,MMBTA42*%
X133640000Y-149562500D03*
X131740000Y-149562500D03*
X132690000Y-151437500D03*
%TD*%
%TO.C,MMBTA42*%
X117640000Y-29562500D03*
X115740000Y-29562500D03*
X116690000Y-31437500D03*
%TD*%
D14*
%TO.C,50K*%
X183000000Y-120000000D03*
X181980000Y-120000000D03*
%TD*%
%TO.C,50K*%
X183000000Y-40000000D03*
X181980000Y-40000000D03*
%TD*%
D11*
%TO.C,REF\u002A\u002A*%
X249990000Y-134500000D03*
D12*
X255390000Y-134500000D03*
%TD*%
D13*
%TO.C,MMBTA42*%
X69640000Y-45562500D03*
X67740000Y-45562500D03*
X68690000Y-47437500D03*
%TD*%
D10*
%TO.C,1K*%
X108480000Y-28000000D03*
X109500000Y-28000000D03*
%TD*%
%TO.C,1K*%
X228490000Y-76000000D03*
X229510000Y-76000000D03*
%TD*%
D11*
%TO.C,REF\u002A\u002A*%
X41990000Y-30500000D03*
D12*
X47390000Y-30500000D03*
%TD*%
D13*
%TO.C,MMBTA42*%
X53640000Y-93562500D03*
X51740000Y-93562500D03*
X52690000Y-95437500D03*
%TD*%
D14*
%TO.C,50K*%
X159010000Y-144000000D03*
X157990000Y-144000000D03*
%TD*%
D13*
%TO.C,MMBTA42*%
X125640000Y-109562500D03*
X123740000Y-109562500D03*
X124690000Y-111437500D03*
%TD*%
D14*
%TO.C,50K*%
X31010000Y-32000000D03*
X29990000Y-32000000D03*
%TD*%
D10*
%TO.C,1K*%
X44480000Y-60000000D03*
X45500000Y-60000000D03*
%TD*%
D13*
%TO.C,MMBTA42*%
X37650000Y-117562500D03*
X35750000Y-117562500D03*
X36700000Y-119437500D03*
%TD*%
%TO.C,MMBTA42*%
X133640000Y-61562500D03*
X131740000Y-61562500D03*
X132690000Y-63437500D03*
%TD*%
D10*
%TO.C,1K*%
X76480000Y-28000000D03*
X77500000Y-28000000D03*
%TD*%
D14*
%TO.C,50K*%
X207000000Y-72000000D03*
X205980000Y-72000000D03*
%TD*%
D10*
%TO.C,1K*%
X124480000Y-68000000D03*
X125500000Y-68000000D03*
%TD*%
D11*
%TO.C,REF\u002A\u002A*%
X82000000Y-62500000D03*
D12*
X87400000Y-62500000D03*
%TD*%
D11*
%TO.C,REF\u002A\u002A*%
X41990000Y-110500000D03*
D12*
X47390000Y-110500000D03*
%TD*%
D10*
%TO.C,1K*%
X36490000Y-108000000D03*
X37510000Y-108000000D03*
%TD*%
D11*
%TO.C,REF\u002A\u002A*%
X154000000Y-102500000D03*
D12*
X159400000Y-102500000D03*
%TD*%
D13*
%TO.C,MMBTA42*%
X69640000Y-61562500D03*
X67740000Y-61562500D03*
X68690000Y-63437500D03*
%TD*%
D14*
%TO.C,50K*%
X31010000Y-152000000D03*
X29990000Y-152000000D03*
%TD*%
%TO.C,50K*%
X103010000Y-72000000D03*
X101990000Y-72000000D03*
%TD*%
%TO.C,50K*%
X167010000Y-136000000D03*
X165990000Y-136000000D03*
%TD*%
%TO.C,50K*%
X23010000Y-32000000D03*
X21990000Y-32000000D03*
%TD*%
%TO.C,50K*%
X127000000Y-104000000D03*
X125980000Y-104000000D03*
%TD*%
D11*
%TO.C,REF\u002A\u002A*%
X154000000Y-70500000D03*
D12*
X159400000Y-70500000D03*
%TD*%
D11*
%TO.C,REF\u002A\u002A*%
X169990000Y-78500000D03*
D12*
X175390000Y-78500000D03*
%TD*%
D14*
%TO.C,50K*%
X63000000Y-152000000D03*
X61980000Y-152000000D03*
%TD*%
D10*
%TO.C,1K*%
X228490000Y-52000000D03*
X229510000Y-52000000D03*
%TD*%
D14*
%TO.C,50K*%
X151010000Y-152000000D03*
X149990000Y-152000000D03*
%TD*%
%TO.C,50K*%
X39010000Y-96000000D03*
X37990000Y-96000000D03*
%TD*%
D15*
%TO.C,RegisterLane*%
X109500000Y-138000000D03*
X110500000Y-138000000D03*
X111500000Y-138000000D03*
X112500000Y-138000000D03*
X113500000Y-138000000D03*
X114500000Y-138000000D03*
X115500000Y-138000000D03*
X116500000Y-138000000D03*
%TD*%
D13*
%TO.C,MMBTA42*%
X261640000Y-69562500D03*
X259740000Y-69562500D03*
X260690000Y-71437500D03*
%TD*%
D14*
%TO.C,50K*%
X23010000Y-144000000D03*
X21990000Y-144000000D03*
%TD*%
%TO.C,50K*%
X79000000Y-80000000D03*
X77980000Y-80000000D03*
%TD*%
%TO.C,50K*%
X167010000Y-104000000D03*
X165990000Y-104000000D03*
%TD*%
D10*
%TO.C,1K*%
X268480000Y-84000000D03*
X269500000Y-84000000D03*
%TD*%
D11*
%TO.C,REF\u002A\u002A*%
X65990000Y-30500000D03*
D12*
X71390000Y-30500000D03*
%TD*%
D14*
%TO.C,50K*%
X135000000Y-152000000D03*
X133980000Y-152000000D03*
%TD*%
D13*
%TO.C,MMBTA42*%
X253640000Y-29562500D03*
X251740000Y-29562500D03*
X252690000Y-31437500D03*
%TD*%
%TO.C,MMBTA42*%
X213650000Y-37562500D03*
X211750000Y-37562500D03*
X212700000Y-39437500D03*
%TD*%
D14*
%TO.C,50K*%
X135000000Y-80000000D03*
X133980000Y-80000000D03*
%TD*%
D13*
%TO.C,MMBTA42*%
X181640000Y-53562500D03*
X179740000Y-53562500D03*
X180690000Y-55437500D03*
%TD*%
D11*
%TO.C,REF\u002A\u002A*%
X241990000Y-102500000D03*
D12*
X247390000Y-102500000D03*
%TD*%
D14*
%TO.C,50K*%
X231010000Y-80000000D03*
X229990000Y-80000000D03*
%TD*%
D10*
%TO.C,1K*%
X116480000Y-84000000D03*
X117500000Y-84000000D03*
%TD*%
D14*
%TO.C,50K*%
X23010000Y-128000000D03*
X21990000Y-128000000D03*
%TD*%
D10*
%TO.C,1K*%
X196480000Y-140000000D03*
X197500000Y-140000000D03*
%TD*%
D11*
%TO.C,REF\u002A\u002A*%
X218000000Y-150500000D03*
D12*
X223400000Y-150500000D03*
%TD*%
D14*
%TO.C,50K*%
X247000000Y-72000000D03*
X245980000Y-72000000D03*
%TD*%
%TO.C,50K*%
X127000000Y-144000000D03*
X125980000Y-144000000D03*
%TD*%
D15*
%TO.C,RegisterLane*%
X109500000Y-130000000D03*
X110500000Y-130000000D03*
X111500000Y-130000000D03*
X112500000Y-130000000D03*
X113500000Y-130000000D03*
X114500000Y-130000000D03*
X115500000Y-130000000D03*
X116500000Y-130000000D03*
%TD*%
D10*
%TO.C,1K*%
X92490000Y-116000000D03*
X93510000Y-116000000D03*
%TD*%
D13*
%TO.C,MMBTA42*%
X61640000Y-101562500D03*
X59740000Y-101562500D03*
X60690000Y-103437500D03*
%TD*%
D11*
%TO.C,REF\u002A\u002A*%
X73990000Y-126500000D03*
D12*
X79390000Y-126500000D03*
%TD*%
D14*
%TO.C,50K*%
X111000000Y-144000000D03*
X109980000Y-144000000D03*
%TD*%
D13*
%TO.C,MMBTA42*%
X245640000Y-149562500D03*
X243740000Y-149562500D03*
X244690000Y-151437500D03*
%TD*%
D10*
%TO.C,1K*%
X228490000Y-60000000D03*
X229510000Y-60000000D03*
%TD*%
D11*
%TO.C,REF\u002A\u002A*%
X233990000Y-126500000D03*
D12*
X239390000Y-126500000D03*
%TD*%
D10*
%TO.C,1K*%
X68480000Y-148000000D03*
X69500000Y-148000000D03*
%TD*%
D11*
%TO.C,REF\u002A\u002A*%
X41990000Y-142500000D03*
D12*
X47390000Y-142500000D03*
%TD*%
D10*
%TO.C,1K*%
X244480000Y-148000000D03*
X245500000Y-148000000D03*
%TD*%
D11*
%TO.C,REF\u002A\u002A*%
X265990000Y-142500000D03*
D12*
X271390000Y-142500000D03*
%TD*%
D15*
%TO.C,RegisterLane*%
X109500000Y-154000000D03*
X110500000Y-154000000D03*
X111500000Y-154000000D03*
X112500000Y-154000000D03*
X113500000Y-154000000D03*
X114500000Y-154000000D03*
X115500000Y-154000000D03*
X116500000Y-154000000D03*
%TD*%
D10*
%TO.C,1K*%
X188480000Y-84000000D03*
X189500000Y-84000000D03*
%TD*%
D11*
%TO.C,REF\u002A\u002A*%
X57990000Y-142500000D03*
D12*
X63390000Y-142500000D03*
%TD*%
D10*
%TO.C,1K*%
X20490000Y-116000000D03*
X21510000Y-116000000D03*
%TD*%
D11*
%TO.C,REF\u002A\u002A*%
X233990000Y-62500000D03*
D12*
X239390000Y-62500000D03*
%TD*%
D11*
%TO.C,REF\u002A\u002A*%
X249990000Y-118500000D03*
D12*
X255390000Y-118500000D03*
%TD*%
D11*
%TO.C,REF\u002A\u002A*%
X41990000Y-94500000D03*
D12*
X47390000Y-94500000D03*
%TD*%
D14*
%TO.C,50K*%
X63000000Y-96000000D03*
X61980000Y-96000000D03*
%TD*%
D13*
%TO.C,MMBTA42*%
X69640000Y-93562500D03*
X67740000Y-93562500D03*
X68690000Y-95437500D03*
%TD*%
D10*
%TO.C,1K*%
X76480000Y-140000000D03*
X77500000Y-140000000D03*
%TD*%
D13*
%TO.C,MMBTA42*%
X229650000Y-53562500D03*
X227750000Y-53562500D03*
X228700000Y-55437500D03*
%TD*%
D10*
%TO.C,1K*%
X196480000Y-68000000D03*
X197500000Y-68000000D03*
%TD*%
D13*
%TO.C,MMBTA42*%
X61640000Y-133562500D03*
X59740000Y-133562500D03*
X60690000Y-135437500D03*
%TD*%
%TO.C,MMBTA42*%
X141640000Y-69562500D03*
X139740000Y-69562500D03*
X140690000Y-71437500D03*
%TD*%
%TO.C,MMBTA42*%
X53640000Y-53562500D03*
X51740000Y-53562500D03*
X52690000Y-55437500D03*
%TD*%
D14*
%TO.C,50K*%
X79000000Y-48000000D03*
X77980000Y-48000000D03*
%TD*%
D15*
%TO.C,RegisterLane*%
X237500000Y-66000000D03*
X238500000Y-66000000D03*
X239500000Y-66000000D03*
X240500000Y-66000000D03*
X241500000Y-66000000D03*
X242500000Y-66000000D03*
X243500000Y-66000000D03*
X244500000Y-66000000D03*
%TD*%
D10*
%TO.C,1K*%
X28490000Y-148000000D03*
X29510000Y-148000000D03*
%TD*%
%TO.C,1K*%
X60480000Y-92000000D03*
X61500000Y-92000000D03*
%TD*%
D13*
%TO.C,MMBTA42*%
X269640000Y-117562500D03*
X267740000Y-117562500D03*
X268690000Y-119437500D03*
%TD*%
D14*
%TO.C,50K*%
X127000000Y-152000000D03*
X125980000Y-152000000D03*
%TD*%
D10*
%TO.C,1K*%
X156490000Y-140000000D03*
X157510000Y-140000000D03*
%TD*%
D13*
%TO.C,MMBTA42*%
X157650000Y-77562500D03*
X155750000Y-77562500D03*
X156700000Y-79437500D03*
%TD*%
D14*
%TO.C,50K*%
X143000000Y-40000000D03*
X141980000Y-40000000D03*
%TD*%
D13*
%TO.C,MMBTA42*%
X189640000Y-69562500D03*
X187740000Y-69562500D03*
X188690000Y-71437500D03*
%TD*%
D10*
%TO.C,1K*%
X236480000Y-132000000D03*
X237500000Y-132000000D03*
%TD*%
D11*
%TO.C,REF\u002A\u002A*%
X201990000Y-118500000D03*
D12*
X207390000Y-118500000D03*
%TD*%
D14*
%TO.C,50K*%
X95010000Y-88000000D03*
X93990000Y-88000000D03*
%TD*%
D13*
%TO.C,MMBTA42*%
X85650000Y-93562500D03*
X83750000Y-93562500D03*
X84700000Y-95437500D03*
%TD*%
D11*
%TO.C,REF\u002A\u002A*%
X210000000Y-54500000D03*
D12*
X215400000Y-54500000D03*
%TD*%
D11*
%TO.C,REF\u002A\u002A*%
X129990000Y-62500000D03*
D12*
X135390000Y-62500000D03*
%TD*%
D10*
%TO.C,1K*%
X268480000Y-28000000D03*
X269500000Y-28000000D03*
%TD*%
D11*
%TO.C,REF\u002A\u002A*%
X137990000Y-38500000D03*
D12*
X143390000Y-38500000D03*
%TD*%
D13*
%TO.C,MMBTA42*%
X53640000Y-77562500D03*
X51740000Y-77562500D03*
X52690000Y-79437500D03*
%TD*%
D11*
%TO.C,REF\u002A\u002A*%
X41990000Y-78500000D03*
D12*
X47390000Y-78500000D03*
%TD*%
D14*
%TO.C,50K*%
X215010000Y-104000000D03*
X213990000Y-104000000D03*
%TD*%
%TO.C,50K*%
X247000000Y-152000000D03*
X245980000Y-152000000D03*
%TD*%
D11*
%TO.C,REF\u002A\u002A*%
X154000000Y-142500000D03*
D12*
X159400000Y-142500000D03*
%TD*%
D11*
%TO.C,REF\u002A\u002A*%
X257990000Y-70500000D03*
D12*
X263390000Y-70500000D03*
%TD*%
D13*
%TO.C,MMBTA42*%
X245640000Y-133562500D03*
X243740000Y-133562500D03*
X244690000Y-135437500D03*
%TD*%
%TO.C,MMBTA42*%
X189640000Y-53562500D03*
X187740000Y-53562500D03*
X188690000Y-55437500D03*
%TD*%
%TO.C,MMBTA42*%
X253640000Y-77562500D03*
X251740000Y-77562500D03*
X252690000Y-79437500D03*
%TD*%
D14*
%TO.C,50K*%
X47000000Y-152000000D03*
X45980000Y-152000000D03*
%TD*%
D15*
%TO.C,RegisterLane*%
X237500000Y-74000000D03*
X238500000Y-74000000D03*
X239500000Y-74000000D03*
X240500000Y-74000000D03*
X241500000Y-74000000D03*
X242500000Y-74000000D03*
X243500000Y-74000000D03*
X244500000Y-74000000D03*
%TD*%
D11*
%TO.C,REF\u002A\u002A*%
X129990000Y-134500000D03*
D12*
X135390000Y-134500000D03*
%TD*%
D11*
%TO.C,REF\u002A\u002A*%
X121990000Y-86500000D03*
D12*
X127390000Y-86500000D03*
%TD*%
D13*
%TO.C,MMBTA42*%
X117640000Y-125562500D03*
X115740000Y-125562500D03*
X116690000Y-127437500D03*
%TD*%
D11*
%TO.C,REF\u002A\u002A*%
X129990000Y-46500000D03*
D12*
X135390000Y-46500000D03*
%TD*%
D13*
%TO.C,MMBTA42*%
X173640000Y-125562500D03*
X171740000Y-125562500D03*
X172690000Y-127437500D03*
%TD*%
D10*
%TO.C,1K*%
X44480000Y-140000000D03*
X45500000Y-140000000D03*
%TD*%
%TO.C,1K*%
X36490000Y-132000000D03*
X37510000Y-132000000D03*
%TD*%
D11*
%TO.C,REF\u002A\u002A*%
X49990000Y-150500000D03*
D12*
X55390000Y-150500000D03*
%TD*%
D11*
%TO.C,REF\u002A\u002A*%
X121990000Y-150500000D03*
D12*
X127390000Y-150500000D03*
%TD*%
D10*
%TO.C,1K*%
X244480000Y-28000000D03*
X245500000Y-28000000D03*
%TD*%
%TO.C,1K*%
X28490000Y-140000000D03*
X29510000Y-140000000D03*
%TD*%
D13*
%TO.C,MMBTA42*%
X221650000Y-61562500D03*
X219750000Y-61562500D03*
X220700000Y-63437500D03*
%TD*%
%TO.C,MMBTA42*%
X117640000Y-93562500D03*
X115740000Y-93562500D03*
X116690000Y-95437500D03*
%TD*%
D11*
%TO.C,REF\u002A\u002A*%
X65990000Y-62500000D03*
D12*
X71390000Y-62500000D03*
%TD*%
D10*
%TO.C,1K*%
X116480000Y-44000000D03*
X117500000Y-44000000D03*
%TD*%
D11*
%TO.C,REF\u002A\u002A*%
X49990000Y-62500000D03*
D12*
X55390000Y-62500000D03*
%TD*%
D10*
%TO.C,1K*%
X100490000Y-108000000D03*
X101510000Y-108000000D03*
%TD*%
D14*
%TO.C,50K*%
X47000000Y-128000000D03*
X45980000Y-128000000D03*
%TD*%
D11*
%TO.C,REF\u002A\u002A*%
X177990000Y-110500000D03*
D12*
X183390000Y-110500000D03*
%TD*%
D13*
%TO.C,MMBTA42*%
X141640000Y-117562500D03*
X139740000Y-117562500D03*
X140690000Y-119437500D03*
%TD*%
D11*
%TO.C,REF\u002A\u002A*%
X113990000Y-142500000D03*
D12*
X119390000Y-142500000D03*
%TD*%
D14*
%TO.C,50K*%
X175000000Y-96000000D03*
X173980000Y-96000000D03*
%TD*%
D11*
%TO.C,REF\u002A\u002A*%
X146000000Y-102500000D03*
D12*
X151400000Y-102500000D03*
%TD*%
D13*
%TO.C,MMBTA42*%
X29650000Y-101562500D03*
X27750000Y-101562500D03*
X28700000Y-103437500D03*
%TD*%
D11*
%TO.C,REF\u002A\u002A*%
X82000000Y-78500000D03*
D12*
X87400000Y-78500000D03*
%TD*%
D14*
%TO.C,50K*%
X103010000Y-88000000D03*
X101990000Y-88000000D03*
%TD*%
D11*
%TO.C,REF\u002A\u002A*%
X26000000Y-70500000D03*
D12*
X31400000Y-70500000D03*
%TD*%
D14*
%TO.C,50K*%
X103010000Y-64000000D03*
X101990000Y-64000000D03*
%TD*%
D15*
%TO.C,RegisterLane*%
X45500000Y-138000000D03*
X46500000Y-138000000D03*
X47500000Y-138000000D03*
X48500000Y-138000000D03*
X49500000Y-138000000D03*
X50500000Y-138000000D03*
X51500000Y-138000000D03*
X52500000Y-138000000D03*
%TD*%
D13*
%TO.C,MMBTA42*%
X157650000Y-69562500D03*
X155750000Y-69562500D03*
X156700000Y-71437500D03*
%TD*%
D14*
%TO.C,50K*%
X263000000Y-64000000D03*
X261980000Y-64000000D03*
%TD*%
%TO.C,50K*%
X207000000Y-136000000D03*
X205980000Y-136000000D03*
%TD*%
D13*
%TO.C,MMBTA42*%
X229650000Y-85562500D03*
X227750000Y-85562500D03*
X228700000Y-87437500D03*
%TD*%
D11*
%TO.C,REF\u002A\u002A*%
X57990000Y-30500000D03*
D12*
X63390000Y-30500000D03*
%TD*%
D11*
%TO.C,REF\u002A\u002A*%
X154000000Y-78500000D03*
D12*
X159400000Y-78500000D03*
%TD*%
D13*
%TO.C,MMBTA42*%
X165650000Y-29562500D03*
X163750000Y-29562500D03*
X164700000Y-31437500D03*
%TD*%
D11*
%TO.C,REF\u002A\u002A*%
X34000000Y-30500000D03*
D12*
X39400000Y-30500000D03*
%TD*%
D10*
%TO.C,1K*%
X172480000Y-44000000D03*
X173500000Y-44000000D03*
%TD*%
D15*
%TO.C,RegisterLane*%
X109500000Y-42000000D03*
X110500000Y-42000000D03*
X111500000Y-42000000D03*
X112500000Y-42000000D03*
X113500000Y-42000000D03*
X114500000Y-42000000D03*
X115500000Y-42000000D03*
X116500000Y-42000000D03*
%TD*%
D14*
%TO.C,50K*%
X63000000Y-144000000D03*
X61980000Y-144000000D03*
%TD*%
D11*
%TO.C,REF\u002A\u002A*%
X201990000Y-46500000D03*
D12*
X207390000Y-46500000D03*
%TD*%
D14*
%TO.C,50K*%
X263000000Y-112000000D03*
X261980000Y-112000000D03*
%TD*%
D11*
%TO.C,REF\u002A\u002A*%
X218000000Y-30500000D03*
D12*
X223400000Y-30500000D03*
%TD*%
D10*
%TO.C,1K*%
X172480000Y-108000000D03*
X173500000Y-108000000D03*
%TD*%
D11*
%TO.C,REF\u002A\u002A*%
X218000000Y-54500000D03*
D12*
X223400000Y-54500000D03*
%TD*%
D10*
%TO.C,1K*%
X268480000Y-36000000D03*
X269500000Y-36000000D03*
%TD*%
%TO.C,1K*%
X196480000Y-52000000D03*
X197500000Y-52000000D03*
%TD*%
%TO.C,1K*%
X252480000Y-68000000D03*
X253500000Y-68000000D03*
%TD*%
D13*
%TO.C,MMBTA42*%
X125640000Y-45562500D03*
X123740000Y-45562500D03*
X124690000Y-47437500D03*
%TD*%
D14*
%TO.C,50K*%
X47000000Y-120000000D03*
X45980000Y-120000000D03*
%TD*%
D11*
%TO.C,REF\u002A\u002A*%
X34000000Y-134500000D03*
D12*
X39400000Y-134500000D03*
%TD*%
D14*
%TO.C,50K*%
X39010000Y-152000000D03*
X37990000Y-152000000D03*
%TD*%
D13*
%TO.C,MMBTA42*%
X269640000Y-141562500D03*
X267740000Y-141562500D03*
X268690000Y-143437500D03*
%TD*%
D10*
%TO.C,1K*%
X36490000Y-116000000D03*
X37510000Y-116000000D03*
%TD*%
%TO.C,1K*%
X84490000Y-116000000D03*
X85510000Y-116000000D03*
%TD*%
D13*
%TO.C,MMBTA42*%
X205640000Y-77562500D03*
X203740000Y-77562500D03*
X204690000Y-79437500D03*
%TD*%
%TO.C,MMBTA42*%
X29650000Y-117562500D03*
X27750000Y-117562500D03*
X28700000Y-119437500D03*
%TD*%
D10*
%TO.C,1K*%
X260480000Y-100000000D03*
X261500000Y-100000000D03*
%TD*%
D14*
%TO.C,50K*%
X103010000Y-152000000D03*
X101990000Y-152000000D03*
%TD*%
D11*
%TO.C,REF\u002A\u002A*%
X129990000Y-102500000D03*
D12*
X135390000Y-102500000D03*
%TD*%
D10*
%TO.C,1K*%
X116480000Y-132000000D03*
X117500000Y-132000000D03*
%TD*%
D13*
%TO.C,MMBTA42*%
X269640000Y-149562500D03*
X267740000Y-149562500D03*
X268690000Y-151437500D03*
%TD*%
D10*
%TO.C,1K*%
X172480000Y-28000000D03*
X173500000Y-28000000D03*
%TD*%
D11*
%TO.C,REF\u002A\u002A*%
X201990000Y-94500000D03*
D12*
X207390000Y-94500000D03*
%TD*%
D13*
%TO.C,MMBTA42*%
X37650000Y-69562500D03*
X35750000Y-69562500D03*
X36700000Y-71437500D03*
%TD*%
D11*
%TO.C,REF\u002A\u002A*%
X218000000Y-86500000D03*
D12*
X223400000Y-86500000D03*
%TD*%
D14*
%TO.C,50K*%
X47000000Y-136000000D03*
X45980000Y-136000000D03*
%TD*%
D10*
%TO.C,1K*%
X236480000Y-28000000D03*
X237500000Y-28000000D03*
%TD*%
D11*
%TO.C,REF\u002A\u002A*%
X193990000Y-102500000D03*
D12*
X199390000Y-102500000D03*
%TD*%
D13*
%TO.C,MMBTA42*%
X245640000Y-53562500D03*
X243740000Y-53562500D03*
X244690000Y-55437500D03*
%TD*%
D10*
%TO.C,1K*%
X220490000Y-76000000D03*
X221510000Y-76000000D03*
%TD*%
D13*
%TO.C,MMBTA42*%
X61640000Y-37562500D03*
X59740000Y-37562500D03*
X60690000Y-39437500D03*
%TD*%
D14*
%TO.C,50K*%
X223010000Y-40000000D03*
X221990000Y-40000000D03*
%TD*%
D11*
%TO.C,REF\u002A\u002A*%
X41990000Y-134500000D03*
D12*
X47390000Y-134500000D03*
%TD*%
D10*
%TO.C,1K*%
X84490000Y-60000000D03*
X85510000Y-60000000D03*
%TD*%
D13*
%TO.C,MMBTA42*%
X29650000Y-109562500D03*
X27750000Y-109562500D03*
X28700000Y-111437500D03*
%TD*%
D11*
%TO.C,REF\u002A\u002A*%
X185990000Y-150500000D03*
D12*
X191390000Y-150500000D03*
%TD*%
D10*
%TO.C,1K*%
X212490000Y-108000000D03*
X213510000Y-108000000D03*
%TD*%
%TO.C,1K*%
X20490000Y-52000000D03*
X21510000Y-52000000D03*
%TD*%
D14*
%TO.C,50K*%
X159010000Y-64000000D03*
X157990000Y-64000000D03*
%TD*%
%TO.C,50K*%
X47000000Y-72000000D03*
X45980000Y-72000000D03*
%TD*%
D13*
%TO.C,MMBTA42*%
X197640000Y-45562500D03*
X195740000Y-45562500D03*
X196690000Y-47437500D03*
%TD*%
D14*
%TO.C,50K*%
X271000000Y-48000000D03*
X269980000Y-48000000D03*
%TD*%
D15*
%TO.C,RegisterLane*%
X109500000Y-74000000D03*
X110500000Y-74000000D03*
X111500000Y-74000000D03*
X112500000Y-74000000D03*
X113500000Y-74000000D03*
X114500000Y-74000000D03*
X115500000Y-74000000D03*
X116500000Y-74000000D03*
%TD*%
D10*
%TO.C,1K*%
X196480000Y-124000000D03*
X197500000Y-124000000D03*
%TD*%
%TO.C,1K*%
X60480000Y-60000000D03*
X61500000Y-60000000D03*
%TD*%
D13*
%TO.C,MMBTA42*%
X93650000Y-61562500D03*
X91750000Y-61562500D03*
X92700000Y-63437500D03*
%TD*%
D14*
%TO.C,50K*%
X191000000Y-88000000D03*
X189980000Y-88000000D03*
%TD*%
D10*
%TO.C,1K*%
X36490000Y-28000000D03*
X37510000Y-28000000D03*
%TD*%
%TO.C,1K*%
X116480000Y-76000000D03*
X117500000Y-76000000D03*
%TD*%
D13*
%TO.C,MMBTA42*%
X213650000Y-61562500D03*
X211750000Y-61562500D03*
X212700000Y-63437500D03*
%TD*%
D14*
%TO.C,50K*%
X207000000Y-64000000D03*
X205980000Y-64000000D03*
%TD*%
D11*
%TO.C,REF\u002A\u002A*%
X121990000Y-134500000D03*
D12*
X127390000Y-134500000D03*
%TD*%
D14*
%TO.C,50K*%
X271000000Y-128000000D03*
X269980000Y-128000000D03*
%TD*%
D11*
%TO.C,REF\u002A\u002A*%
X218000000Y-118500000D03*
D12*
X223400000Y-118500000D03*
%TD*%
D10*
%TO.C,1K*%
X68480000Y-68000000D03*
X69500000Y-68000000D03*
%TD*%
%TO.C,1K*%
X220490000Y-116000000D03*
X221510000Y-116000000D03*
%TD*%
D11*
%TO.C,REF\u002A\u002A*%
X201990000Y-150500000D03*
D12*
X207390000Y-150500000D03*
%TD*%
D14*
%TO.C,50K*%
X31010000Y-72000000D03*
X29990000Y-72000000D03*
%TD*%
D13*
%TO.C,MMBTA42*%
X189640000Y-61562500D03*
X187740000Y-61562500D03*
X188690000Y-63437500D03*
%TD*%
%TO.C,MMBTA42*%
X253640000Y-93562500D03*
X251740000Y-93562500D03*
X252690000Y-95437500D03*
%TD*%
D14*
%TO.C,50K*%
X247000000Y-112000000D03*
X245980000Y-112000000D03*
%TD*%
D10*
%TO.C,1K*%
X204480000Y-28000000D03*
X205500000Y-28000000D03*
%TD*%
D13*
%TO.C,MMBTA42*%
X45640000Y-133562500D03*
X43740000Y-133562500D03*
X44690000Y-135437500D03*
%TD*%
%TO.C,MMBTA42*%
X101650000Y-117562500D03*
X99750000Y-117562500D03*
X100700000Y-119437500D03*
%TD*%
D11*
%TO.C,REF\u002A\u002A*%
X34000000Y-54500000D03*
D12*
X39400000Y-54500000D03*
%TD*%
D10*
%TO.C,1K*%
X68480000Y-52000000D03*
X69500000Y-52000000D03*
%TD*%
D11*
%TO.C,REF\u002A\u002A*%
X201990000Y-142500000D03*
D12*
X207390000Y-142500000D03*
%TD*%
D10*
%TO.C,1K*%
X116480000Y-28000000D03*
X117500000Y-28000000D03*
%TD*%
%TO.C,1K*%
X68480000Y-36000000D03*
X69500000Y-36000000D03*
%TD*%
D14*
%TO.C,50K*%
X79000000Y-112000000D03*
X77980000Y-112000000D03*
%TD*%
%TO.C,50K*%
X255000000Y-72000000D03*
X253980000Y-72000000D03*
%TD*%
%TO.C,50K*%
X255000000Y-32000000D03*
X253980000Y-32000000D03*
%TD*%
D13*
%TO.C,MMBTA42*%
X53640000Y-29562500D03*
X51740000Y-29562500D03*
X52690000Y-31437500D03*
%TD*%
D10*
%TO.C,1K*%
X108480000Y-148000000D03*
X109500000Y-148000000D03*
%TD*%
D14*
%TO.C,50K*%
X231010000Y-88000000D03*
X229990000Y-88000000D03*
%TD*%
D10*
%TO.C,1K*%
X172480000Y-92000000D03*
X173500000Y-92000000D03*
%TD*%
D13*
%TO.C,MMBTA42*%
X77640000Y-77562500D03*
X75740000Y-77562500D03*
X76690000Y-79437500D03*
%TD*%
D10*
%TO.C,1K*%
X124480000Y-100000000D03*
X125500000Y-100000000D03*
%TD*%
D11*
%TO.C,REF\u002A\u002A*%
X249990000Y-30500000D03*
D12*
X255390000Y-30500000D03*
%TD*%
D14*
%TO.C,50K*%
X31010000Y-64000000D03*
X29990000Y-64000000D03*
%TD*%
D13*
%TO.C,MMBTA42*%
X197640000Y-69562500D03*
X195740000Y-69562500D03*
X196690000Y-71437500D03*
%TD*%
D11*
%TO.C,REF\u002A\u002A*%
X177990000Y-70500000D03*
D12*
X183390000Y-70500000D03*
%TD*%
D11*
%TO.C,REF\u002A\u002A*%
X18000000Y-110500000D03*
D12*
X23400000Y-110500000D03*
%TD*%
D14*
%TO.C,50K*%
X119000000Y-40000000D03*
X117980000Y-40000000D03*
%TD*%
D13*
%TO.C,MMBTA42*%
X101650000Y-37562500D03*
X99750000Y-37562500D03*
X100700000Y-39437500D03*
%TD*%
D15*
%TO.C,RegisterLane*%
X237500000Y-146000000D03*
X238500000Y-146000000D03*
X239500000Y-146000000D03*
X240500000Y-146000000D03*
X241500000Y-146000000D03*
X242500000Y-146000000D03*
X243500000Y-146000000D03*
X244500000Y-146000000D03*
%TD*%
D11*
%TO.C,REF\u002A\u002A*%
X65990000Y-142500000D03*
D12*
X71390000Y-142500000D03*
%TD*%
D11*
%TO.C,REF\u002A\u002A*%
X49990000Y-38500000D03*
D12*
X55390000Y-38500000D03*
%TD*%
D13*
%TO.C,MMBTA42*%
X181640000Y-61562500D03*
X179740000Y-61562500D03*
X180690000Y-63437500D03*
%TD*%
D11*
%TO.C,REF\u002A\u002A*%
X34000000Y-118500000D03*
D12*
X39400000Y-118500000D03*
%TD*%
D13*
%TO.C,MMBTA42*%
X21650000Y-141562500D03*
X19750000Y-141562500D03*
X20700000Y-143437500D03*
%TD*%
%TO.C,MMBTA42*%
X53640000Y-125562500D03*
X51740000Y-125562500D03*
X52690000Y-127437500D03*
%TD*%
D11*
%TO.C,REF\u002A\u002A*%
X121990000Y-70500000D03*
D12*
X127390000Y-70500000D03*
%TD*%
D10*
%TO.C,1K*%
X124480000Y-132000000D03*
X125500000Y-132000000D03*
%TD*%
D13*
%TO.C,MMBTA42*%
X205640000Y-29562500D03*
X203740000Y-29562500D03*
X204690000Y-31437500D03*
%TD*%
D14*
%TO.C,50K*%
X23010000Y-88000000D03*
X21990000Y-88000000D03*
%TD*%
D10*
%TO.C,1K*%
X92490000Y-148000000D03*
X93510000Y-148000000D03*
%TD*%
D13*
%TO.C,MMBTA42*%
X117640000Y-69562500D03*
X115740000Y-69562500D03*
X116690000Y-71437500D03*
%TD*%
%TO.C,MMBTA42*%
X213650000Y-29562500D03*
X211750000Y-29562500D03*
X212700000Y-31437500D03*
%TD*%
%TO.C,MMBTA42*%
X245640000Y-125562500D03*
X243740000Y-125562500D03*
X244690000Y-127437500D03*
%TD*%
D10*
%TO.C,1K*%
X44480000Y-108000000D03*
X45500000Y-108000000D03*
%TD*%
D13*
%TO.C,MMBTA42*%
X69640000Y-117562500D03*
X67740000Y-117562500D03*
X68690000Y-119437500D03*
%TD*%
D14*
%TO.C,50K*%
X31010000Y-96000000D03*
X29990000Y-96000000D03*
%TD*%
D15*
%TO.C,RegisterLane*%
X237500000Y-82000000D03*
X238500000Y-82000000D03*
X239500000Y-82000000D03*
X240500000Y-82000000D03*
X241500000Y-82000000D03*
X242500000Y-82000000D03*
X243500000Y-82000000D03*
X244500000Y-82000000D03*
%TD*%
D14*
%TO.C,50K*%
X127000000Y-96000000D03*
X125980000Y-96000000D03*
%TD*%
D10*
%TO.C,1K*%
X220490000Y-44000000D03*
X221510000Y-44000000D03*
%TD*%
D14*
%TO.C,50K*%
X39010000Y-128000000D03*
X37990000Y-128000000D03*
%TD*%
%TO.C,50K*%
X63000000Y-48000000D03*
X61980000Y-48000000D03*
%TD*%
D13*
%TO.C,MMBTA42*%
X37650000Y-77562500D03*
X35750000Y-77562500D03*
X36700000Y-79437500D03*
%TD*%
D11*
%TO.C,REF\u002A\u002A*%
X41990000Y-126500000D03*
D12*
X47390000Y-126500000D03*
%TD*%
D13*
%TO.C,MMBTA42*%
X133640000Y-93562500D03*
X131740000Y-93562500D03*
X132690000Y-95437500D03*
%TD*%
%TO.C,MMBTA42*%
X237640000Y-149562500D03*
X235740000Y-149562500D03*
X236690000Y-151437500D03*
%TD*%
D10*
%TO.C,1K*%
X172480000Y-76000000D03*
X173500000Y-76000000D03*
%TD*%
D11*
%TO.C,REF\u002A\u002A*%
X113990000Y-126500000D03*
D12*
X119390000Y-126500000D03*
%TD*%
D13*
%TO.C,MMBTA42*%
X173640000Y-53562500D03*
X171740000Y-53562500D03*
X172690000Y-55437500D03*
%TD*%
D10*
%TO.C,1K*%
X68480000Y-100000000D03*
X69500000Y-100000000D03*
%TD*%
%TO.C,1K*%
X76480000Y-132000000D03*
X77500000Y-132000000D03*
%TD*%
%TO.C,1K*%
X28490000Y-124000000D03*
X29510000Y-124000000D03*
%TD*%
D13*
%TO.C,MMBTA42*%
X85650000Y-141562500D03*
X83750000Y-141562500D03*
X84700000Y-143437500D03*
%TD*%
D14*
%TO.C,50K*%
X167010000Y-56000000D03*
X165990000Y-56000000D03*
%TD*%
D11*
%TO.C,REF\u002A\u002A*%
X129990000Y-142500000D03*
D12*
X135390000Y-142500000D03*
%TD*%
D11*
%TO.C,REF\u002A\u002A*%
X98000000Y-142500000D03*
D12*
X103400000Y-142500000D03*
%TD*%
D11*
%TO.C,REF\u002A\u002A*%
X177990000Y-150500000D03*
D12*
X183390000Y-150500000D03*
%TD*%
D13*
%TO.C,MMBTA42*%
X245640000Y-61562500D03*
X243740000Y-61562500D03*
X244690000Y-63437500D03*
%TD*%
D10*
%TO.C,1K*%
X140480000Y-84000000D03*
X141500000Y-84000000D03*
%TD*%
D11*
%TO.C,REF\u002A\u002A*%
X169990000Y-38500000D03*
D12*
X175390000Y-38500000D03*
%TD*%
D11*
%TO.C,REF\u002A\u002A*%
X121990000Y-118500000D03*
D12*
X127390000Y-118500000D03*
%TD*%
D15*
%TO.C,RegisterLane*%
X173500000Y-50000000D03*
X174500000Y-50000000D03*
X175500000Y-50000000D03*
X176500000Y-50000000D03*
X177500000Y-50000000D03*
X178500000Y-50000000D03*
X179500000Y-50000000D03*
X180500000Y-50000000D03*
%TD*%
D14*
%TO.C,50K*%
X263000000Y-72000000D03*
X261980000Y-72000000D03*
%TD*%
%TO.C,50K*%
X143000000Y-32000000D03*
X141980000Y-32000000D03*
%TD*%
D11*
%TO.C,REF\u002A\u002A*%
X218000000Y-62500000D03*
D12*
X223400000Y-62500000D03*
%TD*%
D11*
%TO.C,REF\u002A\u002A*%
X57990000Y-102500000D03*
D12*
X63390000Y-102500000D03*
%TD*%
D14*
%TO.C,50K*%
X143000000Y-112000000D03*
X141980000Y-112000000D03*
%TD*%
D11*
%TO.C,REF\u002A\u002A*%
X41990000Y-62500000D03*
D12*
X47390000Y-62500000D03*
%TD*%
D10*
%TO.C,1K*%
X108480000Y-132000000D03*
X109500000Y-132000000D03*
%TD*%
D13*
%TO.C,MMBTA42*%
X221650000Y-45562500D03*
X219750000Y-45562500D03*
X220700000Y-47437500D03*
%TD*%
D10*
%TO.C,1K*%
X180480000Y-108000000D03*
X181500000Y-108000000D03*
%TD*%
D14*
%TO.C,50K*%
X47000000Y-80000000D03*
X45980000Y-80000000D03*
%TD*%
D13*
%TO.C,MMBTA42*%
X53640000Y-109562500D03*
X51740000Y-109562500D03*
X52690000Y-111437500D03*
%TD*%
D14*
%TO.C,50K*%
X239000000Y-112000000D03*
X237980000Y-112000000D03*
%TD*%
D13*
%TO.C,MMBTA42*%
X205640000Y-133562500D03*
X203740000Y-133562500D03*
X204690000Y-135437500D03*
%TD*%
%TO.C,MMBTA42*%
X253640000Y-45562500D03*
X251740000Y-45562500D03*
X252690000Y-47437500D03*
%TD*%
D10*
%TO.C,1K*%
X268480000Y-68000000D03*
X269500000Y-68000000D03*
%TD*%
D11*
%TO.C,REF\u002A\u002A*%
X162000000Y-94500000D03*
D12*
X167400000Y-94500000D03*
%TD*%
D14*
%TO.C,50K*%
X231010000Y-48000000D03*
X229990000Y-48000000D03*
%TD*%
D13*
%TO.C,MMBTA42*%
X237640000Y-101562500D03*
X235740000Y-101562500D03*
X236690000Y-103437500D03*
%TD*%
D11*
%TO.C,REF\u002A\u002A*%
X57990000Y-54500000D03*
D12*
X63390000Y-54500000D03*
%TD*%
D14*
%TO.C,50K*%
X247000000Y-96000000D03*
X245980000Y-96000000D03*
%TD*%
D15*
%TO.C,RegisterLane*%
X173500000Y-90000000D03*
X174500000Y-90000000D03*
X175500000Y-90000000D03*
X176500000Y-90000000D03*
X177500000Y-90000000D03*
X178500000Y-90000000D03*
X179500000Y-90000000D03*
X180500000Y-90000000D03*
%TD*%
D13*
%TO.C,MMBTA42*%
X221650000Y-149562500D03*
X219750000Y-149562500D03*
X220700000Y-151437500D03*
%TD*%
D14*
%TO.C,50K*%
X23010000Y-136000000D03*
X21990000Y-136000000D03*
%TD*%
D11*
%TO.C,REF\u002A\u002A*%
X34000000Y-38500000D03*
D12*
X39400000Y-38500000D03*
%TD*%
D11*
%TO.C,REF\u002A\u002A*%
X210000000Y-134500000D03*
D12*
X215400000Y-134500000D03*
%TD*%
D13*
%TO.C,MMBTA42*%
X181640000Y-133562500D03*
X179740000Y-133562500D03*
X180690000Y-135437500D03*
%TD*%
D14*
%TO.C,50K*%
X63000000Y-136000000D03*
X61980000Y-136000000D03*
%TD*%
D13*
%TO.C,MMBTA42*%
X117640000Y-85562500D03*
X115740000Y-85562500D03*
X116690000Y-87437500D03*
%TD*%
%TO.C,MMBTA42*%
X45640000Y-61562500D03*
X43740000Y-61562500D03*
X44690000Y-63437500D03*
%TD*%
%TO.C,MMBTA42*%
X85650000Y-85562500D03*
X83750000Y-85562500D03*
X84700000Y-87437500D03*
%TD*%
D11*
%TO.C,REF\u002A\u002A*%
X154000000Y-54500000D03*
D12*
X159400000Y-54500000D03*
%TD*%
D14*
%TO.C,50K*%
X191000000Y-104000000D03*
X189980000Y-104000000D03*
%TD*%
D10*
%TO.C,1K*%
X228490000Y-36000000D03*
X229510000Y-36000000D03*
%TD*%
D14*
%TO.C,50K*%
X207000000Y-96000000D03*
X205980000Y-96000000D03*
%TD*%
%TO.C,50K*%
X207000000Y-128000000D03*
X205980000Y-128000000D03*
%TD*%
D11*
%TO.C,REF\u002A\u002A*%
X73990000Y-142500000D03*
D12*
X79390000Y-142500000D03*
%TD*%
D10*
%TO.C,1K*%
X108480000Y-52000000D03*
X109500000Y-52000000D03*
%TD*%
D11*
%TO.C,REF\u002A\u002A*%
X154000000Y-150500000D03*
D12*
X159400000Y-150500000D03*
%TD*%
D13*
%TO.C,MMBTA42*%
X85650000Y-77562500D03*
X83750000Y-77562500D03*
X84700000Y-79437500D03*
%TD*%
D10*
%TO.C,1K*%
X52480000Y-108000000D03*
X53500000Y-108000000D03*
%TD*%
D11*
%TO.C,REF\u002A\u002A*%
X49990000Y-118500000D03*
D12*
X55390000Y-118500000D03*
%TD*%
D11*
%TO.C,REF\u002A\u002A*%
X57990000Y-94500000D03*
D12*
X63390000Y-94500000D03*
%TD*%
D11*
%TO.C,REF\u002A\u002A*%
X210000000Y-94500000D03*
D12*
X215400000Y-94500000D03*
%TD*%
D10*
%TO.C,1K*%
X244480000Y-84000000D03*
X245500000Y-84000000D03*
%TD*%
D14*
%TO.C,50K*%
X23010000Y-96000000D03*
X21990000Y-96000000D03*
%TD*%
D11*
%TO.C,REF\u002A\u002A*%
X34000000Y-86500000D03*
D12*
X39400000Y-86500000D03*
%TD*%
D11*
%TO.C,REF\u002A\u002A*%
X185990000Y-110500000D03*
D12*
X191390000Y-110500000D03*
%TD*%
D14*
%TO.C,50K*%
X31010000Y-120000000D03*
X29990000Y-120000000D03*
%TD*%
D10*
%TO.C,1K*%
X180480000Y-28000000D03*
X181500000Y-28000000D03*
%TD*%
%TO.C,1K*%
X60480000Y-68000000D03*
X61500000Y-68000000D03*
%TD*%
%TO.C,1K*%
X172480000Y-84000000D03*
X173500000Y-84000000D03*
%TD*%
D11*
%TO.C,REF\u002A\u002A*%
X82000000Y-70500000D03*
D12*
X87400000Y-70500000D03*
%TD*%
D10*
%TO.C,1K*%
X52480000Y-52000000D03*
X53500000Y-52000000D03*
%TD*%
%TO.C,1K*%
X228490000Y-108000000D03*
X229510000Y-108000000D03*
%TD*%
D11*
%TO.C,REF\u002A\u002A*%
X26000000Y-110500000D03*
D12*
X31400000Y-110500000D03*
%TD*%
D14*
%TO.C,50K*%
X71000000Y-112000000D03*
X69980000Y-112000000D03*
%TD*%
D13*
%TO.C,MMBTA42*%
X61640000Y-117562500D03*
X59740000Y-117562500D03*
X60690000Y-119437500D03*
%TD*%
D11*
%TO.C,REF\u002A\u002A*%
X105990000Y-54500000D03*
D12*
X111390000Y-54500000D03*
%TD*%
D14*
%TO.C,50K*%
X151010000Y-96000000D03*
X149990000Y-96000000D03*
%TD*%
D11*
%TO.C,REF\u002A\u002A*%
X65990000Y-94500000D03*
D12*
X71390000Y-94500000D03*
%TD*%
D14*
%TO.C,50K*%
X151010000Y-48000000D03*
X149990000Y-48000000D03*
%TD*%
D13*
%TO.C,MMBTA42*%
X133640000Y-53562500D03*
X131740000Y-53562500D03*
X132690000Y-55437500D03*
%TD*%
D11*
%TO.C,REF\u002A\u002A*%
X146000000Y-30500000D03*
D12*
X151400000Y-30500000D03*
%TD*%
D14*
%TO.C,50K*%
X151010000Y-64000000D03*
X149990000Y-64000000D03*
%TD*%
%TO.C,50K*%
X247000000Y-120000000D03*
X245980000Y-120000000D03*
%TD*%
D11*
%TO.C,REF\u002A\u002A*%
X137990000Y-110500000D03*
D12*
X143390000Y-110500000D03*
%TD*%
D14*
%TO.C,50K*%
X199000000Y-88000000D03*
X197980000Y-88000000D03*
%TD*%
D13*
%TO.C,MMBTA42*%
X53640000Y-133562500D03*
X51740000Y-133562500D03*
X52690000Y-135437500D03*
%TD*%
D10*
%TO.C,1K*%
X148490000Y-124000000D03*
X149510000Y-124000000D03*
%TD*%
D13*
%TO.C,MMBTA42*%
X181640000Y-125562500D03*
X179740000Y-125562500D03*
X180690000Y-127437500D03*
%TD*%
%TO.C,MMBTA42*%
X165650000Y-93562500D03*
X163750000Y-93562500D03*
X164700000Y-95437500D03*
%TD*%
%TO.C,MMBTA42*%
X109640000Y-45562500D03*
X107740000Y-45562500D03*
X108690000Y-47437500D03*
%TD*%
D10*
%TO.C,1K*%
X172480000Y-132000000D03*
X173500000Y-132000000D03*
%TD*%
D14*
%TO.C,50K*%
X215010000Y-72000000D03*
X213990000Y-72000000D03*
%TD*%
D13*
%TO.C,MMBTA42*%
X109640000Y-133562500D03*
X107740000Y-133562500D03*
X108690000Y-135437500D03*
%TD*%
D15*
%TO.C,RegisterLane*%
X237500000Y-98000000D03*
X238500000Y-98000000D03*
X239500000Y-98000000D03*
X240500000Y-98000000D03*
X241500000Y-98000000D03*
X242500000Y-98000000D03*
X243500000Y-98000000D03*
X244500000Y-98000000D03*
%TD*%
D11*
%TO.C,REF\u002A\u002A*%
X210000000Y-78500000D03*
D12*
X215400000Y-78500000D03*
%TD*%
D10*
%TO.C,1K*%
X44480000Y-132000000D03*
X45500000Y-132000000D03*
%TD*%
%TO.C,1K*%
X268480000Y-44000000D03*
X269500000Y-44000000D03*
%TD*%
D13*
%TO.C,MMBTA42*%
X45640000Y-29562500D03*
X43740000Y-29562500D03*
X44690000Y-31437500D03*
%TD*%
D11*
%TO.C,REF\u002A\u002A*%
X113990000Y-62500000D03*
D12*
X119390000Y-62500000D03*
%TD*%
D15*
%TO.C,RegisterLane*%
X173500000Y-82000000D03*
X174500000Y-82000000D03*
X175500000Y-82000000D03*
X176500000Y-82000000D03*
X177500000Y-82000000D03*
X178500000Y-82000000D03*
X179500000Y-82000000D03*
X180500000Y-82000000D03*
%TD*%
D10*
%TO.C,1K*%
X116480000Y-52000000D03*
X117500000Y-52000000D03*
%TD*%
D11*
%TO.C,REF\u002A\u002A*%
X265990000Y-102500000D03*
D12*
X271390000Y-102500000D03*
%TD*%
D10*
%TO.C,1K*%
X212490000Y-132000000D03*
X213510000Y-132000000D03*
%TD*%
D14*
%TO.C,50K*%
X135000000Y-96000000D03*
X133980000Y-96000000D03*
%TD*%
%TO.C,50K*%
X95010000Y-40000000D03*
X93990000Y-40000000D03*
%TD*%
D13*
%TO.C,MMBTA42*%
X29650000Y-53562500D03*
X27750000Y-53562500D03*
X28700000Y-55437500D03*
%TD*%
D11*
%TO.C,REF\u002A\u002A*%
X226000000Y-118500000D03*
D12*
X231400000Y-118500000D03*
%TD*%
D11*
%TO.C,REF\u002A\u002A*%
X185990000Y-30500000D03*
D12*
X191390000Y-30500000D03*
%TD*%
D11*
%TO.C,REF\u002A\u002A*%
X41990000Y-46500000D03*
D12*
X47390000Y-46500000D03*
%TD*%
D14*
%TO.C,50K*%
X175000000Y-64000000D03*
X173980000Y-64000000D03*
%TD*%
%TO.C,50K*%
X215010000Y-152000000D03*
X213990000Y-152000000D03*
%TD*%
%TO.C,50K*%
X231010000Y-112000000D03*
X229990000Y-112000000D03*
%TD*%
D11*
%TO.C,REF\u002A\u002A*%
X26000000Y-54500000D03*
D12*
X31400000Y-54500000D03*
%TD*%
D11*
%TO.C,REF\u002A\u002A*%
X49990000Y-110500000D03*
D12*
X55390000Y-110500000D03*
%TD*%
D14*
%TO.C,50K*%
X55000000Y-56000000D03*
X53980000Y-56000000D03*
%TD*%
D10*
%TO.C,1K*%
X212490000Y-36000000D03*
X213510000Y-36000000D03*
%TD*%
%TO.C,1K*%
X132480000Y-116000000D03*
X133500000Y-116000000D03*
%TD*%
%TO.C,1K*%
X220490000Y-28000000D03*
X221510000Y-28000000D03*
%TD*%
D11*
%TO.C,REF\u002A\u002A*%
X18000000Y-134500000D03*
D12*
X23400000Y-134500000D03*
%TD*%
D14*
%TO.C,50K*%
X63000000Y-32000000D03*
X61980000Y-32000000D03*
%TD*%
D13*
%TO.C,MMBTA42*%
X61640000Y-125562500D03*
X59740000Y-125562500D03*
X60690000Y-127437500D03*
%TD*%
D14*
%TO.C,50K*%
X247000000Y-40000000D03*
X245980000Y-40000000D03*
%TD*%
D10*
%TO.C,1K*%
X124480000Y-44000000D03*
X125500000Y-44000000D03*
%TD*%
%TO.C,1K*%
X164490000Y-60000000D03*
X165510000Y-60000000D03*
%TD*%
%TO.C,1K*%
X236480000Y-92000000D03*
X237500000Y-92000000D03*
%TD*%
D11*
%TO.C,REF\u002A\u002A*%
X105990000Y-46500000D03*
D12*
X111390000Y-46500000D03*
%TD*%
D13*
%TO.C,MMBTA42*%
X53640000Y-85562500D03*
X51740000Y-85562500D03*
X52690000Y-87437500D03*
%TD*%
D14*
%TO.C,50K*%
X55000000Y-80000000D03*
X53980000Y-80000000D03*
%TD*%
D11*
%TO.C,REF\u002A\u002A*%
X265990000Y-134500000D03*
D12*
X271390000Y-134500000D03*
%TD*%
D10*
%TO.C,1K*%
X228490000Y-140000000D03*
X229510000Y-140000000D03*
%TD*%
D13*
%TO.C,MMBTA42*%
X109640000Y-109562500D03*
X107740000Y-109562500D03*
X108690000Y-111437500D03*
%TD*%
D11*
%TO.C,REF\u002A\u002A*%
X113990000Y-134500000D03*
D12*
X119390000Y-134500000D03*
%TD*%
D13*
%TO.C,MMBTA42*%
X213650000Y-53562500D03*
X211750000Y-53562500D03*
X212700000Y-55437500D03*
%TD*%
D14*
%TO.C,50K*%
X215010000Y-136000000D03*
X213990000Y-136000000D03*
%TD*%
%TO.C,50K*%
X151010000Y-32000000D03*
X149990000Y-32000000D03*
%TD*%
D10*
%TO.C,1K*%
X100490000Y-76000000D03*
X101510000Y-76000000D03*
%TD*%
%TO.C,1K*%
X244480000Y-92000000D03*
X245500000Y-92000000D03*
%TD*%
D11*
%TO.C,REF\u002A\u002A*%
X113990000Y-38500000D03*
D12*
X119390000Y-38500000D03*
%TD*%
D11*
%TO.C,REF\u002A\u002A*%
X90000000Y-86500000D03*
D12*
X95400000Y-86500000D03*
%TD*%
D14*
%TO.C,50K*%
X119000000Y-152000000D03*
X117980000Y-152000000D03*
%TD*%
D13*
%TO.C,MMBTA42*%
X37650000Y-29562500D03*
X35750000Y-29562500D03*
X36700000Y-31437500D03*
%TD*%
D10*
%TO.C,1K*%
X116480000Y-116000000D03*
X117500000Y-116000000D03*
%TD*%
%TO.C,1K*%
X148490000Y-148000000D03*
X149510000Y-148000000D03*
%TD*%
%TO.C,1K*%
X140480000Y-76000000D03*
X141500000Y-76000000D03*
%TD*%
D13*
%TO.C,MMBTA42*%
X109640000Y-93562500D03*
X107740000Y-93562500D03*
X108690000Y-95437500D03*
%TD*%
D11*
%TO.C,REF\u002A\u002A*%
X226000000Y-46500000D03*
D12*
X231400000Y-46500000D03*
%TD*%
D11*
%TO.C,REF\u002A\u002A*%
X185990000Y-126500000D03*
D12*
X191390000Y-126500000D03*
%TD*%
D10*
%TO.C,1K*%
X92490000Y-28000000D03*
X93510000Y-28000000D03*
%TD*%
D13*
%TO.C,MMBTA42*%
X37650000Y-109562500D03*
X35750000Y-109562500D03*
X36700000Y-111437500D03*
%TD*%
D14*
%TO.C,50K*%
X183000000Y-80000000D03*
X181980000Y-80000000D03*
%TD*%
%TO.C,50K*%
X247000000Y-32000000D03*
X245980000Y-32000000D03*
%TD*%
%TO.C,50K*%
X143000000Y-152000000D03*
X141980000Y-152000000D03*
%TD*%
D13*
%TO.C,MMBTA42*%
X29650000Y-125562500D03*
X27750000Y-125562500D03*
X28700000Y-127437500D03*
%TD*%
D10*
%TO.C,1K*%
X148490000Y-36000000D03*
X149510000Y-36000000D03*
%TD*%
%TO.C,1K*%
X180480000Y-116000000D03*
X181500000Y-116000000D03*
%TD*%
D13*
%TO.C,MMBTA42*%
X205640000Y-37562500D03*
X203740000Y-37562500D03*
X204690000Y-39437500D03*
%TD*%
D14*
%TO.C,50K*%
X71000000Y-128000000D03*
X69980000Y-128000000D03*
%TD*%
D10*
%TO.C,1K*%
X220490000Y-60000000D03*
X221510000Y-60000000D03*
%TD*%
D13*
%TO.C,MMBTA42*%
X85650000Y-53562500D03*
X83750000Y-53562500D03*
X84700000Y-55437500D03*
%TD*%
%TO.C,MMBTA42*%
X85650000Y-45562500D03*
X83750000Y-45562500D03*
X84700000Y-47437500D03*
%TD*%
D11*
%TO.C,REF\u002A\u002A*%
X34000000Y-70500000D03*
D12*
X39400000Y-70500000D03*
%TD*%
D10*
%TO.C,1K*%
X60480000Y-124000000D03*
X61500000Y-124000000D03*
%TD*%
%TO.C,1K*%
X108480000Y-92000000D03*
X109500000Y-92000000D03*
%TD*%
D11*
%TO.C,REF\u002A\u002A*%
X18000000Y-54500000D03*
D12*
X23400000Y-54500000D03*
%TD*%
D10*
%TO.C,1K*%
X220490000Y-92000000D03*
X221510000Y-92000000D03*
%TD*%
D13*
%TO.C,MMBTA42*%
X45640000Y-93562500D03*
X43740000Y-93562500D03*
X44690000Y-95437500D03*
%TD*%
D10*
%TO.C,1K*%
X204480000Y-116000000D03*
X205500000Y-116000000D03*
%TD*%
D14*
%TO.C,50K*%
X143000000Y-144000000D03*
X141980000Y-144000000D03*
%TD*%
%TO.C,50K*%
X239000000Y-64000000D03*
X237980000Y-64000000D03*
%TD*%
D10*
%TO.C,1K*%
X244480000Y-52000000D03*
X245500000Y-52000000D03*
%TD*%
D13*
%TO.C,MMBTA42*%
X85650000Y-149562500D03*
X83750000Y-149562500D03*
X84700000Y-151437500D03*
%TD*%
D14*
%TO.C,50K*%
X199000000Y-136000000D03*
X197980000Y-136000000D03*
%TD*%
D13*
%TO.C,MMBTA42*%
X93650000Y-77562500D03*
X91750000Y-77562500D03*
X92700000Y-79437500D03*
%TD*%
%TO.C,MMBTA42*%
X157650000Y-141562500D03*
X155750000Y-141562500D03*
X156700000Y-143437500D03*
%TD*%
D14*
%TO.C,50K*%
X103010000Y-136000000D03*
X101990000Y-136000000D03*
%TD*%
D10*
%TO.C,1K*%
X172480000Y-124000000D03*
X173500000Y-124000000D03*
%TD*%
D11*
%TO.C,REF\u002A\u002A*%
X98000000Y-110500000D03*
D12*
X103400000Y-110500000D03*
%TD*%
D11*
%TO.C,REF\u002A\u002A*%
X241990000Y-30500000D03*
D12*
X247390000Y-30500000D03*
%TD*%
D11*
%TO.C,REF\u002A\u002A*%
X98000000Y-86500000D03*
D12*
X103400000Y-86500000D03*
%TD*%
D14*
%TO.C,50K*%
X183000000Y-72000000D03*
X181980000Y-72000000D03*
%TD*%
D11*
%TO.C,REF\u002A\u002A*%
X26000000Y-118500000D03*
D12*
X31400000Y-118500000D03*
%TD*%
D11*
%TO.C,REF\u002A\u002A*%
X105990000Y-150500000D03*
D12*
X111390000Y-150500000D03*
%TD*%
D11*
%TO.C,REF\u002A\u002A*%
X257990000Y-38500000D03*
D12*
X263390000Y-38500000D03*
%TD*%
D10*
%TO.C,1K*%
X124480000Y-108000000D03*
X125500000Y-108000000D03*
%TD*%
D11*
%TO.C,REF\u002A\u002A*%
X177990000Y-142500000D03*
D12*
X183390000Y-142500000D03*
%TD*%
D10*
%TO.C,1K*%
X236480000Y-124000000D03*
X237500000Y-124000000D03*
%TD*%
D11*
%TO.C,REF\u002A\u002A*%
X57990000Y-110500000D03*
D12*
X63390000Y-110500000D03*
%TD*%
D13*
%TO.C,MMBTA42*%
X125640000Y-133562500D03*
X123740000Y-133562500D03*
X124690000Y-135437500D03*
%TD*%
D10*
%TO.C,1K*%
X20490000Y-68000000D03*
X21510000Y-68000000D03*
%TD*%
D15*
%TO.C,RegisterLane*%
X173500000Y-98000000D03*
X174500000Y-98000000D03*
X175500000Y-98000000D03*
X176500000Y-98000000D03*
X177500000Y-98000000D03*
X178500000Y-98000000D03*
X179500000Y-98000000D03*
X180500000Y-98000000D03*
%TD*%
D14*
%TO.C,50K*%
X103010000Y-32000000D03*
X101990000Y-32000000D03*
%TD*%
D10*
%TO.C,1K*%
X84490000Y-84000000D03*
X85510000Y-84000000D03*
%TD*%
%TO.C,1K*%
X60480000Y-84000000D03*
X61500000Y-84000000D03*
%TD*%
%TO.C,1K*%
X52480000Y-116000000D03*
X53500000Y-116000000D03*
%TD*%
D14*
%TO.C,50K*%
X63000000Y-72000000D03*
X61980000Y-72000000D03*
%TD*%
D13*
%TO.C,MMBTA42*%
X229650000Y-117562500D03*
X227750000Y-117562500D03*
X228700000Y-119437500D03*
%TD*%
D11*
%TO.C,REF\u002A\u002A*%
X65990000Y-110500000D03*
D12*
X71390000Y-110500000D03*
%TD*%
D10*
%TO.C,1K*%
X260480000Y-140000000D03*
X261500000Y-140000000D03*
%TD*%
D13*
%TO.C,MMBTA42*%
X205640000Y-85562500D03*
X203740000Y-85562500D03*
X204690000Y-87437500D03*
%TD*%
D10*
%TO.C,1K*%
X244480000Y-76000000D03*
X245500000Y-76000000D03*
%TD*%
D11*
%TO.C,REF\u002A\u002A*%
X146000000Y-78500000D03*
D12*
X151400000Y-78500000D03*
%TD*%
D10*
%TO.C,1K*%
X268480000Y-140000000D03*
X269500000Y-140000000D03*
%TD*%
%TO.C,1K*%
X28490000Y-92000000D03*
X29510000Y-92000000D03*
%TD*%
D13*
%TO.C,MMBTA42*%
X53640000Y-61562500D03*
X51740000Y-61562500D03*
X52690000Y-63437500D03*
%TD*%
D11*
%TO.C,REF\u002A\u002A*%
X210000000Y-126500000D03*
D12*
X215400000Y-126500000D03*
%TD*%
D10*
%TO.C,1K*%
X148490000Y-44000000D03*
X149510000Y-44000000D03*
%TD*%
D13*
%TO.C,MMBTA42*%
X181640000Y-77562500D03*
X179740000Y-77562500D03*
X180690000Y-79437500D03*
%TD*%
%TO.C,MMBTA42*%
X69640000Y-29562500D03*
X67740000Y-29562500D03*
X68690000Y-31437500D03*
%TD*%
D14*
%TO.C,50K*%
X31010000Y-104000000D03*
X29990000Y-104000000D03*
%TD*%
D13*
%TO.C,MMBTA42*%
X61640000Y-61562500D03*
X59740000Y-61562500D03*
X60690000Y-63437500D03*
%TD*%
D11*
%TO.C,REF\u002A\u002A*%
X82000000Y-102500000D03*
D12*
X87400000Y-102500000D03*
%TD*%
D11*
%TO.C,REF\u002A\u002A*%
X65990000Y-70500000D03*
D12*
X71390000Y-70500000D03*
%TD*%
D14*
%TO.C,50K*%
X239000000Y-152000000D03*
X237980000Y-152000000D03*
%TD*%
D11*
%TO.C,REF\u002A\u002A*%
X49990000Y-54500000D03*
D12*
X55390000Y-54500000D03*
%TD*%
D11*
%TO.C,REF\u002A\u002A*%
X218000000Y-110500000D03*
D12*
X223400000Y-110500000D03*
%TD*%
D11*
%TO.C,REF\u002A\u002A*%
X146000000Y-38500000D03*
D12*
X151400000Y-38500000D03*
%TD*%
D14*
%TO.C,50K*%
X119000000Y-72000000D03*
X117980000Y-72000000D03*
%TD*%
D13*
%TO.C,MMBTA42*%
X173640000Y-29562500D03*
X171740000Y-29562500D03*
X172690000Y-31437500D03*
%TD*%
D14*
%TO.C,50K*%
X175000000Y-136000000D03*
X173980000Y-136000000D03*
%TD*%
D15*
%TO.C,RegisterLane*%
X173500000Y-106000000D03*
X174500000Y-106000000D03*
X175500000Y-106000000D03*
X176500000Y-106000000D03*
X177500000Y-106000000D03*
X178500000Y-106000000D03*
X179500000Y-106000000D03*
X180500000Y-106000000D03*
%TD*%
D14*
%TO.C,50K*%
X231010000Y-120000000D03*
X229990000Y-120000000D03*
%TD*%
D15*
%TO.C,RegisterLane*%
X109500000Y-122000000D03*
X110500000Y-122000000D03*
X111500000Y-122000000D03*
X112500000Y-122000000D03*
X113500000Y-122000000D03*
X114500000Y-122000000D03*
X115500000Y-122000000D03*
X116500000Y-122000000D03*
%TD*%
D13*
%TO.C,MMBTA42*%
X173640000Y-149562500D03*
X171740000Y-149562500D03*
X172690000Y-151437500D03*
%TD*%
D14*
%TO.C,50K*%
X239000000Y-128000000D03*
X237980000Y-128000000D03*
%TD*%
D15*
%TO.C,RegisterLane*%
X109500000Y-82000000D03*
X110500000Y-82000000D03*
X111500000Y-82000000D03*
X112500000Y-82000000D03*
X113500000Y-82000000D03*
X114500000Y-82000000D03*
X115500000Y-82000000D03*
X116500000Y-82000000D03*
%TD*%
D13*
%TO.C,MMBTA42*%
X125640000Y-93562500D03*
X123740000Y-93562500D03*
X124690000Y-95437500D03*
%TD*%
D10*
%TO.C,1K*%
X196480000Y-28000000D03*
X197500000Y-28000000D03*
%TD*%
D14*
%TO.C,50K*%
X71000000Y-104000000D03*
X69980000Y-104000000D03*
%TD*%
D13*
%TO.C,MMBTA42*%
X109640000Y-125562500D03*
X107740000Y-125562500D03*
X108690000Y-127437500D03*
%TD*%
D10*
%TO.C,1K*%
X124480000Y-36000000D03*
X125500000Y-36000000D03*
%TD*%
D14*
%TO.C,50K*%
X151010000Y-56000000D03*
X149990000Y-56000000D03*
%TD*%
D13*
%TO.C,MMBTA42*%
X101650000Y-141562500D03*
X99750000Y-141562500D03*
X100700000Y-143437500D03*
%TD*%
D10*
%TO.C,1K*%
X156490000Y-68000000D03*
X157510000Y-68000000D03*
%TD*%
D11*
%TO.C,REF\u002A\u002A*%
X73990000Y-38500000D03*
D12*
X79390000Y-38500000D03*
%TD*%
D10*
%TO.C,1K*%
X236480000Y-116000000D03*
X237500000Y-116000000D03*
%TD*%
D14*
%TO.C,50K*%
X215010000Y-64000000D03*
X213990000Y-64000000D03*
%TD*%
D13*
%TO.C,MMBTA42*%
X157650000Y-117562500D03*
X155750000Y-117562500D03*
X156700000Y-119437500D03*
%TD*%
D14*
%TO.C,50K*%
X135000000Y-64000000D03*
X133980000Y-64000000D03*
%TD*%
D13*
%TO.C,MMBTA42*%
X53640000Y-101562500D03*
X51740000Y-101562500D03*
X52690000Y-103437500D03*
%TD*%
D14*
%TO.C,50K*%
X71000000Y-120000000D03*
X69980000Y-120000000D03*
%TD*%
D11*
%TO.C,REF\u002A\u002A*%
X257990000Y-46500000D03*
D12*
X263390000Y-46500000D03*
%TD*%
D10*
%TO.C,1K*%
X92490000Y-108000000D03*
X93510000Y-108000000D03*
%TD*%
D11*
%TO.C,REF\u002A\u002A*%
X154000000Y-94500000D03*
D12*
X159400000Y-94500000D03*
%TD*%
D11*
%TO.C,REF\u002A\u002A*%
X98000000Y-78500000D03*
D12*
X103400000Y-78500000D03*
%TD*%
D10*
%TO.C,1K*%
X260480000Y-116000000D03*
X261500000Y-116000000D03*
%TD*%
%TO.C,1K*%
X52480000Y-28000000D03*
X53500000Y-28000000D03*
%TD*%
D14*
%TO.C,50K*%
X79000000Y-64000000D03*
X77980000Y-64000000D03*
%TD*%
D13*
%TO.C,MMBTA42*%
X21650000Y-45562500D03*
X19750000Y-45562500D03*
X20700000Y-47437500D03*
%TD*%
D11*
%TO.C,REF\u002A\u002A*%
X18000000Y-38500000D03*
D12*
X23400000Y-38500000D03*
%TD*%
D14*
%TO.C,50K*%
X207000000Y-32000000D03*
X205980000Y-32000000D03*
%TD*%
D13*
%TO.C,MMBTA42*%
X173640000Y-45562500D03*
X171740000Y-45562500D03*
X172690000Y-47437500D03*
%TD*%
%TO.C,MMBTA42*%
X133640000Y-69562500D03*
X131740000Y-69562500D03*
X132690000Y-71437500D03*
%TD*%
%TO.C,MMBTA42*%
X77640000Y-45562500D03*
X75740000Y-45562500D03*
X76690000Y-47437500D03*
%TD*%
D14*
%TO.C,50K*%
X159010000Y-120000000D03*
X157990000Y-120000000D03*
%TD*%
D10*
%TO.C,1K*%
X196480000Y-76000000D03*
X197500000Y-76000000D03*
%TD*%
D13*
%TO.C,MMBTA42*%
X141640000Y-45562500D03*
X139740000Y-45562500D03*
X140690000Y-47437500D03*
%TD*%
%TO.C,MMBTA42*%
X189640000Y-117562500D03*
X187740000Y-117562500D03*
X188690000Y-119437500D03*
%TD*%
D11*
%TO.C,REF\u002A\u002A*%
X185990000Y-62500000D03*
D12*
X191390000Y-62500000D03*
%TD*%
D10*
%TO.C,1K*%
X116480000Y-140000000D03*
X117500000Y-140000000D03*
%TD*%
D13*
%TO.C,MMBTA42*%
X149650000Y-69562500D03*
X147750000Y-69562500D03*
X148700000Y-71437500D03*
%TD*%
D15*
%TO.C,RegisterLane*%
X45500000Y-42000000D03*
X46500000Y-42000000D03*
X47500000Y-42000000D03*
X48500000Y-42000000D03*
X49500000Y-42000000D03*
X50500000Y-42000000D03*
X51500000Y-42000000D03*
X52500000Y-42000000D03*
%TD*%
D11*
%TO.C,REF\u002A\u002A*%
X185990000Y-102500000D03*
D12*
X191390000Y-102500000D03*
%TD*%
D15*
%TO.C,RegisterLane*%
X173500000Y-58000000D03*
X174500000Y-58000000D03*
X175500000Y-58000000D03*
X176500000Y-58000000D03*
X177500000Y-58000000D03*
X178500000Y-58000000D03*
X179500000Y-58000000D03*
X180500000Y-58000000D03*
%TD*%
D14*
%TO.C,50K*%
X95010000Y-144000000D03*
X93990000Y-144000000D03*
%TD*%
D10*
%TO.C,1K*%
X108480000Y-108000000D03*
X109500000Y-108000000D03*
%TD*%
D13*
%TO.C,MMBTA42*%
X245640000Y-85562500D03*
X243740000Y-85562500D03*
X244690000Y-87437500D03*
%TD*%
D11*
%TO.C,REF\u002A\u002A*%
X169990000Y-118500000D03*
D12*
X175390000Y-118500000D03*
%TD*%
D14*
%TO.C,50K*%
X191000000Y-128000000D03*
X189980000Y-128000000D03*
%TD*%
D11*
%TO.C,REF\u002A\u002A*%
X34000000Y-46500000D03*
D12*
X39400000Y-46500000D03*
%TD*%
D11*
%TO.C,REF\u002A\u002A*%
X177990000Y-118500000D03*
D12*
X183390000Y-118500000D03*
%TD*%
D13*
%TO.C,MMBTA42*%
X229650000Y-45562500D03*
X227750000Y-45562500D03*
X228700000Y-47437500D03*
%TD*%
D15*
%TO.C,RegisterLane*%
X237500000Y-58000000D03*
X238500000Y-58000000D03*
X239500000Y-58000000D03*
X240500000Y-58000000D03*
X241500000Y-58000000D03*
X242500000Y-58000000D03*
X243500000Y-58000000D03*
X244500000Y-58000000D03*
%TD*%
D11*
%TO.C,REF\u002A\u002A*%
X185990000Y-142500000D03*
D12*
X191390000Y-142500000D03*
%TD*%
D13*
%TO.C,MMBTA42*%
X253640000Y-101562500D03*
X251740000Y-101562500D03*
X252690000Y-103437500D03*
%TD*%
D11*
%TO.C,REF\u002A\u002A*%
X226000000Y-134500000D03*
D12*
X231400000Y-134500000D03*
%TD*%
D11*
%TO.C,REF\u002A\u002A*%
X105990000Y-86500000D03*
D12*
X111390000Y-86500000D03*
%TD*%
D13*
%TO.C,MMBTA42*%
X85650000Y-109562500D03*
X83750000Y-109562500D03*
X84700000Y-111437500D03*
%TD*%
D14*
%TO.C,50K*%
X271000000Y-152000000D03*
X269980000Y-152000000D03*
%TD*%
D11*
%TO.C,REF\u002A\u002A*%
X18000000Y-78500000D03*
D12*
X23400000Y-78500000D03*
%TD*%
D11*
%TO.C,REF\u002A\u002A*%
X162000000Y-142500000D03*
D12*
X167400000Y-142500000D03*
%TD*%
D13*
%TO.C,MMBTA42*%
X269640000Y-85562500D03*
X267740000Y-85562500D03*
X268690000Y-87437500D03*
%TD*%
D11*
%TO.C,REF\u002A\u002A*%
X121990000Y-38500000D03*
D12*
X127390000Y-38500000D03*
%TD*%
D13*
%TO.C,MMBTA42*%
X197640000Y-141562500D03*
X195740000Y-141562500D03*
X196690000Y-143437500D03*
%TD*%
D11*
%TO.C,REF\u002A\u002A*%
X177990000Y-54500000D03*
D12*
X183390000Y-54500000D03*
%TD*%
D11*
%TO.C,REF\u002A\u002A*%
X257990000Y-142500000D03*
D12*
X263390000Y-142500000D03*
%TD*%
D14*
%TO.C,50K*%
X255000000Y-64000000D03*
X253980000Y-64000000D03*
%TD*%
D13*
%TO.C,MMBTA42*%
X181640000Y-109562500D03*
X179740000Y-109562500D03*
X180690000Y-111437500D03*
%TD*%
D10*
%TO.C,1K*%
X212490000Y-68000000D03*
X213510000Y-68000000D03*
%TD*%
%TO.C,1K*%
X164490000Y-76000000D03*
X165510000Y-76000000D03*
%TD*%
D13*
%TO.C,MMBTA42*%
X101650000Y-77562500D03*
X99750000Y-77562500D03*
X100700000Y-79437500D03*
%TD*%
D11*
%TO.C,REF\u002A\u002A*%
X129990000Y-110500000D03*
D12*
X135390000Y-110500000D03*
%TD*%
D13*
%TO.C,MMBTA42*%
X149650000Y-125562500D03*
X147750000Y-125562500D03*
X148700000Y-127437500D03*
%TD*%
D14*
%TO.C,50K*%
X255000000Y-136000000D03*
X253980000Y-136000000D03*
%TD*%
%TO.C,50K*%
X231010000Y-104000000D03*
X229990000Y-104000000D03*
%TD*%
D10*
%TO.C,1K*%
X228490000Y-68000000D03*
X229510000Y-68000000D03*
%TD*%
D14*
%TO.C,50K*%
X215010000Y-88000000D03*
X213990000Y-88000000D03*
%TD*%
%TO.C,50K*%
X159010000Y-112000000D03*
X157990000Y-112000000D03*
%TD*%
D10*
%TO.C,1K*%
X244480000Y-36000000D03*
X245500000Y-36000000D03*
%TD*%
D11*
%TO.C,REF\u002A\u002A*%
X162000000Y-102500000D03*
D12*
X167400000Y-102500000D03*
%TD*%
D11*
%TO.C,REF\u002A\u002A*%
X98000000Y-70500000D03*
D12*
X103400000Y-70500000D03*
%TD*%
D13*
%TO.C,MMBTA42*%
X173640000Y-109562500D03*
X171740000Y-109562500D03*
X172690000Y-111437500D03*
%TD*%
D14*
%TO.C,50K*%
X135000000Y-104000000D03*
X133980000Y-104000000D03*
%TD*%
%TO.C,50K*%
X191000000Y-32000000D03*
X189980000Y-32000000D03*
%TD*%
%TO.C,50K*%
X239000000Y-40000000D03*
X237980000Y-40000000D03*
%TD*%
D10*
%TO.C,1K*%
X260480000Y-36000000D03*
X261500000Y-36000000D03*
%TD*%
%TO.C,1K*%
X268480000Y-76000000D03*
X269500000Y-76000000D03*
%TD*%
D14*
%TO.C,50K*%
X207000000Y-144000000D03*
X205980000Y-144000000D03*
%TD*%
D11*
%TO.C,REF\u002A\u002A*%
X129990000Y-78500000D03*
D12*
X135390000Y-78500000D03*
%TD*%
D14*
%TO.C,50K*%
X255000000Y-104000000D03*
X253980000Y-104000000D03*
%TD*%
D10*
%TO.C,1K*%
X244480000Y-116000000D03*
X245500000Y-116000000D03*
%TD*%
D14*
%TO.C,50K*%
X143000000Y-56000000D03*
X141980000Y-56000000D03*
%TD*%
D10*
%TO.C,1K*%
X252480000Y-100000000D03*
X253500000Y-100000000D03*
%TD*%
D14*
%TO.C,50K*%
X191000000Y-56000000D03*
X189980000Y-56000000D03*
%TD*%
D10*
%TO.C,1K*%
X172480000Y-52000000D03*
X173500000Y-52000000D03*
%TD*%
D13*
%TO.C,MMBTA42*%
X93650000Y-101562500D03*
X91750000Y-101562500D03*
X92700000Y-103437500D03*
%TD*%
%TO.C,MMBTA42*%
X29650000Y-45562500D03*
X27750000Y-45562500D03*
X28700000Y-47437500D03*
%TD*%
%TO.C,MMBTA42*%
X77640000Y-69562500D03*
X75740000Y-69562500D03*
X76690000Y-71437500D03*
%TD*%
%TO.C,MMBTA42*%
X37650000Y-125562500D03*
X35750000Y-125562500D03*
X36700000Y-127437500D03*
%TD*%
%TO.C,MMBTA42*%
X189640000Y-109562500D03*
X187740000Y-109562500D03*
X188690000Y-111437500D03*
%TD*%
D10*
%TO.C,1K*%
X252480000Y-148000000D03*
X253500000Y-148000000D03*
%TD*%
%TO.C,1K*%
X204480000Y-36000000D03*
X205500000Y-36000000D03*
%TD*%
D14*
%TO.C,50K*%
X175000000Y-128000000D03*
X173980000Y-128000000D03*
%TD*%
D11*
%TO.C,REF\u002A\u002A*%
X49990000Y-46500000D03*
D12*
X55390000Y-46500000D03*
%TD*%
D14*
%TO.C,50K*%
X263000000Y-120000000D03*
X261980000Y-120000000D03*
%TD*%
D13*
%TO.C,MMBTA42*%
X253640000Y-133562500D03*
X251740000Y-133562500D03*
X252690000Y-135437500D03*
%TD*%
%TO.C,MMBTA42*%
X85650000Y-37562500D03*
X83750000Y-37562500D03*
X84700000Y-39437500D03*
%TD*%
D10*
%TO.C,1K*%
X140480000Y-36000000D03*
X141500000Y-36000000D03*
%TD*%
D13*
%TO.C,MMBTA42*%
X101650000Y-101562500D03*
X99750000Y-101562500D03*
X100700000Y-103437500D03*
%TD*%
D14*
%TO.C,50K*%
X175000000Y-88000000D03*
X173980000Y-88000000D03*
%TD*%
D13*
%TO.C,MMBTA42*%
X141640000Y-77562500D03*
X139740000Y-77562500D03*
X140690000Y-79437500D03*
%TD*%
%TO.C,MMBTA42*%
X213650000Y-85562500D03*
X211750000Y-85562500D03*
X212700000Y-87437500D03*
%TD*%
%TO.C,MMBTA42*%
X69640000Y-125562500D03*
X67740000Y-125562500D03*
X68690000Y-127437500D03*
%TD*%
D11*
%TO.C,REF\u002A\u002A*%
X257990000Y-134500000D03*
D12*
X263390000Y-134500000D03*
%TD*%
D11*
%TO.C,REF\u002A\u002A*%
X18000000Y-86500000D03*
D12*
X23400000Y-86500000D03*
%TD*%
D13*
%TO.C,MMBTA42*%
X253640000Y-69562500D03*
X251740000Y-69562500D03*
X252690000Y-71437500D03*
%TD*%
%TO.C,MMBTA42*%
X157650000Y-149562500D03*
X155750000Y-149562500D03*
X156700000Y-151437500D03*
%TD*%
D14*
%TO.C,50K*%
X55000000Y-112000000D03*
X53980000Y-112000000D03*
%TD*%
D11*
%TO.C,REF\u002A\u002A*%
X90000000Y-126500000D03*
D12*
X95400000Y-126500000D03*
%TD*%
D13*
%TO.C,MMBTA42*%
X237640000Y-53562500D03*
X235740000Y-53562500D03*
X236690000Y-55437500D03*
%TD*%
%TO.C,MMBTA42*%
X181640000Y-141562500D03*
X179740000Y-141562500D03*
X180690000Y-143437500D03*
%TD*%
D11*
%TO.C,REF\u002A\u002A*%
X113990000Y-102500000D03*
D12*
X119390000Y-102500000D03*
%TD*%
D10*
%TO.C,1K*%
X84490000Y-100000000D03*
X85510000Y-100000000D03*
%TD*%
D15*
%TO.C,RegisterLane*%
X45500000Y-50000000D03*
X46500000Y-50000000D03*
X47500000Y-50000000D03*
X48500000Y-50000000D03*
X49500000Y-50000000D03*
X50500000Y-50000000D03*
X51500000Y-50000000D03*
X52500000Y-50000000D03*
%TD*%
D13*
%TO.C,MMBTA42*%
X109640000Y-69562500D03*
X107740000Y-69562500D03*
X108690000Y-71437500D03*
%TD*%
%TO.C,MMBTA42*%
X245640000Y-117562500D03*
X243740000Y-117562500D03*
X244690000Y-119437500D03*
%TD*%
D10*
%TO.C,1K*%
X100490000Y-68000000D03*
X101510000Y-68000000D03*
%TD*%
D15*
%TO.C,RegisterLane*%
X109500000Y-58000000D03*
X110500000Y-58000000D03*
X111500000Y-58000000D03*
X112500000Y-58000000D03*
X113500000Y-58000000D03*
X114500000Y-58000000D03*
X115500000Y-58000000D03*
X116500000Y-58000000D03*
%TD*%
D13*
%TO.C,MMBTA42*%
X261640000Y-101562500D03*
X259740000Y-101562500D03*
X260690000Y-103437500D03*
%TD*%
D14*
%TO.C,50K*%
X223010000Y-48000000D03*
X221990000Y-48000000D03*
%TD*%
%TO.C,50K*%
X151010000Y-128000000D03*
X149990000Y-128000000D03*
%TD*%
D11*
%TO.C,REF\u002A\u002A*%
X169990000Y-30500000D03*
D12*
X175390000Y-30500000D03*
%TD*%
D14*
%TO.C,50K*%
X135000000Y-56000000D03*
X133980000Y-56000000D03*
%TD*%
D11*
%TO.C,REF\u002A\u002A*%
X249990000Y-62500000D03*
D12*
X255390000Y-62500000D03*
%TD*%
D13*
%TO.C,MMBTA42*%
X77640000Y-141562500D03*
X75740000Y-141562500D03*
X76690000Y-143437500D03*
%TD*%
D10*
%TO.C,1K*%
X212490000Y-84000000D03*
X213510000Y-84000000D03*
%TD*%
%TO.C,1K*%
X28490000Y-44000000D03*
X29510000Y-44000000D03*
%TD*%
D14*
%TO.C,50K*%
X31010000Y-48000000D03*
X29990000Y-48000000D03*
%TD*%
D10*
%TO.C,1K*%
X28490000Y-100000000D03*
X29510000Y-100000000D03*
%TD*%
D11*
%TO.C,REF\u002A\u002A*%
X65990000Y-118500000D03*
D12*
X71390000Y-118500000D03*
%TD*%
D13*
%TO.C,MMBTA42*%
X141640000Y-149562500D03*
X139740000Y-149562500D03*
X140690000Y-151437500D03*
%TD*%
D10*
%TO.C,1K*%
X244480000Y-132000000D03*
X245500000Y-132000000D03*
%TD*%
D14*
%TO.C,50K*%
X215010000Y-40000000D03*
X213990000Y-40000000D03*
%TD*%
D11*
%TO.C,REF\u002A\u002A*%
X57990000Y-38500000D03*
D12*
X63390000Y-38500000D03*
%TD*%
D14*
%TO.C,50K*%
X63000000Y-56000000D03*
X61980000Y-56000000D03*
%TD*%
D10*
%TO.C,1K*%
X52480000Y-100000000D03*
X53500000Y-100000000D03*
%TD*%
D11*
%TO.C,REF\u002A\u002A*%
X26000000Y-38500000D03*
D12*
X31400000Y-38500000D03*
%TD*%
D13*
%TO.C,MMBTA42*%
X77640000Y-53562500D03*
X75740000Y-53562500D03*
X76690000Y-55437500D03*
%TD*%
D11*
%TO.C,REF\u002A\u002A*%
X257990000Y-86500000D03*
D12*
X263390000Y-86500000D03*
%TD*%
D14*
%TO.C,50K*%
X159010000Y-56000000D03*
X157990000Y-56000000D03*
%TD*%
D13*
%TO.C,MMBTA42*%
X29650000Y-69562500D03*
X27750000Y-69562500D03*
X28700000Y-71437500D03*
%TD*%
D14*
%TO.C,50K*%
X63000000Y-112000000D03*
X61980000Y-112000000D03*
%TD*%
D13*
%TO.C,MMBTA42*%
X229650000Y-141562500D03*
X227750000Y-141562500D03*
X228700000Y-143437500D03*
%TD*%
D11*
%TO.C,REF\u002A\u002A*%
X218000000Y-78500000D03*
D12*
X223400000Y-78500000D03*
%TD*%
D14*
%TO.C,50K*%
X71000000Y-88000000D03*
X69980000Y-88000000D03*
%TD*%
D11*
%TO.C,REF\u002A\u002A*%
X201990000Y-102500000D03*
D12*
X207390000Y-102500000D03*
%TD*%
D14*
%TO.C,50K*%
X63000000Y-40000000D03*
X61980000Y-40000000D03*
%TD*%
%TO.C,50K*%
X47000000Y-48000000D03*
X45980000Y-48000000D03*
%TD*%
D10*
%TO.C,1K*%
X132480000Y-28000000D03*
X133500000Y-28000000D03*
%TD*%
D11*
%TO.C,REF\u002A\u002A*%
X82000000Y-46500000D03*
D12*
X87400000Y-46500000D03*
%TD*%
D10*
%TO.C,1K*%
X220490000Y-52000000D03*
X221510000Y-52000000D03*
%TD*%
%TO.C,1K*%
X52480000Y-124000000D03*
X53500000Y-124000000D03*
%TD*%
D11*
%TO.C,REF\u002A\u002A*%
X177990000Y-78500000D03*
D12*
X183390000Y-78500000D03*
%TD*%
D14*
%TO.C,50K*%
X143000000Y-72000000D03*
X141980000Y-72000000D03*
%TD*%
D11*
%TO.C,REF\u002A\u002A*%
X162000000Y-62500000D03*
D12*
X167400000Y-62500000D03*
%TD*%
D11*
%TO.C,REF\u002A\u002A*%
X105990000Y-126500000D03*
D12*
X111390000Y-126500000D03*
%TD*%
D11*
%TO.C,REF\u002A\u002A*%
X105990000Y-134500000D03*
D12*
X111390000Y-134500000D03*
%TD*%
D10*
%TO.C,1K*%
X92490000Y-52000000D03*
X93510000Y-52000000D03*
%TD*%
%TO.C,1K*%
X84490000Y-148000000D03*
X85510000Y-148000000D03*
%TD*%
D11*
%TO.C,REF\u002A\u002A*%
X98000000Y-38500000D03*
D12*
X103400000Y-38500000D03*
%TD*%
D11*
%TO.C,REF\u002A\u002A*%
X233990000Y-142500000D03*
D12*
X239390000Y-142500000D03*
%TD*%
D11*
%TO.C,REF\u002A\u002A*%
X169990000Y-86500000D03*
D12*
X175390000Y-86500000D03*
%TD*%
D13*
%TO.C,MMBTA42*%
X165650000Y-125562500D03*
X163750000Y-125562500D03*
X164700000Y-127437500D03*
%TD*%
%TO.C,MMBTA42*%
X197640000Y-61562500D03*
X195740000Y-61562500D03*
X196690000Y-63437500D03*
%TD*%
D10*
%TO.C,1K*%
X172480000Y-60000000D03*
X173500000Y-60000000D03*
%TD*%
%TO.C,1K*%
X148490000Y-84000000D03*
X149510000Y-84000000D03*
%TD*%
D13*
%TO.C,MMBTA42*%
X189640000Y-125562500D03*
X187740000Y-125562500D03*
X188690000Y-127437500D03*
%TD*%
D11*
%TO.C,REF\u002A\u002A*%
X241990000Y-94500000D03*
D12*
X247390000Y-94500000D03*
%TD*%
D10*
%TO.C,1K*%
X268480000Y-148000000D03*
X269500000Y-148000000D03*
%TD*%
%TO.C,1K*%
X228490000Y-28000000D03*
X229510000Y-28000000D03*
%TD*%
D11*
%TO.C,REF\u002A\u002A*%
X185990000Y-94500000D03*
D12*
X191390000Y-94500000D03*
%TD*%
D14*
%TO.C,50K*%
X47000000Y-64000000D03*
X45980000Y-64000000D03*
%TD*%
D13*
%TO.C,MMBTA42*%
X93650000Y-133562500D03*
X91750000Y-133562500D03*
X92700000Y-135437500D03*
%TD*%
D11*
%TO.C,REF\u002A\u002A*%
X90000000Y-142500000D03*
D12*
X95400000Y-142500000D03*
%TD*%
D15*
%TO.C,RegisterLane*%
X237500000Y-42000000D03*
X238500000Y-42000000D03*
X239500000Y-42000000D03*
X240500000Y-42000000D03*
X241500000Y-42000000D03*
X242500000Y-42000000D03*
X243500000Y-42000000D03*
X244500000Y-42000000D03*
%TD*%
D14*
%TO.C,50K*%
X79000000Y-72000000D03*
X77980000Y-72000000D03*
%TD*%
%TO.C,50K*%
X71000000Y-72000000D03*
X69980000Y-72000000D03*
%TD*%
D10*
%TO.C,1K*%
X20490000Y-124000000D03*
X21510000Y-124000000D03*
%TD*%
D11*
%TO.C,REF\u002A\u002A*%
X82000000Y-38500000D03*
D12*
X87400000Y-38500000D03*
%TD*%
D11*
%TO.C,REF\u002A\u002A*%
X57990000Y-78500000D03*
D12*
X63390000Y-78500000D03*
%TD*%
D10*
%TO.C,1K*%
X140480000Y-148000000D03*
X141500000Y-148000000D03*
%TD*%
%TO.C,1K*%
X124480000Y-28000000D03*
X125500000Y-28000000D03*
%TD*%
%TO.C,1K*%
X68480000Y-108000000D03*
X69500000Y-108000000D03*
%TD*%
%TO.C,1K*%
X236480000Y-100000000D03*
X237500000Y-100000000D03*
%TD*%
D11*
%TO.C,REF\u002A\u002A*%
X249990000Y-38500000D03*
D12*
X255390000Y-38500000D03*
%TD*%
D13*
%TO.C,MMBTA42*%
X157650000Y-101562500D03*
X155750000Y-101562500D03*
X156700000Y-103437500D03*
%TD*%
%TO.C,MMBTA42*%
X149650000Y-93562500D03*
X147750000Y-93562500D03*
X148700000Y-95437500D03*
%TD*%
%TO.C,MMBTA42*%
X45640000Y-125562500D03*
X43740000Y-125562500D03*
X44690000Y-127437500D03*
%TD*%
D10*
%TO.C,1K*%
X204480000Y-60000000D03*
X205500000Y-60000000D03*
%TD*%
D14*
%TO.C,50K*%
X151010000Y-120000000D03*
X149990000Y-120000000D03*
%TD*%
D11*
%TO.C,REF\u002A\u002A*%
X41990000Y-38500000D03*
D12*
X47390000Y-38500000D03*
%TD*%
D15*
%TO.C,RegisterLane*%
X45500000Y-34000000D03*
X46500000Y-34000000D03*
X47500000Y-34000000D03*
X48500000Y-34000000D03*
X49500000Y-34000000D03*
X50500000Y-34000000D03*
X51500000Y-34000000D03*
X52500000Y-34000000D03*
%TD*%
D11*
%TO.C,REF\u002A\u002A*%
X154000000Y-46500000D03*
D12*
X159400000Y-46500000D03*
%TD*%
D10*
%TO.C,1K*%
X140480000Y-140000000D03*
X141500000Y-140000000D03*
%TD*%
D13*
%TO.C,MMBTA42*%
X157650000Y-29562500D03*
X155750000Y-29562500D03*
X156700000Y-31437500D03*
%TD*%
%TO.C,MMBTA42*%
X37650000Y-133562500D03*
X35750000Y-133562500D03*
X36700000Y-135437500D03*
%TD*%
D10*
%TO.C,1K*%
X28490000Y-36000000D03*
X29510000Y-36000000D03*
%TD*%
D14*
%TO.C,50K*%
X247000000Y-88000000D03*
X245980000Y-88000000D03*
%TD*%
D13*
%TO.C,MMBTA42*%
X157650000Y-53562500D03*
X155750000Y-53562500D03*
X156700000Y-55437500D03*
%TD*%
D11*
%TO.C,REF\u002A\u002A*%
X249990000Y-142500000D03*
D12*
X255390000Y-142500000D03*
%TD*%
D14*
%TO.C,50K*%
X183000000Y-56000000D03*
X181980000Y-56000000D03*
%TD*%
D11*
%TO.C,REF\u002A\u002A*%
X265990000Y-30500000D03*
D12*
X271390000Y-30500000D03*
%TD*%
D10*
%TO.C,1K*%
X156490000Y-116000000D03*
X157510000Y-116000000D03*
%TD*%
D11*
%TO.C,REF\u002A\u002A*%
X129990000Y-54500000D03*
D12*
X135390000Y-54500000D03*
%TD*%
D13*
%TO.C,MMBTA42*%
X229650000Y-101562500D03*
X227750000Y-101562500D03*
X228700000Y-103437500D03*
%TD*%
D11*
%TO.C,REF\u002A\u002A*%
X137990000Y-118500000D03*
D12*
X143390000Y-118500000D03*
%TD*%
D10*
%TO.C,1K*%
X180480000Y-100000000D03*
X181500000Y-100000000D03*
%TD*%
D11*
%TO.C,REF\u002A\u002A*%
X41990000Y-70500000D03*
D12*
X47390000Y-70500000D03*
%TD*%
D11*
%TO.C,REF\u002A\u002A*%
X129990000Y-150500000D03*
D12*
X135390000Y-150500000D03*
%TD*%
D15*
%TO.C,RegisterLane*%
X45500000Y-130000000D03*
X46500000Y-130000000D03*
X47500000Y-130000000D03*
X48500000Y-130000000D03*
X49500000Y-130000000D03*
X50500000Y-130000000D03*
X51500000Y-130000000D03*
X52500000Y-130000000D03*
%TD*%
D10*
%TO.C,1K*%
X180480000Y-84000000D03*
X181500000Y-84000000D03*
%TD*%
D11*
%TO.C,REF\u002A\u002A*%
X65990000Y-38500000D03*
D12*
X71390000Y-38500000D03*
%TD*%
D11*
%TO.C,REF\u002A\u002A*%
X265990000Y-94500000D03*
D12*
X271390000Y-94500000D03*
%TD*%
D10*
%TO.C,1K*%
X132480000Y-100000000D03*
X133500000Y-100000000D03*
%TD*%
D11*
%TO.C,REF\u002A\u002A*%
X105990000Y-142500000D03*
D12*
X111390000Y-142500000D03*
%TD*%
D13*
%TO.C,MMBTA42*%
X165650000Y-77562500D03*
X163750000Y-77562500D03*
X164700000Y-79437500D03*
%TD*%
D10*
%TO.C,1K*%
X244480000Y-124000000D03*
X245500000Y-124000000D03*
%TD*%
%TO.C,1K*%
X260480000Y-76000000D03*
X261500000Y-76000000D03*
%TD*%
D11*
%TO.C,REF\u002A\u002A*%
X98000000Y-126500000D03*
D12*
X103400000Y-126500000D03*
%TD*%
D14*
%TO.C,50K*%
X55000000Y-48000000D03*
X53980000Y-48000000D03*
%TD*%
D13*
%TO.C,MMBTA42*%
X53640000Y-45562500D03*
X51740000Y-45562500D03*
X52690000Y-47437500D03*
%TD*%
D10*
%TO.C,1K*%
X84490000Y-36000000D03*
X85510000Y-36000000D03*
%TD*%
D11*
%TO.C,REF\u002A\u002A*%
X57990000Y-126500000D03*
D12*
X63390000Y-126500000D03*
%TD*%
D13*
%TO.C,MMBTA42*%
X181640000Y-149562500D03*
X179740000Y-149562500D03*
X180690000Y-151437500D03*
%TD*%
D14*
%TO.C,50K*%
X175000000Y-112000000D03*
X173980000Y-112000000D03*
%TD*%
D11*
%TO.C,REF\u002A\u002A*%
X193990000Y-94500000D03*
D12*
X199390000Y-94500000D03*
%TD*%
D11*
%TO.C,REF\u002A\u002A*%
X129990000Y-126500000D03*
D12*
X135390000Y-126500000D03*
%TD*%
D11*
%TO.C,REF\u002A\u002A*%
X73990000Y-94500000D03*
D12*
X79390000Y-94500000D03*
%TD*%
D15*
%TO.C,RegisterLane*%
X237500000Y-90000000D03*
X238500000Y-90000000D03*
X239500000Y-90000000D03*
X240500000Y-90000000D03*
X241500000Y-90000000D03*
X242500000Y-90000000D03*
X243500000Y-90000000D03*
X244500000Y-90000000D03*
%TD*%
D11*
%TO.C,REF\u002A\u002A*%
X169990000Y-46500000D03*
D12*
X175390000Y-46500000D03*
%TD*%
D11*
%TO.C,REF\u002A\u002A*%
X41990000Y-102500000D03*
D12*
X47390000Y-102500000D03*
%TD*%
D11*
%TO.C,REF\u002A\u002A*%
X137990000Y-150500000D03*
D12*
X143390000Y-150500000D03*
%TD*%
D13*
%TO.C,MMBTA42*%
X253640000Y-141562500D03*
X251740000Y-141562500D03*
X252690000Y-143437500D03*
%TD*%
D10*
%TO.C,1K*%
X180480000Y-124000000D03*
X181500000Y-124000000D03*
%TD*%
D14*
%TO.C,50K*%
X71000000Y-64000000D03*
X69980000Y-64000000D03*
%TD*%
D13*
%TO.C,MMBTA42*%
X125640000Y-77562500D03*
X123740000Y-77562500D03*
X124690000Y-79437500D03*
%TD*%
D14*
%TO.C,50K*%
X143000000Y-80000000D03*
X141980000Y-80000000D03*
%TD*%
%TO.C,50K*%
X183000000Y-144000000D03*
X181980000Y-144000000D03*
%TD*%
D13*
%TO.C,MMBTA42*%
X149650000Y-133562500D03*
X147750000Y-133562500D03*
X148700000Y-135437500D03*
%TD*%
D11*
%TO.C,REF\u002A\u002A*%
X233990000Y-118500000D03*
D12*
X239390000Y-118500000D03*
%TD*%
D13*
%TO.C,MMBTA42*%
X133640000Y-29562500D03*
X131740000Y-29562500D03*
X132690000Y-31437500D03*
%TD*%
D14*
%TO.C,50K*%
X175000000Y-32000000D03*
X173980000Y-32000000D03*
%TD*%
%TO.C,50K*%
X95010000Y-120000000D03*
X93990000Y-120000000D03*
%TD*%
D10*
%TO.C,1K*%
X252480000Y-60000000D03*
X253500000Y-60000000D03*
%TD*%
D14*
%TO.C,50K*%
X263000000Y-48000000D03*
X261980000Y-48000000D03*
%TD*%
D10*
%TO.C,1K*%
X164490000Y-36000000D03*
X165510000Y-36000000D03*
%TD*%
D14*
%TO.C,50K*%
X255000000Y-128000000D03*
X253980000Y-128000000D03*
%TD*%
%TO.C,50K*%
X159010000Y-104000000D03*
X157990000Y-104000000D03*
%TD*%
D13*
%TO.C,MMBTA42*%
X173640000Y-93562500D03*
X171740000Y-93562500D03*
X172690000Y-95437500D03*
%TD*%
D11*
%TO.C,REF\u002A\u002A*%
X82000000Y-126500000D03*
D12*
X87400000Y-126500000D03*
%TD*%
D10*
%TO.C,1K*%
X68480000Y-132000000D03*
X69500000Y-132000000D03*
%TD*%
D11*
%TO.C,REF\u002A\u002A*%
X185990000Y-46500000D03*
D12*
X191390000Y-46500000D03*
%TD*%
D10*
%TO.C,1K*%
X164490000Y-44000000D03*
X165510000Y-44000000D03*
%TD*%
D11*
%TO.C,REF\u002A\u002A*%
X26000000Y-94500000D03*
D12*
X31400000Y-94500000D03*
%TD*%
D13*
%TO.C,MMBTA42*%
X101650000Y-61562500D03*
X99750000Y-61562500D03*
X100700000Y-63437500D03*
%TD*%
D10*
%TO.C,1K*%
X100490000Y-116000000D03*
X101510000Y-116000000D03*
%TD*%
D13*
%TO.C,MMBTA42*%
X189640000Y-149562500D03*
X187740000Y-149562500D03*
X188690000Y-151437500D03*
%TD*%
D10*
%TO.C,1K*%
X108480000Y-116000000D03*
X109500000Y-116000000D03*
%TD*%
D11*
%TO.C,REF\u002A\u002A*%
X162000000Y-118500000D03*
D12*
X167400000Y-118500000D03*
%TD*%
D13*
%TO.C,MMBTA42*%
X205640000Y-45562500D03*
X203740000Y-45562500D03*
X204690000Y-47437500D03*
%TD*%
D11*
%TO.C,REF\u002A\u002A*%
X241990000Y-78500000D03*
D12*
X247390000Y-78500000D03*
%TD*%
D13*
%TO.C,MMBTA42*%
X53640000Y-141562500D03*
X51740000Y-141562500D03*
X52690000Y-143437500D03*
%TD*%
%TO.C,MMBTA42*%
X149650000Y-77562500D03*
X147750000Y-77562500D03*
X148700000Y-79437500D03*
%TD*%
D11*
%TO.C,REF\u002A\u002A*%
X137990000Y-102500000D03*
D12*
X143390000Y-102500000D03*
%TD*%
D13*
%TO.C,MMBTA42*%
X45640000Y-85562500D03*
X43740000Y-85562500D03*
X44690000Y-87437500D03*
%TD*%
D10*
%TO.C,1K*%
X252480000Y-108000000D03*
X253500000Y-108000000D03*
%TD*%
%TO.C,1K*%
X116480000Y-124000000D03*
X117500000Y-124000000D03*
%TD*%
D13*
%TO.C,MMBTA42*%
X269640000Y-133562500D03*
X267740000Y-133562500D03*
X268690000Y-135437500D03*
%TD*%
D14*
%TO.C,50K*%
X231010000Y-56000000D03*
X229990000Y-56000000D03*
%TD*%
D11*
%TO.C,REF\u002A\u002A*%
X105990000Y-70500000D03*
D12*
X111390000Y-70500000D03*
%TD*%
D10*
%TO.C,1K*%
X60480000Y-76000000D03*
X61500000Y-76000000D03*
%TD*%
D14*
%TO.C,50K*%
X191000000Y-64000000D03*
X189980000Y-64000000D03*
%TD*%
D11*
%TO.C,REF\u002A\u002A*%
X90000000Y-54500000D03*
D12*
X95400000Y-54500000D03*
%TD*%
D14*
%TO.C,50K*%
X143000000Y-136000000D03*
X141980000Y-136000000D03*
%TD*%
D13*
%TO.C,MMBTA42*%
X93650000Y-85562500D03*
X91750000Y-85562500D03*
X92700000Y-87437500D03*
%TD*%
D10*
%TO.C,1K*%
X68480000Y-116000000D03*
X69500000Y-116000000D03*
%TD*%
D13*
%TO.C,MMBTA42*%
X93650000Y-37562500D03*
X91750000Y-37562500D03*
X92700000Y-39437500D03*
%TD*%
D14*
%TO.C,50K*%
X47000000Y-104000000D03*
X45980000Y-104000000D03*
%TD*%
D10*
%TO.C,1K*%
X188480000Y-36000000D03*
X189500000Y-36000000D03*
%TD*%
D14*
%TO.C,50K*%
X95010000Y-48000000D03*
X93990000Y-48000000D03*
%TD*%
D11*
%TO.C,REF\u002A\u002A*%
X201990000Y-54500000D03*
D12*
X207390000Y-54500000D03*
%TD*%
D14*
%TO.C,50K*%
X135000000Y-88000000D03*
X133980000Y-88000000D03*
%TD*%
D10*
%TO.C,1K*%
X92490000Y-100000000D03*
X93510000Y-100000000D03*
%TD*%
%TO.C,1K*%
X196480000Y-116000000D03*
X197500000Y-116000000D03*
%TD*%
D11*
%TO.C,REF\u002A\u002A*%
X257990000Y-30500000D03*
D12*
X263390000Y-30500000D03*
%TD*%
D14*
%TO.C,50K*%
X199000000Y-56000000D03*
X197980000Y-56000000D03*
%TD*%
D10*
%TO.C,1K*%
X28490000Y-84000000D03*
X29510000Y-84000000D03*
%TD*%
%TO.C,1K*%
X76480000Y-84000000D03*
X77500000Y-84000000D03*
%TD*%
%TO.C,1K*%
X132480000Y-44000000D03*
X133500000Y-44000000D03*
%TD*%
D11*
%TO.C,REF\u002A\u002A*%
X146000000Y-134500000D03*
D12*
X151400000Y-134500000D03*
%TD*%
D10*
%TO.C,1K*%
X84490000Y-140000000D03*
X85510000Y-140000000D03*
%TD*%
D13*
%TO.C,MMBTA42*%
X197640000Y-149562500D03*
X195740000Y-149562500D03*
X196690000Y-151437500D03*
%TD*%
D11*
%TO.C,REF\u002A\u002A*%
X49990000Y-142500000D03*
D12*
X55390000Y-142500000D03*
%TD*%
D13*
%TO.C,MMBTA42*%
X21650000Y-85562500D03*
X19750000Y-85562500D03*
X20700000Y-87437500D03*
%TD*%
D10*
%TO.C,1K*%
X132480000Y-124000000D03*
X133500000Y-124000000D03*
%TD*%
D11*
%TO.C,REF\u002A\u002A*%
X177990000Y-126500000D03*
D12*
X183390000Y-126500000D03*
%TD*%
D11*
%TO.C,REF\u002A\u002A*%
X265990000Y-126500000D03*
D12*
X271390000Y-126500000D03*
%TD*%
D10*
%TO.C,1K*%
X108480000Y-76000000D03*
X109500000Y-76000000D03*
%TD*%
D14*
%TO.C,50K*%
X135000000Y-40000000D03*
X133980000Y-40000000D03*
%TD*%
D10*
%TO.C,1K*%
X140480000Y-28000000D03*
X141500000Y-28000000D03*
%TD*%
%TO.C,1K*%
X124480000Y-116000000D03*
X125500000Y-116000000D03*
%TD*%
D11*
%TO.C,REF\u002A\u002A*%
X241990000Y-46500000D03*
D12*
X247390000Y-46500000D03*
%TD*%
D13*
%TO.C,MMBTA42*%
X69640000Y-37562500D03*
X67740000Y-37562500D03*
X68690000Y-39437500D03*
%TD*%
D10*
%TO.C,1K*%
X36490000Y-60000000D03*
X37510000Y-60000000D03*
%TD*%
D14*
%TO.C,50K*%
X87010000Y-88000000D03*
X85990000Y-88000000D03*
%TD*%
D13*
%TO.C,MMBTA42*%
X213650000Y-149562500D03*
X211750000Y-149562500D03*
X212700000Y-151437500D03*
%TD*%
D10*
%TO.C,1K*%
X100490000Y-28000000D03*
X101510000Y-28000000D03*
%TD*%
D11*
%TO.C,REF\u002A\u002A*%
X257990000Y-118500000D03*
D12*
X263390000Y-118500000D03*
%TD*%
D10*
%TO.C,1K*%
X108480000Y-36000000D03*
X109500000Y-36000000D03*
%TD*%
D13*
%TO.C,MMBTA42*%
X149650000Y-109562500D03*
X147750000Y-109562500D03*
X148700000Y-111437500D03*
%TD*%
D11*
%TO.C,REF\u002A\u002A*%
X34000000Y-110500000D03*
D12*
X39400000Y-110500000D03*
%TD*%
D10*
%TO.C,1K*%
X44480000Y-36000000D03*
X45500000Y-36000000D03*
%TD*%
%TO.C,1K*%
X52480000Y-92000000D03*
X53500000Y-92000000D03*
%TD*%
%TO.C,1K*%
X260480000Y-60000000D03*
X261500000Y-60000000D03*
%TD*%
D14*
%TO.C,50K*%
X119000000Y-128000000D03*
X117980000Y-128000000D03*
%TD*%
%TO.C,50K*%
X247000000Y-104000000D03*
X245980000Y-104000000D03*
%TD*%
D10*
%TO.C,1K*%
X28490000Y-132000000D03*
X29510000Y-132000000D03*
%TD*%
%TO.C,1K*%
X196480000Y-100000000D03*
X197500000Y-100000000D03*
%TD*%
D11*
%TO.C,REF\u002A\u002A*%
X18000000Y-126500000D03*
D12*
X23400000Y-126500000D03*
%TD*%
D11*
%TO.C,REF\u002A\u002A*%
X49990000Y-134500000D03*
D12*
X55390000Y-134500000D03*
%TD*%
D13*
%TO.C,MMBTA42*%
X253640000Y-61562500D03*
X251740000Y-61562500D03*
X252690000Y-63437500D03*
%TD*%
%TO.C,MMBTA42*%
X125640000Y-125562500D03*
X123740000Y-125562500D03*
X124690000Y-127437500D03*
%TD*%
D14*
%TO.C,50K*%
X159010000Y-88000000D03*
X157990000Y-88000000D03*
%TD*%
D10*
%TO.C,1K*%
X164490000Y-116000000D03*
X165510000Y-116000000D03*
%TD*%
%TO.C,1K*%
X60480000Y-44000000D03*
X61500000Y-44000000D03*
%TD*%
D13*
%TO.C,MMBTA42*%
X165650000Y-133562500D03*
X163750000Y-133562500D03*
X164700000Y-135437500D03*
%TD*%
D10*
%TO.C,1K*%
X44480000Y-148000000D03*
X45500000Y-148000000D03*
%TD*%
D14*
%TO.C,50K*%
X79000000Y-136000000D03*
X77980000Y-136000000D03*
%TD*%
D10*
%TO.C,1K*%
X76480000Y-148000000D03*
X77500000Y-148000000D03*
%TD*%
D11*
%TO.C,REF\u002A\u002A*%
X210000000Y-30500000D03*
D12*
X215400000Y-30500000D03*
%TD*%
D13*
%TO.C,MMBTA42*%
X229650000Y-69562500D03*
X227750000Y-69562500D03*
X228700000Y-71437500D03*
%TD*%
D11*
%TO.C,REF\u002A\u002A*%
X193990000Y-38500000D03*
D12*
X199390000Y-38500000D03*
%TD*%
D14*
%TO.C,50K*%
X23010000Y-64000000D03*
X21990000Y-64000000D03*
%TD*%
D11*
%TO.C,REF\u002A\u002A*%
X226000000Y-142500000D03*
D12*
X231400000Y-142500000D03*
%TD*%
D13*
%TO.C,MMBTA42*%
X165650000Y-37562500D03*
X163750000Y-37562500D03*
X164700000Y-39437500D03*
%TD*%
%TO.C,MMBTA42*%
X45640000Y-69562500D03*
X43740000Y-69562500D03*
X44690000Y-71437500D03*
%TD*%
D11*
%TO.C,REF\u002A\u002A*%
X98000000Y-46500000D03*
D12*
X103400000Y-46500000D03*
%TD*%
D13*
%TO.C,MMBTA42*%
X133640000Y-37562500D03*
X131740000Y-37562500D03*
X132690000Y-39437500D03*
%TD*%
D11*
%TO.C,REF\u002A\u002A*%
X177990000Y-86500000D03*
D12*
X183390000Y-86500000D03*
%TD*%
D10*
%TO.C,1K*%
X220490000Y-148000000D03*
X221510000Y-148000000D03*
%TD*%
D14*
%TO.C,50K*%
X95010000Y-152000000D03*
X93990000Y-152000000D03*
%TD*%
D13*
%TO.C,MMBTA42*%
X37650000Y-37562500D03*
X35750000Y-37562500D03*
X36700000Y-39437500D03*
%TD*%
D11*
%TO.C,REF\u002A\u002A*%
X57990000Y-118500000D03*
D12*
X63390000Y-118500000D03*
%TD*%
D13*
%TO.C,MMBTA42*%
X85650000Y-101562500D03*
X83750000Y-101562500D03*
X84700000Y-103437500D03*
%TD*%
D14*
%TO.C,50K*%
X223010000Y-136000000D03*
X221990000Y-136000000D03*
%TD*%
%TO.C,50K*%
X79000000Y-104000000D03*
X77980000Y-104000000D03*
%TD*%
D11*
%TO.C,REF\u002A\u002A*%
X265990000Y-118500000D03*
D12*
X271390000Y-118500000D03*
%TD*%
D10*
%TO.C,1K*%
X100490000Y-44000000D03*
X101510000Y-44000000D03*
%TD*%
D11*
%TO.C,REF\u002A\u002A*%
X57990000Y-46500000D03*
D12*
X63390000Y-46500000D03*
%TD*%
D13*
%TO.C,MMBTA42*%
X61640000Y-149562500D03*
X59740000Y-149562500D03*
X60690000Y-151437500D03*
%TD*%
D11*
%TO.C,REF\u002A\u002A*%
X18000000Y-62500000D03*
D12*
X23400000Y-62500000D03*
%TD*%
D10*
%TO.C,1K*%
X116480000Y-36000000D03*
X117500000Y-36000000D03*
%TD*%
D14*
%TO.C,50K*%
X119000000Y-120000000D03*
X117980000Y-120000000D03*
%TD*%
D16*
%TO.C,REF\u002A\u002A*%
X17000000Y-26500000D03*
%TD*%
D14*
%TO.C,50K*%
X71000000Y-144000000D03*
X69980000Y-144000000D03*
%TD*%
D10*
%TO.C,1K*%
X52480000Y-84000000D03*
X53500000Y-84000000D03*
%TD*%
D13*
%TO.C,MMBTA42*%
X157650000Y-61562500D03*
X155750000Y-61562500D03*
X156700000Y-63437500D03*
%TD*%
D14*
%TO.C,50K*%
X199000000Y-80000000D03*
X197980000Y-80000000D03*
%TD*%
D11*
%TO.C,REF\u002A\u002A*%
X218000000Y-70500000D03*
D12*
X223400000Y-70500000D03*
%TD*%
D11*
%TO.C,REF\u002A\u002A*%
X169990000Y-126500000D03*
D12*
X175390000Y-126500000D03*
%TD*%
D14*
%TO.C,50K*%
X231010000Y-96000000D03*
X229990000Y-96000000D03*
%TD*%
D13*
%TO.C,MMBTA42*%
X93650000Y-125562500D03*
X91750000Y-125562500D03*
X92700000Y-127437500D03*
%TD*%
%TO.C,MMBTA42*%
X21650000Y-77562500D03*
X19750000Y-77562500D03*
X20700000Y-79437500D03*
%TD*%
D14*
%TO.C,50K*%
X191000000Y-120000000D03*
X189980000Y-120000000D03*
%TD*%
%TO.C,50K*%
X39010000Y-120000000D03*
X37990000Y-120000000D03*
%TD*%
D13*
%TO.C,MMBTA42*%
X269640000Y-93562500D03*
X267740000Y-93562500D03*
X268690000Y-95437500D03*
%TD*%
D14*
%TO.C,50K*%
X111000000Y-88000000D03*
X109980000Y-88000000D03*
%TD*%
D11*
%TO.C,REF\u002A\u002A*%
X185990000Y-134500000D03*
D12*
X191390000Y-134500000D03*
%TD*%
D13*
%TO.C,MMBTA42*%
X21650000Y-125562500D03*
X19750000Y-125562500D03*
X20700000Y-127437500D03*
%TD*%
D10*
%TO.C,1K*%
X180480000Y-68000000D03*
X181500000Y-68000000D03*
%TD*%
D13*
%TO.C,MMBTA42*%
X221650000Y-141562500D03*
X219750000Y-141562500D03*
X220700000Y-143437500D03*
%TD*%
%TO.C,MMBTA42*%
X37650000Y-61562500D03*
X35750000Y-61562500D03*
X36700000Y-63437500D03*
%TD*%
D10*
%TO.C,1K*%
X20490000Y-140000000D03*
X21510000Y-140000000D03*
%TD*%
D11*
%TO.C,REF\u002A\u002A*%
X137990000Y-94500000D03*
D12*
X143390000Y-94500000D03*
%TD*%
D13*
%TO.C,MMBTA42*%
X69640000Y-101562500D03*
X67740000Y-101562500D03*
X68690000Y-103437500D03*
%TD*%
D14*
%TO.C,50K*%
X167010000Y-88000000D03*
X165990000Y-88000000D03*
%TD*%
D11*
%TO.C,REF\u002A\u002A*%
X226000000Y-150500000D03*
D12*
X231400000Y-150500000D03*
%TD*%
D14*
%TO.C,50K*%
X167010000Y-152000000D03*
X165990000Y-152000000D03*
%TD*%
D11*
%TO.C,REF\u002A\u002A*%
X169990000Y-70500000D03*
D12*
X175390000Y-70500000D03*
%TD*%
D14*
%TO.C,50K*%
X271000000Y-112000000D03*
X269980000Y-112000000D03*
%TD*%
%TO.C,50K*%
X31010000Y-40000000D03*
X29990000Y-40000000D03*
%TD*%
%TO.C,50K*%
X111000000Y-48000000D03*
X109980000Y-48000000D03*
%TD*%
D11*
%TO.C,REF\u002A\u002A*%
X90000000Y-38500000D03*
D12*
X95400000Y-38500000D03*
%TD*%
D11*
%TO.C,REF\u002A\u002A*%
X137990000Y-126500000D03*
D12*
X143390000Y-126500000D03*
%TD*%
D13*
%TO.C,MMBTA42*%
X261640000Y-61562500D03*
X259740000Y-61562500D03*
X260690000Y-63437500D03*
%TD*%
%TO.C,MMBTA42*%
X133640000Y-77562500D03*
X131740000Y-77562500D03*
X132690000Y-79437500D03*
%TD*%
D11*
%TO.C,REF\u002A\u002A*%
X154000000Y-126500000D03*
D12*
X159400000Y-126500000D03*
%TD*%
D10*
%TO.C,1K*%
X44480000Y-100000000D03*
X45500000Y-100000000D03*
%TD*%
%TO.C,1K*%
X76480000Y-76000000D03*
X77500000Y-76000000D03*
%TD*%
D13*
%TO.C,MMBTA42*%
X45640000Y-45562500D03*
X43740000Y-45562500D03*
X44690000Y-47437500D03*
%TD*%
D10*
%TO.C,1K*%
X180480000Y-76000000D03*
X181500000Y-76000000D03*
%TD*%
%TO.C,1K*%
X60480000Y-100000000D03*
X61500000Y-100000000D03*
%TD*%
D11*
%TO.C,REF\u002A\u002A*%
X210000000Y-142500000D03*
D12*
X215400000Y-142500000D03*
%TD*%
D11*
%TO.C,REF\u002A\u002A*%
X210000000Y-118500000D03*
D12*
X215400000Y-118500000D03*
%TD*%
D11*
%TO.C,REF\u002A\u002A*%
X34000000Y-150500000D03*
D12*
X39400000Y-150500000D03*
%TD*%
D14*
%TO.C,50K*%
X231010000Y-40000000D03*
X229990000Y-40000000D03*
%TD*%
D10*
%TO.C,1K*%
X36490000Y-68000000D03*
X37510000Y-68000000D03*
%TD*%
%TO.C,1K*%
X116480000Y-60000000D03*
X117500000Y-60000000D03*
%TD*%
D11*
%TO.C,REF\u002A\u002A*%
X18000000Y-94500000D03*
D12*
X23400000Y-94500000D03*
%TD*%
D10*
%TO.C,1K*%
X156490000Y-92000000D03*
X157510000Y-92000000D03*
%TD*%
%TO.C,1K*%
X140480000Y-124000000D03*
X141500000Y-124000000D03*
%TD*%
%TO.C,1K*%
X212490000Y-92000000D03*
X213510000Y-92000000D03*
%TD*%
D14*
%TO.C,50K*%
X215010000Y-96000000D03*
X213990000Y-96000000D03*
%TD*%
D11*
%TO.C,REF\u002A\u002A*%
X226000000Y-30500000D03*
D12*
X231400000Y-30500000D03*
%TD*%
D14*
%TO.C,50K*%
X247000000Y-56000000D03*
X245980000Y-56000000D03*
%TD*%
D11*
%TO.C,REF\u002A\u002A*%
X113990000Y-94500000D03*
D12*
X119390000Y-94500000D03*
%TD*%
D10*
%TO.C,1K*%
X236480000Y-36000000D03*
X237500000Y-36000000D03*
%TD*%
D14*
%TO.C,50K*%
X39010000Y-64000000D03*
X37990000Y-64000000D03*
%TD*%
%TO.C,50K*%
X207000000Y-120000000D03*
X205980000Y-120000000D03*
%TD*%
D10*
%TO.C,1K*%
X148490000Y-28000000D03*
X149510000Y-28000000D03*
%TD*%
D11*
%TO.C,REF\u002A\u002A*%
X98000000Y-54500000D03*
D12*
X103400000Y-54500000D03*
%TD*%
D14*
%TO.C,50K*%
X127000000Y-120000000D03*
X125980000Y-120000000D03*
%TD*%
D10*
%TO.C,1K*%
X212490000Y-140000000D03*
X213510000Y-140000000D03*
%TD*%
D13*
%TO.C,MMBTA42*%
X229650000Y-61562500D03*
X227750000Y-61562500D03*
X228700000Y-63437500D03*
%TD*%
D11*
%TO.C,REF\u002A\u002A*%
X162000000Y-46500000D03*
D12*
X167400000Y-46500000D03*
%TD*%
D11*
%TO.C,REF\u002A\u002A*%
X233990000Y-110500000D03*
D12*
X239390000Y-110500000D03*
%TD*%
D14*
%TO.C,50K*%
X191000000Y-144000000D03*
X189980000Y-144000000D03*
%TD*%
D11*
%TO.C,REF\u002A\u002A*%
X193990000Y-110500000D03*
D12*
X199390000Y-110500000D03*
%TD*%
D14*
%TO.C,50K*%
X47000000Y-56000000D03*
X45980000Y-56000000D03*
%TD*%
D13*
%TO.C,MMBTA42*%
X261640000Y-133562500D03*
X259740000Y-133562500D03*
X260690000Y-135437500D03*
%TD*%
M02*
